%FSLAX44Y44*%
%MOMM*%
G71*
G01*
G75*
G04 Layer_Physical_Order=2*
G04 Layer_Color=36540*
%ADD10R,0.5000X0.6000*%
%ADD11R,1.0668X0.8128*%
%ADD12R,0.6000X0.5000*%
%ADD13R,0.8000X1.6000*%
%ADD14O,2.0320X0.6096*%
%ADD15R,2.0320X0.6096*%
%ADD16O,2.0000X0.3500*%
%ADD17R,1.5000X0.4000*%
G04:AMPARAMS|DCode=18|XSize=0.22mm|YSize=0.8mm|CornerRadius=0mm|HoleSize=0mm|Usage=FLASHONLY|Rotation=90.000|XOffset=0mm|YOffset=0mm|HoleType=Round|Shape=RoundedRectangle|*
%AMROUNDEDRECTD18*
21,1,0.2200,0.8000,0,0,90.0*
21,1,0.2200,0.8000,0,0,90.0*
1,1,0.0000,0.4000,0.1100*
1,1,0.0000,0.4000,-0.1100*
1,1,0.0000,-0.4000,-0.1100*
1,1,0.0000,-0.4000,0.1100*
%
%ADD18ROUNDEDRECTD18*%
G04:AMPARAMS|DCode=19|XSize=0.22mm|YSize=0.8mm|CornerRadius=0mm|HoleSize=0mm|Usage=FLASHONLY|Rotation=0.000|XOffset=0mm|YOffset=0mm|HoleType=Round|Shape=RoundedRectangle|*
%AMROUNDEDRECTD19*
21,1,0.2200,0.8000,0,0,0.0*
21,1,0.2200,0.8000,0,0,0.0*
1,1,0.0000,0.1100,-0.4000*
1,1,0.0000,-0.1100,-0.4000*
1,1,0.0000,-0.1100,0.4000*
1,1,0.0000,0.1100,0.4000*
%
%ADD19ROUNDEDRECTD19*%
%ADD20R,4.3000X4.3000*%
%ADD21R,1.4000X0.6000*%
%ADD22R,1.8000X0.2500*%
%ADD23R,1.2000X2.2000*%
%ADD24R,1.6000X1.4000*%
%ADD25R,1.1000X1.4000*%
%ADD26R,0.7000X1.6000*%
%ADD27R,0.6000X0.7000*%
%ADD28R,1.2000X1.4000*%
%ADD29P,1.8385X4X90.0*%
%ADD30R,0.8890X1.0160*%
%ADD31R,1.0160X0.8890*%
%ADD32C,0.4000*%
%ADD33C,0.2000*%
%ADD34C,0.3000*%
%ADD35C,0.2540*%
%ADD36C,0.1270*%
%ADD37C,0.5000*%
%ADD38C,0.6000*%
%ADD39C,0.5000*%
%ADD40C,0.3000*%
G04:AMPARAMS|DCode=41|XSize=4mm|YSize=4mm|CornerRadius=2mm|HoleSize=0mm|Usage=FLASHONLY|Rotation=0.000|XOffset=0mm|YOffset=0mm|HoleType=Round|Shape=RoundedRectangle|*
%AMROUNDEDRECTD41*
21,1,4.0000,0.0000,0,0,0.0*
21,1,0.0000,4.0000,0,0,0.0*
1,1,4.0000,0.0000,0.0000*
1,1,4.0000,0.0000,0.0000*
1,1,4.0000,0.0000,0.0000*
1,1,4.0000,0.0000,0.0000*
%
%ADD41ROUNDEDRECTD41*%
%ADD42R,1.5240X1.5240*%
%ADD43C,1.5240*%
%ADD44C,0.8000*%
G36*
X28354Y186941D02*
X166329Y186941D01*
X214298Y138972D01*
X214065Y137795D01*
X214336Y136429D01*
X215110Y135272D01*
X216268Y134498D01*
X217633Y134226D01*
X218810Y134460D01*
X238000Y115270D01*
Y63000D01*
Y18000D01*
Y13485D01*
X236515Y12000D01*
X234515Y10000D01*
X215000D01*
X213000Y12000D01*
X209000Y16000D01*
X209000D01*
Y25499D01*
X210215Y25868D01*
X210477Y25477D01*
X211634Y24703D01*
X213000Y24431D01*
X214366Y24703D01*
X215523Y25477D01*
X216297Y26634D01*
X216569Y28000D01*
X216297Y29366D01*
X215523Y30523D01*
X214366Y31297D01*
X213000Y31569D01*
X211634Y31297D01*
X210477Y30523D01*
X210215Y30132D01*
X209000Y30501D01*
Y63000D01*
Y81499D01*
X210215Y81868D01*
X210477Y81477D01*
X211634Y80703D01*
X213000Y80431D01*
X214366Y80703D01*
X215523Y81477D01*
X216297Y82634D01*
X216569Y84000D01*
X216297Y85366D01*
X215523Y86523D01*
X214366Y87297D01*
X213000Y87569D01*
X211634Y87297D01*
X210477Y86523D01*
X210215Y86132D01*
X209000Y86501D01*
Y92000D01*
X202434Y98566D01*
X202523Y99477D01*
X203297Y100634D01*
X203569Y102000D01*
X203297Y103366D01*
X202523Y104523D01*
X201366Y105297D01*
X200945Y105380D01*
X173374Y132952D01*
X172382Y133615D01*
X171211Y133848D01*
X171211Y133848D01*
X167152D01*
X161000Y140000D01*
X-54411D01*
X-56410Y142000D01*
X-60423Y146012D01*
X-59856Y147380D01*
X-59616Y149208D01*
X-59856Y151035D01*
X-60562Y152738D01*
X-61684Y154200D01*
X-63146Y155322D01*
X-64849Y156027D01*
X-66676Y156268D01*
X-68503Y156027D01*
X-69871Y155461D01*
X-73000Y158589D01*
Y160000D01*
Y186000D01*
Y186043D01*
X-72102Y186941D01*
X28354D01*
D02*
G37*
%LPC*%
G36*
X230842Y58839D02*
X229476Y58567D01*
X226395D01*
X223131Y55303D01*
Y52006D01*
X222703Y51366D01*
X222431Y50000D01*
X222703Y48634D01*
X223131Y47994D01*
Y41254D01*
X222859Y39888D01*
X223131Y38523D01*
Y34869D01*
X226863Y31137D01*
X234410D01*
X235000Y31727D01*
Y33706D01*
X235267Y35046D01*
X235000Y36387D01*
Y56555D01*
X232988Y58567D01*
X232208D01*
X230842Y58839D01*
D02*
G37*
G36*
X225000Y71569D02*
X223634Y71297D01*
X222477Y70523D01*
X221703Y69366D01*
X221431Y68000D01*
X221703Y66634D01*
X222477Y65477D01*
X223634Y64703D01*
X225000Y64431D01*
X226366Y64703D01*
X227523Y65477D01*
X228297Y66634D01*
X228569Y68000D01*
X228297Y69366D01*
X227523Y70523D01*
X226366Y71297D01*
X225000Y71569D01*
D02*
G37*
G36*
X225624Y24958D02*
Y24070D01*
X226512D01*
X226156Y24602D01*
X225624Y24958D01*
D02*
G37*
G36*
X229930D02*
X229398Y24602D01*
X229042Y24070D01*
X229930D01*
Y24958D01*
D02*
G37*
G36*
X232470D02*
Y24070D01*
X233358D01*
X233002Y24602D01*
X232470Y24958D01*
D02*
G37*
G36*
X186000Y146569D02*
X184634Y146297D01*
X183477Y145523D01*
X182703Y144366D01*
X182431Y143000D01*
X182703Y141634D01*
X183477Y140477D01*
X184634Y139703D01*
X186000Y139431D01*
X187366Y139703D01*
X188523Y140477D01*
X189297Y141634D01*
X189569Y143000D01*
X189297Y144366D01*
X188523Y145523D01*
X187366Y146297D01*
X186000Y146569D01*
D02*
G37*
G36*
X78270Y147158D02*
Y146270D01*
X79158D01*
X78802Y146802D01*
X78270Y147158D01*
D02*
G37*
G36*
X59730Y152730D02*
X58842D01*
X59198Y152198D01*
X59730Y151842D01*
Y152730D01*
D02*
G37*
G36*
X63158D02*
X62270D01*
Y151842D01*
X62802Y152198D01*
X63158Y152730D01*
D02*
G37*
G36*
X75730Y143730D02*
X74842D01*
X75198Y143198D01*
X75730Y142842D01*
Y143730D01*
D02*
G37*
G36*
X79158D02*
X78270D01*
Y142842D01*
X78802Y143198D01*
X79158Y143730D01*
D02*
G37*
G36*
X75730Y147158D02*
X75198Y146802D01*
X74842Y146270D01*
X75730D01*
Y147158D01*
D02*
G37*
G36*
X233358Y14028D02*
X232470D01*
Y13140D01*
X233002Y13496D01*
X233358Y14028D01*
D02*
G37*
G36*
X223084Y17457D02*
X222551Y17101D01*
X222196Y16568D01*
X223084D01*
Y17457D01*
D02*
G37*
G36*
X225624D02*
Y16568D01*
X226512D01*
X226156Y17101D01*
X225624Y17457D01*
D02*
G37*
G36*
X223084Y14028D02*
X222196D01*
X222551Y13496D01*
X223084Y13140D01*
Y14028D01*
D02*
G37*
G36*
X226512D02*
X225624D01*
Y13140D01*
X226156Y13496D01*
X226512Y14028D01*
D02*
G37*
G36*
X229930D02*
X229042D01*
X229398Y13496D01*
X229930Y13140D01*
Y14028D01*
D02*
G37*
G36*
Y17457D02*
X229398Y17101D01*
X229042Y16568D01*
X229930D01*
Y17457D01*
D02*
G37*
G36*
Y21530D02*
X229042D01*
X229398Y20998D01*
X229930Y20642D01*
Y21530D01*
D02*
G37*
G36*
X233358D02*
X232470D01*
Y20642D01*
X233002Y20998D01*
X233358Y21530D01*
D02*
G37*
G36*
X223084Y24958D02*
X222551Y24602D01*
X222196Y24070D01*
X223084D01*
Y24958D01*
D02*
G37*
G36*
X232470Y17457D02*
Y16568D01*
X233358D01*
X233002Y17101D01*
X232470Y17457D01*
D02*
G37*
G36*
X223084Y21530D02*
X222196D01*
X222551Y20998D01*
X223084Y20642D01*
Y21530D01*
D02*
G37*
G36*
X226512D02*
X225624D01*
Y20642D01*
X226156Y20998D01*
X226512Y21530D01*
D02*
G37*
G36*
X68730Y152730D02*
X67842D01*
X68198Y152198D01*
X68730Y151842D01*
Y152730D01*
D02*
G37*
G36*
X132480Y175434D02*
X131114Y175163D01*
X129956Y174389D01*
X129183Y173231D01*
X128911Y171866D01*
X129183Y170500D01*
X129956Y169342D01*
X131114Y168569D01*
X132480Y168297D01*
X133845Y168569D01*
X135003Y169342D01*
X135777Y170500D01*
X136048Y171866D01*
X135777Y173231D01*
X135003Y174389D01*
X133845Y175163D01*
X132480Y175434D01*
D02*
G37*
G36*
X151866D02*
X150500Y175163D01*
X149342Y174389D01*
X148569Y173231D01*
X148297Y171866D01*
X148569Y170500D01*
X149342Y169342D01*
X150500Y168569D01*
X151866Y168297D01*
X153231Y168569D01*
X154389Y169342D01*
X155162Y170500D01*
X155434Y171866D01*
X155162Y173231D01*
X154389Y174389D01*
X153231Y175163D01*
X151866Y175434D01*
D02*
G37*
G36*
X69000Y175934D02*
X67634Y175662D01*
X66477Y174889D01*
X65703Y173731D01*
X65431Y172366D01*
X65703Y171000D01*
X66477Y169842D01*
X67634Y169069D01*
X69000Y168797D01*
X70366Y169069D01*
X71523Y169842D01*
X72297Y171000D01*
X72569Y172366D01*
X72297Y173731D01*
X71523Y174889D01*
X70366Y175662D01*
X69000Y175934D01*
D02*
G37*
G36*
X164412Y172980D02*
X163046Y172708D01*
X161888Y171935D01*
X161115Y170777D01*
X160843Y169412D01*
X161115Y168046D01*
X161888Y166888D01*
X163046Y166115D01*
X164412Y165843D01*
X165777Y166115D01*
X166935Y166888D01*
X167708Y168046D01*
X167980Y169412D01*
X167708Y170777D01*
X166935Y171935D01*
X165777Y172708D01*
X164412Y172980D01*
D02*
G37*
G36*
X114730Y167730D02*
X113842D01*
X114198Y167198D01*
X114730Y166842D01*
Y167730D01*
D02*
G37*
G36*
X118158D02*
X117270D01*
Y166842D01*
X117802Y167198D01*
X118158Y167730D01*
D02*
G37*
G36*
X95634Y175934D02*
X94269Y175662D01*
X93111Y174889D01*
X92338Y173731D01*
X92066Y172366D01*
X92338Y171000D01*
X93111Y169842D01*
X94269Y169069D01*
X95634Y168797D01*
X97000Y169069D01*
X98158Y169842D01*
X98931Y171000D01*
X99203Y172366D01*
X98931Y173731D01*
X98158Y174889D01*
X97000Y175662D01*
X95634Y175934D01*
D02*
G37*
G36*
X154138Y180096D02*
X153250D01*
Y179207D01*
X153782Y179563D01*
X154138Y180096D01*
D02*
G37*
G36*
X150710Y183524D02*
X150177Y183168D01*
X149822Y182636D01*
X150710D01*
Y183524D01*
D02*
G37*
G36*
X153250D02*
Y182636D01*
X154138D01*
X153782Y183168D01*
X153250Y183524D01*
D02*
G37*
G36*
X114730Y171158D02*
X114198Y170802D01*
X113842Y170270D01*
X114730D01*
Y171158D01*
D02*
G37*
G36*
X117270D02*
Y170270D01*
X118158D01*
X117802Y170802D01*
X117270Y171158D01*
D02*
G37*
G36*
X150710Y180096D02*
X149822D01*
X150177Y179563D01*
X150710Y179207D01*
Y180096D01*
D02*
G37*
G36*
X87730Y152730D02*
X86842D01*
X87198Y152198D01*
X87730Y151842D01*
Y152730D01*
D02*
G37*
G36*
X91158D02*
X90270D01*
Y151842D01*
X90802Y152198D01*
X91158Y152730D01*
D02*
G37*
G36*
X59730Y156158D02*
X59198Y155802D01*
X58842Y155270D01*
X59730D01*
Y156158D01*
D02*
G37*
G36*
X72158Y152730D02*
X71270D01*
Y151842D01*
X71802Y152198D01*
X72158Y152730D01*
D02*
G37*
G36*
X77730D02*
X76842D01*
X77198Y152198D01*
X77730Y151842D01*
Y152730D01*
D02*
G37*
G36*
X81158D02*
X80270D01*
Y151842D01*
X80802Y152198D01*
X81158Y152730D01*
D02*
G37*
G36*
X62270Y156158D02*
Y155270D01*
X63158D01*
X62802Y155802D01*
X62270Y156158D01*
D02*
G37*
G36*
X80270D02*
Y155270D01*
X81158D01*
X80802Y155802D01*
X80270Y156158D01*
D02*
G37*
G36*
X87730D02*
X87198Y155802D01*
X86842Y155270D01*
X87730D01*
Y156158D01*
D02*
G37*
G36*
X90270D02*
Y155270D01*
X91158D01*
X90802Y155802D01*
X90270Y156158D01*
D02*
G37*
G36*
X68730D02*
X68198Y155802D01*
X67842Y155270D01*
X68730D01*
Y156158D01*
D02*
G37*
G36*
X71270D02*
Y155270D01*
X72158D01*
X71802Y155802D01*
X71270Y156158D01*
D02*
G37*
G36*
X77730D02*
X77198Y155802D01*
X76842Y155270D01*
X77730D01*
Y156158D01*
D02*
G37*
%LPD*%
D32*
X120000Y-87598D02*
Y-72494D01*
Y-87598D02*
X126896Y-94494D01*
X149000D01*
X158678Y-81495D02*
X188178D01*
X156428Y-83744D02*
X158678Y-81495D01*
X133178Y-83744D02*
X156428D01*
X161000Y-92683D02*
X170678D01*
X159188Y-94494D02*
X161000Y-92683D01*
X149000Y-94494D02*
X159188D01*
D33*
X-143211Y130789D02*
X171211D01*
X200000Y102000D01*
X-141554Y126789D02*
X168211D01*
X202000Y93000D01*
X-162000Y-27343D02*
X-116646Y18011D01*
X-162000Y-43000D02*
Y-27343D01*
X-156196Y-30000D02*
X-94590Y31606D01*
X-246000Y112500D02*
X-206000Y72500D01*
X-202500D01*
X-243863Y117500D02*
X-203864Y77500D01*
X-198000D01*
X-252266Y82500D02*
X-225500Y55734D01*
Y42500D02*
Y55734D01*
X-196000Y0D02*
Y31657D01*
X-191000Y36657D02*
Y80500D01*
X-196000Y31657D02*
X-191000Y36657D01*
X-187000Y35000D02*
Y82864D01*
X-192000Y30000D02*
X-187000Y35000D01*
X-192000Y-1657D02*
Y30000D01*
X-218000Y-27657D02*
X-192000Y-1657D01*
X-223000Y-27000D02*
X-196000Y0D01*
X-196636Y92500D02*
X-187000Y82864D01*
X-198000Y87500D02*
X-191000Y80500D01*
X-248849Y97500D02*
X-208850Y57500D01*
X-201016D01*
X-177000Y97000D02*
X-143211Y130789D01*
X-177000Y31000D02*
Y97000D01*
X-179000Y29000D02*
X-177000Y31000D01*
X-173000Y95343D02*
X-141554Y126789D01*
X-173000Y23000D02*
Y95343D01*
X-174000Y22000D02*
X-173000Y23000D01*
X-205000Y-29000D02*
X-169000Y7000D01*
X-205000Y-65000D02*
Y-29000D01*
X-195500Y-70500D02*
Y-30814D01*
X-212000Y-87000D02*
X-195500Y-70500D01*
X-215000Y-87000D02*
X-212000D01*
X-199500Y-67864D02*
Y-29157D01*
X-207636Y-76000D02*
X-199500Y-67864D01*
X201250Y-154580D02*
X217763D01*
X193250Y-159080D02*
X218920D01*
X188750Y-154580D02*
X193250Y-159080D01*
X200000Y-2680D02*
X217320Y-20000D01*
X224500D01*
X-159050Y5636D02*
Y74550D01*
X-195500Y-30814D02*
X-159050Y5636D01*
X-164000Y6343D02*
Y82100D01*
X-199500Y-29157D02*
X-164000Y6343D01*
Y82100D02*
X-159050Y87050D01*
X-169000Y7000D02*
Y89800D01*
X-159050Y99750D01*
X204861Y-132482D02*
X239843Y-97500D01*
X21518Y-132482D02*
X204861D01*
X10000Y-144000D02*
X21518Y-132482D01*
X-6819Y-144000D02*
X10000D01*
X30000Y-137000D02*
X206000D01*
X29982Y-136982D02*
X30000Y-137000D01*
X257000Y-115343D02*
Y-112500D01*
X217763Y-154580D02*
X257000Y-115343D01*
X260500Y-117500D02*
X263366D01*
X218920Y-159080D02*
X260500Y-117500D01*
X-116646Y18011D02*
Y31606D01*
Y32000D01*
X239843Y-97500D02*
X263366D01*
X206000Y-137000D02*
X240500Y-102500D01*
X257000D01*
X216637Y-103000D02*
X229934Y-89703D01*
X197000Y-103000D02*
X216637D01*
X179000Y-121000D02*
X197000Y-103000D01*
X196500Y-88177D02*
Y-44500D01*
Y-88177D02*
X201000Y-92677D01*
Y-97000D02*
Y-92677D01*
X-218000Y-72500D02*
Y-27657D01*
X-223000Y-77500D02*
Y-27000D01*
X-202500Y92500D02*
X-196636D01*
X-269500Y18539D02*
Y42500D01*
X-233461Y-17500D02*
X-230500D01*
X-269500Y18539D02*
X-233461Y-17500D01*
X-232500Y-12500D02*
X-225500D01*
X-264363Y19363D02*
X-232500Y-12500D01*
X-264363Y19363D02*
Y37500D01*
X-253730Y27289D02*
Y41769D01*
Y27289D02*
X-230500Y4059D01*
Y2500D02*
Y4059D01*
X-225500Y-2500D02*
Y4716D01*
X-249730Y28946D02*
Y44730D01*
Y28946D02*
X-225500Y4716D01*
X-237000Y37000D02*
X-212500Y12500D01*
X-206000D01*
X-241190Y33190D02*
Y53690D01*
Y33190D02*
X-225500Y17500D01*
X-251609Y87500D02*
X-211609Y47500D01*
X-205984D01*
X-269500Y117500D02*
X-243863D01*
X-264363Y112500D02*
X-246000D01*
X-269500Y102500D02*
X-248193D01*
X-207851Y62158D02*
X-205984D01*
X-248193Y102500D02*
X-207851Y62158D01*
X-264363Y97500D02*
X-248849D01*
X-269500Y87500D02*
X-251609D01*
X-254343Y72500D02*
X-237000Y55157D01*
Y37000D02*
Y55157D01*
X-255000Y67500D02*
X-241190Y53690D01*
X-262500Y57500D02*
X-249730Y44730D01*
X-264363Y52401D02*
X-253730Y41769D01*
X-264363Y82500D02*
X-252266D01*
X-269500Y72500D02*
X-254343D01*
X-264363Y67500D02*
X-255000D01*
X-269500Y57500D02*
X-262500D01*
X-264363Y52401D02*
Y52500D01*
X207000Y-46494D02*
Y-40494D01*
X285000Y-42500D02*
X295000Y-32500D01*
X276843Y-42500D02*
X285000D01*
X265343Y-54000D02*
X276843Y-42500D01*
X289500Y-48000D02*
X295000Y-42500D01*
X277000Y-48000D02*
X289500D01*
X267000Y-58000D02*
X277000Y-48000D01*
X271000Y-27500D02*
X274000Y-30500D01*
Y-39686D02*
Y-30500D01*
X263686Y-50000D02*
X274000Y-39686D01*
X159500Y-23228D02*
X175229D01*
X196500Y-44500D01*
X152000Y-15729D02*
X159500Y-23228D01*
X152000Y-15729D02*
Y-7569D01*
X148000Y-3569D02*
X152000Y-7569D01*
X222871Y-84994D02*
X230365Y-77500D01*
X295000D01*
X206000Y-80494D02*
X210500Y-84994D01*
X222871D01*
X211500Y-71994D02*
X224557D01*
X227051Y-69500D01*
X247500D01*
X259000Y-58000D01*
X267000D01*
X228708Y-73500D02*
X257500D01*
X268500Y-62500D01*
X271000D01*
X209000Y-62494D02*
X214500Y-67994D01*
X222900D01*
X225394Y-65500D01*
X245843D01*
X257343Y-54000D01*
X265343D01*
X217000Y-63494D02*
X221743D01*
X223738Y-61500D01*
X244186D01*
X255686Y-50000D01*
X263686D01*
X242530Y-57500D02*
X254529Y-45500D01*
X260500D01*
X218006Y-57500D02*
X242530D01*
X207000Y-46494D02*
X218006Y-57500D01*
X213000Y-45494D02*
X221000Y-53494D01*
X240878D01*
X253373Y-41000D01*
X264932D01*
X265000Y-41069D01*
X264932Y-41000D02*
X264932Y-41000D01*
X264932Y-41000D02*
X266000D01*
X222000Y-47494D02*
X241222D01*
X256216Y-32500D01*
X265000D01*
X197000Y-11000D02*
X212000Y-26000D01*
X224000D01*
X181000Y-7340D02*
X186340D01*
X216546Y-37546D01*
X224491D01*
X224500Y-20000D02*
X232000Y-27500D01*
X214000Y-78000D02*
X224208D01*
X228708Y-73500D01*
X-290000Y190000D02*
G03*
X-300000Y180000I0J-10000D01*
G01*
Y-180000D02*
G03*
X-290000Y-190000I10000J0D01*
G01*
X299941Y180000D02*
G03*
X289941Y190000I-10000J0D01*
G01*
Y-190000D02*
G03*
X299941Y-180000I0J10000D01*
G01*
X-290000Y190000D02*
X289941Y190000D01*
X-290000Y-190000D02*
X289941Y-190000D01*
X-300000Y-180000D02*
Y180000D01*
X300000Y-180000D02*
Y180000D01*
D34*
X8000Y118000D02*
X41000D01*
X-2157Y107843D02*
X8000Y118000D01*
X-118500Y107843D02*
X-2157D01*
X-171000Y-18957D02*
X-154000Y-1957D01*
X-171000Y-54600D02*
Y-18957D01*
Y-54600D02*
X-156000Y-69600D01*
X-185000Y-143000D02*
Y-66000D01*
X-203750Y-161750D02*
X-185000Y-143000D01*
X-215250Y-161750D02*
X-203750D01*
X-149100Y-76500D02*
X-84500D01*
X-156000Y-69600D02*
X-149100Y-76500D01*
X-154000Y46000D02*
X-136000Y64000D01*
X-154000Y-1957D02*
Y46000D01*
X260250Y-138500D02*
X279500D01*
X286500Y-131500D01*
X-136000Y90343D02*
X-118500Y107843D01*
X-136000Y64000D02*
Y90343D01*
X-6340Y-101340D02*
X8485Y-86515D01*
X-50500Y-101340D02*
X-6340D01*
X8485Y-86515D02*
X36434D01*
X-260000Y-129000D02*
Y-117000D01*
Y-129000D02*
X-211000Y-178000D01*
X116460D01*
X135000Y-159460D01*
X220750Y-178000D02*
X260250Y-138500D01*
X153540Y-178000D02*
X220750D01*
X135000Y-159460D02*
X153540Y-178000D01*
D35*
X-209888Y52500D02*
X-202039D01*
X-197529Y47990D01*
X-187304Y-3000D02*
Y28657D01*
X-198000Y97500D02*
X-195597D01*
X-182730Y84633D01*
Y33231D02*
Y84633D01*
X-187304Y28657D02*
X-182730Y33231D01*
X-213220Y-28916D02*
X-187304Y-3000D01*
X-249888Y92500D02*
X-209888Y52500D01*
X-258000Y77500D02*
X-253305D01*
X-293307D02*
X-258000D01*
X-232730Y38769D02*
Y56925D01*
X-258000Y107500D02*
X-247154D01*
X-293307D02*
X-258000D01*
X-213220Y-74728D02*
Y-28916D01*
X-293307Y12500D02*
Y32500D01*
Y-12500D02*
Y12500D01*
Y-42500D02*
Y-12500D01*
Y-77500D02*
Y-42500D01*
X-236184Y-84000D02*
X-227000D01*
X-242684Y-77500D02*
X-236184Y-84000D01*
X-293307Y-77500D02*
X-242684D01*
X-222492Y-84000D02*
X-213220Y-74728D01*
X-227000Y-84000D02*
X-222492D01*
X-234500Y-22500D02*
X-225500D01*
X-273770Y16770D02*
X-234500Y-22500D01*
X-273770Y16770D02*
Y28000D01*
X-259593Y21593D02*
Y39593D01*
Y21593D02*
X-230500Y-7500D01*
X-222246Y7500D02*
X-200500D01*
X-245460Y30714D02*
Y49960D01*
Y30714D02*
X-222246Y7500D01*
X-253305Y77500D02*
X-232730Y56925D01*
X-216461Y22500D02*
X-206000D01*
X-232730Y38769D02*
X-216461Y22500D01*
X-242500Y122500D02*
X-202500Y82500D01*
X-258000Y122500D02*
X-242500D01*
X-293307D02*
X-258000D01*
X-207154Y67500D02*
X-198000D01*
X-247154Y107500D02*
X-207154Y67500D01*
X-258000Y92500D02*
X-249888D01*
X-258000Y62500D02*
X-245460Y49960D01*
X-267500Y47500D02*
X-259593Y39593D01*
X-278270Y32500D02*
X-273770Y28000D01*
X-293307Y32500D02*
X-278270D01*
X-293307Y47500D02*
X-267500D01*
X-293307Y62500D02*
X-258000D01*
X-293307Y92500D02*
X-258000D01*
D36*
X162106Y-153230D02*
X172230D01*
X153000Y-144124D02*
X162106Y-153230D01*
X173584Y-149960D02*
X189624Y-166000D01*
X170350Y-149960D02*
X173584D01*
X165000Y-144610D02*
X170350Y-149960D01*
X172230Y-153230D02*
X189135Y-170135D01*
X170875Y-156500D02*
X187780Y-173405D01*
X153480Y-156500D02*
X170875D01*
X141104Y-144124D02*
X153480Y-156500D01*
X205970Y-173405D02*
X208874Y-170500D01*
X204615Y-170135D02*
X208750Y-166000D01*
X189135Y-170135D02*
X204615D01*
X187780Y-173405D02*
X205970D01*
X216750Y-170500D02*
X221250Y-166000D01*
X208874Y-170500D02*
X216750D01*
X189624Y-166000D02*
X196250D01*
D37*
X160632Y-13361D02*
Y59000D01*
D39*
X77000Y145000D02*
D03*
X-185000Y-66000D02*
D03*
X182000Y102000D02*
D03*
X177000Y107000D02*
D03*
X172000Y102000D02*
D03*
X-197529Y47990D02*
D03*
X-258000Y77500D02*
D03*
X-230500Y47500D02*
D03*
X-258000Y107500D02*
D03*
X202000Y93000D02*
D03*
X-147500Y-52500D02*
D03*
X-101000Y3631D02*
D03*
X-156000Y-52500D02*
D03*
X29982Y-136982D02*
D03*
X-215250Y-161750D02*
D03*
X61000Y154000D02*
D03*
X70000D02*
D03*
X79000D02*
D03*
X89000D02*
D03*
X286500Y-131500D02*
D03*
X-162000Y-43000D02*
D03*
X-156196Y-30000D02*
D03*
X-116646Y31606D02*
D03*
X-94590D02*
D03*
X-156000Y-69600D02*
D03*
X36434Y-86515D02*
D03*
X41000Y118000D02*
D03*
X-118500Y107843D02*
D03*
X-260000Y-117000D02*
D03*
X-50500Y-101340D02*
D03*
X-84500Y-76500D02*
D03*
X-8500Y-144000D02*
D03*
X257000Y-102500D02*
D03*
X263366Y-97500D02*
D03*
X-179000Y29000D02*
D03*
X-174000Y22000D02*
D03*
X-198000Y97500D02*
D03*
X-227000Y-84000D02*
D03*
X-159050Y74550D02*
D03*
Y87050D02*
D03*
Y99750D02*
D03*
X-207636Y-76000D02*
D03*
X-205000Y-65000D02*
D03*
X-215000Y-87000D02*
D03*
X200000Y102000D02*
D03*
X151980Y181366D02*
D03*
X-202500Y92500D02*
D03*
X-198000Y87500D02*
D03*
X-202500Y72500D02*
D03*
Y82500D02*
D03*
X-198000Y77500D02*
D03*
X-205984Y62158D02*
D03*
X-198000Y67500D02*
D03*
X-201016Y57500D02*
D03*
X-230500Y-17500D02*
D03*
X-225500Y-22500D02*
D03*
Y-12500D02*
D03*
X-230500Y-7500D02*
D03*
X-225500Y-2500D02*
D03*
X-230500Y2500D02*
D03*
X-206000Y12500D02*
D03*
X-225500Y17500D02*
D03*
X-206000Y22500D02*
D03*
X-205984Y47500D02*
D03*
X-225500Y42500D02*
D03*
X-200500Y7500D02*
D03*
X-218000Y-72500D02*
D03*
X-223000Y-77500D02*
D03*
X-269500Y117500D02*
D03*
X-264363Y112500D02*
D03*
X-269500Y102500D02*
D03*
X-264363Y97500D02*
D03*
X-269500Y87500D02*
D03*
X-264363Y82500D02*
D03*
X-269500Y72500D02*
D03*
X-264363Y67500D02*
D03*
X-269500Y57500D02*
D03*
X-264363Y52500D02*
D03*
X222000Y-47494D02*
D03*
X224491Y-37546D02*
D03*
X-258000Y62500D02*
D03*
Y92500D02*
D03*
X-293307Y107500D02*
D03*
Y122500D02*
D03*
X271000Y-62500D02*
D03*
X-258000Y122500D02*
D03*
X-293307Y-77500D02*
D03*
Y-42500D02*
D03*
Y-12500D02*
D03*
Y12500D02*
D03*
Y32500D02*
D03*
Y47500D02*
D03*
Y62500D02*
D03*
Y77500D02*
D03*
Y92500D02*
D03*
X170678Y-92683D02*
D03*
X231200Y22800D02*
D03*
X224354D02*
D03*
Y15298D02*
D03*
X231200D02*
D03*
X295000Y-32500D02*
D03*
X-264363Y37500D02*
D03*
X-269500Y42500D02*
D03*
X120000Y-72494D02*
D03*
X295000Y-42500D02*
D03*
Y-77500D02*
D03*
X260500Y-45500D02*
D03*
X209000Y-62494D02*
D03*
X213000Y-45494D02*
D03*
X265000Y-32500D02*
D03*
Y-41069D02*
D03*
X217000Y-63494D02*
D03*
X232000Y-27500D02*
D03*
X149000Y-94494D02*
D03*
X133178Y-83744D02*
D03*
X188178Y-81495D02*
D03*
X160632Y-13361D02*
D03*
X257000Y-112500D02*
D03*
X116000Y169000D02*
D03*
X271000Y-27500D02*
D03*
X207000Y-40494D02*
D03*
X229934Y-89703D02*
D03*
X188750Y-154580D02*
D03*
X201250D02*
D03*
X263366Y-117500D02*
D03*
X196250Y-166000D02*
D03*
X208750D02*
D03*
X221250D02*
D03*
X-273000Y179000D02*
D03*
X-285000Y152000D02*
D03*
X-289000Y163000D02*
D03*
X-262000Y174000D02*
D03*
X-273000Y147000D02*
D03*
X-285000Y174000D02*
D03*
X-257000Y163000D02*
D03*
X-262000Y151000D02*
D03*
X-273000Y-147000D02*
D03*
X-285000Y-174000D02*
D03*
X-289000Y-163000D02*
D03*
X-262000Y-152000D02*
D03*
X-273000Y-179000D02*
D03*
X-285000Y-152000D02*
D03*
X-257000Y-163000D02*
D03*
X-262000Y-175000D02*
D03*
X273000Y-147000D02*
D03*
X261000Y-174000D02*
D03*
X257000Y-163000D02*
D03*
X284000Y-152000D02*
D03*
X273000Y-179000D02*
D03*
X261000Y-152000D02*
D03*
X289000Y-163000D02*
D03*
X284000Y-175000D02*
D03*
X273000Y179000D02*
D03*
X261000Y152000D02*
D03*
X257000Y163000D02*
D03*
X284000Y174000D02*
D03*
X273000Y147000D02*
D03*
X261000Y174000D02*
D03*
X289000Y163000D02*
D03*
X284000Y151000D02*
D03*
X160632Y59000D02*
D03*
X148000Y-3569D02*
D03*
X206000Y-80494D02*
D03*
X211500Y-71994D02*
D03*
X214000Y-78000D02*
D03*
X181000Y-7340D02*
D03*
X224000Y-26000D02*
D03*
X197000Y-11000D02*
D03*
X200000Y-2680D02*
D03*
X165000Y-144124D02*
D03*
X153000D02*
D03*
X141270Y-144230D02*
D03*
X179000Y-121000D02*
D03*
X201000Y-97000D02*
D03*
X135000Y-159460D02*
D03*
X117000Y-120000D02*
D03*
D41*
X-273000Y163000D02*
D03*
Y-163000D02*
D03*
X273000D02*
D03*
Y163000D02*
D03*
D44*
X172000Y102000D02*
X182000D01*
X177000Y107000D02*
X182000Y102000D01*
X172000D02*
X177000Y107000D01*
X130000Y60000D02*
X172000Y102000D01*
X130000Y-40000D02*
Y60000D01*
X-147500Y-52500D02*
X-138630Y-43630D01*
X107000Y-63000D02*
X130000Y-40000D01*
X-138630Y-29370D02*
X-105630Y3631D01*
X-138630Y-43630D02*
Y-29370D01*
X-156000Y-52500D02*
X-147500D01*
X-105630Y3631D02*
X-83620D01*
X107000Y-95810D02*
Y-63000D01*
Y-95810D02*
X117000Y-105810D01*
Y-120000D02*
Y-105810D01*
X-83620Y3750D02*
X26750D01*
X50549Y27549D01*
X130000D01*
M02*
