%FSLAX44Y44*%
%MOMM*%
G71*
G01*
G75*
G04 Layer_Color=32896*
%ADD10R,0.5000X0.6000*%
%ADD11R,1.0668X0.8128*%
%ADD12R,0.6000X0.5000*%
%ADD13R,0.8000X1.6000*%
%ADD14O,2.0320X0.6096*%
%ADD15R,2.0320X0.6096*%
%ADD16O,2.0000X0.3500*%
%ADD17R,1.5000X0.4000*%
G04:AMPARAMS|DCode=18|XSize=0.22mm|YSize=0.8mm|CornerRadius=0mm|HoleSize=0mm|Usage=FLASHONLY|Rotation=90.000|XOffset=0mm|YOffset=0mm|HoleType=Round|Shape=RoundedRectangle|*
%AMROUNDEDRECTD18*
21,1,0.2200,0.8000,0,0,90.0*
21,1,0.2200,0.8000,0,0,90.0*
1,1,0.0000,0.4000,0.1100*
1,1,0.0000,0.4000,-0.1100*
1,1,0.0000,-0.4000,-0.1100*
1,1,0.0000,-0.4000,0.1100*
%
%ADD18ROUNDEDRECTD18*%
G04:AMPARAMS|DCode=19|XSize=0.22mm|YSize=0.8mm|CornerRadius=0mm|HoleSize=0mm|Usage=FLASHONLY|Rotation=0.000|XOffset=0mm|YOffset=0mm|HoleType=Round|Shape=RoundedRectangle|*
%AMROUNDEDRECTD19*
21,1,0.2200,0.8000,0,0,0.0*
21,1,0.2200,0.8000,0,0,0.0*
1,1,0.0000,0.1100,-0.4000*
1,1,0.0000,-0.1100,-0.4000*
1,1,0.0000,-0.1100,0.4000*
1,1,0.0000,0.1100,0.4000*
%
%ADD19ROUNDEDRECTD19*%
%ADD20R,4.3000X4.3000*%
%ADD21R,1.4000X0.6000*%
%ADD22R,1.8000X0.2500*%
%ADD23R,1.2000X2.2000*%
%ADD24R,1.6000X1.4000*%
%ADD25R,1.1000X1.4000*%
%ADD26R,0.7000X1.6000*%
%ADD27R,0.6000X0.7000*%
%ADD28R,1.2000X1.4000*%
%ADD29P,1.8385X4X90.0*%
%ADD30R,0.8890X1.0160*%
%ADD31R,1.0160X0.8890*%
%ADD32C,0.4000*%
%ADD33C,0.2000*%
%ADD34C,0.3000*%
%ADD35C,0.2540*%
%ADD36C,0.1270*%
%ADD37C,0.5000*%
%ADD38C,0.6000*%
%ADD39C,0.5000*%
%ADD40C,0.3000*%
G04:AMPARAMS|DCode=41|XSize=4mm|YSize=4mm|CornerRadius=2mm|HoleSize=0mm|Usage=FLASHONLY|Rotation=0.000|XOffset=0mm|YOffset=0mm|HoleType=Round|Shape=RoundedRectangle|*
%AMROUNDEDRECTD41*
21,1,4.0000,0.0000,0,0,0.0*
21,1,0.0000,4.0000,0,0,0.0*
1,1,4.0000,0.0000,0.0000*
1,1,4.0000,0.0000,0.0000*
1,1,4.0000,0.0000,0.0000*
1,1,4.0000,0.0000,0.0000*
%
%ADD41ROUNDEDRECTD41*%
%ADD42R,1.5240X1.5240*%
%ADD43C,1.5240*%
%ADD44C,0.8000*%
%ADD45R,0.8128X1.0668*%
%ADD46P,1.8385X4X180.0*%
%ADD47R,1.3970X1.3970*%
%ADD48R,2.1000X0.8000*%
%ADD49R,3.0000X2.1000*%
%ADD50R,1.6000X1.2000*%
%ADD51R,1.2000X1.8000*%
%ADD52R,1.0000X1.6000*%
%ADD53R,0.7500X0.2000*%
%ADD54R,0.2000X0.7500*%
%ADD55C,0.8000*%
%ADD56R,0.4064X0.5500*%
%ADD57R,0.3048X0.5500*%
%ADD58R,0.8128X0.8128*%
%ADD59R,1.6000X2.2000*%
G04:AMPARAMS|DCode=60|XSize=2mm|YSize=2mm|CornerRadius=0mm|HoleSize=0mm|Usage=FLASHONLY|Rotation=180.000|XOffset=0mm|YOffset=0mm|HoleType=Round|Shape=RoundedRectangle|*
%AMROUNDEDRECTD60*
21,1,2.0000,2.0000,0,0,180.0*
21,1,2.0000,2.0000,0,0,180.0*
1,1,0.0000,-1.0000,1.0000*
1,1,0.0000,1.0000,1.0000*
1,1,0.0000,1.0000,-1.0000*
1,1,0.0000,-1.0000,-1.0000*
%
%ADD60ROUNDEDRECTD60*%
%ADD61R,0.8128X0.8128*%
%ADD62R,2.4130X2.1844*%
%ADD63R,1.1000X0.3000*%
%ADD64R,2.1500X6.3000*%
%ADD65R,1.2000X2.0000*%
%ADD66R,0.7000X0.6000*%
%ADD67R,0.8000X2.1000*%
%ADD68R,2.1000X3.0000*%
%ADD69R,1.1000X0.5000*%
%ADD70R,0.7600X1.5200*%
%ADD71C,0.1999*%
%ADD72C,0.1250*%
%ADD73C,0.2032*%
%ADD74C,0.1000*%
%ADD75C,0.1200*%
%ADD76R,0.7040X0.8040*%
%ADD77R,1.2708X1.0168*%
%ADD78R,0.8040X0.7040*%
%ADD79R,1.0040X1.8040*%
%ADD80O,2.2360X0.8136*%
%ADD81R,2.2360X0.8136*%
%ADD82O,2.2040X0.5540*%
%ADD83R,1.7040X0.6040*%
G04:AMPARAMS|DCode=84|XSize=0.424mm|YSize=1.004mm|CornerRadius=0mm|HoleSize=0mm|Usage=FLASHONLY|Rotation=90.000|XOffset=0mm|YOffset=0mm|HoleType=Round|Shape=RoundedRectangle|*
%AMROUNDEDRECTD84*
21,1,0.4240,1.0040,0,0,90.0*
21,1,0.4240,1.0040,0,0,90.0*
1,1,0.0000,0.5020,0.2120*
1,1,0.0000,0.5020,-0.2120*
1,1,0.0000,-0.5020,-0.2120*
1,1,0.0000,-0.5020,0.2120*
%
%ADD84ROUNDEDRECTD84*%
G04:AMPARAMS|DCode=85|XSize=0.424mm|YSize=1.004mm|CornerRadius=0mm|HoleSize=0mm|Usage=FLASHONLY|Rotation=0.000|XOffset=0mm|YOffset=0mm|HoleType=Round|Shape=RoundedRectangle|*
%AMROUNDEDRECTD85*
21,1,0.4240,1.0040,0,0,0.0*
21,1,0.4240,1.0040,0,0,0.0*
1,1,0.0000,0.2120,-0.5020*
1,1,0.0000,-0.2120,-0.5020*
1,1,0.0000,-0.2120,0.5020*
1,1,0.0000,0.2120,0.5020*
%
%ADD85ROUNDEDRECTD85*%
%ADD86R,4.5040X4.5040*%
%ADD87R,1.6040X0.8040*%
%ADD88R,2.0040X0.4540*%
%ADD89R,1.4040X2.4040*%
%ADD90R,1.8040X1.6040*%
%ADD91R,1.3040X1.6040*%
%ADD92R,0.9040X1.8040*%
%ADD93R,0.8040X0.9040*%
%ADD94R,1.4040X1.6040*%
%ADD95P,2.1270X4X90.0*%
%ADD96R,1.0930X1.2200*%
%ADD97R,1.2200X1.0930*%
%ADD98C,0.7040*%
%ADD99C,0.5040*%
%ADD100C,0.2040*%
G04:AMPARAMS|DCode=101|XSize=4.204mm|YSize=4.204mm|CornerRadius=2.102mm|HoleSize=0mm|Usage=FLASHONLY|Rotation=0.000|XOffset=0mm|YOffset=0mm|HoleType=Round|Shape=RoundedRectangle|*
%AMROUNDEDRECTD101*
21,1,4.2040,0.0000,0,0,0.0*
21,1,0.0000,4.2040,0,0,0.0*
1,1,4.2040,0.0000,0.0000*
1,1,4.2040,0.0000,0.0000*
1,1,4.2040,0.0000,0.0000*
1,1,4.2040,0.0000,0.0000*
%
%ADD101ROUNDEDRECTD101*%
%ADD102R,1.7280X1.7280*%
%ADD103C,1.7280*%
%ADD104R,1.0168X1.2708*%
%ADD105P,2.1270X4X180.0*%
%ADD106R,1.6010X1.6010*%
%ADD107R,2.3040X1.0040*%
%ADD108R,3.2040X2.3040*%
%ADD109R,1.8040X1.4040*%
%ADD110R,1.4040X2.0040*%
%ADD111R,1.2040X1.8040*%
%ADD112R,0.9540X0.4040*%
%ADD113R,0.4040X0.9540*%
%ADD114C,1.0040*%
%ADD115R,0.6104X0.7540*%
%ADD116R,0.5088X0.7540*%
%ADD117R,1.0168X1.0168*%
%ADD118R,1.8040X2.4040*%
G04:AMPARAMS|DCode=119|XSize=2.204mm|YSize=2.204mm|CornerRadius=0mm|HoleSize=0mm|Usage=FLASHONLY|Rotation=180.000|XOffset=0mm|YOffset=0mm|HoleType=Round|Shape=RoundedRectangle|*
%AMROUNDEDRECTD119*
21,1,2.2040,2.2040,0,0,180.0*
21,1,2.2040,2.2040,0,0,180.0*
1,1,0.0000,-1.1020,1.1020*
1,1,0.0000,1.1020,1.1020*
1,1,0.0000,1.1020,-1.1020*
1,1,0.0000,-1.1020,-1.1020*
%
%ADD119ROUNDEDRECTD119*%
%ADD120R,1.0168X1.0168*%
%ADD121R,2.6170X2.3884*%
%ADD122R,1.3040X0.5040*%
%ADD123R,2.3540X6.5040*%
%ADD124R,1.4040X2.2040*%
%ADD125R,0.9040X0.8040*%
%ADD126R,1.0040X2.3040*%
%ADD127R,2.3040X3.2040*%
%ADD128R,1.3040X0.7040*%
%ADD129R,0.9640X1.7240*%
%ADD130C,0.1524*%
D33*
X-18800Y83000D02*
X-11800Y76000D01*
X-18800Y83000D02*
X-11775Y90025D01*
X-11780Y76000D02*
Y90000D01*
X-18800Y75800D02*
Y90200D01*
X-23000Y83000D02*
X-18800D01*
X-11780D02*
X-7000D01*
X-42000Y97500D02*
X8000D01*
Y68500D02*
Y71000D01*
Y95000D02*
Y97500D01*
X-38000Y95000D02*
Y97500D01*
X-42000Y68500D02*
X8000D01*
X-38000D02*
Y71000D01*
X-42000Y68500D02*
Y71000D01*
Y95000D02*
Y97500D01*
X271000Y-120000D02*
X280997D01*
X271000Y-113336D01*
X280997D01*
X277665Y-108337D02*
Y-105005D01*
X275998Y-103339D01*
X271000D01*
Y-108337D01*
X272666Y-110003D01*
X274332Y-108337D01*
Y-103339D01*
X271000Y-100006D02*
Y-96674D01*
Y-98340D01*
X277665D01*
Y-100006D01*
X279331Y-85011D02*
X280997Y-86677D01*
Y-90010D01*
X279331Y-91676D01*
X277665D01*
X275998Y-90010D01*
Y-86677D01*
X274332Y-85011D01*
X272666D01*
X271000Y-86677D01*
Y-90010D01*
X272666Y-91676D01*
X280997Y-75015D02*
X279331Y-78347D01*
X275998Y-81679D01*
X272666D01*
X271000Y-80013D01*
Y-76681D01*
X272666Y-75015D01*
X274332D01*
X275998Y-76681D01*
Y-81679D01*
X271000Y-65018D02*
Y-71682D01*
X277665Y-65018D01*
X279331D01*
X280997Y-66684D01*
Y-70016D01*
X279331Y-71682D01*
Y-61685D02*
X280997Y-60019D01*
Y-56687D01*
X279331Y-55021D01*
X272666D01*
X271000Y-56687D01*
Y-60019D01*
X272666Y-61685D01*
X279331D01*
X271000Y-45024D02*
Y-51689D01*
X277665Y-45024D01*
X279331D01*
X280997Y-46690D01*
Y-50023D01*
X279331Y-51689D01*
X280997Y-41692D02*
X271000D01*
X275998D01*
Y-35027D01*
X280997D01*
X271000D01*
X280997Y-31695D02*
X271000D01*
Y-26697D01*
X272666Y-25031D01*
X279331D01*
X280997Y-26697D01*
Y-31695D01*
D35*
X220000Y-95000D02*
G03*
X220000Y-95000I-1000J0D01*
G01*
D36*
X94785Y-156860D02*
G03*
X94785Y-156860I-4387J0D01*
G01*
D71*
X-69490Y172740D02*
G03*
X-56790Y172740I6350J0D01*
G01*
X-50440Y121940D02*
Y172740D01*
X-75840Y121940D02*
X-50440D01*
X-75840D02*
Y172740D01*
X-69490D01*
X-56790D02*
X-50440D01*
D72*
X-73000Y-149000D02*
G03*
X-73000Y-149000I-3000J0D01*
G01*
X129269Y-52000D02*
G03*
X129272Y-55809I-634J-1905D01*
G01*
X129269Y-48190D02*
G03*
X129272Y-51999I-634J-1905D01*
G01*
X-203728Y-179662D02*
G03*
X-174346Y-179662I14691J30662D01*
G01*
X-221373Y-138493D02*
G03*
X-221373Y-159507I32336J-10507D01*
G01*
X-174346Y-118338D02*
G03*
X-203728Y-118338I-14691J-30662D01*
G01*
X-156540Y-158997D02*
G03*
X-156540Y-139003I-32497J9997D01*
G01*
X-220819Y-137495D02*
G03*
X-221164Y-138499I31782J-11505D01*
G01*
X-214929Y-127274D02*
G03*
X-220819Y-137495I25892J-21726D01*
G01*
X-221164Y-159501D02*
G03*
X-220819Y-160505I32127J10501D01*
G01*
X-156749Y-139005D02*
G03*
X-163145Y-127274I-32288J-9995D01*
G01*
X-220819Y-160505D02*
G03*
X-214929Y-170726I31782J11505D01*
G01*
X-163145Y-170726D02*
G03*
X-156749Y-158995I-25892J21726D01*
G01*
X-174432Y-179482D02*
G03*
X-173903Y-179222I-14605J30482D01*
G01*
Y-118778D02*
G03*
X-174432Y-118518I-15134J-30222D01*
G01*
X-210762Y-169689D02*
G03*
X-205639Y-173988I21725J20689D01*
G01*
Y-124012D02*
G03*
X-210762Y-128311I16602J-24988D01*
G01*
X-163758Y-127788D02*
G03*
X-172537Y-120421I-25280J-21212D01*
G01*
X-167312Y-128311D02*
G03*
X-172435Y-124012I-21725J-20689D01*
G01*
X-172537Y-177579D02*
G03*
X-163758Y-170212I-16500J28579D01*
G01*
X-172435Y-173988D02*
G03*
X-167312Y-169689I-16602J24988D01*
G01*
X-203642Y-118518D02*
G03*
X-204171Y-118778I14605J-30482D01*
G01*
X-204224Y-118804D02*
G03*
X-205937Y-119728I15187J-30196D01*
G01*
X-172137Y-119728D02*
G03*
X-173903Y-118778I-16900J-29272D01*
G01*
Y-179222D02*
G03*
X-172137Y-178272I-15134J30222D01*
G01*
X-161662Y-121875D02*
G03*
X-169811Y-115656I-27224J-27224D01*
G01*
Y-182344D02*
G03*
X-161662Y-176125I-19075J33442D01*
G01*
X-216170Y-176262D02*
G03*
X-208254Y-182347I27224J27224D01*
G01*
X-214316Y-170212D02*
G03*
X-205537Y-177579I25280J21212D01*
G01*
X-204171Y-179222D02*
G03*
X-203642Y-179482I15134J30222D01*
G01*
X-205886Y-178301D02*
G03*
X-204171Y-179222I16849J29301D01*
G01*
X-208254Y-182347D02*
G03*
X-207962Y-182514I19308J33308D01*
G01*
X-208254Y-115653D02*
G03*
X-216170Y-121738I19308J-33308D01*
G01*
X-205537Y-120421D02*
G03*
X-214317Y-127788I16500J-28579D01*
G01*
X117000Y-103269D02*
G03*
X113191Y-103272I-1905J634D01*
G01*
X120810Y-103269D02*
G03*
X117001Y-103272I-1905J634D01*
G01*
X174000Y13269D02*
G03*
X177809Y13272I1905J-634D01*
G01*
X170190Y13269D02*
G03*
X173999Y13272I1905J-634D01*
G01*
X156480Y181366D02*
G03*
X156480Y181366I-2500J0D01*
G01*
X161000Y90269D02*
G03*
X164809Y90272I1905J-634D01*
G01*
X157190Y90269D02*
G03*
X160999Y90272I1905J-634D01*
G01*
X54840Y108950D02*
Y147050D01*
X75160Y108950D02*
Y147050D01*
X54840Y128000D02*
X75160D01*
X78840Y109450D02*
Y147550D01*
X99160Y109450D02*
Y147550D01*
X78840Y128500D02*
X99160D01*
X28500Y-33000D02*
Y79000D01*
X59000Y-51150D02*
X65250D01*
Y-27400D01*
Y73150D02*
Y97150D01*
X59000D02*
X65250D01*
X85885Y67355D02*
X90885Y72355D01*
Y62355D02*
Y72355D01*
X85885Y67355D02*
X90885Y62355D01*
X-108500Y-111000D02*
X-69500D01*
X-108500Y-155000D02*
Y-111000D01*
Y-155000D02*
X-69500D01*
Y-111000D01*
X-76500Y-177500D02*
X-73000Y-181000D01*
X-80000D02*
X-73000D01*
X-80000D02*
X-76500Y-177500D01*
X227810Y-4730D02*
X229080Y-6000D01*
X225270Y-7270D02*
X227810Y-4730D01*
X222730D02*
X225270Y-7270D01*
X220190D02*
X222730Y-4730D01*
X218920Y-6000D02*
X220190Y-7270D01*
X229080Y-14890D02*
Y-9810D01*
X218920Y-14890D02*
X229080D01*
X218920D02*
Y-9810D01*
X229080Y-2190D02*
Y2890D01*
X218920D02*
X229080D01*
X218920Y-2190D02*
Y2890D01*
X228730Y-63190D02*
X230000Y-61920D01*
X228730Y-63190D02*
X231270Y-65730D01*
X228730Y-68270D02*
X231270Y-65730D01*
X228730Y-68270D02*
X231270Y-70810D01*
X230000Y-72080D02*
X231270Y-70810D01*
X233810Y-61920D02*
X238890D01*
Y-72080D02*
Y-61920D01*
X233810Y-72080D02*
X238890D01*
X221110Y-61920D02*
X226190D01*
X221110Y-72080D02*
Y-61920D01*
Y-72080D02*
X226190D01*
X-159000Y167450D02*
X-152750D01*
Y143450D02*
Y167450D01*
Y44550D02*
Y68300D01*
X-159000Y44550D02*
X-152750D01*
X-189500Y62000D02*
Y150000D01*
X-131927Y137635D02*
X-126927Y142635D01*
Y132635D02*
Y142635D01*
X-131927Y137635D02*
X-126927Y132635D01*
X114030Y-45650D02*
X138160D01*
X114030Y-58350D02*
Y-45650D01*
Y-58350D02*
X141970D01*
Y-45650D01*
X138160D02*
X141970D01*
X128000Y-58000D02*
Y-55810D01*
Y-48190D02*
Y-46000D01*
X230920Y-6000D02*
X232190Y-7270D01*
X234730Y-4730D01*
X237270Y-7270D01*
X239810Y-4730D01*
X241080Y-6000D01*
X230920Y-2190D02*
Y2890D01*
X241080D01*
Y-2190D02*
Y2890D01*
X230920Y-14890D02*
Y-9810D01*
Y-14890D02*
X241080D01*
Y-9810D01*
X83900Y176866D02*
X85170Y175596D01*
X87710Y178136D01*
X90250Y175596D01*
X92790Y178136D01*
X94060Y176866D01*
X83900Y180676D02*
Y185756D01*
X94060D01*
Y180676D02*
Y185756D01*
X83900Y167976D02*
Y173056D01*
Y167976D02*
X94060D01*
Y173056D01*
X-110190Y120080D02*
X-105110D01*
Y109920D02*
Y120080D01*
X-110190Y109920D02*
X-105110D01*
X-122890Y120080D02*
X-117810D01*
X-122890Y109920D02*
Y120080D01*
Y109920D02*
X-117810D01*
X-115270Y118810D02*
X-114000Y120080D01*
X-115270Y118810D02*
X-112730Y116270D01*
X-115270Y113730D02*
X-112730Y116270D01*
X-115270Y113730D02*
X-112730Y111190D01*
X-114000Y109920D02*
X-112730Y111190D01*
X-68270Y184810D02*
X-67000Y186080D01*
X-68270Y184810D02*
X-65730Y182270D01*
X-68270Y179730D02*
X-65730Y182270D01*
X-68270Y179730D02*
X-65730Y177190D01*
X-67000Y175920D02*
X-65730Y177190D01*
X-63190Y186080D02*
X-58110D01*
Y175920D02*
Y186080D01*
X-63190Y175920D02*
X-58110D01*
X-75890Y186080D02*
X-70810D01*
X-75890Y175920D02*
Y186080D01*
Y175920D02*
X-70810D01*
X-125000Y-152750D02*
Y-145250D01*
X-128750Y-149000D02*
X-125000Y-145250D01*
X-128750Y-149000D02*
X-125000Y-152750D01*
X-222500Y-144000D02*
X-187500D01*
X-185000Y-146500D01*
Y-151500D02*
Y-146500D01*
X-187500Y-154000D02*
X-185000Y-151500D01*
X-222500Y-154000D02*
X-187500D01*
X-227500Y-139090D02*
X-227500Y-139216D01*
X-227500Y-139090D02*
Y-138979D01*
Y-138890D01*
Y-138830D01*
Y-138802D01*
Y-138800D01*
X-222077Y-140977D02*
Y-139500D01*
Y-158500D02*
Y-157023D01*
X-155037Y-159000D02*
Y-155000D01*
Y-143000D02*
Y-139000D01*
X-152488Y-155000D02*
Y-143000D01*
X-153439Y-155000D02*
Y-143000D01*
X-223500Y-158500D02*
Y-139500D01*
X-155443Y-154241D02*
X-154439D01*
X-155443Y-143759D02*
X-154439D01*
X-155284Y-144910D02*
X-154439D01*
X-155284Y-153090D02*
X-154439D01*
X-223500Y-139500D02*
X-222077D01*
X-226000D02*
X-223500D01*
X-221995D02*
X-221990D01*
X-222077D02*
X-221995D01*
X-226000Y-158500D02*
X-223500D01*
X-222077D01*
X-221995D01*
X-221990D01*
X-227537Y-159500D02*
Y-155000D01*
Y-151415D02*
Y-146581D01*
Y-143000D02*
Y-138500D01*
X-228537Y-160500D02*
X-227537Y-159500D01*
X-228537Y-137500D02*
X-227537Y-138500D01*
X-236037Y-136500D02*
X-231037Y-131500D01*
X-228537Y-137500D02*
X-224737D01*
X-228537Y-160500D02*
Y-155000D01*
Y-151500D02*
Y-146500D01*
Y-143000D02*
Y-137500D01*
Y-160500D02*
X-224737D01*
X-231037Y-166500D02*
X-225931D01*
X-236037Y-161500D02*
X-231037Y-166500D01*
Y-131500D02*
X-225931D01*
X-150037Y-151232D02*
Y-146768D01*
Y-143000D02*
Y-139000D01*
Y-133500D02*
X-145037D01*
X-142037Y-136500D01*
X-148037Y-151500D02*
Y-146500D01*
X-145037Y-164500D02*
X-142037Y-161548D01*
X-150037Y-164500D02*
X-145037D01*
X-150037Y-159000D02*
Y-155000D01*
X-227500Y-149500D02*
X-226000D01*
X-227500Y-148500D02*
X-226000D01*
X-227500D02*
Y-146772D01*
Y-149500D02*
Y-148500D01*
Y-151228D02*
Y-149500D01*
Y-159200D02*
Y-158784D01*
X-226000Y-151228D02*
Y-149500D01*
Y-148500D01*
Y-146772D01*
Y-139216D02*
Y-138800D01*
Y-159200D02*
Y-158784D01*
X-227500Y-139300D02*
X-226000D01*
X-227500Y-139216D02*
X-226000D01*
X-227500Y-158784D02*
X-226000D01*
X-227500Y-158700D02*
X-226000D01*
X-151488Y-149500D02*
X-150037D01*
Y-151232D02*
X-149988D01*
X-151488Y-149500D02*
Y-148500D01*
Y-151416D02*
Y-149500D01*
Y-148500D02*
Y-146584D01*
X-150037Y-146768D02*
X-149988D01*
X-151488Y-148500D02*
X-150037D01*
X-149988Y-151416D02*
Y-151232D01*
Y-146768D02*
Y-146584D01*
X-154439Y-155000D02*
Y-154241D01*
Y-153090D01*
Y-152331D01*
Y-145669D02*
Y-144910D01*
Y-143759D01*
Y-143000D01*
X-151488Y-151416D02*
X-149988D01*
X-151488Y-146584D02*
X-149988D01*
X-227500Y-151228D02*
X-226000D01*
X-227500Y-146772D02*
X-226000D01*
X-227500Y-158700D02*
Y-155000D01*
Y-158784D02*
Y-158700D01*
Y-158784D02*
Y-158700D01*
Y-139300D02*
X-227500Y-139216D01*
X-227500Y-143000D02*
Y-139300D01*
Y-143000D02*
X-227500Y-139216D01*
X-151488Y-155000D02*
Y-151416D01*
X-148988Y-155000D02*
Y-151500D01*
X-151355D02*
X-148988D01*
X-148037D01*
X-155571Y-143000D02*
X-154439D01*
X-152488D02*
X-151488D01*
X-153439D02*
X-152488D01*
X-154439D02*
X-153439D01*
X-155571Y-155000D02*
X-154439D01*
X-153439D01*
X-152488D01*
X-151488D01*
X-148988D01*
X-148037D01*
Y-151500D01*
X-148988Y-143000D02*
X-148037D01*
Y-146500D02*
Y-143000D01*
X-148988Y-146500D02*
X-148037D01*
X-151488Y-146584D02*
Y-143000D01*
X-148988D01*
Y-146500D02*
Y-143000D01*
X-151355Y-146500D02*
X-148988D01*
X-151488Y-146584D02*
X-151355Y-146500D01*
X-226000Y-143000D02*
Y-139300D01*
X-226000Y-139216D01*
X-228500Y-146500D02*
X-226296D01*
X-228500Y-151500D02*
X-226296D01*
X-226000Y-158700D02*
X-226000Y-158784D01*
X-226000Y-158700D02*
Y-155000D01*
X-228500Y-143000D02*
X-226000D01*
X-228500Y-155000D02*
X-226000D01*
X-155201Y-145669D02*
X-154439D01*
Y-152331D02*
Y-145669D01*
X-155201Y-152331D02*
X-154439D01*
X-179517Y-116360D02*
Y-115500D01*
Y-182500D02*
Y-181640D01*
X-198556Y-182500D02*
Y-181640D01*
Y-116360D02*
Y-115500D01*
X-227537Y-159500D02*
X-224737D01*
X-227537Y-138500D02*
X-224737D01*
X-174410Y-118453D02*
X-174345Y-118338D01*
X-179517Y-115500D02*
X-175581Y-117776D01*
X-202495Y-117777D02*
X-198556Y-115500D01*
X-203729Y-118338D02*
X-203664Y-118453D01*
X-179517Y-182500D02*
X-175581Y-180224D01*
X-174410Y-179547D02*
X-174345Y-179662D01*
X-203729Y-179662D02*
X-203664Y-179547D01*
X-202495Y-180223D02*
X-198556Y-182500D01*
X-224737Y-138500D02*
Y-137500D01*
Y-138500D02*
X-221165D01*
X-224737Y-137500D02*
X-220821D01*
X-224737D02*
Y-130306D01*
Y-159500D02*
X-221165D01*
X-156750Y-139000D02*
X-150037D01*
Y-133500D01*
X-224737Y-160500D02*
X-220821D01*
X-224737Y-167694D02*
Y-160500D01*
Y-159500D01*
X-156750Y-159000D02*
X-150037D01*
Y-164500D02*
Y-159000D01*
X-174410Y-179547D02*
X-173887Y-179245D01*
X-174410Y-179547D02*
Y-179471D01*
Y-118529D02*
Y-118453D01*
X-173887Y-118755D01*
X-204187Y-118755D02*
X-203664Y-118453D01*
Y-118529D02*
Y-118453D01*
Y-179547D02*
Y-179471D01*
X-204187Y-179245D02*
X-203664Y-179547D01*
X-206053Y-115500D02*
X-198556D01*
X-179517D02*
X-172021D01*
X-183228D02*
X-179517D01*
X-198556D02*
X-194846D01*
X-179517Y-182500D02*
X-172021D01*
X-206053D02*
X-198556D01*
X-194846D01*
X-183228D02*
X-179517D01*
X-172537Y-120421D02*
X-172139Y-119727D01*
X-159415Y-173878D02*
X-150037Y-164500D01*
X-161662Y-176125D02*
X-159415Y-173878D01*
X-172537Y-177579D02*
X-172139Y-178273D01*
X-163766Y-170222D02*
X-159415Y-173878D01*
X-173068Y-121349D02*
X-172537Y-120421D01*
X-164578Y-169538D02*
X-163766Y-170222D01*
X-173068Y-176651D02*
X-172537Y-177579D01*
X-205537Y-120421D02*
X-205005Y-121349D01*
X-208266Y-115660D02*
X-207987Y-115500D01*
X-206053D01*
X-204187Y-118755D01*
X-204196Y-118790D02*
X-204187Y-118755D01*
X-173887Y-118755D02*
X-173878Y-118790D01*
X-173887Y-118755D02*
X-172021Y-115500D01*
X-170087D01*
X-172139Y-119727D02*
X-169806Y-115659D01*
X-172021Y-182500D02*
X-170087D01*
X-173887Y-179245D02*
X-172021Y-182500D01*
X-173887Y-179245D02*
X-173878Y-179210D01*
X-172139Y-178273D02*
X-169806Y-182341D01*
X-170087Y-115500D02*
X-169806Y-115659D01*
X-170087Y-182500D02*
X-169806Y-182341D01*
X-204196Y-179210D02*
X-204187Y-179245D01*
X-206053Y-182500D02*
X-204187Y-179245D01*
X-207987Y-182500D02*
X-206053D01*
X-208266Y-182340D02*
X-205935Y-178273D01*
X-205537Y-177579D01*
X-205005Y-176651D01*
X-218610Y-173821D02*
X-216170Y-176262D01*
X-225931Y-166500D02*
X-224737Y-167694D01*
X-218610Y-173821D01*
X-214312Y-170218D02*
X-213496Y-169534D01*
X-218610Y-173821D02*
X-214312Y-170218D01*
X-164578Y-128462D02*
X-163766Y-127779D01*
X-159415Y-124122D01*
X-161662Y-121875D02*
X-159415Y-124122D01*
X-150037Y-133500D01*
X-208266Y-115660D02*
X-205935Y-119727D01*
X-205537Y-120421D01*
X-218610Y-124179D02*
X-214311Y-127782D01*
X-213496Y-128465D01*
X-224737Y-130306D02*
X-218610Y-124179D01*
X-225931Y-131500D02*
X-224737Y-130306D01*
X-218610Y-124179D02*
X-216170Y-121738D01*
X-227500Y-159200D02*
X-226000D01*
X-227500Y-138800D02*
X-226000D01*
X125380Y-102505D02*
X140620D01*
X125380Y-115205D02*
Y-89805D01*
X140620Y-115205D02*
Y-89805D01*
X144080Y-86620D02*
Y-79000D01*
X133920D02*
X144080D01*
X133920Y-86620D02*
Y-79000D01*
X144080D02*
Y-71380D01*
X133920Y-79000D02*
X144080D01*
X133920D02*
Y-71380D01*
X207920Y17000D02*
Y24620D01*
Y17000D02*
X218080D01*
Y24620D01*
X207920Y9380D02*
Y17000D01*
X218080D01*
Y9380D02*
Y17000D01*
X188000Y-29920D02*
X195620D01*
X188000Y-40080D02*
Y-29920D01*
Y-40080D02*
X195620D01*
X180380Y-29920D02*
X188000D01*
Y-40080D02*
Y-29920D01*
X180380Y-40080D02*
X188000D01*
X145598Y-81495D02*
Y-73875D01*
Y-81495D02*
X155758D01*
Y-73875D01*
X145598Y-89115D02*
Y-81495D01*
X155758D01*
Y-89115D02*
Y-81495D01*
X175758Y-89115D02*
Y-81495D01*
X165598D02*
X175758D01*
X165598Y-89115D02*
Y-81495D01*
X175758D02*
Y-73875D01*
X165598Y-81495D02*
X175758D01*
X165598D02*
Y-73875D01*
X107380Y-71080D02*
X115000D01*
Y-60920D01*
X107380D02*
X115000D01*
Y-71080D02*
X122620D01*
X115000D02*
Y-60920D01*
X122620D01*
X108380Y139000D02*
X123620D01*
Y126300D02*
Y151700D01*
X108380Y126300D02*
Y151700D01*
X214000Y73080D02*
X221620D01*
X214000Y62920D02*
Y73080D01*
Y62920D02*
X221620D01*
X206380Y73080D02*
X214000D01*
Y62920D02*
Y73080D01*
X206380Y62920D02*
X214000D01*
X269080Y38380D02*
Y46000D01*
X258920D02*
X269080D01*
X258920Y38380D02*
Y46000D01*
X269080D02*
Y53620D01*
X258920Y46000D02*
X269080D01*
X258920D02*
Y53620D01*
X106920Y-170000D02*
Y-162380D01*
Y-170000D02*
X117080D01*
Y-162380D01*
X106920Y-177620D02*
Y-170000D01*
X117080D01*
Y-177620D02*
Y-170000D01*
X123350Y-112160D02*
Y-88030D01*
X110650D02*
X123350D01*
X110650Y-115970D02*
Y-88030D01*
Y-115970D02*
X123350D01*
Y-112160D01*
X111000Y-102000D02*
X113190D01*
X120810D02*
X123000D01*
X167650Y-1970D02*
Y22160D01*
Y-1970D02*
X180350D01*
Y25970D01*
X167650D02*
X180350D01*
X167650Y22160D02*
Y25970D01*
X177810Y12000D02*
X180000D01*
X168000D02*
X170190D01*
X-26323Y53010D02*
X-20073D01*
Y29010D02*
Y53010D01*
Y-69890D02*
Y-46140D01*
X-26323Y-69890D02*
X-20073D01*
X-56823Y-52440D02*
Y35560D01*
X750Y23196D02*
X5750Y28196D01*
Y18196D02*
Y28196D01*
X750Y23196D02*
X5750Y18196D01*
X100920Y66810D02*
Y71890D01*
X111080D01*
Y66810D02*
Y71890D01*
X100920Y54110D02*
Y59190D01*
Y54110D02*
X111080D01*
Y59190D01*
X100920Y63000D02*
X102190Y61730D01*
X104730Y64270D01*
X107270Y61730D01*
X109810Y64270D01*
X111080Y63000D01*
X228730Y-76190D02*
X230000Y-74920D01*
X228730Y-76190D02*
X231270Y-78730D01*
X228730Y-81270D02*
X231270Y-78730D01*
X228730Y-81270D02*
X231270Y-83810D01*
X230000Y-85080D02*
X231270Y-83810D01*
X233810Y-74920D02*
X238890D01*
Y-85080D02*
Y-74920D01*
X233810Y-85080D02*
X238890D01*
X221110Y-74920D02*
X226190D01*
X221110Y-85080D02*
Y-74920D01*
Y-85080D02*
X226190D01*
X261920Y-8000D02*
X263190Y-9270D01*
X265730Y-6730D01*
X268270Y-9270D01*
X270810Y-6730D01*
X272080Y-8000D01*
X261920Y-4190D02*
Y890D01*
X272080D01*
Y-4190D02*
Y890D01*
X261920Y-16890D02*
Y-11810D01*
Y-16890D02*
X272080D01*
Y-11810D01*
X281777Y68431D02*
Y128431D01*
X245778Y68431D02*
Y128431D01*
X273778Y78431D02*
Y118431D01*
X253778Y78431D02*
Y118431D01*
X269778Y84931D02*
Y111931D01*
X257778D02*
X269778D01*
X257778Y84931D02*
Y111931D01*
Y84931D02*
X269778D01*
X253778Y78431D02*
X256087D01*
X271444D02*
X273778D01*
X253778Y118431D02*
X255986D01*
X271394D02*
X273778D01*
X245778Y128431D02*
X254778D01*
X272778D02*
X281777D01*
X245778Y68431D02*
X254778D01*
X272778D02*
X281777D01*
X-106000Y74000D02*
Y75000D01*
X-106033Y77000D02*
Y78000D01*
X-109000Y77000D02*
X-103000D01*
X-100500Y68000D02*
Y84000D01*
X-111500Y68000D02*
Y84000D01*
X-106000Y77270D02*
X-103730Y75000D01*
X-108270D02*
X-106000Y77270D01*
X-108270Y75000D02*
X-103730D01*
X188730Y-93190D02*
X190000Y-91920D01*
X188730Y-93190D02*
X191270Y-95730D01*
X188730Y-98270D02*
X191270Y-95730D01*
X188730Y-98270D02*
X191270Y-100810D01*
X190000Y-102080D02*
X191270Y-100810D01*
X193810Y-91920D02*
X198890D01*
Y-102080D02*
Y-91920D01*
X193810Y-102080D02*
X198890D01*
X181110Y-91920D02*
X186190D01*
X181110Y-102080D02*
Y-91920D01*
Y-102080D02*
X186190D01*
X190000Y-114080D02*
X191270Y-112810D01*
X188730Y-110270D02*
X191270Y-112810D01*
X188730Y-110270D02*
X191270Y-107730D01*
X188730Y-105190D02*
X191270Y-107730D01*
X188730Y-105190D02*
X190000Y-103920D01*
X181110Y-114080D02*
X186190D01*
X181110D02*
Y-103920D01*
X186190D01*
X193810Y-114080D02*
X198890D01*
Y-103920D01*
X193810D02*
X198890D01*
X176371Y-127972D02*
X181371Y-122972D01*
X171371D02*
X181371D01*
X171371D02*
X176371Y-127972D01*
X162000Y-185500D02*
X228000D01*
X243750Y-155000D02*
Y-148750D01*
X220000D02*
X243750D01*
X146250D02*
X170250D01*
X146250Y-155000D02*
Y-148750D01*
X127480Y171866D02*
X132480D01*
X129980Y169366D02*
Y174366D01*
X135980Y157366D02*
Y186366D01*
X123980Y157366D02*
X135980D01*
X123980D02*
Y186366D01*
X128730D01*
Y184553D02*
Y186366D01*
Y184553D02*
X131230D01*
Y186366D01*
X135980D01*
X280810Y47270D02*
X282080Y46000D01*
X278270Y44730D02*
X280810Y47270D01*
X275730D02*
X278270Y44730D01*
X273190D02*
X275730Y47270D01*
X271920Y46000D02*
X273190Y44730D01*
X282080Y37110D02*
Y42190D01*
X271920Y37110D02*
X282080D01*
X271920D02*
Y42190D01*
X282080Y49810D02*
Y54890D01*
X271920D02*
X282080D01*
X271920Y49810D02*
Y54890D01*
X182920Y17000D02*
X184190Y15730D01*
X186730Y18270D01*
X189270Y15730D01*
X191810Y18270D01*
X193080Y17000D01*
X182920Y20810D02*
Y25890D01*
X193080D01*
Y20810D02*
Y25890D01*
X182920Y8110D02*
Y13190D01*
Y8110D02*
X193080D01*
Y13190D01*
X194920Y17000D02*
X196190Y15730D01*
X198730Y18270D01*
X201270Y15730D01*
X203810Y18270D01*
X205080Y17000D01*
X194920Y20810D02*
Y25890D01*
X205080D01*
Y20810D02*
Y25890D01*
X194920Y8110D02*
Y13190D01*
Y8110D02*
X205080D01*
Y13190D01*
X149920Y-26000D02*
Y-18380D01*
Y-26000D02*
X160080D01*
Y-18380D01*
X149920Y-33620D02*
Y-26000D01*
X160080D01*
Y-33620D02*
Y-26000D01*
X161920D02*
Y-18380D01*
Y-26000D02*
X172080D01*
Y-18380D01*
X161920Y-33620D02*
Y-26000D01*
X172080D01*
Y-33620D02*
Y-26000D01*
X165080Y16380D02*
Y24000D01*
X154920D02*
X165080D01*
X154920Y16380D02*
Y24000D01*
X165080D02*
Y31620D01*
X154920Y24000D02*
X165080D01*
X154920D02*
Y31620D01*
X106920Y-150000D02*
X108190Y-151270D01*
X110730Y-148730D01*
X113270Y-151270D01*
X115810Y-148730D01*
X117080Y-150000D01*
X106920Y-146190D02*
Y-141110D01*
X117080D01*
Y-146190D02*
Y-141110D01*
X106920Y-158890D02*
Y-153810D01*
Y-158890D02*
X117080D01*
Y-153810D01*
X193080Y-78620D02*
Y-71000D01*
X182920D02*
X193080D01*
X182920Y-78620D02*
Y-71000D01*
X193080D02*
Y-63380D01*
X182920Y-71000D02*
X193080D01*
X182920D02*
Y-63380D01*
X273920Y-8000D02*
X275190Y-9270D01*
X277730Y-6730D01*
X280270Y-9270D01*
X282810Y-6730D01*
X284080Y-8000D01*
X273920Y-4190D02*
Y890D01*
X284080D01*
Y-4190D02*
Y890D01*
X273920Y-16890D02*
Y-11810D01*
Y-16890D02*
X284080D01*
Y-11810D01*
X273920Y18000D02*
X275190Y16730D01*
X277730Y19270D01*
X280270Y16730D01*
X282810Y19270D01*
X284080Y18000D01*
X273920Y21810D02*
Y26890D01*
X284080D01*
Y21810D02*
Y26890D01*
X273920Y9110D02*
Y14190D01*
Y9110D02*
X284080D01*
Y14190D01*
X-57620Y106920D02*
X-50000D01*
Y117080D01*
X-57620D02*
X-50000D01*
Y106920D02*
X-42380D01*
X-50000D02*
Y117080D01*
X-42380D01*
X-91000Y186080D02*
X-83380D01*
X-91000Y175920D02*
Y186080D01*
Y175920D02*
X-83380D01*
X-98620Y186080D02*
X-91000D01*
Y175920D02*
Y186080D01*
X-98620Y175920D02*
X-91000D01*
X-37620D02*
X-30000D01*
Y186080D01*
X-37620D02*
X-30000D01*
Y175920D02*
X-22380D01*
X-30000D02*
Y186080D01*
X-22380D01*
X-121620Y135920D02*
X-114000D01*
Y146080D01*
X-121620D02*
X-114000D01*
Y135920D02*
X-106380D01*
X-114000D02*
Y146080D01*
X-106380D01*
X-123580Y164000D02*
X-122310Y162730D01*
X-119770Y165270D01*
X-117230Y162730D01*
X-114690Y165270D01*
X-113420Y164000D01*
X-123580Y167810D02*
Y172890D01*
X-113420D01*
Y167810D02*
Y172890D01*
X-123580Y155110D02*
Y160190D01*
Y155110D02*
X-113420D01*
Y160190D01*
X-256190Y-105730D02*
X-254920Y-107000D01*
X-258730Y-108270D02*
X-256190Y-105730D01*
X-261270D02*
X-258730Y-108270D01*
X-263810D02*
X-261270Y-105730D01*
X-265080Y-107000D02*
X-263810Y-108270D01*
X-254920Y-115890D02*
Y-110810D01*
X-265080Y-115890D02*
X-254920D01*
X-265080D02*
Y-110810D01*
X-254920Y-103190D02*
Y-98110D01*
X-265080D02*
X-254920D01*
X-265080Y-103190D02*
Y-98110D01*
X-114000Y122920D02*
X-112730Y124190D01*
X-115270Y126730D02*
X-112730Y124190D01*
X-115270Y126730D02*
X-112730Y129270D01*
X-115270Y131810D02*
X-112730Y129270D01*
X-115270Y131810D02*
X-114000Y133080D01*
X-122890Y122920D02*
X-117810D01*
X-122890D02*
Y133080D01*
X-117810D01*
X-110190Y122920D02*
X-105110D01*
Y133080D01*
X-110190D02*
X-105110D01*
X80790Y178136D02*
X82060Y176866D01*
X78250Y175596D02*
X80790Y178136D01*
X75710D02*
X78250Y175596D01*
X73170D02*
X75710Y178136D01*
X71900Y176866D02*
X73170Y175596D01*
X82060Y167976D02*
Y173056D01*
X71900Y167976D02*
X82060D01*
X71900D02*
Y173056D01*
X82060Y180676D02*
Y185756D01*
X71900D02*
X82060D01*
X71900Y180676D02*
Y185756D01*
X96900Y176866D02*
Y184486D01*
Y176866D02*
X107060D01*
Y184486D01*
X96900Y169246D02*
Y176866D01*
X107060D01*
Y169246D02*
Y176866D01*
X154650Y75030D02*
Y99160D01*
Y75030D02*
X167350D01*
Y102970D01*
X154650D02*
X167350D01*
X154650Y99160D02*
Y102970D01*
X164810Y89000D02*
X167000D01*
X155000D02*
X157190D01*
X184523Y73857D02*
Y89097D01*
X171823Y73857D02*
X197223D01*
X171823Y89097D02*
X197223D01*
X216160Y107950D02*
Y146050D01*
X195840Y107950D02*
Y146050D01*
Y127000D02*
X216160D01*
X178380D02*
X193620D01*
X178380Y114300D02*
Y139700D01*
X193620Y114300D02*
Y139700D01*
X-98000Y39380D02*
Y54620D01*
X-110700Y39380D02*
X-85300D01*
X-110700Y54620D02*
X-85300D01*
X-62920Y-33000D02*
X-60380D01*
X-64190Y-31730D02*
X-62920Y-33000D01*
X-66730Y-34270D02*
X-64190Y-31730D01*
X-69270D02*
X-66730Y-34270D01*
X-71810D02*
X-69270Y-31730D01*
X-73080Y-33000D02*
X-71810Y-34270D01*
X-75620Y-33000D02*
X-73080D01*
X-60380Y-48240D02*
Y-36810D01*
X-75620Y-48240D02*
X-60380D01*
X-75620D02*
Y-36810D01*
X-60380Y-29190D02*
Y-17760D01*
X-75620D02*
X-60380D01*
X-75620Y-29190D02*
Y-17760D01*
X-87620Y-62080D02*
X-80000D01*
Y-51920D01*
X-87620D02*
X-80000D01*
Y-62080D02*
X-72380D01*
X-80000D02*
Y-51920D01*
X-72380D01*
X-88890Y-74080D02*
X-83810D01*
X-88890D02*
Y-63920D01*
X-83810D01*
X-76190Y-74080D02*
X-71110D01*
Y-63920D01*
X-76190D02*
X-71110D01*
X-80000Y-74080D02*
X-78730Y-72810D01*
X-81270Y-70270D02*
X-78730Y-72810D01*
X-81270Y-70270D02*
X-78730Y-67730D01*
X-81270Y-65190D02*
X-78730Y-67730D01*
X-81270Y-65190D02*
X-80000Y-63920D01*
D73*
X171447Y167076D02*
X176451D01*
X158709Y159456D02*
X167599D01*
X180299D02*
X189189D01*
X173949Y164574D02*
Y169578D01*
X158709Y159456D02*
Y172156D01*
X189189Y159456D02*
Y172156D01*
X-26441Y-169550D02*
X-13741Y-169560D01*
X87859D02*
X100559Y-169550D01*
X-26441Y-98450D02*
X-13741Y-98440D01*
X87859D02*
X100559Y-98450D01*
X24359Y-98440D02*
X49759D01*
X-26441Y-169550D02*
Y-98450D01*
X24359Y-169560D02*
X49759D01*
X100559Y-169550D02*
Y-98450D01*
X109456Y14811D02*
X122156D01*
X109456Y45291D02*
X122156D01*
X114574Y30051D02*
X119578D01*
X109456Y14811D02*
Y23701D01*
Y36401D02*
Y45291D01*
X117076Y27549D02*
Y32553D01*
D74*
X-170620Y-19560D02*
G03*
X-170620Y-19560I-2828J0D01*
G01*
X-182780Y-69600D02*
Y-11180D01*
X-131980D01*
Y-69600D02*
Y-11180D01*
X-182780Y-69600D02*
X-131980D01*
X231000Y-116000D02*
X235000D01*
X217000D02*
X221250D01*
X231000Y-98000D02*
X235000D01*
X217000D02*
X221000D01*
X-18000Y116998D02*
Y112833D01*
X-18833Y112000D01*
X-20499D01*
X-21332Y112833D01*
Y116998D01*
X-22998Y116165D02*
X-23831Y116998D01*
X-25498D01*
X-26331Y116165D01*
Y115332D01*
X-25498Y114499D01*
X-24664D01*
X-25498D01*
X-26331Y113666D01*
Y112833D01*
X-25498Y112000D01*
X-23831D01*
X-22998Y112833D01*
X249000Y-89002D02*
Y-93167D01*
X248167Y-94000D01*
X246501D01*
X245668Y-93167D01*
Y-89002D01*
X240669Y-94000D02*
X244002D01*
X240669Y-90668D01*
Y-89835D01*
X241502Y-89002D01*
X243169D01*
X244002Y-89835D01*
X80000Y160000D02*
Y164998D01*
X77501D01*
X76668Y164165D01*
Y162499D01*
X77501Y161666D01*
X80000D01*
X78334D02*
X76668Y160000D01*
X75002Y164165D02*
X74169Y164998D01*
X72502D01*
X71669Y164165D01*
Y163332D01*
X72502Y162499D01*
X73335D01*
X72502D01*
X71669Y161666D01*
Y160833D01*
X72502Y160000D01*
X74169D01*
X75002Y160833D01*
X66671Y164998D02*
X70003D01*
Y162499D01*
X68337Y163332D01*
X67504D01*
X66671Y162499D01*
Y160833D01*
X67504Y160000D01*
X69170D01*
X70003Y160833D01*
X-133000Y162000D02*
X-128002D01*
Y164499D01*
X-128835Y165332D01*
X-130501D01*
X-131334Y164499D01*
Y162000D01*
Y163666D02*
X-133000Y165332D01*
X-128835Y166998D02*
X-128002Y167831D01*
Y169498D01*
X-128835Y170331D01*
X-129668D01*
X-130501Y169498D01*
Y168664D01*
Y169498D01*
X-131334Y170331D01*
X-132167D01*
X-133000Y169498D01*
Y167831D01*
X-132167Y166998D01*
X-128835Y171997D02*
X-128002Y172830D01*
Y174496D01*
X-128835Y175329D01*
X-129668D01*
X-130501Y174496D01*
Y173663D01*
Y174496D01*
X-131334Y175329D01*
X-132167D01*
X-133000Y174496D01*
Y172830D01*
X-132167Y171997D01*
X121000Y-157000D02*
X125998D01*
Y-154501D01*
X125165Y-153668D01*
X123499D01*
X122666Y-154501D01*
Y-157000D01*
Y-155334D02*
X121000Y-153668D01*
Y-148669D02*
Y-152002D01*
X124332Y-148669D01*
X125165D01*
X125998Y-149502D01*
Y-151169D01*
X125165Y-152002D01*
X125998Y-143671D02*
X125165Y-145337D01*
X123499Y-147003D01*
X121833D01*
X121000Y-146170D01*
Y-144504D01*
X121833Y-143671D01*
X122666D01*
X123499Y-144504D01*
Y-147003D01*
X223000Y7000D02*
X227998D01*
Y9499D01*
X227165Y10332D01*
X225499D01*
X224666Y9499D01*
Y7000D01*
Y8666D02*
X223000Y10332D01*
Y15331D02*
Y11998D01*
X226332Y15331D01*
X227165D01*
X227998Y14498D01*
Y12831D01*
X227165Y11998D01*
X223000Y19496D02*
X227998D01*
X225499Y16997D01*
Y20329D01*
X185842Y29270D02*
X190840D01*
Y31769D01*
X190007Y32602D01*
X188341D01*
X187508Y31769D01*
Y29270D01*
Y30936D02*
X185842Y32602D01*
Y37601D02*
Y34268D01*
X189174Y37601D01*
X190007D01*
X190840Y36767D01*
Y35101D01*
X190007Y34268D01*
X185842Y42599D02*
Y39267D01*
X189174Y42599D01*
X190007D01*
X190840Y41766D01*
Y40100D01*
X190007Y39267D01*
X287000Y-13000D02*
X291998D01*
Y-10501D01*
X291165Y-9668D01*
X289499D01*
X288666Y-10501D01*
Y-13000D01*
Y-11334D02*
X287000Y-9668D01*
Y-8002D02*
Y-6335D01*
Y-7169D01*
X291998D01*
X291165Y-8002D01*
X287000Y-1337D02*
X291998D01*
X289499Y-3836D01*
Y-504D01*
X-115000Y-23000D02*
Y-18002D01*
X-117499D01*
X-118332Y-18835D01*
Y-20501D01*
X-117499Y-21334D01*
X-115000D01*
X-123331Y-18835D02*
X-122498Y-18002D01*
X-120831D01*
X-119998Y-18835D01*
Y-22167D01*
X-120831Y-23000D01*
X-122498D01*
X-123331Y-22167D01*
X-128329Y-23000D02*
X-124997D01*
X-128329Y-19668D01*
Y-18835D01*
X-127496Y-18002D01*
X-125830D01*
X-124997Y-18835D01*
X-56000Y-98000D02*
Y-93002D01*
X-58499D01*
X-59332Y-93835D01*
Y-95501D01*
X-58499Y-96334D01*
X-56000D01*
X-64331Y-93835D02*
X-63498Y-93002D01*
X-61831D01*
X-60998Y-93835D01*
Y-97167D01*
X-61831Y-98000D01*
X-63498D01*
X-64331Y-97167D01*
X-65997Y-98000D02*
X-67663D01*
X-66830D01*
Y-93002D01*
X-65997Y-93835D01*
X147000Y106787D02*
Y101789D01*
X143668D01*
X142002Y105954D02*
X141169Y106787D01*
X139502D01*
X138669Y105954D01*
Y105121D01*
X139502Y104288D01*
X140336D01*
X139502D01*
X138669Y103455D01*
Y102622D01*
X139502Y101789D01*
X141169D01*
X142002Y102622D01*
X80588Y96998D02*
X82254D01*
X81421D01*
Y92833D01*
X82254Y92000D01*
X83087D01*
X83920Y92833D01*
X78922D02*
X78089Y92000D01*
X76423D01*
X75589Y92833D01*
Y96165D01*
X76423Y96998D01*
X78089D01*
X78922Y96165D01*
Y95332D01*
X78089Y94499D01*
X75589D01*
X189000Y155998D02*
Y151000D01*
X186501D01*
X185668Y151833D01*
Y155165D01*
X186501Y155998D01*
X189000D01*
X184002Y151000D02*
X182335D01*
X183169D01*
Y155998D01*
X184002Y155165D01*
X93668Y154165D02*
X94501Y154998D01*
X96167D01*
X97000Y154165D01*
Y150833D01*
X96167Y150000D01*
X94501D01*
X93668Y150833D01*
X92002Y150000D02*
X90336D01*
X91169D01*
Y154998D01*
X92002Y154165D01*
X84504Y154998D02*
X86170Y154165D01*
X87836Y152499D01*
Y150833D01*
X87003Y150000D01*
X85337D01*
X84504Y150833D01*
Y151666D01*
X85337Y152499D01*
X87836D01*
X68668Y154165D02*
X69501Y154998D01*
X71167D01*
X72000Y154165D01*
Y150833D01*
X71167Y150000D01*
X69501D01*
X68668Y150833D01*
X67002Y150000D02*
X65335D01*
X66169D01*
Y154998D01*
X67002Y154165D01*
X59504Y154998D02*
X62836D01*
Y152499D01*
X61170Y153332D01*
X60337D01*
X59504Y152499D01*
Y150833D01*
X60337Y150000D01*
X62003D01*
X62836Y150833D01*
X-73332Y64165D02*
X-72499Y64998D01*
X-70833D01*
X-70000Y64165D01*
Y60833D01*
X-70833Y60000D01*
X-72499D01*
X-73332Y60833D01*
X-74998Y60000D02*
X-76665D01*
X-75831D01*
Y64998D01*
X-74998Y64165D01*
X-81663Y60000D02*
Y64998D01*
X-79164Y62499D01*
X-82496D01*
X-18105Y165174D02*
X-17272Y164341D01*
Y162675D01*
X-18105Y161842D01*
X-21437D01*
X-22270Y162675D01*
Y164341D01*
X-21437Y165174D01*
X-22270Y166840D02*
Y168506D01*
Y167673D01*
X-17272D01*
X-18105Y166840D01*
Y171006D02*
X-17272Y171839D01*
Y173505D01*
X-18105Y174338D01*
X-18938D01*
X-19771Y173505D01*
Y172672D01*
Y173505D01*
X-20604Y174338D01*
X-21437D01*
X-22270Y173505D01*
Y171839D01*
X-21437Y171006D01*
X266305Y-115823D02*
X262973D01*
X264639D01*
Y-120821D01*
X261307D02*
Y-115823D01*
X258808D01*
X257974Y-116656D01*
Y-118322D01*
X258808Y-119155D01*
X261307D01*
X256308Y-116656D02*
X255475Y-115823D01*
X253809D01*
X252976Y-116656D01*
Y-117489D01*
X253809Y-118322D01*
X254642D01*
X253809D01*
X252976Y-119155D01*
Y-119988D01*
X253809Y-120821D01*
X255475D01*
X256308Y-119988D01*
X-110000Y-8000D02*
Y-3002D01*
X-112499D01*
X-113332Y-3835D01*
Y-5501D01*
X-112499Y-6334D01*
X-110000D01*
X-111666D02*
X-113332Y-8000D01*
X-114998D02*
Y-3002D01*
X-117498D01*
X-118331Y-3835D01*
Y-5501D01*
X-117498Y-6334D01*
X-114998D01*
X-123329Y-8000D02*
X-119997D01*
X-123329Y-4668D01*
Y-3835D01*
X-122496Y-3002D01*
X-120830D01*
X-119997Y-3835D01*
X-82000Y-8000D02*
Y-3002D01*
X-84499D01*
X-85332Y-3835D01*
Y-5501D01*
X-84499Y-6334D01*
X-82000D01*
X-83666D02*
X-85332Y-8000D01*
X-86998D02*
Y-3002D01*
X-89497D01*
X-90331Y-3835D01*
Y-5501D01*
X-89497Y-6334D01*
X-86998D01*
X-91997Y-8000D02*
X-93663D01*
X-92830D01*
Y-3002D01*
X-91997Y-3835D01*
X195000Y-87677D02*
Y-82678D01*
X192501D01*
X191668Y-83511D01*
Y-85178D01*
X192501Y-86011D01*
X195000D01*
X193334D02*
X191668Y-87677D01*
X186669D02*
X190002D01*
X186669Y-84345D01*
Y-83511D01*
X187502Y-82678D01*
X189169D01*
X190002Y-83511D01*
X185003Y-87677D02*
X183337D01*
X184170D01*
Y-82678D01*
X185003Y-83511D01*
X197703Y-122366D02*
Y-117367D01*
X195204D01*
X194371Y-118200D01*
Y-119867D01*
X195204Y-120700D01*
X197703D01*
X196037D02*
X194371Y-122366D01*
X189373D02*
X192705D01*
X189373Y-119033D01*
Y-118200D01*
X190205Y-117367D01*
X191872D01*
X192705Y-118200D01*
X187706D02*
X186873Y-117367D01*
X185207D01*
X184374Y-118200D01*
Y-121533D01*
X185207Y-122366D01*
X186873D01*
X187706Y-121533D01*
Y-118200D01*
X198000Y30000D02*
X202998D01*
Y32499D01*
X202165Y33332D01*
X200499D01*
X199666Y32499D01*
Y30000D01*
Y31666D02*
X198000Y33332D01*
Y34998D02*
Y36665D01*
Y35831D01*
X202998D01*
X202165Y34998D01*
X198833Y39164D02*
X198000Y39997D01*
Y41663D01*
X198833Y42496D01*
X202165D01*
X202998Y41663D01*
Y39997D01*
X202165Y39164D01*
X201332D01*
X200499Y39997D01*
Y42496D01*
X255730Y-68770D02*
Y-63772D01*
X253231D01*
X252398Y-64605D01*
Y-66271D01*
X253231Y-67104D01*
X255730D01*
X254064D02*
X252398Y-68770D01*
X250732D02*
X249065D01*
X249899D01*
Y-63772D01*
X250732Y-64605D01*
X246566D02*
X245733Y-63772D01*
X244067D01*
X243234Y-64605D01*
Y-65438D01*
X244067Y-66271D01*
X244900D01*
X244067D01*
X243234Y-67104D01*
Y-67937D01*
X244067Y-68770D01*
X245733D01*
X246566Y-67937D01*
X-138332Y54998D02*
X-136666D01*
X-137499D01*
Y50833D01*
X-136666Y50000D01*
X-135833D01*
X-135000Y50833D01*
X-139998Y54998D02*
X-143331D01*
Y54165D01*
X-139998Y50833D01*
Y50000D01*
X129668Y-37002D02*
X133000D01*
Y-39501D01*
X131334D01*
X133000D01*
Y-42000D01*
X128002Y-37002D02*
Y-42000D01*
X125502D01*
X124669Y-41167D01*
Y-40334D01*
X125502Y-39501D01*
X128002D01*
X125502D01*
X124669Y-38668D01*
Y-37835D01*
X125502Y-37002D01*
X128002D01*
X120504Y-42000D02*
Y-37002D01*
X123003Y-39501D01*
X119671D01*
X234000Y7000D02*
X238998D01*
Y9499D01*
X238165Y10332D01*
X236499D01*
X235666Y9499D01*
Y7000D01*
Y8666D02*
X234000Y10332D01*
Y11998D02*
Y13664D01*
Y12831D01*
X238998D01*
X238165Y11998D01*
X238998Y19496D02*
Y16164D01*
X236499D01*
X237332Y17830D01*
Y18663D01*
X236499Y19496D01*
X234833D01*
X234000Y18663D01*
Y16997D01*
X234833Y16164D01*
X98000Y160000D02*
Y164998D01*
X95501D01*
X94668Y164165D01*
Y162499D01*
X95501Y161666D01*
X98000D01*
X96334D02*
X94668Y160000D01*
X93002Y164165D02*
X92169Y164998D01*
X90503D01*
X89669Y164165D01*
Y163332D01*
X90503Y162499D01*
X91335D01*
X90503D01*
X89669Y161666D01*
Y160833D01*
X90503Y160000D01*
X92169D01*
X93002Y160833D01*
X85504Y160000D02*
Y164998D01*
X88003Y162499D01*
X84671D01*
X-97000Y94000D02*
Y98998D01*
X-99499D01*
X-100332Y98165D01*
Y96499D01*
X-99499Y95666D01*
X-97000D01*
X-98666D02*
X-100332Y94000D01*
X-101998Y98165D02*
X-102831Y98998D01*
X-104498D01*
X-105331Y98165D01*
Y97332D01*
X-104498Y96499D01*
X-103665D01*
X-104498D01*
X-105331Y95666D01*
Y94833D01*
X-104498Y94000D01*
X-102831D01*
X-101998Y94833D01*
X-106997Y94000D02*
X-108663D01*
X-107830D01*
Y98998D01*
X-106997Y98165D01*
X-41000Y179000D02*
Y183998D01*
X-43499D01*
X-44332Y183165D01*
Y181499D01*
X-43499Y180666D01*
X-41000D01*
X-42666D02*
X-44332Y179000D01*
X-45998Y183165D02*
X-46831Y183998D01*
X-48498D01*
X-49331Y183165D01*
Y182332D01*
X-48498Y181499D01*
X-47664D01*
X-48498D01*
X-49331Y180666D01*
Y179833D01*
X-48498Y179000D01*
X-46831D01*
X-45998Y179833D01*
X-50997Y183165D02*
X-51830Y183998D01*
X-53496D01*
X-54329Y183165D01*
Y179833D01*
X-53496Y179000D01*
X-51830D01*
X-50997Y179833D01*
Y183165D01*
X252668Y186998D02*
X254334D01*
X253501D01*
Y182833D01*
X254334Y182000D01*
X255167D01*
X256000Y182833D01*
X247669Y186998D02*
X251002D01*
Y184499D01*
X249335Y185332D01*
X248502D01*
X247669Y184499D01*
Y182833D01*
X248502Y182000D01*
X250169D01*
X251002Y182833D01*
X-130000Y-119002D02*
Y-124000D01*
X-132499D01*
X-133332Y-123167D01*
Y-122334D01*
X-132499Y-121501D01*
X-130000D01*
X-132499D01*
X-133332Y-120668D01*
Y-119835D01*
X-132499Y-119002D01*
X-130000D01*
X-134998Y-124000D02*
Y-120668D01*
X-136664Y-119002D01*
X-138331Y-120668D01*
Y-124000D01*
Y-121501D01*
X-134998D01*
X-139997Y-119002D02*
X-143329D01*
X-141663D01*
Y-124000D01*
X-144995D02*
X-146661D01*
X-145828D01*
Y-119002D01*
X-144995Y-119835D01*
X169998Y-50000D02*
X165000D01*
Y-47501D01*
X165833Y-46668D01*
X166666D01*
X167499Y-47501D01*
Y-50000D01*
Y-47501D01*
X168332Y-46668D01*
X169165D01*
X169998Y-47501D01*
Y-50000D01*
X169165Y-41669D02*
X169998Y-42502D01*
Y-44169D01*
X169165Y-45002D01*
X165833D01*
X165000Y-44169D01*
Y-42502D01*
X165833Y-41669D01*
X165000Y-36671D02*
Y-40003D01*
X168332Y-36671D01*
X169165D01*
X169998Y-37504D01*
Y-39170D01*
X169165Y-40003D01*
X155998Y-50000D02*
X151000D01*
Y-47501D01*
X151833Y-46668D01*
X152666D01*
X153499Y-47501D01*
Y-50000D01*
Y-47501D01*
X154332Y-46668D01*
X155165D01*
X155998Y-47501D01*
Y-50000D01*
X155165Y-41669D02*
X155998Y-42502D01*
Y-44169D01*
X155165Y-45002D01*
X151833D01*
X151000Y-44169D01*
Y-42502D01*
X151833Y-41669D01*
X155165Y-40003D02*
X155998Y-39170D01*
Y-37504D01*
X155165Y-36671D01*
X154332D01*
X153499Y-37504D01*
Y-38337D01*
Y-37504D01*
X152666Y-36671D01*
X151833D01*
X151000Y-37504D01*
Y-39170D01*
X151833Y-40003D01*
X190523Y71475D02*
Y66477D01*
X188024D01*
X187191Y67310D01*
Y68143D01*
X188024Y68976D01*
X190523D01*
X188024D01*
X187191Y69809D01*
Y70642D01*
X188024Y71475D01*
X190523D01*
X182193Y70642D02*
X183026Y71475D01*
X184692D01*
X185525Y70642D01*
Y67310D01*
X184692Y66477D01*
X183026D01*
X182193Y67310D01*
X178027Y66477D02*
Y71475D01*
X180527Y68976D01*
X177194D01*
X148493Y-110506D02*
X143494D01*
Y-108006D01*
X144327Y-107174D01*
X145160D01*
X145993Y-108006D01*
Y-110506D01*
Y-108006D01*
X146826Y-107174D01*
X147660D01*
X148493Y-108006D01*
Y-110506D01*
X147660Y-102175D02*
X148493Y-103008D01*
Y-104674D01*
X147660Y-105507D01*
X144327D01*
X143494Y-104674D01*
Y-103008D01*
X144327Y-102175D01*
X148493Y-97177D02*
Y-100509D01*
X145993D01*
X146826Y-98843D01*
Y-98010D01*
X145993Y-97177D01*
X144327D01*
X143494Y-98010D01*
Y-99676D01*
X144327Y-100509D01*
X201498Y-77000D02*
X196500D01*
Y-74501D01*
X197333Y-73668D01*
X198166D01*
X198999Y-74501D01*
Y-77000D01*
Y-74501D01*
X199832Y-73668D01*
X200665D01*
X201498Y-74501D01*
Y-77000D01*
X200665Y-68669D02*
X201498Y-69503D01*
Y-71169D01*
X200665Y-72002D01*
X197333D01*
X196500Y-71169D01*
Y-69503D01*
X197333Y-68669D01*
X201498Y-63671D02*
X200665Y-65337D01*
X198999Y-67003D01*
X197333D01*
X196500Y-66170D01*
Y-64504D01*
X197333Y-63671D01*
X198166D01*
X198999Y-64504D01*
Y-67003D01*
X130078Y-83788D02*
X125080D01*
Y-81289D01*
X125913Y-80456D01*
X126746D01*
X127579Y-81289D01*
Y-83788D01*
Y-81289D01*
X128412Y-80456D01*
X129245D01*
X130078Y-81289D01*
Y-83788D01*
X129245Y-75458D02*
X130078Y-76290D01*
Y-77957D01*
X129245Y-78790D01*
X125913D01*
X125080Y-77957D01*
Y-76290D01*
X125913Y-75458D01*
X130078Y-73791D02*
Y-70459D01*
X129245D01*
X125913Y-73791D01*
X125080D01*
X216428Y28000D02*
X211430D01*
Y30499D01*
X212263Y31332D01*
X213096D01*
X213929Y30499D01*
Y28000D01*
Y30499D01*
X214762Y31332D01*
X215595D01*
X216428Y30499D01*
Y28000D01*
X215595Y36331D02*
X216428Y35498D01*
Y33831D01*
X215595Y32998D01*
X212263D01*
X211430Y33831D01*
Y35498D01*
X212263Y36331D01*
X215595Y37997D02*
X216428Y38830D01*
Y40496D01*
X215595Y41329D01*
X214762D01*
X213929Y40496D01*
X213096Y41329D01*
X212263D01*
X211430Y40496D01*
Y38830D01*
X212263Y37997D01*
X213096D01*
X213929Y38830D01*
X214762Y37997D01*
X215595D01*
X213929Y38830D02*
Y40496D01*
X196500Y-43002D02*
Y-48000D01*
X194001D01*
X193168Y-47167D01*
Y-46334D01*
X194001Y-45501D01*
X196500D01*
X194001D01*
X193168Y-44668D01*
Y-43835D01*
X194001Y-43002D01*
X196500D01*
X188169Y-43835D02*
X189002Y-43002D01*
X190669D01*
X191502Y-43835D01*
Y-47167D01*
X190669Y-48000D01*
X189002D01*
X188169Y-47167D01*
X186503Y-48000D02*
X184837D01*
X185670D01*
Y-43002D01*
X186503Y-43835D01*
X182338D02*
X181505Y-43002D01*
X179839D01*
X179006Y-43835D01*
Y-47167D01*
X179839Y-48000D01*
X181505D01*
X182338Y-47167D01*
Y-43835D01*
X151078Y15110D02*
X146080D01*
Y17609D01*
X146913Y18442D01*
X147746D01*
X148579Y17609D01*
Y15110D01*
Y17609D01*
X149412Y18442D01*
X150245D01*
X151078Y17609D01*
Y15110D01*
X150245Y23441D02*
X151078Y22608D01*
Y20941D01*
X150245Y20108D01*
X146913D01*
X146080Y20941D01*
Y22608D01*
X146913Y23441D01*
X146080Y25107D02*
Y26773D01*
Y25940D01*
X151078D01*
X150245Y25107D01*
X146080Y29272D02*
Y30938D01*
Y30105D01*
X151078D01*
X150245Y29272D01*
X163676Y-91000D02*
X158678D01*
Y-88501D01*
X159511Y-87668D01*
X160344D01*
X161177Y-88501D01*
Y-91000D01*
Y-88501D01*
X162010Y-87668D01*
X162843D01*
X163676Y-88501D01*
Y-91000D01*
X162843Y-82669D02*
X163676Y-83502D01*
Y-85169D01*
X162843Y-86002D01*
X159511D01*
X158678Y-85169D01*
Y-83502D01*
X159511Y-82669D01*
X158678Y-81003D02*
Y-79337D01*
Y-80170D01*
X163676D01*
X162843Y-81003D01*
X158678Y-73506D02*
Y-76838D01*
X162010Y-73506D01*
X162843D01*
X163676Y-74339D01*
Y-76005D01*
X162843Y-76838D01*
X173676Y-70494D02*
X168678D01*
Y-67995D01*
X169511Y-67162D01*
X170344D01*
X171177Y-67995D01*
Y-70494D01*
Y-67995D01*
X172010Y-67162D01*
X172843D01*
X173676Y-67995D01*
Y-70494D01*
X172843Y-62164D02*
X173676Y-62997D01*
Y-64663D01*
X172843Y-65496D01*
X169511D01*
X168678Y-64663D01*
Y-62997D01*
X169511Y-62164D01*
X168678Y-60498D02*
Y-58832D01*
Y-59665D01*
X173676D01*
X172843Y-60498D01*
Y-56332D02*
X173676Y-55499D01*
Y-53833D01*
X172843Y-53000D01*
X172010D01*
X171177Y-53833D01*
Y-54666D01*
Y-53833D01*
X170344Y-53000D01*
X169511D01*
X168678Y-53833D01*
Y-55499D01*
X169511Y-56332D01*
X100000Y-64002D02*
Y-69000D01*
X97501D01*
X96668Y-68167D01*
Y-67334D01*
X97501Y-66501D01*
X100000D01*
X97501D01*
X96668Y-65668D01*
Y-64835D01*
X97501Y-64002D01*
X100000D01*
X91669Y-64835D02*
X92502Y-64002D01*
X94169D01*
X95002Y-64835D01*
Y-68167D01*
X94169Y-69000D01*
X92502D01*
X91669Y-68167D01*
X90003Y-69000D02*
X88337D01*
X89170D01*
Y-64002D01*
X90003Y-64835D01*
X83339Y-69000D02*
Y-64002D01*
X85838Y-66501D01*
X82506D01*
X130998Y120000D02*
X126000D01*
Y122499D01*
X126833Y123332D01*
X127666D01*
X128499Y122499D01*
Y120000D01*
Y122499D01*
X129332Y123332D01*
X130165D01*
X130998Y122499D01*
Y120000D01*
X130165Y128331D02*
X130998Y127498D01*
Y125831D01*
X130165Y124998D01*
X126833D01*
X126000Y125831D01*
Y127498D01*
X126833Y128331D01*
X126000Y129997D02*
Y131663D01*
Y130830D01*
X130998D01*
X130165Y129997D01*
X130998Y137494D02*
X130165Y135828D01*
X128499Y134162D01*
X126833D01*
X126000Y134995D01*
Y136661D01*
X126833Y137494D01*
X127666D01*
X128499Y136661D01*
Y134162D01*
X186998Y94000D02*
X182000D01*
Y96499D01*
X182833Y97332D01*
X183666D01*
X184499Y96499D01*
Y94000D01*
Y96499D01*
X185332Y97332D01*
X186165D01*
X186998Y96499D01*
Y94000D01*
X186165Y102331D02*
X186998Y101497D01*
Y99831D01*
X186165Y98998D01*
X182833D01*
X182000Y99831D01*
Y101497D01*
X182833Y102331D01*
X182000Y103997D02*
Y105663D01*
Y104830D01*
X186998D01*
X186165Y103997D01*
X186998Y108162D02*
Y111494D01*
X186165D01*
X182833Y108162D01*
X182000D01*
X214668Y80165D02*
X215501Y80998D01*
X217167D01*
X218000Y80165D01*
Y76833D01*
X217167Y76000D01*
X215501D01*
X214668Y76833D01*
X213002Y76000D02*
X211336D01*
X212169D01*
Y80998D01*
X213002Y80165D01*
X255165Y45332D02*
X255998Y44499D01*
Y42833D01*
X255165Y42000D01*
X251833D01*
X251000Y42833D01*
Y44499D01*
X251833Y45332D01*
X251000Y50331D02*
Y46998D01*
X254332Y50331D01*
X255165D01*
X255998Y49497D01*
Y47831D01*
X255165Y46998D01*
X125245Y-171668D02*
X126078Y-172501D01*
Y-174167D01*
X125245Y-175000D01*
X121913D01*
X121080Y-174167D01*
Y-172501D01*
X121913Y-171668D01*
X121080Y-170002D02*
Y-168335D01*
Y-169169D01*
X126078D01*
X125245Y-170002D01*
Y-165836D02*
X126078Y-165003D01*
Y-163337D01*
X125245Y-162504D01*
X121913D01*
X121080Y-163337D01*
Y-165003D01*
X121913Y-165836D01*
X125245D01*
X-46940Y103574D02*
X-46106Y104408D01*
X-44440D01*
X-43607Y103574D01*
Y100242D01*
X-44440Y99409D01*
X-46106D01*
X-46940Y100242D01*
X-48606Y99409D02*
X-50272D01*
X-49439D01*
Y104408D01*
X-48606Y103574D01*
X-52771Y104408D02*
X-56103D01*
Y103574D01*
X-52771Y100242D01*
Y99409D01*
X-109602Y183537D02*
X-108769Y184370D01*
X-107103D01*
X-106270Y183537D01*
Y180205D01*
X-107103Y179372D01*
X-108769D01*
X-109602Y180205D01*
X-111268Y179372D02*
X-112934D01*
X-112101D01*
Y184370D01*
X-111268Y183537D01*
X-115434D02*
X-116267Y184370D01*
X-117933D01*
X-118766Y183537D01*
Y182704D01*
X-117933Y181871D01*
X-118766Y181038D01*
Y180205D01*
X-117933Y179372D01*
X-116267D01*
X-115434Y180205D01*
Y181038D01*
X-116267Y181871D01*
X-115434Y182704D01*
Y183537D01*
X-116267Y181871D02*
X-117933D01*
X-121832Y152165D02*
X-120999Y152998D01*
X-119333D01*
X-118500Y152165D01*
Y148833D01*
X-119333Y148000D01*
X-120999D01*
X-121832Y148833D01*
X-123498Y148000D02*
X-125164D01*
X-124331D01*
Y152998D01*
X-123498Y152165D01*
X-127664Y148833D02*
X-128497Y148000D01*
X-130163D01*
X-130996Y148833D01*
Y152165D01*
X-130163Y152998D01*
X-128497D01*
X-127664Y152165D01*
Y151332D01*
X-128497Y150499D01*
X-130996D01*
X106165Y157332D02*
X106998Y156499D01*
Y154833D01*
X106165Y154000D01*
X102833D01*
X102000Y154833D01*
Y156499D01*
X102833Y157332D01*
X102000Y162331D02*
Y158998D01*
X105332Y162331D01*
X106165D01*
X106998Y161497D01*
Y159831D01*
X106165Y158998D01*
Y163997D02*
X106998Y164830D01*
Y166496D01*
X106165Y167329D01*
X102833D01*
X102000Y166496D01*
Y164830D01*
X102833Y163997D01*
X106165D01*
X225165Y125332D02*
X225998Y124499D01*
Y122833D01*
X225165Y122000D01*
X221833D01*
X221000Y122833D01*
Y124499D01*
X221833Y125332D01*
X221000Y130331D02*
Y126998D01*
X224332Y130331D01*
X225165D01*
X225998Y129498D01*
Y127831D01*
X225165Y126998D01*
X221000Y131997D02*
Y133663D01*
Y132830D01*
X225998D01*
X225165Y131997D01*
X-94764Y35772D02*
X-93931Y36604D01*
X-92264D01*
X-91431Y35772D01*
Y32439D01*
X-92264Y31606D01*
X-93931D01*
X-94764Y32439D01*
X-99762Y31606D02*
X-96430D01*
X-99762Y34938D01*
Y35772D01*
X-98929Y36604D01*
X-97263D01*
X-96430Y35772D01*
X-101428D02*
X-102261Y36604D01*
X-103927D01*
X-104760Y35772D01*
Y34938D01*
X-103927Y34105D01*
X-103094D01*
X-103927D01*
X-104760Y33272D01*
Y32439D01*
X-103927Y31606D01*
X-102261D01*
X-101428Y32439D01*
X-96332Y-55835D02*
X-95499Y-55002D01*
X-93833D01*
X-93000Y-55835D01*
Y-59167D01*
X-93833Y-60000D01*
X-95499D01*
X-96332Y-59167D01*
X-101331Y-60000D02*
X-97998D01*
X-101331Y-56668D01*
Y-55835D01*
X-100498Y-55002D01*
X-98831D01*
X-97998Y-55835D01*
X-106329Y-55002D02*
X-102997D01*
Y-57501D01*
X-104663Y-56668D01*
X-105496D01*
X-106329Y-57501D01*
Y-59167D01*
X-105496Y-60000D01*
X-103830D01*
X-102997Y-59167D01*
X6000Y63998D02*
Y59000D01*
X3501D01*
X2668Y59833D01*
Y63165D01*
X3501Y63998D01*
X6000D01*
X-2331Y59000D02*
X1002D01*
X-2331Y62332D01*
Y63165D01*
X-1498Y63998D01*
X169D01*
X1002Y63165D01*
X152998Y66332D02*
Y63000D01*
X150499D01*
Y64666D01*
Y63000D01*
X148000D01*
X152998Y67998D02*
X148000D01*
Y70497D01*
X148833Y71331D01*
X149666D01*
X150499Y70497D01*
Y67998D01*
Y70497D01*
X151332Y71331D01*
X152165D01*
X152998Y70497D01*
Y67998D01*
X148000Y72997D02*
Y74663D01*
Y73830D01*
X152998D01*
X152165Y72997D01*
X107998Y-89662D02*
Y-92994D01*
X105499D01*
Y-91328D01*
Y-92994D01*
X103000D01*
X107998Y-87996D02*
X103000D01*
Y-85497D01*
X103833Y-84664D01*
X104666D01*
X105499Y-85497D01*
Y-87996D01*
Y-85497D01*
X106332Y-84664D01*
X107165D01*
X107998Y-85497D01*
Y-87996D01*
X103000Y-79665D02*
Y-82998D01*
X106332Y-79665D01*
X107165D01*
X107998Y-80498D01*
Y-82164D01*
X107165Y-82998D01*
X175998Y32332D02*
Y29000D01*
X173499D01*
Y30666D01*
Y29000D01*
X171000D01*
X175998Y33998D02*
X171000D01*
Y36498D01*
X171833Y37331D01*
X172666D01*
X173499Y36498D01*
Y33998D01*
Y36498D01*
X174332Y37331D01*
X175165D01*
X175998Y36498D01*
Y33998D01*
X175165Y38997D02*
X175998Y39830D01*
Y41496D01*
X175165Y42329D01*
X174332D01*
X173499Y41496D01*
Y40663D01*
Y41496D01*
X172666Y42329D01*
X171833D01*
X171000Y41496D01*
Y39830D01*
X171833Y38997D01*
X-278332Y124998D02*
X-276666D01*
X-277499D01*
Y120833D01*
X-276666Y120000D01*
X-275833D01*
X-275000Y120833D01*
X-279998Y124165D02*
X-280831Y124998D01*
X-282498D01*
X-283331Y124165D01*
Y123332D01*
X-282498Y122499D01*
X-281665D01*
X-282498D01*
X-283331Y121666D01*
Y120833D01*
X-282498Y120000D01*
X-280831D01*
X-279998Y120833D01*
X-2332Y45998D02*
X-666D01*
X-1499D01*
Y41833D01*
X-666Y41000D01*
X167D01*
X1000Y41833D01*
X-6497Y41000D02*
Y45998D01*
X-3998Y43499D01*
X-7331D01*
X238668Y-136002D02*
X240334D01*
X239501D01*
Y-140167D01*
X240334Y-141000D01*
X241167D01*
X242000Y-140167D01*
X233669Y-136002D02*
X235336Y-136835D01*
X237002Y-138501D01*
Y-140167D01*
X236169Y-141000D01*
X234503D01*
X233669Y-140167D01*
Y-139334D01*
X234503Y-138501D01*
X237002D01*
X22000Y114998D02*
Y110000D01*
X18668D01*
X13669D02*
X17002D01*
X13669Y113332D01*
Y114165D01*
X14503Y114998D01*
X16169D01*
X17002Y114165D01*
X128668Y49833D02*
Y53165D01*
X129501Y53998D01*
X131167D01*
X132000Y53165D01*
Y49833D01*
X131167Y49000D01*
X129501D01*
X130334Y50666D02*
X128668Y49000D01*
X129501D02*
X128668Y49833D01*
X123669Y49000D02*
X127002D01*
X123669Y52332D01*
Y53165D01*
X124502Y53998D01*
X126169D01*
X127002Y53165D01*
X-251000Y-113000D02*
X-246002D01*
Y-110501D01*
X-246835Y-109668D01*
X-248501D01*
X-249334Y-110501D01*
Y-113000D01*
Y-111334D02*
X-251000Y-109668D01*
Y-104669D02*
Y-108002D01*
X-247668Y-104669D01*
X-246835D01*
X-246002Y-105503D01*
Y-107169D01*
X-246835Y-108002D01*
X266000Y14000D02*
X270998D01*
Y16499D01*
X270165Y17332D01*
X268499D01*
X267666Y16499D01*
Y14000D01*
Y15666D02*
X266000Y17332D01*
X270998Y22331D02*
Y18998D01*
X268499D01*
X269332Y20665D01*
Y21497D01*
X268499Y22331D01*
X266833D01*
X266000Y21497D01*
Y19831D01*
X266833Y18998D01*
X103000Y76000D02*
X107998D01*
Y78499D01*
X107165Y79332D01*
X105499D01*
X104666Y78499D01*
Y76000D01*
Y77666D02*
X103000Y79332D01*
X107998Y84331D02*
X107165Y82664D01*
X105499Y80998D01*
X103833D01*
X103000Y81831D01*
Y83497D01*
X103833Y84331D01*
X104666D01*
X105499Y83497D01*
Y80998D01*
X285000Y43000D02*
X289998D01*
Y45499D01*
X289165Y46332D01*
X287499D01*
X286666Y45499D01*
Y43000D01*
Y44666D02*
X285000Y46332D01*
X289165Y47998D02*
X289998Y48831D01*
Y50497D01*
X289165Y51331D01*
X288332D01*
X287499Y50497D01*
X286666Y51331D01*
X285833D01*
X285000Y50497D01*
Y48831D01*
X285833Y47998D01*
X286666D01*
X287499Y48831D01*
X288332Y47998D01*
X289165D01*
X287499Y48831D02*
Y50497D01*
X255000Y-82500D02*
Y-77502D01*
X252501D01*
X251668Y-78334D01*
Y-80001D01*
X252501Y-80834D01*
X255000D01*
X253334D02*
X251668Y-82500D01*
X250002D02*
X248335D01*
X249169D01*
Y-77502D01*
X250002Y-78334D01*
X242504Y-82500D02*
X245836D01*
X242504Y-79168D01*
Y-78334D01*
X243337Y-77502D01*
X245003D01*
X245836Y-78334D01*
X252000Y-15000D02*
X256998D01*
Y-12501D01*
X256165Y-11668D01*
X254499D01*
X253666Y-12501D01*
Y-15000D01*
Y-13334D02*
X252000Y-11668D01*
Y-10002D02*
Y-8335D01*
Y-9169D01*
X256998D01*
X256165Y-10002D01*
X256998Y-2504D02*
X256165Y-4170D01*
X254499Y-5836D01*
X252833D01*
X252000Y-5003D01*
Y-3337D01*
X252833Y-2504D01*
X253666D01*
X254499Y-3337D01*
Y-5836D01*
X-96000Y102000D02*
Y106998D01*
X-98499D01*
X-99332Y106165D01*
Y104499D01*
X-98499Y103666D01*
X-96000D01*
X-97666D02*
X-99332Y102000D01*
X-100998Y106165D02*
X-101831Y106998D01*
X-103498D01*
X-104331Y106165D01*
Y105332D01*
X-103498Y104499D01*
X-102664D01*
X-103498D01*
X-104331Y103666D01*
Y102833D01*
X-103498Y102000D01*
X-101831D01*
X-100998Y102833D01*
X-109329Y102000D02*
X-105997D01*
X-109329Y105332D01*
Y106165D01*
X-108496Y106998D01*
X-106830D01*
X-105997Y106165D01*
X-73342Y-81460D02*
Y-76462D01*
X-75841D01*
X-76674Y-77295D01*
Y-78961D01*
X-75841Y-79794D01*
X-73342D01*
X-75008D02*
X-76674Y-81460D01*
X-80839D02*
Y-76462D01*
X-78340Y-78961D01*
X-81672D01*
X-86671Y-76462D02*
X-85005Y-77295D01*
X-83339Y-78961D01*
Y-80627D01*
X-84172Y-81460D01*
X-85838D01*
X-86671Y-80627D01*
Y-79794D01*
X-85838Y-78961D01*
X-83339D01*
X-85000Y-40000D02*
X-80002D01*
Y-37501D01*
X-80835Y-36668D01*
X-82501D01*
X-83334Y-37501D01*
Y-40000D01*
Y-38334D02*
X-85000Y-36668D01*
Y-32502D02*
X-80002D01*
X-82501Y-35002D01*
Y-31669D01*
X-80835Y-30003D02*
X-80002Y-29170D01*
Y-27504D01*
X-80835Y-26671D01*
X-81668D01*
X-82501Y-27504D01*
X-83334Y-26671D01*
X-84167D01*
X-85000Y-27504D01*
Y-29170D01*
X-84167Y-30003D01*
X-83334D01*
X-82501Y-29170D01*
X-81668Y-30003D01*
X-80835D01*
X-82501Y-29170D02*
Y-27504D01*
X252445Y142597D02*
X253278Y143430D01*
X254944D01*
X255777Y142597D01*
Y141764D01*
X254944Y140931D01*
X253278D01*
X252445Y140098D01*
Y139264D01*
X253278Y138431D01*
X254944D01*
X255777Y139264D01*
X250779Y143430D02*
Y138431D01*
X249113Y140098D01*
X247447Y138431D01*
Y143430D01*
X245781Y138431D02*
X244115D01*
X244948D01*
Y143430D01*
X245781Y142597D01*
X-23000Y-176002D02*
X-26332D01*
X-24666D01*
Y-181000D01*
X-27998D02*
X-29664D01*
X-28831D01*
Y-176002D01*
X-27998Y-176835D01*
X-263000Y-121002D02*
X-266332D01*
X-264666D01*
Y-126000D01*
X-267998D02*
Y-121002D01*
X-270498D01*
X-271331Y-121835D01*
Y-123501D01*
X-270498Y-124334D01*
X-267998D01*
X-272997Y-126000D02*
X-274663D01*
X-273830D01*
Y-121002D01*
X-272997Y-121835D01*
X-275000Y-74002D02*
X-278332D01*
X-276666D01*
Y-79000D01*
X-279998D02*
Y-74002D01*
X-282498D01*
X-283331Y-74835D01*
Y-76501D01*
X-282498Y-77334D01*
X-279998D01*
X-288329Y-79000D02*
X-284997D01*
X-288329Y-75668D01*
Y-74835D01*
X-287496Y-74002D01*
X-285830D01*
X-284997Y-74835D01*
X-197025Y-93867D02*
X-200357D01*
X-198691D01*
Y-98865D01*
X-202023D02*
Y-93867D01*
X-204522D01*
X-205355Y-94700D01*
Y-96366D01*
X-204522Y-97199D01*
X-202023D01*
X-209520Y-98865D02*
Y-93867D01*
X-207021Y-96366D01*
X-210354D01*
X-116002Y68000D02*
Y71332D01*
Y69666D01*
X-121000D01*
X-116002Y72998D02*
X-119334D01*
X-121000Y74665D01*
X-119334Y76331D01*
X-116002D01*
X-116835Y81329D02*
X-116002Y80496D01*
Y78830D01*
X-116835Y77997D01*
X-117668D01*
X-118501Y78830D01*
Y80496D01*
X-119334Y81329D01*
X-120167D01*
X-121000Y80496D01*
Y78830D01*
X-120167Y77997D01*
X-121000Y82995D02*
Y84661D01*
Y83828D01*
X-116002D01*
X-116835Y82995D01*
X135000Y154998D02*
Y150833D01*
X134167Y150000D01*
X132501D01*
X131668Y150833D01*
Y154998D01*
X127502Y150000D02*
Y154998D01*
X130002Y152499D01*
X126669D01*
X260779Y-43770D02*
X257447Y-42104D01*
X260779Y-40438D01*
X261612Y-38772D02*
X262445Y-37938D01*
Y-36272D01*
X261612Y-35439D01*
X258280D01*
X257447Y-36272D01*
Y-37938D01*
X258280Y-38772D01*
X261612D01*
X257447Y-33773D02*
X258280D01*
Y-32940D01*
X257447D01*
Y-33773D01*
X262445Y-29608D02*
Y-26276D01*
X261612D01*
X258280Y-29608D01*
X257447D01*
D75*
X-86000Y117000D02*
G03*
X-89000Y114000I0J-3000D01*
G01*
Y70000D02*
G03*
X-86000Y67000I3000J0D01*
G01*
X-70000D02*
G03*
X-67000Y70000I0J3000D01*
G01*
Y114000D02*
G03*
X-70000Y117000I-3000J0D01*
G01*
X266590Y-133000D02*
G03*
X266590Y-133000I-5590J0D01*
G01*
X-276110Y-117500D02*
G03*
X-276110Y-117500I-5590J0D01*
G01*
Y-87500D02*
G03*
X-276110Y-87500I-5590J0D01*
G01*
X-214410Y-97500D02*
G03*
X-214410Y-97500I-5590J0D01*
G01*
X166000Y141789D02*
X170000Y137789D01*
X154000Y141789D02*
X166000D01*
X170000Y125789D02*
Y137789D01*
X153000Y126789D02*
X157000D01*
X155000Y124789D02*
Y128789D01*
X144750Y111789D02*
X156250D01*
X140000Y116539D02*
X144750Y111789D01*
X140000Y116539D02*
Y127789D01*
X-89000Y70000D02*
Y114000D01*
X-86000Y67000D02*
X-70000D01*
X-67000Y70000D02*
Y114000D01*
X-86000Y117000D02*
X-70000D01*
X-82000Y94000D02*
X-74000D01*
X-82000Y90000D02*
X-74000D01*
X-78000Y86000D02*
Y90000D01*
Y94000D02*
Y98000D01*
X-105999Y15000D02*
X-105001Y14001D01*
Y3999D02*
Y14001D01*
X-105999Y3000D02*
X-105001Y3999D01*
X-128999D02*
X-128001Y3000D01*
X-128999Y3999D02*
Y14001D01*
X-128001Y15000D01*
X-118000Y9000D02*
X-116000D01*
X-117000Y8000D02*
Y10000D01*
X-74999Y15000D02*
X-74001Y14001D01*
Y3999D02*
Y14001D01*
X-74999Y3000D02*
X-74001Y3999D01*
X-97999D02*
X-97001Y3000D01*
X-97999Y3999D02*
Y14001D01*
X-97001Y15000D01*
X-87000Y9000D02*
X-85000D01*
X-86000Y8000D02*
Y10000D01*
X-204100Y-57500D02*
X-203100Y-56500D01*
Y-58500D02*
Y-56500D01*
X-204100Y-57500D02*
X-203100Y-58500D01*
X-205600Y-57500D02*
X-202100Y-54000D01*
Y-61000D02*
Y-54000D01*
X-205600Y-57500D02*
X-202100Y-61000D01*
X-207100Y-57500D02*
X-201100Y-51500D01*
Y-63500D02*
Y-51500D01*
X-207100Y-57500D02*
X-201100Y-63500D01*
X-260000Y-87500D02*
Y-82000D01*
X-270000Y-87500D02*
X-260000D01*
Y-82000D02*
X-256000D01*
X-260000Y-87500D02*
Y-82000D01*
X-270000Y-87500D02*
X-260000D01*
X-220000Y-82000D02*
Y-60000D01*
X-230000Y-82000D02*
X-220000D01*
X-243000Y36000D02*
Y44000D01*
X-247000Y40000D02*
X-239000D01*
X-220000Y110000D02*
Y132000D01*
X-230000D02*
X-220000D01*
X-260000D02*
X-256000D01*
X-260000D02*
Y137500D01*
X-270000D02*
X-260000D01*
Y132000D02*
Y137500D01*
X-270000D02*
X-260000D01*
X-270000Y-87500D02*
Y137500D01*
X12000Y121000D02*
X26000D01*
X12000Y181000D02*
X26000D01*
X17000Y151000D02*
X21000D01*
X19000Y149000D02*
Y153000D01*
D130*
X234200Y152220D02*
G03*
X234200Y152220I-2500J0D01*
G01*
X232700D02*
G03*
X232700Y152220I-1000J0D01*
G01*
X244400Y157300D02*
Y182700D01*
X193600D02*
X244400D01*
X193600Y157300D02*
Y182700D01*
Y157300D02*
X244400D01*
X219000D02*
Y182700D01*
M02*
