%FSLAX44Y44*%
%MOMM*%
G71*
G01*
G75*
G04 Layer_Physical_Order=1*
G04 Layer_Color=255*
%ADD10R,0.5000X0.6000*%
%ADD11R,1.0668X0.8128*%
%ADD12R,0.6000X0.5000*%
%ADD13R,0.8000X1.6000*%
%ADD14O,2.0320X0.6096*%
%ADD15R,2.0320X0.6096*%
%ADD16O,2.0000X0.3500*%
%ADD17R,1.5000X0.4000*%
G04:AMPARAMS|DCode=18|XSize=0.22mm|YSize=0.8mm|CornerRadius=0mm|HoleSize=0mm|Usage=FLASHONLY|Rotation=90.000|XOffset=0mm|YOffset=0mm|HoleType=Round|Shape=RoundedRectangle|*
%AMROUNDEDRECTD18*
21,1,0.2200,0.8000,0,0,90.0*
21,1,0.2200,0.8000,0,0,90.0*
1,1,0.0000,0.4000,0.1100*
1,1,0.0000,0.4000,-0.1100*
1,1,0.0000,-0.4000,-0.1100*
1,1,0.0000,-0.4000,0.1100*
%
%ADD18ROUNDEDRECTD18*%
G04:AMPARAMS|DCode=19|XSize=0.22mm|YSize=0.8mm|CornerRadius=0mm|HoleSize=0mm|Usage=FLASHONLY|Rotation=0.000|XOffset=0mm|YOffset=0mm|HoleType=Round|Shape=RoundedRectangle|*
%AMROUNDEDRECTD19*
21,1,0.2200,0.8000,0,0,0.0*
21,1,0.2200,0.8000,0,0,0.0*
1,1,0.0000,0.1100,-0.4000*
1,1,0.0000,-0.1100,-0.4000*
1,1,0.0000,-0.1100,0.4000*
1,1,0.0000,0.1100,0.4000*
%
%ADD19ROUNDEDRECTD19*%
%ADD20R,4.3000X4.3000*%
%ADD21R,1.4000X0.6000*%
%ADD22R,1.8000X0.2500*%
%ADD23R,1.2000X2.2000*%
%ADD24R,1.6000X1.4000*%
%ADD25R,1.1000X1.4000*%
%ADD26R,0.7000X1.6000*%
%ADD27R,0.6000X0.7000*%
%ADD28R,1.2000X1.4000*%
%ADD29P,1.8385X4X90.0*%
%ADD30R,0.8890X1.0160*%
%ADD31R,1.0160X0.8890*%
%ADD32C,0.4000*%
%ADD33C,0.2000*%
%ADD34C,0.3000*%
%ADD35C,0.2540*%
%ADD36C,0.1270*%
%ADD37C,0.5000*%
%ADD38C,0.6000*%
%ADD39C,0.5000*%
%ADD40C,0.3000*%
G04:AMPARAMS|DCode=41|XSize=4mm|YSize=4mm|CornerRadius=2mm|HoleSize=0mm|Usage=FLASHONLY|Rotation=0.000|XOffset=0mm|YOffset=0mm|HoleType=Round|Shape=RoundedRectangle|*
%AMROUNDEDRECTD41*
21,1,4.0000,0.0000,0,0,0.0*
21,1,0.0000,4.0000,0,0,0.0*
1,1,4.0000,0.0000,0.0000*
1,1,4.0000,0.0000,0.0000*
1,1,4.0000,0.0000,0.0000*
1,1,4.0000,0.0000,0.0000*
%
%ADD41ROUNDEDRECTD41*%
%ADD42R,1.5240X1.5240*%
%ADD43C,1.5240*%
G36*
X266698Y5802D02*
Y-4802D01*
X263500Y-8000D01*
X240000D01*
X238500Y-6500D01*
Y7500D01*
X239500Y8500D01*
X264000D01*
X266698Y5802D01*
D02*
G37*
G36*
X251022Y27500D02*
X251530Y27000D01*
X251530Y12500D01*
X251030Y12000D01*
X222000Y12000D01*
X220657Y13343D01*
X220657Y26657D01*
X221500Y27500D01*
X251022Y27500D01*
D02*
G37*
G36*
X251000Y57000D02*
Y33000D01*
X249778Y31778D01*
X226222D01*
X215000Y43000D01*
Y50000D01*
X223278Y58278D01*
X249722D01*
X251000Y57000D01*
D02*
G37*
D10*
X-42500Y-27187D02*
D03*
X-33500D02*
D03*
X193500Y-121000D02*
D03*
X184500D02*
D03*
X-21941Y-164000D02*
D03*
X-30941D02*
D03*
X-189500Y-103000D02*
D03*
X-180500D02*
D03*
X-168412Y-118412D02*
D03*
X-159411D02*
D03*
X-78691Y-94390D02*
D03*
X-69690D02*
D03*
X-239500Y-175000D02*
D03*
X-230500D02*
D03*
X-59500Y-164000D02*
D03*
X-50500D02*
D03*
X-84500Y-43000D02*
D03*
X-93500D02*
D03*
X-92000Y18000D02*
D03*
X-101000D02*
D03*
X-33500Y-2000D02*
D03*
X-42500D02*
D03*
X134500Y84000D02*
D03*
X143500D02*
D03*
X-33500Y-14690D02*
D03*
X-42500D02*
D03*
X181000Y-109000D02*
D03*
X190000D02*
D03*
X-33500Y-40000D02*
D03*
X-42500D02*
D03*
X-16323Y10510D02*
D03*
X-7323D02*
D03*
Y23010D02*
D03*
X-16323D02*
D03*
D11*
X-84544Y-3411D02*
D03*
Y-22487D02*
D03*
X-61608Y-12949D02*
D03*
X-138544Y-118412D02*
D03*
Y-137487D02*
D03*
X-115608Y-127949D02*
D03*
X89528Y62949D02*
D03*
X112464Y72487D02*
D03*
Y53411D02*
D03*
D12*
X141000Y28500D02*
D03*
Y19500D02*
D03*
X99000Y500D02*
D03*
Y-8500D02*
D03*
X42730Y-140270D02*
D03*
Y-149270D02*
D03*
X29982Y-116515D02*
D03*
Y-107515D02*
D03*
X-170000Y-88500D02*
D03*
Y-79500D02*
D03*
X141270Y-179500D02*
D03*
Y-170500D02*
D03*
X-76000Y-147500D02*
D03*
Y-138500D02*
D03*
X89000Y87500D02*
D03*
Y96500D02*
D03*
X123000Y-8500D02*
D03*
Y500D02*
D03*
X165270Y-150730D02*
D03*
Y-159730D02*
D03*
X141270Y-150730D02*
D03*
Y-159730D02*
D03*
X-76000Y-116500D02*
D03*
Y-125500D02*
D03*
X92000Y-170500D02*
D03*
Y-179500D02*
D03*
X104000D02*
D03*
Y-170500D02*
D03*
X116000D02*
D03*
Y-179500D02*
D03*
X128000D02*
D03*
Y-170500D02*
D03*
X153000Y-150730D02*
D03*
Y-159730D02*
D03*
X111000Y-8500D02*
D03*
Y500D02*
D03*
X135000Y-8500D02*
D03*
Y500D02*
D03*
X117000Y-93500D02*
D03*
Y-84500D02*
D03*
X109000Y-44500D02*
D03*
Y-53500D02*
D03*
Y-74500D02*
D03*
Y-65500D02*
D03*
X42730Y-128270D02*
D03*
Y-119270D02*
D03*
X58730Y-128270D02*
D03*
Y-119270D02*
D03*
Y-140270D02*
D03*
Y-149270D02*
D03*
X30000Y-85500D02*
D03*
Y-94500D02*
D03*
X-98000Y-136500D02*
D03*
Y-127500D02*
D03*
X-156000Y-79500D02*
D03*
Y-88500D02*
D03*
D13*
X221250Y-178000D02*
D03*
X208750D02*
D03*
X196250D02*
D03*
X183750D02*
D03*
X171250D02*
D03*
X158750D02*
D03*
D14*
X-50080Y-94390D02*
D03*
Y-81691D02*
D03*
Y-68991D02*
D03*
Y-56290D02*
D03*
X5800D02*
D03*
Y-68991D02*
D03*
Y-81691D02*
D03*
D15*
Y-94390D02*
D03*
D16*
X-51319Y-111500D02*
D03*
Y-118000D02*
D03*
Y-124500D02*
D03*
Y-131000D02*
D03*
Y-137500D02*
D03*
Y-144000D02*
D03*
Y-150500D02*
D03*
X6681Y-111500D02*
D03*
Y-118000D02*
D03*
Y-124500D02*
D03*
Y-131000D02*
D03*
Y-137500D02*
D03*
Y-144000D02*
D03*
Y-150500D02*
D03*
D17*
X-187500Y-161750D02*
D03*
Y-155250D02*
D03*
Y-148750D02*
D03*
Y-142250D02*
D03*
X-230500D02*
D03*
Y-148750D02*
D03*
Y-155250D02*
D03*
Y-161750D02*
D03*
D18*
X130678Y-49494D02*
D03*
Y-53494D02*
D03*
Y-57494D02*
D03*
Y-45494D02*
D03*
Y-41494D02*
D03*
Y-37494D02*
D03*
Y-33494D02*
D03*
Y-29494D02*
D03*
Y-61494D02*
D03*
Y-65494D02*
D03*
Y-73494D02*
D03*
Y-69494D02*
D03*
X190678Y-33495D02*
D03*
Y-29495D02*
D03*
Y-37494D02*
D03*
Y-41494D02*
D03*
Y-73494D02*
D03*
Y-69494D02*
D03*
Y-65494D02*
D03*
Y-61494D02*
D03*
Y-57494D02*
D03*
Y-45494D02*
D03*
Y-49495D02*
D03*
Y-53495D02*
D03*
D19*
X162678Y-21494D02*
D03*
X158678D02*
D03*
X154678D02*
D03*
X166678D02*
D03*
X170678D02*
D03*
X174678D02*
D03*
X178678D02*
D03*
X182678D02*
D03*
X150678D02*
D03*
X146678D02*
D03*
X138678D02*
D03*
X142678D02*
D03*
X182678Y-81495D02*
D03*
X178678D02*
D03*
X174678D02*
D03*
X170678D02*
D03*
X166678D02*
D03*
X138678D02*
D03*
X142678D02*
D03*
X146678D02*
D03*
X150678D02*
D03*
X154678D02*
D03*
X158678D02*
D03*
X162678D02*
D03*
D20*
X160678Y-51494D02*
D03*
D21*
X-158500Y-155800D02*
D03*
X-95500D02*
D03*
Y-164200D02*
D03*
X-158500D02*
D03*
D22*
X244700Y2500D02*
D03*
X282700D02*
D03*
Y7500D02*
D03*
X244700D02*
D03*
X282700Y12500D02*
D03*
X244700D02*
D03*
X282700Y17500D02*
D03*
X244700D02*
D03*
X282700Y22500D02*
D03*
X244700D02*
D03*
X282700Y27500D02*
D03*
X244700D02*
D03*
X282700Y32500D02*
D03*
X244700D02*
D03*
X282700Y37500D02*
D03*
X244700D02*
D03*
Y-2500D02*
D03*
X282700D02*
D03*
X244700Y-7500D02*
D03*
X282700D02*
D03*
X244700Y-12500D02*
D03*
X282700D02*
D03*
X244700Y-17500D02*
D03*
X282700D02*
D03*
X244700Y-22500D02*
D03*
X282700D02*
D03*
X244700Y-27500D02*
D03*
X282700D02*
D03*
X244700Y-32500D02*
D03*
X282700D02*
D03*
Y-37500D02*
D03*
X244700D02*
D03*
Y-122500D02*
D03*
X282700D02*
D03*
X244700Y-117500D02*
D03*
X282700D02*
D03*
Y-112500D02*
D03*
X244700D02*
D03*
X282700Y-107500D02*
D03*
X244700D02*
D03*
X282700Y-102500D02*
D03*
X244700D02*
D03*
X282700Y-97500D02*
D03*
X244700D02*
D03*
X282700Y-92500D02*
D03*
X244700D02*
D03*
X282700Y-87500D02*
D03*
X244700D02*
D03*
X282700Y-82500D02*
D03*
X244700D02*
D03*
Y-42500D02*
D03*
X282700D02*
D03*
X244700Y-47500D02*
D03*
X282700D02*
D03*
X244700Y-52500D02*
D03*
X282700D02*
D03*
X244700Y-57500D02*
D03*
X282700D02*
D03*
X244700Y-62500D02*
D03*
X282700D02*
D03*
X244700Y-67500D02*
D03*
X282700D02*
D03*
X244700Y-72500D02*
D03*
X282700D02*
D03*
Y-77500D02*
D03*
X244700D02*
D03*
Y72500D02*
D03*
X282700D02*
D03*
Y77500D02*
D03*
X244700D02*
D03*
X282700Y82500D02*
D03*
X244700D02*
D03*
X282700Y87500D02*
D03*
X244700D02*
D03*
X282700Y92500D02*
D03*
X244700D02*
D03*
X282700Y97500D02*
D03*
X244700D02*
D03*
X282700Y102500D02*
D03*
X244700D02*
D03*
X282700Y107500D02*
D03*
X244700D02*
D03*
Y67500D02*
D03*
X282700D02*
D03*
X244700Y62500D02*
D03*
X282700D02*
D03*
X244700Y57500D02*
D03*
X282700D02*
D03*
X244700Y52500D02*
D03*
X282700D02*
D03*
X244700Y47500D02*
D03*
X282700D02*
D03*
X244700Y42500D02*
D03*
X282700D02*
D03*
X244700Y112500D02*
D03*
X282700D02*
D03*
Y117500D02*
D03*
X244700D02*
D03*
X282700Y122500D02*
D03*
X244700D02*
D03*
X-245700Y2500D02*
D03*
Y7500D02*
D03*
Y12500D02*
D03*
Y17500D02*
D03*
Y22500D02*
D03*
Y27500D02*
D03*
Y32500D02*
D03*
Y37500D02*
D03*
Y-2500D02*
D03*
Y-7500D02*
D03*
Y-12500D02*
D03*
Y-17500D02*
D03*
Y-22500D02*
D03*
Y-27500D02*
D03*
Y-32500D02*
D03*
Y-37500D02*
D03*
Y-122500D02*
D03*
Y-117500D02*
D03*
Y-112500D02*
D03*
Y-107500D02*
D03*
Y-102500D02*
D03*
Y-97500D02*
D03*
Y-92500D02*
D03*
Y-87500D02*
D03*
Y-82500D02*
D03*
Y-42500D02*
D03*
Y-47500D02*
D03*
Y-52500D02*
D03*
Y-57500D02*
D03*
Y-62500D02*
D03*
Y-67500D02*
D03*
Y-72500D02*
D03*
Y-77500D02*
D03*
Y72500D02*
D03*
Y77500D02*
D03*
Y82500D02*
D03*
Y87500D02*
D03*
Y92500D02*
D03*
Y97500D02*
D03*
Y102500D02*
D03*
Y107500D02*
D03*
Y67500D02*
D03*
Y62500D02*
D03*
Y57500D02*
D03*
Y52500D02*
D03*
Y47500D02*
D03*
Y42500D02*
D03*
Y112500D02*
D03*
Y117500D02*
D03*
Y122500D02*
D03*
X-281700D02*
D03*
Y117500D02*
D03*
Y112500D02*
D03*
Y42500D02*
D03*
Y47500D02*
D03*
Y52500D02*
D03*
Y57500D02*
D03*
Y62500D02*
D03*
Y67500D02*
D03*
Y107500D02*
D03*
Y102500D02*
D03*
Y97500D02*
D03*
Y92500D02*
D03*
Y87500D02*
D03*
Y82500D02*
D03*
Y77500D02*
D03*
Y72500D02*
D03*
Y-77500D02*
D03*
Y-72500D02*
D03*
Y-67500D02*
D03*
Y-62500D02*
D03*
Y-57500D02*
D03*
Y-52500D02*
D03*
Y-47500D02*
D03*
Y-42500D02*
D03*
Y-82500D02*
D03*
Y-87500D02*
D03*
Y-92500D02*
D03*
Y-97500D02*
D03*
Y-102500D02*
D03*
Y-107500D02*
D03*
Y-112500D02*
D03*
Y-117500D02*
D03*
Y-122500D02*
D03*
Y-37500D02*
D03*
Y-32500D02*
D03*
Y-27500D02*
D03*
Y-22500D02*
D03*
Y-17500D02*
D03*
Y-12500D02*
D03*
Y-7500D02*
D03*
Y-2500D02*
D03*
Y37500D02*
D03*
Y32500D02*
D03*
Y27500D02*
D03*
Y22500D02*
D03*
Y17500D02*
D03*
Y12500D02*
D03*
Y7500D02*
D03*
Y2500D02*
D03*
D23*
X-193626Y145198D02*
D03*
X-38539Y145201D02*
D03*
D24*
X-184616Y49201D02*
D03*
D25*
X-38596Y49111D02*
D03*
D26*
X-138659Y44118D02*
D03*
X-127606D02*
D03*
X-116646D02*
D03*
X-105630D02*
D03*
X-94590D02*
D03*
X-83623D02*
D03*
X-72656D02*
D03*
X-61606D02*
D03*
X-50653D02*
D03*
D27*
X-46100Y26000D02*
D03*
X-31900D02*
D03*
Y11000D02*
D03*
X-46100D02*
D03*
D28*
X92500Y-44000D02*
D03*
Y-66000D02*
D03*
X77500D02*
D03*
Y-44000D02*
D03*
D29*
X183000Y50000D02*
D03*
X161000Y28000D02*
D03*
D30*
X217001Y50000D02*
D03*
X200999D02*
D03*
D31*
X203810Y26271D02*
D03*
Y10269D02*
D03*
D32*
X161000Y107000D02*
X177000D01*
X-175750Y-148750D02*
X-170000Y-143000D01*
X-187500Y-148750D02*
X-175750D01*
X-38539Y131630D02*
Y145201D01*
X-35000Y121000D02*
Y128090D01*
X-38539Y131630D02*
X-35000Y128090D01*
X135000Y-179500D02*
X141270D01*
X128000D02*
X135000D01*
X-246000Y-175000D02*
X-239500D01*
X-86000Y-146000D02*
X-84500Y-147500D01*
X-76000D01*
X-59500Y-164000D01*
X-29709Y-56290D02*
X-23000Y-63000D01*
X-50080Y-56290D02*
X-29709D01*
X-87610Y-94390D02*
X-78691D01*
X141000Y28500D02*
Y36000D01*
X95634Y172366D02*
X161000Y107000D01*
X-33500Y-8345D02*
Y-2000D01*
Y-14690D02*
Y-8345D01*
X7655D01*
X-105630Y26209D02*
Y44118D01*
Y26209D02*
X-101000Y21580D01*
Y18000D02*
Y21580D01*
X-84000Y26000D02*
Y31606D01*
X-92000Y18000D02*
X-84000Y26000D01*
X-101000Y3631D02*
Y18000D01*
X-230500Y-161750D02*
X-215250D01*
X-84000Y31606D02*
Y44118D01*
X-230500Y-175000D02*
Y-161750D01*
X95634Y172366D02*
X99634D01*
X116000Y-179500D02*
X128000D01*
X92000D02*
X116000D01*
Y-185000D02*
Y-179500D01*
X154678Y-9461D02*
Y9046D01*
X163000Y17368D01*
Y28000D01*
X172105Y-177145D02*
Y-166980D01*
X171250Y-181750D02*
Y-178000D01*
X-198500Y-142500D02*
X-187500D01*
X203810Y26271D02*
Y34270D01*
X-170000Y-143000D02*
X-159000D01*
X166678Y-5000D02*
Y3274D01*
X173673Y10269D01*
X203810D01*
X203986Y10445D02*
X213000Y1431D01*
X-105630Y44118D02*
Y58000D01*
X92006Y-92994D02*
X92011Y-93000D01*
X92006Y-92994D02*
X118356D01*
X100500Y-83000D02*
X109000Y-74500D01*
X92000Y-83000D02*
X100500D01*
X92500Y-44000D02*
Y-30072D01*
X67000Y-70000D02*
X78200D01*
D33*
X223500Y102500D02*
X244700D01*
X214000Y93000D02*
X223500Y102500D01*
X202000Y93000D02*
X214000D01*
X88650Y33650D02*
Y87500D01*
X58350Y3350D02*
X88650Y33650D01*
X58350Y-8650D02*
Y3350D01*
X-159000Y55000D02*
X-146000Y68000D01*
X-159000Y-8000D02*
Y55000D01*
X-183500Y-32500D02*
X-159000Y-8000D01*
X-155000Y53343D02*
X-144343Y64000D01*
X-155000Y-9657D02*
Y53343D01*
X-151000Y51686D02*
X-143686Y59000D01*
X-151000Y-11314D02*
Y51686D01*
X-182843Y-37500D02*
X-155000Y-9657D01*
X-182186Y-42500D02*
X-151000Y-11314D01*
X-138659Y-4630D02*
Y31606D01*
X-245700Y-47500D02*
X-181529D01*
X-245700Y-42500D02*
X-182186D01*
X-245700Y-37500D02*
X-182843D01*
X-181529Y-47500D02*
X-138659Y-4630D01*
X-245700Y-32500D02*
X-183500D01*
X-245700Y-57500D02*
X-176500D01*
X-162000Y-43000D01*
X-245700Y-52500D02*
X-178696D01*
X-156196Y-30000D01*
X-94590Y32017D02*
Y44118D01*
X-12691Y-68991D02*
X5800D01*
X-12691Y-81691D02*
Y-68991D01*
Y-81691D02*
X5800D01*
X-110000Y-28867D02*
X-84544Y-3411D01*
X-110000Y-53000D02*
Y-28867D01*
X-145500Y-88500D02*
X-110000Y-53000D01*
X-156000Y-88500D02*
X-145500D01*
X-156000Y-94000D02*
Y-88500D01*
X-165000Y-103000D02*
X-156000Y-94000D01*
X-180500Y-103000D02*
X-165000D01*
X-226500Y-102500D02*
X-214000Y-115000D01*
X-245700Y-102500D02*
X-226500D01*
X-293307Y-122500D02*
X-281700D01*
X-293307Y-92500D02*
X-281700D01*
X-293307D02*
Y-87500D01*
Y-82500D02*
X-281700D01*
X-293307Y-87500D02*
Y-82500D01*
X-267500Y2500D02*
Y7500D01*
Y-2500D02*
Y2500D01*
X-281700Y-2500D02*
X-267500D01*
X-281700Y2500D02*
X-267500D01*
X-281700Y7500D02*
X-267500D01*
Y-27500D02*
Y-22500D01*
X-281700D02*
X-267500D01*
X-281700Y-27500D02*
X-267500D01*
X-281700Y-37500D02*
X-267500D01*
Y-32500D01*
X-281700D02*
X-267500D01*
X-281700Y-27500D02*
X-281700Y-27500D01*
X-207500Y-62500D02*
X-205000Y-65000D01*
X-213500Y-67500D02*
X-207636Y-73363D01*
Y-76000D02*
Y-73363D01*
X-230500Y-142500D02*
X-215500D01*
X-207636Y-134636D01*
Y-76000D01*
X-187500Y-162000D02*
X-175000D01*
X-172800Y-164200D01*
X-158500D01*
X-8500Y-137500D02*
X6681D01*
X-8500D02*
Y-130000D01*
Y-124500D01*
Y-130000D02*
X-7500Y-131000D01*
X6681D01*
X-8500Y-124500D02*
X6681D01*
X104000Y-139000D02*
Y-126529D01*
X81422Y-161578D02*
X104000Y-139000D01*
X81422Y-168064D02*
Y-161578D01*
X100000Y-137000D02*
Y-124872D01*
X69961Y-167039D02*
X100000Y-137000D01*
X96000Y-134657D02*
Y-123216D01*
X53000Y-162000D02*
X68657D01*
X96000Y-134657D01*
X92000Y-133000D02*
Y-121559D01*
X67328Y-157672D02*
X92000Y-133000D01*
X51672Y-157672D02*
X67328D01*
X92000Y-121559D02*
X113216Y-100343D01*
X96000Y-123216D02*
X114327Y-104888D01*
X100000Y-124872D02*
X113872Y-111000D01*
X104000Y-126529D02*
X115529Y-115000D01*
X244700Y-87500D02*
X265500D01*
X244700Y-32500D02*
X256000D01*
X259500Y-29000D01*
X212694Y-22694D02*
X222500Y-32500D01*
X244700D01*
X170678Y-9071D02*
X177069Y-2680D01*
X200000D01*
X225043Y151257D02*
X243743D01*
X206300Y170000D02*
X225043Y151257D01*
X143500Y84000D02*
X213000D01*
X29982Y-136982D02*
Y-116515D01*
X134500Y64500D02*
Y84000D01*
X123412Y53411D02*
X134500Y64500D01*
X112464Y53411D02*
X123412D01*
X268500Y-57500D02*
X282700D01*
X265000Y-61000D02*
X268500Y-57500D01*
X265000Y-73000D02*
Y-61000D01*
X-13319Y-150500D02*
X-8500D01*
Y-144000D01*
X-21941Y-159123D02*
X-13319Y-150500D01*
X-21941Y-164000D02*
Y-159123D01*
X-8500Y-144000D02*
X6681D01*
X-72656Y31606D02*
Y44118D01*
X-116646Y31606D02*
Y44118D01*
X-127606Y31606D02*
Y44118D01*
X-138659Y31606D02*
Y44118D01*
X-72000Y14250D02*
X-64750D01*
X-74250D02*
X-72000D01*
X-143686Y59000D02*
X-131000D01*
X-144343Y64000D02*
X-79657D01*
X-146000Y68000D02*
X-73000D01*
X-16323Y23010D02*
Y33000D01*
X-61606Y31639D02*
Y44118D01*
X-53000Y26000D02*
X-50653D01*
X-64750Y14250D02*
X-53000Y26000D01*
X-50653D02*
Y44118D01*
Y26000D02*
X-45100D01*
X29890Y-94390D02*
X29982Y-94482D01*
X5800Y-94390D02*
X29890D01*
X29982Y-107515D02*
Y-95515D01*
X-61606Y44118D02*
Y56606D01*
X-73000Y68000D02*
X-61606Y56606D01*
X-127606Y44118D02*
Y55606D01*
X-131000Y59000D02*
X-127606Y55606D01*
X-79657Y64000D02*
X-72656Y56999D01*
Y44118D02*
Y56999D01*
X-98000Y-143000D02*
Y-136500D01*
X-115608Y-127949D02*
X-98449D01*
X-174326Y-118412D02*
X-168412D01*
X-245700Y-112500D02*
X-226500D01*
X-245700Y-107500D02*
X-231500D01*
X-159411Y-118412D02*
X-138544D01*
X-7710Y-56290D02*
X5800D01*
X-20000Y-89000D02*
X-12691Y-81691D01*
X-20000Y-104000D02*
Y-89000D01*
X-27500Y-111500D02*
X-20000Y-104000D01*
X-51319Y-111500D02*
X-27500D01*
X-8500Y-150500D02*
X6681D01*
X-76000Y-140000D02*
Y-125500D01*
X-68500D02*
X-67500Y-124500D01*
X-51319D01*
X-76000Y-125500D02*
X-68500D01*
X-51377Y-118059D02*
X-51319Y-118000D01*
X-66941Y-118059D02*
X-51377D01*
X-68500Y-116500D02*
X-66941Y-118059D01*
X-76000Y-116500D02*
X-68500D01*
X-51319Y-118000D02*
X6681D01*
X244700Y-102500D02*
X257000D01*
X244700Y-97500D02*
X263366D01*
X190000Y-109000D02*
X201000D01*
X190000Y-92677D02*
X195000Y-87677D01*
X190000Y-109000D02*
Y-92677D01*
X193000Y-76000D02*
Y-73494D01*
Y-76000D02*
X195000Y-78000D01*
Y-87677D02*
Y-78000D01*
X261000Y-133000D02*
X270000Y-124000D01*
Y-92000D01*
X265500Y-87500D02*
X270000Y-92000D01*
X115529Y-115000D02*
X136151D01*
X113872Y-111000D02*
X134494D01*
X114327Y-104888D02*
X130617D01*
X113216Y-100343D02*
X129505D01*
X58730Y-119270D02*
Y-111770D01*
X42730Y-119270D02*
Y-111770D01*
X-224900Y-92500D02*
X-219400Y-87000D01*
X-215000D01*
X-216343Y-149000D02*
X-203000Y-135657D01*
Y-67000D01*
X-205000Y-65000D02*
X-203000Y-67000D01*
X-245700Y-67500D02*
X-213500D01*
X-245700Y-62500D02*
X-207500D01*
X-245700Y-92500D02*
X-224900D01*
X269500Y107500D02*
X282700D01*
X243743Y151257D02*
X262000Y133000D01*
Y72000D02*
Y133000D01*
X257500Y67500D02*
X262000Y72000D01*
X141000Y11556D02*
X142678Y9878D01*
X141000Y11556D02*
Y19500D01*
X111000Y500D02*
Y7000D01*
X142678Y-21494D02*
Y9878D01*
X138678Y-21494D02*
Y-16678D01*
X135000Y-13000D02*
X138578Y-16578D01*
X135000Y-13000D02*
Y-8500D01*
X111000Y500D02*
X123000D01*
X99000Y-8500D02*
X111087D01*
X123000D02*
X135000D01*
X122394Y-29394D02*
X130678D01*
X111455Y-18455D02*
X122394Y-29394D01*
X111455Y-18455D02*
Y-8868D01*
X46782Y-162561D02*
X51672Y-157672D01*
X-3561Y-162561D02*
X46782D01*
X47939Y-167061D02*
X53000Y-162000D01*
X56039Y-167039D02*
X69961D01*
X79500Y-55000D02*
X115931D01*
X122425Y-61494D01*
X126406Y-73594D02*
X130678D01*
X120000Y-80000D02*
X126406Y-73594D01*
X120000Y-83098D02*
Y-80000D01*
X-7461Y-166461D02*
X-3561Y-162561D01*
X17939Y-167061D02*
X47939D01*
X179000Y-121000D02*
X184500D01*
X193500D02*
X200000D01*
X-265000Y-82500D02*
X-245700D01*
X-260000Y-87500D02*
X-243500D01*
X-245700Y-72500D02*
X-218000D01*
X-245700Y-77500D02*
X-223000D01*
X-281700Y112500D02*
X-264363D01*
X-281700Y117500D02*
X-269500D01*
X-281700Y97500D02*
X-264363D01*
X-281700Y102500D02*
X-269500D01*
X-281700Y82500D02*
X-264363D01*
X-281700Y87500D02*
X-269500D01*
X-281700Y67500D02*
X-264363D01*
X-281700Y72500D02*
X-269500D01*
X-281700Y52500D02*
X-264363D01*
X-281700Y57500D02*
X-269500D01*
X-281700Y42500D02*
X-269500D01*
X-245700Y-57610D02*
X-229000D01*
X-281700Y37500D02*
X-264363D01*
X271000Y-82500D02*
X282700D01*
X232000Y-17500D02*
X236000D01*
X244700Y-112500D02*
X257000D01*
X244700Y-117500D02*
X263366D01*
X282700Y-77500D02*
X295000D01*
X236500Y-17500D02*
X244700D01*
X282700Y-42500D02*
X295000D01*
Y-42500D02*
X295000Y-42500D01*
X271431Y-47500D02*
X282700D01*
X265000Y-41069D02*
X271431Y-47500D01*
X271000Y-27500D02*
X282700D01*
Y-32500D02*
X295000D01*
X282700Y7500D02*
X295000D01*
X270000Y-37500D02*
X282700D01*
X265000Y-32500D02*
X270000Y-37500D01*
X259500Y-29000D02*
Y-22000D01*
X282700Y67500D02*
X295000D01*
X244700Y62500D02*
X246450D01*
X230500D02*
X244700D01*
X225000Y68000D02*
X230500Y62500D01*
X280950Y67500D02*
X282700D01*
X-293307Y-87500D02*
X-281700D01*
X-293307Y-122500D02*
Y-117500D01*
X-281700D01*
X271000Y-62500D02*
X282700D01*
X149000Y-94494D02*
X150678Y-92816D01*
Y-81495D01*
X120000Y-72494D02*
X123000Y-69494D01*
X130678D01*
X170678Y-92683D02*
Y-81495D01*
X195110Y-29395D02*
X195119Y-29385D01*
X190778Y-29395D02*
X195110D01*
X190678Y-33495D02*
X197335D01*
X190678Y-29495D02*
X190778Y-29395D01*
X174678Y-21494D02*
Y-13662D01*
X178678Y-21494D02*
Y-16717D01*
X182678Y-21494D02*
Y-18816D01*
X186000Y-15494D01*
X199699Y-37494D02*
X201640Y-35554D01*
X190678Y-37494D02*
X199699D01*
X182678Y-81495D02*
X188178D01*
X146678Y-88827D02*
Y-81495D01*
X142678Y-87170D02*
Y-81495D01*
X190678Y-57494D02*
X204000D01*
X209000Y-62494D01*
X246450Y67500D02*
X257500D01*
X-230500Y-149000D02*
X-216343D01*
X207000Y-53495D02*
X217000Y-63494D01*
X190678Y-53495D02*
X207000D01*
X260500Y-45500D02*
X267500Y-52500D01*
X282700D01*
X190678Y-45494D02*
X213000D01*
X202356Y-40494D02*
X207000D01*
X201356Y-41494D02*
X202356Y-40494D01*
X190678Y-41494D02*
X201356D01*
X190678Y-61494D02*
X201000D01*
X211500Y-71994D01*
X244700Y-12500D02*
X259500D01*
X133178Y-83744D02*
X138606D01*
X138678Y-83816D01*
X190678Y-49495D02*
X209000D01*
X211000Y-51494D01*
X218000D01*
X222000Y-47494D01*
X-187500Y-155500D02*
X-158500D01*
X-245700Y-97500D02*
X-220000D01*
X91006Y-65494D02*
X130678D01*
X90500Y-66000D02*
X91006Y-65494D01*
X122425Y-61494D02*
X130678D01*
X166678Y-21494D02*
Y-5000D01*
X148000Y-10678D02*
Y-3569D01*
X146678Y-12000D02*
X148000Y-10678D01*
X146678Y-21494D02*
Y-12000D01*
X174678Y-13662D02*
X181000Y-7340D01*
X129505Y-100343D02*
X142678Y-87170D01*
X130617Y-104888D02*
X146678Y-88827D01*
X134494Y-111000D02*
X145000Y-100494D01*
X136151Y-115000D02*
X146657Y-104494D01*
X206000Y-81000D02*
Y-80506D01*
X190678Y-65494D02*
X198636D01*
X195000Y-69494D02*
X206000Y-80494D01*
X190678Y-69494D02*
X195000D01*
X205994Y-80500D02*
X206000Y-80506D01*
X224491Y-37546D02*
X244700D01*
X232000Y-27500D02*
X244700D01*
X224000Y-26000D02*
X227500Y-22500D01*
X184395Y-11000D02*
X197000D01*
X178678Y-16717D02*
X184395Y-11000D01*
X227500Y-22500D02*
X244700D01*
X170678Y-21494D02*
Y-9071D01*
X186000Y-15494D02*
X191000D01*
X193041Y-17536D01*
X224506Y-8000D02*
X229006Y-12500D01*
X244700D01*
X195119Y-29385D02*
Y-29339D01*
X228349Y-17500D02*
X232000D01*
X222849Y-12000D02*
X228349Y-17500D01*
X212458Y-12000D02*
X222849D01*
X195119Y-29339D02*
X212458Y-12000D01*
X193041Y-17536D02*
X200464D01*
X210000Y-8000D01*
X224506D01*
X197335Y-33495D02*
X208136Y-22694D01*
X212694D01*
X190678Y-73494D02*
X193000D01*
X211142Y-78000D02*
X214000D01*
X198636Y-65494D02*
X211142Y-78000D01*
X146657Y-104494D02*
X151643D01*
X158678Y-97460D01*
Y-81495D01*
X145000Y-100494D02*
X149986D01*
X154678Y-95803D01*
Y-81495D01*
X77500Y-53000D02*
Y-44000D01*
Y-53000D02*
X79500Y-55000D01*
X-170000Y-97840D02*
Y-88500D01*
X-290000Y190000D02*
G03*
X-300000Y180000I0J-10000D01*
G01*
Y-180000D02*
G03*
X-290000Y-190000I10000J0D01*
G01*
X299941Y180000D02*
G03*
X289941Y190000I-10000J0D01*
G01*
Y-190000D02*
G03*
X299941Y-180000I0J10000D01*
G01*
X-290000Y190000D02*
X289941Y190000D01*
X-290000Y-190000D02*
X289941Y-190000D01*
X-300000Y-180000D02*
Y180000D01*
X300000Y-180000D02*
Y180000D01*
D34*
X-69690Y-94390D02*
Y-87310D01*
X-80500Y-76500D02*
X-69690Y-87310D01*
X-84500Y-76500D02*
X-80500D01*
X-93500Y-67500D02*
Y-43000D01*
X-84500Y-76500D02*
Y-76500D01*
X-93500Y-67500D02*
X-84500Y-76500D01*
X-84544Y-28544D02*
Y-22487D01*
X-93500Y-37500D02*
X-84544Y-28544D01*
X-93500Y-43000D02*
Y-37500D01*
X89000Y96500D02*
Y154000D01*
Y96500D02*
X96500D01*
X-55343Y11000D02*
X-46100D01*
X-61608Y4735D02*
X-55343Y11000D01*
X-61608Y-12949D02*
Y4735D01*
X-31900Y10510D02*
X-16323D01*
X-50500Y-156000D02*
Y-151319D01*
Y-164000D02*
Y-156000D01*
Y-164000D02*
X-30941D01*
X-51319Y-150500D02*
X-50500Y-151319D01*
X-156000Y-79500D02*
Y-69600D01*
X29982Y-86515D02*
X36434D01*
X-170000Y-79500D02*
X-155980D01*
X-7323Y23010D02*
X2892D01*
X-7323Y10510D02*
Y23010D01*
X-50500Y-101340D02*
Y-94810D01*
X-69690Y-94390D02*
X-50080D01*
X-77450Y137450D02*
X-59000Y119000D01*
X-158550Y137450D02*
X-77450D01*
X151000Y59000D02*
X160632D01*
X128189Y36189D02*
X151000Y59000D01*
X128189Y14811D02*
Y36189D01*
X135000Y500D02*
Y8000D01*
X128189Y14811D02*
X135000Y8000D01*
X103811Y14811D02*
X128189D01*
X99000Y10000D02*
X103811Y14811D01*
X99000Y500D02*
Y10000D01*
X141270Y-159460D02*
X165270D01*
X158750Y-178000D02*
Y-172750D01*
X153000Y-167000D02*
X158750Y-172750D01*
X153000Y-167000D02*
Y-159730D01*
X135000Y-159460D02*
X141270D01*
Y-159730D02*
Y-159460D01*
Y-170500D02*
Y-159730D01*
X246450Y-67500D02*
X257000D01*
D35*
X-195416Y-103000D02*
X-189500D01*
X-196317Y37500D02*
X-185827Y47990D01*
X-184616Y49201D01*
X-197529Y47990D02*
X-185827D01*
X-201000Y37500D02*
X-196317D01*
X-35248Y35248D02*
X-31900Y31900D01*
X-38596Y38596D02*
X-35248Y35248D01*
X-293307Y32500D02*
X-281700D01*
X109000Y-44500D02*
Y-38000D01*
X112464Y72487D02*
X121487D01*
X-258000Y77500D02*
X-245700D01*
X-281700Y-17500D02*
X-269500D01*
X-245700Y47500D02*
X-230500D01*
X-258000Y107500D02*
X-245700D01*
X-38596Y38596D02*
Y49111D01*
X-31900Y26000D02*
Y31900D01*
X-84500Y-49500D02*
Y-43000D01*
X-125031Y-151000D02*
X-118000D01*
X-138544Y-137487D02*
X-125031Y-151000D01*
X-193700Y145272D02*
Y163700D01*
X-193626Y145198D02*
X-183198D01*
X35270Y-149270D02*
X42730D01*
X58730D01*
X-6819Y-111500D02*
X6681D01*
X-51319Y-144000D02*
X-33000D01*
X-51319Y-137500D02*
X-37819D01*
X58730Y-140270D02*
Y-128270D01*
X42730Y-140270D02*
Y-128270D01*
X-59000Y-27187D02*
X-42500D01*
X-64310Y-81691D02*
X-50080D01*
X-72000Y-74000D02*
X-64310Y-81691D01*
X-72000Y-74000D02*
Y-40187D01*
X-59000Y-27187D01*
X-42500Y-40000D02*
X-42189D01*
X-67000Y-69000D02*
Y-43000D01*
X-64000Y-40000D02*
X-42500D01*
X-67000Y-43000D02*
X-64000Y-40000D01*
X-50090Y-68991D02*
X-50080D01*
X-67000Y-69000D02*
X-50090D01*
X-42500Y-27187D02*
Y-1000D01*
X-33189Y-40000D02*
X-26000D01*
X-33189Y-27187D02*
X-26203D01*
X162565Y-120980D02*
X174545Y-109000D01*
X181000D01*
X154678Y-21494D02*
Y-9461D01*
X-293307Y92500D02*
X-281700D01*
X-293307Y107500D02*
X-281700D01*
X282700Y-87500D02*
X295000D01*
X282700Y-122500D02*
X295000D01*
X244700Y-92500D02*
X257000D01*
X244700Y-82500D02*
X257000D01*
X232000Y-42500D02*
X244700D01*
X282997Y-22500D02*
X295000D01*
X-258000Y62500D02*
X-245700D01*
X-258000Y92500D02*
X-245700D01*
X-258000Y122500D02*
X-245700D01*
X-293307Y77500D02*
X-281700D01*
Y-107500D02*
X-269500D01*
X-293307Y-102500D02*
X-281700D01*
X-293307Y-77500D02*
X-281700D01*
X-293307Y-42500D02*
X-281700D01*
X-293307Y-12500D02*
X-281700D01*
X-293307Y122500D02*
X-281700D01*
X-245700Y-133049D02*
Y-122500D01*
X-293307Y12500D02*
X-281700D01*
X-293307Y47500D02*
X-281700D01*
X-293307Y62500D02*
X-281700D01*
D36*
X118190Y-153561D02*
Y-143088D01*
X121460Y-154916D02*
Y-144443D01*
X124730Y-156270D02*
Y-145797D01*
X128000Y-170500D02*
Y-147152D01*
X101000Y-164000D02*
X105270Y-159730D01*
X94000Y-164000D02*
X101000D01*
X92000Y-166000D02*
X94000Y-164000D01*
X92000Y-170500D02*
Y-166000D01*
X105270Y-159730D02*
X112021D01*
X118190Y-153561D01*
X113376Y-163000D02*
X121460Y-154916D01*
X107000Y-163000D02*
X113376D01*
X104000Y-166000D02*
X107000Y-163000D01*
X104000Y-170500D02*
Y-166000D01*
X116000Y-170500D02*
Y-165000D01*
X124730Y-156270D01*
X128000Y-147152D02*
X178678Y-96474D01*
X118190Y-143088D02*
X162678Y-98601D01*
X121460Y-144443D02*
X166543Y-99360D01*
X124730Y-145797D02*
X174813Y-95715D01*
X178678Y-96474D02*
Y-81495D01*
X174678Y-90700D02*
Y-84899D01*
X174813Y-95715D02*
Y-90835D01*
X174678Y-90700D02*
X174813Y-90835D01*
X166543Y-99360D02*
Y-90970D01*
X166678Y-90835D01*
Y-81495D01*
X162678Y-98601D02*
Y-81495D01*
X244700Y-47500D02*
X246450D01*
X234627D02*
X244700D01*
X234251Y-52500D02*
X244700D01*
X233876Y-57500D02*
X244700D01*
X233500Y-62500D02*
X244700D01*
X232405Y-63595D02*
X233500Y-62500D01*
X208750Y-158250D02*
X213270Y-153730D01*
X216540Y-159290D02*
X221250Y-164000D01*
X229135Y-62241D02*
X233876Y-57500D01*
X225865Y-60886D02*
X234251Y-52500D01*
X222595Y-59532D02*
X234627Y-47500D01*
X232405Y-79595D02*
Y-63595D01*
X229135Y-78241D02*
Y-62241D01*
X225865Y-76886D02*
Y-60886D01*
X222595Y-75532D02*
Y-59532D01*
X196250Y-177000D02*
Y-166000D01*
X208750Y-177000D02*
Y-166000D01*
Y-158250D01*
X221250Y-177000D02*
Y-166000D01*
Y-164000D01*
X165000Y-150625D02*
Y-144124D01*
X153000Y-150730D02*
Y-144124D01*
X141270Y-150730D02*
Y-144230D01*
X196250Y-166000D02*
Y-150000D01*
X210000Y-136250D01*
X183750Y-177000D02*
Y-152250D01*
X206730Y-91397D02*
X222595Y-75532D01*
X213270Y-153730D02*
Y-94106D01*
X210000Y-136250D02*
Y-92751D01*
X183750Y-152250D02*
X206730Y-129270D01*
X210000Y-92751D02*
X225865Y-76886D01*
X206730Y-129270D02*
Y-91397D01*
X213270Y-94106D02*
X229135Y-78241D01*
X216540Y-159290D02*
Y-95460D01*
X232405Y-79595D01*
D37*
X160678Y-22494D02*
Y-13361D01*
D38*
X193000Y45000D02*
Y53000D01*
X184000Y50000D02*
X200999D01*
X218367D02*
X226000D01*
D39*
X276200Y132000D02*
D03*
Y-132000D02*
D03*
X-276200D02*
D03*
Y132000D02*
D03*
X151866Y171866D02*
D03*
X60600Y-47400D02*
D03*
X42500Y107500D02*
D03*
X77000Y145000D02*
D03*
X-185000Y-66000D02*
D03*
X182000Y102000D02*
D03*
X177000Y107000D02*
D03*
X172000Y102000D02*
D03*
X-197529Y47990D02*
D03*
X149000Y36000D02*
D03*
X-23740Y49260D02*
D03*
X164412Y169412D02*
D03*
X192524Y72476D02*
D03*
X109000Y-38000D02*
D03*
X186000Y143000D02*
D03*
X217633Y137795D02*
D03*
X121487Y72487D02*
D03*
X-258000Y77500D02*
D03*
X-269500Y-17500D02*
D03*
X-230500Y47500D02*
D03*
X42500Y-31500D02*
D03*
X116000Y121000D02*
D03*
X-258000Y107500D02*
D03*
X-246000Y-175000D02*
D03*
X-86000Y-146000D02*
D03*
X-23000Y-63000D02*
D03*
X-87610Y-94390D02*
D03*
X141000Y36000D02*
D03*
X98705Y117705D02*
D03*
X65000Y105000D02*
D03*
X61600Y93400D02*
D03*
X213000Y84000D02*
D03*
X202000Y93000D02*
D03*
X7655Y-8345D02*
D03*
X-144680Y17680D02*
D03*
X-125500Y168500D02*
D03*
X-35248Y35248D02*
D03*
X-147500Y-52500D02*
D03*
X-101000Y3631D02*
D03*
X-156000Y-52500D02*
D03*
X-84500Y-49500D02*
D03*
X-144680Y-100000D02*
D03*
X-118000Y-151000D02*
D03*
X29982Y-136982D02*
D03*
X-215250Y-161750D02*
D03*
X-193700Y163700D02*
D03*
X-183198Y145198D02*
D03*
X-159050Y124950D02*
D03*
X-106000Y90000D02*
D03*
X-66000Y76000D02*
D03*
X-28000Y114000D02*
D03*
X-35000D02*
D03*
X-28000Y121000D02*
D03*
X-35000D02*
D03*
X-42000D02*
D03*
X33421Y45598D02*
D03*
Y52598D02*
D03*
Y59598D02*
D03*
X61000Y154000D02*
D03*
X70000D02*
D03*
X79000D02*
D03*
X89000D02*
D03*
X96500Y96500D02*
D03*
X286500Y-131500D02*
D03*
X265000Y-73000D02*
D03*
X35270Y-149270D02*
D03*
X-6819Y-111500D02*
D03*
X-33000Y-144000D02*
D03*
X-37819Y-137500D02*
D03*
X-138659Y31606D02*
D03*
X-162000Y-43000D02*
D03*
X-156196Y-30000D02*
D03*
X-127606Y31606D02*
D03*
X-116646D02*
D03*
X-94590D02*
D03*
X-72656D02*
D03*
X-61606D02*
D03*
X-72000Y14250D02*
D03*
X-50500Y-156000D02*
D03*
X-156000Y-69600D02*
D03*
X36434Y-86515D02*
D03*
X41000Y118000D02*
D03*
X-118500Y107843D02*
D03*
X-16323Y33000D02*
D03*
X-170080Y-97920D02*
D03*
X-195416Y-103000D02*
D03*
X-260000Y-117000D02*
D03*
X-50500Y-101340D02*
D03*
X-84500Y-76500D02*
D03*
X-26000Y-40000D02*
D03*
Y-27390D02*
D03*
X-98000Y-143000D02*
D03*
X-174326Y-118412D02*
D03*
X-226500Y-112500D02*
D03*
X-231500Y-107500D02*
D03*
X-214000Y-115000D02*
D03*
X-8500Y-144000D02*
D03*
X-7710Y-56290D02*
D03*
X257000Y-102500D02*
D03*
X263366Y-97500D02*
D03*
X162565Y-120980D02*
D03*
X58730Y-111770D02*
D03*
X42730D02*
D03*
X-59000Y119000D02*
D03*
X-159050Y137450D02*
D03*
X-179000Y29000D02*
D03*
X-174000Y22000D02*
D03*
X-198000Y97500D02*
D03*
X-227000Y-84000D02*
D03*
X-159050Y74550D02*
D03*
Y87050D02*
D03*
Y99750D02*
D03*
X-207636Y-76000D02*
D03*
X-205000Y-65000D02*
D03*
X-215000Y-87000D02*
D03*
X-67000Y-69000D02*
D03*
X200000Y102000D02*
D03*
X269500Y107500D02*
D03*
X58350Y-8650D02*
D03*
X95634Y172366D02*
D03*
X111000Y7000D02*
D03*
X67000Y-70000D02*
D03*
X116000Y-185000D02*
D03*
X151980Y181366D02*
D03*
X-7461Y-166461D02*
D03*
X17939Y-167061D02*
D03*
X56039Y-167039D02*
D03*
X81422Y-168064D02*
D03*
X201000Y-121000D02*
D03*
X47421Y45598D02*
D03*
X40421Y52598D02*
D03*
Y45598D02*
D03*
X47421Y52598D02*
D03*
Y59598D02*
D03*
X40421D02*
D03*
X-202500Y92500D02*
D03*
X-198000Y87500D02*
D03*
X-202500Y72500D02*
D03*
Y82500D02*
D03*
X-198000Y77500D02*
D03*
X-205984Y62158D02*
D03*
X-198000Y67500D02*
D03*
X-201016Y57500D02*
D03*
X-230500Y-17500D02*
D03*
X-225500Y-22500D02*
D03*
Y-12500D02*
D03*
X-230500Y-7500D02*
D03*
X-225500Y-2500D02*
D03*
X-230500Y2500D02*
D03*
X-206000Y12500D02*
D03*
X-225500Y17500D02*
D03*
X-201000Y37500D02*
D03*
X-206000Y22500D02*
D03*
X-205984Y47500D02*
D03*
X-225500Y42500D02*
D03*
X-260500Y-87500D02*
D03*
X-265000Y-82500D02*
D03*
X-200500Y7500D02*
D03*
X-218000Y-72500D02*
D03*
X-223000Y-77500D02*
D03*
X69000Y172366D02*
D03*
X-269500Y117500D02*
D03*
X-264363Y112500D02*
D03*
X-269500Y102500D02*
D03*
X-264363Y97500D02*
D03*
X-269500Y87500D02*
D03*
X-264363Y82500D02*
D03*
X-269500Y72500D02*
D03*
X-264363Y67500D02*
D03*
X-269500Y57500D02*
D03*
X-264363Y52500D02*
D03*
X222000Y-47494D02*
D03*
X224491Y-37546D02*
D03*
X261000Y-133000D02*
D03*
X264000Y36000D02*
D03*
X232000Y-42500D02*
D03*
X258158Y-4270D02*
D03*
X257730Y5842D02*
D03*
X263000Y1000D02*
D03*
X231698Y35046D02*
D03*
X226428Y39888D02*
D03*
X231270Y45158D02*
D03*
X230842Y55270D02*
D03*
X226000Y50000D02*
D03*
X225000Y68000D02*
D03*
X-258000Y62500D02*
D03*
Y92500D02*
D03*
X-293307Y-117500D02*
D03*
Y107500D02*
D03*
Y122500D02*
D03*
X257000Y-67500D02*
D03*
X271000Y-62500D02*
D03*
X166632Y-35862D02*
D03*
X193000Y45000D02*
D03*
X213000Y28000D02*
D03*
X188000D02*
D03*
X-84000Y31606D02*
D03*
X92500Y-30072D02*
D03*
X-258000Y122500D02*
D03*
X-245700Y-133049D02*
D03*
X-269500Y-107500D02*
D03*
X-293307Y-102500D02*
D03*
Y-77500D02*
D03*
Y-42500D02*
D03*
Y-12500D02*
D03*
Y12500D02*
D03*
Y32500D02*
D03*
Y47500D02*
D03*
Y62500D02*
D03*
Y77500D02*
D03*
Y92500D02*
D03*
X223000Y-141000D02*
D03*
X257000Y-82500D02*
D03*
X180500Y-65995D02*
D03*
X258000Y-183000D02*
D03*
X203810Y34270D02*
D03*
X252000Y130000D02*
D03*
X132480Y171866D02*
D03*
X-105000Y180642D02*
D03*
X-198500Y-142500D02*
D03*
X150678Y-68600D02*
D03*
X295000Y67500D02*
D03*
X170678Y-92683D02*
D03*
X228000Y-128759D02*
D03*
X201640Y-35554D02*
D03*
X231200Y22800D02*
D03*
X224354D02*
D03*
Y15298D02*
D03*
X231200D02*
D03*
X295000Y-32500D02*
D03*
X-251000Y-148000D02*
D03*
X295000Y-87500D02*
D03*
X204000Y68000D02*
D03*
X295000Y-22500D02*
D03*
Y-122500D02*
D03*
X257000Y-92500D02*
D03*
X170678Y-68600D02*
D03*
X176000Y-35494D02*
D03*
X155000Y-35828D02*
D03*
X-293307Y-87500D02*
D03*
X-264363Y37500D02*
D03*
X-269500Y42500D02*
D03*
X295000Y7500D02*
D03*
X120000Y-72494D02*
D03*
X295000Y-42500D02*
D03*
Y-77500D02*
D03*
X271000Y-82500D02*
D03*
X260500Y-45500D02*
D03*
X209000Y-62494D02*
D03*
X213000Y-45494D02*
D03*
X265000Y-32500D02*
D03*
Y-41069D02*
D03*
X217000Y-63494D02*
D03*
X232000Y-27500D02*
D03*
X149000Y-94494D02*
D03*
X133178Y-83744D02*
D03*
X188178Y-81495D02*
D03*
X160632Y-13361D02*
D03*
X257000Y-112500D02*
D03*
X116000Y169000D02*
D03*
X-159000Y-143000D02*
D03*
X213000Y1431D02*
D03*
X271000Y-27500D02*
D03*
X207000Y-40494D02*
D03*
X193000Y53000D02*
D03*
X259500Y-12500D02*
D03*
Y-22000D02*
D03*
X229934Y-89703D02*
D03*
X-220000Y-97500D02*
D03*
X135000Y-179500D02*
D03*
X188750Y-154580D02*
D03*
X201250D02*
D03*
X263366Y-117500D02*
D03*
X196250Y-166000D02*
D03*
X208750D02*
D03*
X221250D02*
D03*
X172105Y-166980D02*
D03*
X-273000Y179000D02*
D03*
X-285000Y152000D02*
D03*
X-289000Y163000D02*
D03*
X-262000Y174000D02*
D03*
X-273000Y147000D02*
D03*
X-285000Y174000D02*
D03*
X-257000Y163000D02*
D03*
X-262000Y151000D02*
D03*
X-273000Y-147000D02*
D03*
X-285000Y-174000D02*
D03*
X-289000Y-163000D02*
D03*
X-262000Y-152000D02*
D03*
X-273000Y-179000D02*
D03*
X-285000Y-152000D02*
D03*
X-257000Y-163000D02*
D03*
X-262000Y-175000D02*
D03*
X273000Y-147000D02*
D03*
X261000Y-174000D02*
D03*
X257000Y-163000D02*
D03*
X284000Y-152000D02*
D03*
X273000Y-179000D02*
D03*
X261000Y-152000D02*
D03*
X289000Y-163000D02*
D03*
X284000Y-175000D02*
D03*
X273000Y179000D02*
D03*
X261000Y152000D02*
D03*
X257000Y163000D02*
D03*
X284000Y174000D02*
D03*
X273000Y147000D02*
D03*
X261000Y174000D02*
D03*
X289000Y163000D02*
D03*
X284000Y151000D02*
D03*
X160632Y59000D02*
D03*
X148000Y-3569D02*
D03*
X206000Y-80494D02*
D03*
X211500Y-71994D02*
D03*
X214000Y-78000D02*
D03*
X181000Y-7340D02*
D03*
X224000Y-26000D02*
D03*
X197000Y-11000D02*
D03*
X200000Y-2680D02*
D03*
X232000Y-17500D02*
D03*
X165000Y-144124D02*
D03*
X153000D02*
D03*
X141270Y-144230D02*
D03*
X201000Y-109000D02*
D03*
X179000Y-121000D02*
D03*
X201000Y-97000D02*
D03*
X133000Y-120000D02*
D03*
X135000Y-159460D02*
D03*
X117000Y-120000D02*
D03*
X-105630Y58000D02*
D03*
X92011Y-93000D02*
D03*
X92000Y-83000D02*
D03*
X12000Y14000D02*
D03*
X2892Y23010D02*
D03*
D40*
X-146563Y149244D02*
D03*
D41*
X-273000Y163000D02*
D03*
Y-163000D02*
D03*
X273000D02*
D03*
Y163000D02*
D03*
D42*
X231700Y170000D02*
D03*
D43*
X206300D02*
D03*
M02*
