%FSLAX44Y44*%
%MOMM*%
G71*
G01*
G75*
G04 Layer_Physical_Order=3*
G04 Layer_Color=16440176*
%ADD10R,0.5000X0.6000*%
%ADD11R,1.0668X0.8128*%
%ADD12R,0.6000X0.5000*%
%ADD13R,0.8000X1.6000*%
%ADD14O,2.0320X0.6096*%
%ADD15R,2.0320X0.6096*%
%ADD16O,2.0000X0.3500*%
%ADD17R,1.5000X0.4000*%
G04:AMPARAMS|DCode=18|XSize=0.22mm|YSize=0.8mm|CornerRadius=0mm|HoleSize=0mm|Usage=FLASHONLY|Rotation=90.000|XOffset=0mm|YOffset=0mm|HoleType=Round|Shape=RoundedRectangle|*
%AMROUNDEDRECTD18*
21,1,0.2200,0.8000,0,0,90.0*
21,1,0.2200,0.8000,0,0,90.0*
1,1,0.0000,0.4000,0.1100*
1,1,0.0000,0.4000,-0.1100*
1,1,0.0000,-0.4000,-0.1100*
1,1,0.0000,-0.4000,0.1100*
%
%ADD18ROUNDEDRECTD18*%
G04:AMPARAMS|DCode=19|XSize=0.22mm|YSize=0.8mm|CornerRadius=0mm|HoleSize=0mm|Usage=FLASHONLY|Rotation=0.000|XOffset=0mm|YOffset=0mm|HoleType=Round|Shape=RoundedRectangle|*
%AMROUNDEDRECTD19*
21,1,0.2200,0.8000,0,0,0.0*
21,1,0.2200,0.8000,0,0,0.0*
1,1,0.0000,0.1100,-0.4000*
1,1,0.0000,-0.1100,-0.4000*
1,1,0.0000,-0.1100,0.4000*
1,1,0.0000,0.1100,0.4000*
%
%ADD19ROUNDEDRECTD19*%
%ADD20R,4.3000X4.3000*%
%ADD21R,1.4000X0.6000*%
%ADD22R,1.8000X0.2500*%
%ADD23R,1.2000X2.2000*%
%ADD24R,1.6000X1.4000*%
%ADD25R,1.1000X1.4000*%
%ADD26R,0.7000X1.6000*%
%ADD27R,0.6000X0.7000*%
%ADD28R,1.2000X1.4000*%
%ADD29P,1.8385X4X90.0*%
%ADD30R,0.8890X1.0160*%
%ADD31R,1.0160X0.8890*%
%ADD32C,0.4000*%
%ADD33C,0.2000*%
%ADD34C,0.3000*%
%ADD35C,0.2540*%
%ADD36C,0.1270*%
%ADD37C,0.5000*%
%ADD38C,0.6000*%
%ADD39C,0.5000*%
%ADD40C,0.3000*%
G04:AMPARAMS|DCode=41|XSize=4mm|YSize=4mm|CornerRadius=2mm|HoleSize=0mm|Usage=FLASHONLY|Rotation=0.000|XOffset=0mm|YOffset=0mm|HoleType=Round|Shape=RoundedRectangle|*
%AMROUNDEDRECTD41*
21,1,4.0000,0.0000,0,0,0.0*
21,1,0.0000,4.0000,0,0,0.0*
1,1,4.0000,0.0000,0.0000*
1,1,4.0000,0.0000,0.0000*
1,1,4.0000,0.0000,0.0000*
1,1,4.0000,0.0000,0.0000*
%
%ADD41ROUNDEDRECTD41*%
%ADD42R,1.5240X1.5240*%
%ADD43C,1.5240*%
%ADD44C,0.8000*%
G36*
X289941Y186941D02*
Y186932D01*
X291735Y186696D01*
X293407Y186004D01*
X294843Y184902D01*
X295944Y183466D01*
X296637Y181794D01*
X296873Y180000D01*
X296882D01*
X296941Y179702D01*
Y71683D01*
X295959Y70878D01*
X295000Y71068D01*
X293634Y70797D01*
X292477Y70023D01*
X291703Y68865D01*
X291431Y67500D01*
X291703Y66134D01*
X292477Y64977D01*
X293634Y64203D01*
X295000Y63931D01*
X295959Y64122D01*
X296941Y63316D01*
Y11683D01*
X295959Y10878D01*
X295000Y11069D01*
X293634Y10797D01*
X292477Y10023D01*
X291703Y8866D01*
X291431Y7500D01*
X291703Y6134D01*
X292477Y4977D01*
X293634Y4203D01*
X295000Y3931D01*
X295959Y4122D01*
X296941Y3317D01*
Y-18700D01*
X296270Y-19704D01*
Y-22500D01*
Y-25296D01*
X296941Y-26300D01*
Y-28317D01*
X295959Y-29122D01*
X295000Y-28931D01*
X293634Y-29203D01*
X292477Y-29977D01*
X291703Y-31134D01*
X291431Y-32500D01*
X291703Y-33866D01*
X292477Y-35023D01*
X293634Y-35797D01*
X295000Y-36068D01*
X295959Y-35878D01*
X296941Y-36683D01*
Y-38317D01*
X295959Y-39122D01*
X295000Y-38931D01*
X293634Y-39203D01*
X292477Y-39977D01*
X291703Y-41134D01*
X291431Y-42500D01*
X291703Y-43866D01*
X292477Y-45023D01*
X293634Y-45797D01*
X295000Y-46069D01*
X295959Y-45878D01*
X296941Y-46683D01*
Y-73316D01*
X295959Y-74122D01*
X295000Y-73931D01*
X293634Y-74203D01*
X292477Y-74977D01*
X291703Y-76134D01*
X291431Y-77500D01*
X291703Y-78865D01*
X292477Y-80023D01*
X293634Y-80797D01*
X295000Y-81068D01*
X295959Y-80878D01*
X296941Y-81683D01*
Y-83700D01*
X296270Y-84704D01*
Y-87500D01*
Y-90296D01*
X296941Y-91300D01*
Y-118699D01*
X296270Y-119704D01*
Y-122500D01*
Y-125296D01*
X296941Y-126300D01*
Y-179702D01*
X296882Y-180000D01*
X296873D01*
X296637Y-181794D01*
X295944Y-183466D01*
X294843Y-184902D01*
X293407Y-186004D01*
X291735Y-186696D01*
X289941Y-186932D01*
X289941Y-186932D01*
Y-186932D01*
X289932Y-186941D01*
X119800Y-186941D01*
Y-186941D01*
X119800D01*
X118796Y-186270D01*
X113204D01*
X112200Y-186941D01*
X112200D01*
D01*
X-290000Y-186941D01*
Y-186932D01*
X-291794Y-186696D01*
X-293466Y-186004D01*
X-294902Y-184902D01*
X-296004Y-183466D01*
X-296696Y-181794D01*
X-296932Y-180000D01*
X-296941D01*
Y-120765D01*
X-295912Y-120077D01*
X-295821Y-120029D01*
X-294673Y-120797D01*
X-293307Y-121068D01*
X-291941Y-120797D01*
X-290784Y-120023D01*
X-290010Y-118865D01*
X-289738Y-117500D01*
X-290010Y-116134D01*
X-290784Y-114976D01*
X-291941Y-114203D01*
X-293307Y-113931D01*
X-294673Y-114203D01*
X-295821Y-114970D01*
X-295912Y-114922D01*
X-296941Y-114234D01*
Y-103522D01*
X-296898Y-103517D01*
Y-101482D01*
X-296941Y-101478D01*
Y-90766D01*
X-295912Y-90078D01*
X-295821Y-90029D01*
X-294673Y-90797D01*
X-293307Y-91068D01*
X-291941Y-90797D01*
X-290784Y-90023D01*
X-290010Y-88865D01*
X-289738Y-87500D01*
X-290010Y-86134D01*
X-290784Y-84977D01*
X-291941Y-84203D01*
X-293307Y-83931D01*
X-294673Y-84203D01*
X-295821Y-84970D01*
X-295912Y-84922D01*
X-296941Y-84234D01*
Y-78522D01*
X-296898Y-78517D01*
Y-76482D01*
X-296941Y-76478D01*
Y-43522D01*
X-296898Y-43517D01*
Y-41482D01*
X-296941Y-41478D01*
Y-13522D01*
X-296898Y-13518D01*
Y-11482D01*
X-296941Y-11478D01*
Y11478D01*
X-296898Y11482D01*
Y13518D01*
X-296941Y13522D01*
Y31478D01*
X-296898Y31482D01*
Y33517D01*
X-296941Y33522D01*
Y46478D01*
X-296898Y46482D01*
Y48517D01*
X-296941Y48522D01*
Y61478D01*
X-296898Y61482D01*
Y63517D01*
X-296941Y63522D01*
Y76478D01*
X-296898Y76482D01*
Y78517D01*
X-296941Y78522D01*
Y91478D01*
X-296898Y91482D01*
Y93517D01*
X-296941Y93522D01*
Y106478D01*
X-296898Y106482D01*
Y108517D01*
X-296941Y108522D01*
Y121478D01*
X-296898Y121482D01*
Y123517D01*
X-296941Y123521D01*
Y180000D01*
X-296932D01*
X-296696Y181794D01*
X-296004Y183466D01*
X-294902Y184902D01*
X-293466Y186004D01*
X-291794Y186696D01*
X-290000Y186932D01*
X-290000Y186932D01*
X-290000Y186932D01*
X-290000D01*
X-290000Y186941D01*
D01*
X-290000Y186941D01*
X289941Y186941D01*
D02*
G37*
%LPC*%
G36*
X-85770Y-47342D02*
X-86302Y-47698D01*
X-86658Y-48230D01*
X-85770D01*
Y-47342D01*
D02*
G37*
G36*
X-83230D02*
Y-48230D01*
X-82342D01*
X-82698Y-47698D01*
X-83230Y-47342D01*
D02*
G37*
G36*
X201640Y-31985D02*
X200274Y-32257D01*
X199117Y-33030D01*
X198343Y-34188D01*
X198071Y-35554D01*
X198343Y-36919D01*
X199117Y-38077D01*
X200274Y-38851D01*
X201640Y-39122D01*
X202668Y-38918D01*
X203566Y-39816D01*
X203431Y-40494D01*
X203703Y-41860D01*
X204476Y-43018D01*
X205634Y-43791D01*
X207000Y-44063D01*
X208365Y-43791D01*
X208606Y-43630D01*
X209662Y-44336D01*
X209431Y-45494D01*
X209703Y-46860D01*
X210477Y-48018D01*
X211634Y-48791D01*
X213000Y-49063D01*
X214366Y-48791D01*
X215523Y-48018D01*
X216297Y-46860D01*
X216569Y-45494D01*
X216297Y-44129D01*
X215523Y-42971D01*
X214366Y-42197D01*
X213000Y-41926D01*
X211634Y-42197D01*
X211394Y-42358D01*
X210338Y-41653D01*
X210568Y-40494D01*
X210296Y-39129D01*
X209523Y-37971D01*
X208365Y-37197D01*
X207000Y-36926D01*
X205972Y-37130D01*
X205074Y-36232D01*
X205209Y-35554D01*
X204937Y-34188D01*
X204163Y-33030D01*
X203006Y-32257D01*
X201640Y-31985D01*
D02*
G37*
G36*
X59330Y-48670D02*
X58442D01*
X58798Y-49202D01*
X59330Y-49558D01*
Y-48670D01*
D02*
G37*
G36*
X62758D02*
X61870D01*
Y-49558D01*
X62402Y-49202D01*
X62758Y-48670D01*
D02*
G37*
G36*
X-294577Y-43770D02*
X-295465D01*
X-295109Y-44302D01*
X-294577Y-44658D01*
Y-43770D01*
D02*
G37*
G36*
X-291149D02*
X-292037D01*
Y-44658D01*
X-291504Y-44302D01*
X-291149Y-43770D01*
D02*
G37*
G36*
X61870Y-45242D02*
Y-46130D01*
X62758D01*
X62402Y-45598D01*
X61870Y-45242D01*
D02*
G37*
G36*
X-162000Y-39431D02*
X-163366Y-39703D01*
X-164523Y-40477D01*
X-165297Y-41634D01*
X-165569Y-43000D01*
X-165297Y-44366D01*
X-164523Y-45523D01*
X-163366Y-46297D01*
X-162000Y-46569D01*
X-160634Y-46297D01*
X-159477Y-45523D01*
X-158703Y-44366D01*
X-158431Y-43000D01*
X-158703Y-41634D01*
X-159477Y-40477D01*
X-160634Y-39703D01*
X-162000Y-39431D01*
D02*
G37*
G36*
X59330Y-45242D02*
X58798Y-45598D01*
X58442Y-46130D01*
X59330D01*
Y-45242D01*
D02*
G37*
G36*
X-21730Y-60842D02*
Y-61730D01*
X-20842D01*
X-21198Y-61198D01*
X-21730Y-60842D01*
D02*
G37*
G36*
X-7710Y-52722D02*
X-9075Y-52994D01*
X-10233Y-53767D01*
X-11006Y-54925D01*
X-11278Y-56290D01*
X-11006Y-57656D01*
X-10233Y-58814D01*
X-9075Y-59587D01*
X-7710Y-59859D01*
X-6344Y-59587D01*
X-5186Y-58814D01*
X-4413Y-57656D01*
X-4141Y-56290D01*
X-4413Y-54925D01*
X-5186Y-53767D01*
X-6344Y-52994D01*
X-7710Y-52722D01*
D02*
G37*
G36*
X-24270Y-60842D02*
X-24802Y-61198D01*
X-25158Y-61730D01*
X-24270D01*
Y-60842D01*
D02*
G37*
G36*
X179230Y-63836D02*
X178697Y-64192D01*
X178342Y-64724D01*
X179230D01*
Y-63836D01*
D02*
G37*
G36*
X181770D02*
Y-64724D01*
X182658D01*
X182302Y-64192D01*
X181770Y-63836D01*
D02*
G37*
G36*
X-82342Y-50770D02*
X-83230D01*
Y-51658D01*
X-82698Y-51302D01*
X-82342Y-50770D01*
D02*
G37*
G36*
X222000Y-43926D02*
X220634Y-44197D01*
X219477Y-44971D01*
X218703Y-46129D01*
X218431Y-47494D01*
X218703Y-48860D01*
X219477Y-50018D01*
X220634Y-50791D01*
X222000Y-51063D01*
X223366Y-50791D01*
X224523Y-50018D01*
X225297Y-48860D01*
X225569Y-47494D01*
X225297Y-46129D01*
X224523Y-44971D01*
X223366Y-44197D01*
X222000Y-43926D01*
D02*
G37*
G36*
X-85770Y-50770D02*
X-86658D01*
X-86302Y-51302D01*
X-85770Y-51658D01*
Y-50770D01*
D02*
G37*
G36*
X-156000Y-48931D02*
X-157366Y-49203D01*
X-158523Y-49977D01*
X-159297Y-51134D01*
X-159569Y-52500D01*
X-159297Y-53866D01*
X-158523Y-55023D01*
X-157366Y-55797D01*
X-156000Y-56069D01*
X-154634Y-55797D01*
X-153477Y-55023D01*
X-152703Y-53866D01*
X-152431Y-52500D01*
X-152703Y-51134D01*
X-153477Y-49977D01*
X-154634Y-49203D01*
X-156000Y-48931D01*
D02*
G37*
G36*
X-147500D02*
X-148866Y-49203D01*
X-150023Y-49977D01*
X-150797Y-51134D01*
X-151069Y-52500D01*
X-150797Y-53866D01*
X-150023Y-55023D01*
X-148866Y-55797D01*
X-147500Y-56069D01*
X-146134Y-55797D01*
X-144977Y-55023D01*
X-144203Y-53866D01*
X-143931Y-52500D01*
X-144203Y-51134D01*
X-144977Y-49977D01*
X-146134Y-49203D01*
X-147500Y-48931D01*
D02*
G37*
G36*
X230730Y-43770D02*
X229842D01*
X230198Y-44302D01*
X230730Y-44658D01*
Y-43770D01*
D02*
G37*
G36*
X157158Y-37098D02*
X156270D01*
Y-37986D01*
X156802Y-37630D01*
X157158Y-37098D01*
D02*
G37*
G36*
X174730Y-36764D02*
X173842D01*
X174198Y-37297D01*
X174730Y-37652D01*
Y-36764D01*
D02*
G37*
G36*
X153730Y-37098D02*
X152842D01*
X153198Y-37630D01*
X153730Y-37986D01*
Y-37098D01*
D02*
G37*
G36*
X165362Y-37132D02*
X164474D01*
X164830Y-37665D01*
X165362Y-38021D01*
Y-37132D01*
D02*
G37*
G36*
X168790D02*
X167902D01*
Y-38021D01*
X168434Y-37665D01*
X168790Y-37132D01*
D02*
G37*
G36*
X165362Y-33704D02*
X164830Y-34060D01*
X164474Y-34592D01*
X165362D01*
Y-33704D01*
D02*
G37*
G36*
X167902D02*
Y-34592D01*
X168790D01*
X168434Y-34060D01*
X167902Y-33704D01*
D02*
G37*
G36*
X110270Y-35842D02*
Y-36730D01*
X111158D01*
X110802Y-36198D01*
X110270Y-35842D01*
D02*
G37*
G36*
X178158Y-36764D02*
X177270D01*
Y-37652D01*
X177802Y-37297D01*
X178158Y-36764D01*
D02*
G37*
G36*
X107730Y-35842D02*
X107198Y-36198D01*
X106842Y-36730D01*
X107730D01*
Y-35842D01*
D02*
G37*
G36*
X-294577Y-40342D02*
X-295109Y-40698D01*
X-295465Y-41230D01*
X-294577D01*
Y-40342D01*
D02*
G37*
G36*
X-292037D02*
Y-41230D01*
X-291149D01*
X-291504Y-40698D01*
X-292037Y-40342D01*
D02*
G37*
G36*
X265000Y-37500D02*
X263634Y-37772D01*
X262477Y-38545D01*
X261703Y-39703D01*
X261431Y-41069D01*
X260557Y-41943D01*
X260500Y-41931D01*
X259134Y-42203D01*
X257977Y-42977D01*
X257203Y-44134D01*
X256931Y-45500D01*
X257203Y-46866D01*
X257977Y-48023D01*
X259134Y-48797D01*
X260500Y-49069D01*
X261866Y-48797D01*
X263023Y-48023D01*
X263797Y-46866D01*
X264069Y-45500D01*
X264943Y-44626D01*
X265000Y-44637D01*
X266366Y-44365D01*
X267523Y-43592D01*
X268297Y-42434D01*
X268569Y-41069D01*
X268297Y-39703D01*
X267523Y-38545D01*
X266366Y-37772D01*
X265000Y-37500D01*
D02*
G37*
G36*
X234158Y-43770D02*
X233270D01*
Y-44658D01*
X233802Y-44302D01*
X234158Y-43770D01*
D02*
G37*
G36*
X-26000Y-36431D02*
X-27366Y-36703D01*
X-28523Y-37477D01*
X-29297Y-38634D01*
X-29569Y-40000D01*
X-29297Y-41366D01*
X-28523Y-42523D01*
X-27366Y-43297D01*
X-26000Y-43569D01*
X-24634Y-43297D01*
X-23477Y-42523D01*
X-22703Y-41366D01*
X-22431Y-40000D01*
X-22703Y-38634D01*
X-23477Y-37477D01*
X-24634Y-36703D01*
X-26000Y-36431D01*
D02*
G37*
G36*
X107730Y-39270D02*
X106842D01*
X107198Y-39802D01*
X107730Y-40158D01*
Y-39270D01*
D02*
G37*
G36*
X111158D02*
X110270D01*
Y-40158D01*
X110802Y-39802D01*
X111158Y-39270D01*
D02*
G37*
G36*
X224491Y-33978D02*
X223125Y-34249D01*
X221967Y-35023D01*
X221194Y-36181D01*
X220922Y-37546D01*
X221194Y-38912D01*
X221967Y-40070D01*
X223125Y-40843D01*
X224491Y-41115D01*
X225856Y-40843D01*
X227014Y-40070D01*
X227788Y-38912D01*
X228059Y-37546D01*
X227788Y-36181D01*
X227014Y-35023D01*
X225856Y-34249D01*
X224491Y-33978D01*
D02*
G37*
G36*
X230730Y-40342D02*
X230198Y-40697D01*
X229842Y-41230D01*
X230730D01*
Y-40342D01*
D02*
G37*
G36*
X233270D02*
Y-41230D01*
X234158D01*
X233802Y-40697D01*
X233270Y-40342D01*
D02*
G37*
G36*
X120000Y-68926D02*
X118634Y-69197D01*
X117477Y-69971D01*
X116703Y-71129D01*
X116431Y-72494D01*
X116703Y-73860D01*
X117477Y-75018D01*
X118634Y-75791D01*
X120000Y-76063D01*
X121366Y-75791D01*
X122523Y-75018D01*
X123297Y-73860D01*
X123568Y-72494D01*
X123297Y-71129D01*
X122523Y-69971D01*
X121366Y-69197D01*
X120000Y-68926D01*
D02*
G37*
G36*
X-218000Y-68931D02*
X-219366Y-69203D01*
X-220523Y-69977D01*
X-221297Y-71134D01*
X-221569Y-72500D01*
X-221436Y-73166D01*
X-222334Y-74064D01*
X-223000Y-73931D01*
X-224366Y-74203D01*
X-225523Y-74977D01*
X-226297Y-76134D01*
X-226569Y-77500D01*
X-226297Y-78865D01*
X-225523Y-80023D01*
X-224366Y-80797D01*
X-223000Y-81068D01*
X-221634Y-80797D01*
X-220477Y-80023D01*
X-219703Y-78865D01*
X-219431Y-77500D01*
X-219564Y-76834D01*
X-218666Y-75936D01*
X-218000Y-76069D01*
X-216634Y-75797D01*
X-215477Y-75023D01*
X-214703Y-73865D01*
X-214431Y-72500D01*
X-214703Y-71134D01*
X-215477Y-69977D01*
X-216634Y-69203D01*
X-218000Y-68931D01*
D02*
G37*
G36*
X-292037Y-75342D02*
Y-76230D01*
X-291149D01*
X-291504Y-75697D01*
X-292037Y-75342D01*
D02*
G37*
G36*
X265000Y-69431D02*
X263634Y-69703D01*
X262477Y-70477D01*
X261703Y-71634D01*
X261431Y-73000D01*
X261703Y-74366D01*
X262477Y-75523D01*
X263634Y-76297D01*
X265000Y-76569D01*
X266366Y-76297D01*
X267523Y-75523D01*
X268297Y-74366D01*
X268569Y-73000D01*
X268297Y-71634D01*
X267523Y-70477D01*
X266366Y-69703D01*
X265000Y-69431D01*
D02*
G37*
G36*
X-294577Y-75342D02*
X-295109Y-75697D01*
X-295465Y-76230D01*
X-294577D01*
Y-75342D01*
D02*
G37*
G36*
X69158Y-71270D02*
X68270D01*
Y-72158D01*
X68802Y-71802D01*
X69158Y-71270D01*
D02*
G37*
G36*
X149408Y-69870D02*
X148520D01*
X148875Y-70403D01*
X149408Y-70758D01*
Y-69870D01*
D02*
G37*
G36*
X65730Y-71270D02*
X64842D01*
X65198Y-71802D01*
X65730Y-72158D01*
Y-71270D01*
D02*
G37*
G36*
X-156000Y-66031D02*
X-157366Y-66303D01*
X-158523Y-67077D01*
X-159297Y-68234D01*
X-159569Y-69600D01*
X-159297Y-70966D01*
X-158523Y-72123D01*
X-157366Y-72897D01*
X-156000Y-73169D01*
X-154634Y-72897D01*
X-153477Y-72123D01*
X-152703Y-70966D01*
X-152431Y-69600D01*
X-152703Y-68234D01*
X-153477Y-67077D01*
X-154634Y-66303D01*
X-156000Y-66031D01*
D02*
G37*
G36*
X-67000Y-65431D02*
X-68366Y-65703D01*
X-69523Y-66477D01*
X-70297Y-67634D01*
X-70569Y-69000D01*
X-70297Y-70366D01*
X-69523Y-71523D01*
X-68366Y-72297D01*
X-67000Y-72569D01*
X-65634Y-72297D01*
X-64477Y-71523D01*
X-63703Y-70366D01*
X-63431Y-69000D01*
X-63703Y-67634D01*
X-64477Y-66477D01*
X-65634Y-65703D01*
X-67000Y-65431D01*
D02*
G37*
G36*
X211500Y-68426D02*
X210134Y-68697D01*
X208977Y-69471D01*
X208203Y-70629D01*
X207931Y-71994D01*
X208203Y-73360D01*
X208977Y-74518D01*
X210134Y-75291D01*
X210308Y-75326D01*
X210793Y-76499D01*
X210703Y-76634D01*
X210431Y-78000D01*
X210703Y-79366D01*
X211477Y-80523D01*
X212634Y-81297D01*
X214000Y-81569D01*
X215366Y-81297D01*
X216523Y-80523D01*
X217297Y-79366D01*
X217569Y-78000D01*
X217297Y-76634D01*
X216523Y-75477D01*
X215366Y-74703D01*
X215193Y-74669D01*
X214706Y-73495D01*
X214797Y-73360D01*
X215068Y-71994D01*
X214797Y-70629D01*
X214023Y-69471D01*
X212866Y-68697D01*
X211500Y-68426D01*
D02*
G37*
G36*
X255730Y-80342D02*
X255198Y-80697D01*
X254842Y-81230D01*
X255730D01*
Y-80342D01*
D02*
G37*
G36*
X93270Y-80842D02*
Y-81730D01*
X94158D01*
X93802Y-81198D01*
X93270Y-80842D01*
D02*
G37*
G36*
X-225730Y-81842D02*
Y-82730D01*
X-224842D01*
X-225198Y-82198D01*
X-225730Y-81842D01*
D02*
G37*
G36*
X90730Y-80842D02*
X90198Y-81198D01*
X89842Y-81730D01*
X90730D01*
Y-80842D01*
D02*
G37*
G36*
X-291149Y-78770D02*
X-292037D01*
Y-79658D01*
X-291504Y-79302D01*
X-291149Y-78770D01*
D02*
G37*
G36*
X-207636Y-72431D02*
X-209002Y-72703D01*
X-210159Y-73477D01*
X-210933Y-74634D01*
X-211205Y-76000D01*
X-210933Y-77366D01*
X-210159Y-78523D01*
X-209002Y-79297D01*
X-207636Y-79569D01*
X-206270Y-79297D01*
X-205113Y-78523D01*
X-204339Y-77366D01*
X-204067Y-76000D01*
X-204339Y-74634D01*
X-205113Y-73477D01*
X-206270Y-72703D01*
X-207636Y-72431D01*
D02*
G37*
G36*
X-294577Y-78770D02*
X-295465D01*
X-295109Y-79302D01*
X-294577Y-79658D01*
Y-78770D01*
D02*
G37*
G36*
X258270Y-80342D02*
Y-81230D01*
X259158D01*
X258802Y-80697D01*
X258270Y-80342D01*
D02*
G37*
G36*
X-84500Y-72931D02*
X-85866Y-73203D01*
X-87023Y-73977D01*
X-87797Y-75134D01*
X-88069Y-76500D01*
X-87797Y-77866D01*
X-87023Y-79023D01*
X-85866Y-79797D01*
X-84500Y-80069D01*
X-83134Y-79797D01*
X-81977Y-79023D01*
X-81203Y-77866D01*
X-80931Y-76500D01*
X-81203Y-75134D01*
X-81977Y-73977D01*
X-83134Y-73203D01*
X-84500Y-72931D01*
D02*
G37*
G36*
X152836Y-69870D02*
X151948D01*
Y-70758D01*
X152480Y-70403D01*
X152836Y-69870D01*
D02*
G37*
G36*
X171948Y-66442D02*
Y-67330D01*
X172836D01*
X172480Y-66798D01*
X171948Y-66442D01*
D02*
G37*
G36*
X209000Y-58926D02*
X207634Y-59197D01*
X206477Y-59971D01*
X205703Y-61129D01*
X205431Y-62494D01*
X205703Y-63860D01*
X206477Y-65018D01*
X207634Y-65791D01*
X209000Y-66063D01*
X210366Y-65791D01*
X211523Y-65018D01*
X212297Y-63860D01*
X213554Y-64110D01*
X213703Y-64860D01*
X214477Y-66018D01*
X215634Y-66791D01*
X217000Y-67063D01*
X218366Y-66791D01*
X219523Y-66018D01*
X220297Y-64860D01*
X220569Y-63494D01*
X220297Y-62129D01*
X219523Y-60971D01*
X218366Y-60197D01*
X217000Y-59926D01*
X215634Y-60197D01*
X214477Y-60971D01*
X213703Y-62129D01*
X212446Y-61879D01*
X212297Y-61129D01*
X211523Y-59971D01*
X210366Y-59197D01*
X209000Y-58926D01*
D02*
G37*
G36*
X169408Y-66442D02*
X168875Y-66798D01*
X168520Y-67330D01*
X169408D01*
Y-66442D01*
D02*
G37*
G36*
X149408D02*
X148875Y-66798D01*
X148520Y-67330D01*
X149408D01*
Y-66442D01*
D02*
G37*
G36*
X151948D02*
Y-67330D01*
X152836D01*
X152480Y-66798D01*
X151948Y-66442D01*
D02*
G37*
G36*
X-24270Y-64270D02*
X-25158D01*
X-24802Y-64802D01*
X-24270Y-65158D01*
Y-64270D01*
D02*
G37*
G36*
X-20842D02*
X-21730D01*
Y-65158D01*
X-21198Y-64802D01*
X-20842Y-64270D01*
D02*
G37*
G36*
X271000Y-58931D02*
X269634Y-59203D01*
X268477Y-59977D01*
X267703Y-61134D01*
X267431Y-62500D01*
X267703Y-63865D01*
X268477Y-65023D01*
X269634Y-65797D01*
X271000Y-66068D01*
X272366Y-65797D01*
X273523Y-65023D01*
X274297Y-63865D01*
X274569Y-62500D01*
X274297Y-61134D01*
X273523Y-59977D01*
X272366Y-59203D01*
X271000Y-58931D01*
D02*
G37*
G36*
X255730Y-65342D02*
X255198Y-65697D01*
X254842Y-66230D01*
X255730D01*
Y-65342D01*
D02*
G37*
G36*
X258270D02*
Y-66230D01*
X259158D01*
X258802Y-65697D01*
X258270Y-65342D01*
D02*
G37*
G36*
X259158Y-68770D02*
X258270D01*
Y-69658D01*
X258802Y-69302D01*
X259158Y-68770D01*
D02*
G37*
G36*
X-185000Y-62431D02*
X-186366Y-62703D01*
X-187523Y-63477D01*
X-188297Y-64634D01*
X-188569Y-66000D01*
X-188297Y-67366D01*
X-187523Y-68523D01*
X-186366Y-69297D01*
X-185000Y-69569D01*
X-183634Y-69297D01*
X-182477Y-68523D01*
X-181703Y-67366D01*
X-181431Y-66000D01*
X-181703Y-64634D01*
X-182477Y-63477D01*
X-183634Y-62703D01*
X-185000Y-62431D01*
D02*
G37*
G36*
X255730Y-68770D02*
X254842D01*
X255198Y-69302D01*
X255730Y-69658D01*
Y-68770D01*
D02*
G37*
G36*
X169408Y-69870D02*
X168520D01*
X168875Y-70403D01*
X169408Y-70758D01*
Y-69870D01*
D02*
G37*
G36*
X172836D02*
X171948D01*
Y-70758D01*
X172480Y-70403D01*
X172836Y-69870D01*
D02*
G37*
G36*
X179230Y-67264D02*
X178342D01*
X178697Y-67797D01*
X179230Y-68153D01*
Y-67264D01*
D02*
G37*
G36*
X182658D02*
X181770D01*
Y-68153D01*
X182302Y-67797D01*
X182658Y-67264D01*
D02*
G37*
G36*
X-205000Y-61431D02*
X-206366Y-61703D01*
X-207523Y-62477D01*
X-208297Y-63634D01*
X-208569Y-65000D01*
X-208297Y-66366D01*
X-207523Y-67523D01*
X-206366Y-68297D01*
X-205000Y-68569D01*
X-203634Y-68297D01*
X-202477Y-67523D01*
X-201703Y-66366D01*
X-201431Y-65000D01*
X-201703Y-63634D01*
X-202477Y-62477D01*
X-203634Y-61703D01*
X-205000Y-61431D01*
D02*
G37*
G36*
X65730Y-67842D02*
X65198Y-68198D01*
X64842Y-68730D01*
X65730D01*
Y-67842D01*
D02*
G37*
G36*
X68270D02*
Y-68730D01*
X69158D01*
X68802Y-68198D01*
X68270Y-67842D01*
D02*
G37*
G36*
X153730Y-33670D02*
X153198Y-34026D01*
X152842Y-34558D01*
X153730D01*
Y-33670D01*
D02*
G37*
G36*
X264270Y3158D02*
Y2270D01*
X265158D01*
X264802Y2802D01*
X264270Y3158D01*
D02*
G37*
G36*
X111000Y10569D02*
X109634Y10297D01*
X108477Y9523D01*
X107703Y8366D01*
X107431Y7000D01*
X107703Y5634D01*
X108477Y4477D01*
X109634Y3703D01*
X111000Y3431D01*
X112366Y3703D01*
X113523Y4477D01*
X114297Y5634D01*
X114569Y7000D01*
X114297Y8366D01*
X113523Y9523D01*
X112366Y10297D01*
X111000Y10569D01*
D02*
G37*
G36*
X261730Y3158D02*
X261198Y2802D01*
X260842Y2270D01*
X261730D01*
Y3158D01*
D02*
G37*
G36*
X265158Y-270D02*
X264270D01*
Y-1158D01*
X264802Y-802D01*
X265158Y-270D01*
D02*
G37*
G36*
X-101000Y7199D02*
X-102366Y6928D01*
X-103523Y6154D01*
X-104297Y4996D01*
X-104569Y3631D01*
X-104297Y2265D01*
X-103523Y1107D01*
X-102366Y334D01*
X-101000Y62D01*
X-99634Y334D01*
X-98477Y1107D01*
X-97703Y2265D01*
X-97431Y3631D01*
X-97703Y4996D01*
X-98477Y6154D01*
X-99634Y6928D01*
X-101000Y7199D01*
D02*
G37*
G36*
X-198342Y6230D02*
X-199230D01*
Y5342D01*
X-198698Y5698D01*
X-198342Y6230D01*
D02*
G37*
G36*
X256460Y8000D02*
X255928Y7644D01*
X255572Y7112D01*
X256460D01*
Y8000D01*
D02*
G37*
G36*
X-201770Y6230D02*
X-202658D01*
X-202302Y5698D01*
X-201770Y5342D01*
Y6230D01*
D02*
G37*
G36*
X256460Y4572D02*
X255572D01*
X255928Y4040D01*
X256460Y3684D01*
Y4572D01*
D02*
G37*
G36*
X259888D02*
X259000D01*
Y3684D01*
X259532Y4040D01*
X259888Y4572D01*
D02*
G37*
G36*
X200000Y888D02*
X198634Y617D01*
X197477Y-157D01*
X196703Y-1314D01*
X196431Y-2680D01*
X196703Y-4046D01*
X197477Y-5203D01*
X198634Y-5977D01*
X200000Y-6249D01*
X201366Y-5977D01*
X202523Y-5203D01*
X203297Y-4046D01*
X203569Y-2680D01*
X203297Y-1314D01*
X202523Y-157D01*
X201366Y617D01*
X200000Y888D01*
D02*
G37*
G36*
X-231770Y-5342D02*
X-232302Y-5698D01*
X-232658Y-6230D01*
X-231770D01*
Y-5342D01*
D02*
G37*
G36*
X260316Y-5540D02*
X259428D01*
Y-6428D01*
X259960Y-6072D01*
X260316Y-5540D01*
D02*
G37*
G36*
X8925Y-6187D02*
Y-7075D01*
X9813D01*
X9457Y-6543D01*
X8925Y-6187D01*
D02*
G37*
G36*
X256888Y-5540D02*
X256000D01*
X256356Y-6072D01*
X256888Y-6428D01*
Y-5540D01*
D02*
G37*
G36*
X213000Y5000D02*
X211634Y4728D01*
X210477Y3955D01*
X209703Y2797D01*
X209431Y1431D01*
X209703Y66D01*
X210477Y-1092D01*
X211634Y-1866D01*
X213000Y-2137D01*
X214366Y-1866D01*
X215523Y-1092D01*
X216297Y66D01*
X216569Y1431D01*
X216297Y2797D01*
X215523Y3955D01*
X214366Y4728D01*
X213000Y5000D01*
D02*
G37*
G36*
X261730Y-270D02*
X260842D01*
X261198Y-802D01*
X261730Y-1158D01*
Y-270D01*
D02*
G37*
G36*
X259428Y-2112D02*
Y-3000D01*
X260316D01*
X259960Y-2468D01*
X259428Y-2112D01*
D02*
G37*
G36*
X-230500Y6069D02*
X-231866Y5797D01*
X-233023Y5023D01*
X-233797Y3866D01*
X-234069Y2500D01*
X-233797Y1134D01*
X-233023Y-23D01*
X-231866Y-797D01*
X-230500Y-1069D01*
X-229834Y-936D01*
X-228936Y-1834D01*
X-229069Y-2500D01*
X-228797Y-3866D01*
X-228474Y-4349D01*
X-229230Y-5105D01*
Y-6230D01*
X-228105D01*
X-227349Y-5474D01*
X-226866Y-5797D01*
X-225500Y-6069D01*
X-224134Y-5797D01*
X-222977Y-5023D01*
X-222203Y-3866D01*
X-221931Y-2500D01*
X-222203Y-1134D01*
X-222977Y23D01*
X-224134Y797D01*
X-225500Y1069D01*
X-226166Y936D01*
X-227064Y1834D01*
X-226931Y2500D01*
X-227203Y3866D01*
X-227977Y5023D01*
X-229134Y5797D01*
X-230500Y6069D01*
D02*
G37*
G36*
X256888Y-2112D02*
X256356Y-2468D01*
X256000Y-3000D01*
X256888D01*
Y-2112D01*
D02*
G37*
G36*
X259000Y8000D02*
Y7112D01*
X259888D01*
X259532Y7644D01*
X259000Y8000D01*
D02*
G37*
G36*
X-145950Y16410D02*
X-146838D01*
X-146482Y15878D01*
X-145950Y15522D01*
Y16410D01*
D02*
G37*
G36*
X-142522D02*
X-143410D01*
Y15522D01*
X-142878Y15878D01*
X-142522Y16410D01*
D02*
G37*
G36*
X13270Y16158D02*
Y15270D01*
X14158D01*
X13802Y15802D01*
X13270Y16158D01*
D02*
G37*
G36*
X-225500Y21069D02*
X-226866Y20797D01*
X-228023Y20023D01*
X-228797Y18866D01*
X-229069Y17500D01*
X-228797Y16134D01*
X-228023Y14977D01*
X-226866Y14203D01*
X-225500Y13931D01*
X-224134Y14203D01*
X-222977Y14977D01*
X-222203Y16134D01*
X-221931Y17500D01*
X-222203Y18866D01*
X-222977Y20023D01*
X-224134Y20797D01*
X-225500Y21069D01*
D02*
G37*
G36*
X10730Y16158D02*
X10198Y15802D01*
X9842Y15270D01*
X10730D01*
Y16158D01*
D02*
G37*
G36*
X2892Y26579D02*
X1527Y26307D01*
X369Y25533D01*
X-405Y24376D01*
X-676Y23010D01*
X-405Y21644D01*
X369Y20487D01*
X1527Y19713D01*
X2892Y19442D01*
X4258Y19713D01*
X5416Y20487D01*
X6189Y21644D01*
X6461Y23010D01*
X6189Y24376D01*
X5416Y25533D01*
X4258Y26307D01*
X2892Y26579D01*
D02*
G37*
G36*
X-207270Y21230D02*
X-208158D01*
X-207802Y20698D01*
X-207270Y20342D01*
Y21230D01*
D02*
G37*
G36*
X-143410Y19838D02*
Y18950D01*
X-142522D01*
X-142878Y19482D01*
X-143410Y19838D01*
D02*
G37*
G36*
X-174000Y25569D02*
X-175366Y25297D01*
X-176523Y24523D01*
X-177297Y23366D01*
X-177569Y22000D01*
X-177297Y20634D01*
X-176523Y19477D01*
X-175366Y18703D01*
X-174000Y18431D01*
X-172634Y18703D01*
X-171477Y19477D01*
X-170703Y20634D01*
X-170431Y22000D01*
X-170703Y23366D01*
X-171477Y24523D01*
X-172634Y25297D01*
X-174000Y25569D01*
D02*
G37*
G36*
X-145950Y19838D02*
X-146482Y19482D01*
X-146838Y18950D01*
X-145950D01*
Y19838D01*
D02*
G37*
G36*
X-294577Y11230D02*
X-295465D01*
X-295109Y10698D01*
X-294577Y10342D01*
Y11230D01*
D02*
G37*
G36*
X-291149D02*
X-292037D01*
Y10342D01*
X-291504Y10698D01*
X-291149Y11230D01*
D02*
G37*
G36*
X-206000Y16069D02*
X-207366Y15797D01*
X-208523Y15023D01*
X-209297Y13866D01*
X-209569Y12500D01*
X-209297Y11135D01*
X-208523Y9977D01*
X-207366Y9203D01*
X-206000Y8932D01*
X-204634Y9203D01*
X-203477Y9977D01*
X-202703Y11135D01*
X-202431Y12500D01*
X-202703Y13866D01*
X-203477Y15023D01*
X-204634Y15797D01*
X-206000Y16069D01*
D02*
G37*
G36*
X-201770Y9658D02*
X-202302Y9302D01*
X-202658Y8770D01*
X-201770D01*
Y9658D01*
D02*
G37*
G36*
X-199230D02*
Y8770D01*
X-198342D01*
X-198698Y9302D01*
X-199230Y9658D01*
D02*
G37*
G36*
X-294577Y14658D02*
X-295109Y14302D01*
X-295465Y13770D01*
X-294577D01*
Y14658D01*
D02*
G37*
G36*
X-292037D02*
Y13770D01*
X-291149D01*
X-291504Y14302D01*
X-292037Y14658D01*
D02*
G37*
G36*
X14158Y12730D02*
X13270D01*
Y11842D01*
X13802Y12198D01*
X14158Y12730D01*
D02*
G37*
G36*
X-72000Y17819D02*
X-73366Y17547D01*
X-74523Y16773D01*
X-75297Y15616D01*
X-75569Y14250D01*
X-75297Y12884D01*
X-74523Y11727D01*
X-73366Y10953D01*
X-72000Y10681D01*
X-70634Y10953D01*
X-69477Y11727D01*
X-68703Y12884D01*
X-68431Y14250D01*
X-68703Y15616D01*
X-69477Y16773D01*
X-70634Y17547D01*
X-72000Y17819D01*
D02*
G37*
G36*
X10730Y12730D02*
X9842D01*
X10198Y12198D01*
X10730Y11842D01*
Y12730D01*
D02*
G37*
G36*
X91230Y-27914D02*
X90698Y-28270D01*
X90342Y-28802D01*
X91230D01*
Y-27914D01*
D02*
G37*
G36*
X93770D02*
Y-28802D01*
X94658D01*
X94302Y-28270D01*
X93770Y-27914D01*
D02*
G37*
G36*
X271000Y-23931D02*
X269634Y-24203D01*
X268477Y-24977D01*
X267703Y-26134D01*
X267431Y-27500D01*
X267662Y-28658D01*
X266606Y-29364D01*
X266366Y-29203D01*
X265000Y-28931D01*
X263634Y-29203D01*
X262477Y-29977D01*
X261703Y-31134D01*
X261431Y-32500D01*
X261703Y-33866D01*
X262477Y-35023D01*
X263634Y-35797D01*
X265000Y-36068D01*
X266366Y-35797D01*
X267523Y-35023D01*
X268297Y-33866D01*
X268569Y-32500D01*
X268338Y-31342D01*
X269394Y-30636D01*
X269634Y-30797D01*
X271000Y-31069D01*
X272366Y-30797D01*
X273523Y-30023D01*
X274297Y-28866D01*
X274569Y-27500D01*
X274297Y-26134D01*
X273523Y-24977D01*
X272366Y-24203D01*
X271000Y-23931D01*
D02*
G37*
G36*
X41230Y-29342D02*
X40698Y-29698D01*
X40342Y-30230D01*
X41230D01*
Y-29342D01*
D02*
G37*
G36*
X43770D02*
Y-30230D01*
X44658D01*
X44302Y-29698D01*
X43770Y-29342D01*
D02*
G37*
G36*
X293730Y-23770D02*
X292842D01*
X293198Y-24302D01*
X293730Y-24658D01*
Y-23770D01*
D02*
G37*
G36*
X-224230Y-20342D02*
Y-21230D01*
X-223342D01*
X-223698Y-20698D01*
X-224230Y-20342D01*
D02*
G37*
G36*
X-223342Y-23770D02*
X-224230D01*
Y-24658D01*
X-223698Y-24302D01*
X-223342Y-23770D01*
D02*
G37*
G36*
X259500Y-18431D02*
X258134Y-18703D01*
X256977Y-19477D01*
X256203Y-20634D01*
X255931Y-22000D01*
X256203Y-23366D01*
X256977Y-24523D01*
X258134Y-25297D01*
X259500Y-25569D01*
X260866Y-25297D01*
X262023Y-24523D01*
X262797Y-23366D01*
X263069Y-22000D01*
X262797Y-20634D01*
X262023Y-19477D01*
X260866Y-18703D01*
X259500Y-18431D01*
D02*
G37*
G36*
X-226770Y-23770D02*
X-227658D01*
X-227302Y-24302D01*
X-226770Y-24658D01*
Y-23770D01*
D02*
G37*
G36*
X41230Y-32770D02*
X40342D01*
X40698Y-33302D01*
X41230Y-33658D01*
Y-32770D01*
D02*
G37*
G36*
X44658D02*
X43770D01*
Y-33658D01*
X44302Y-33302D01*
X44658Y-32770D01*
D02*
G37*
G36*
X177270Y-33336D02*
Y-34224D01*
X178158D01*
X177802Y-33692D01*
X177270Y-33336D01*
D02*
G37*
G36*
X156270Y-33670D02*
Y-34558D01*
X157158D01*
X156802Y-34026D01*
X156270Y-33670D01*
D02*
G37*
G36*
X174730Y-33336D02*
X174198Y-33692D01*
X173842Y-34224D01*
X174730D01*
Y-33336D01*
D02*
G37*
G36*
X224000Y-22431D02*
X222634Y-22703D01*
X221477Y-23477D01*
X220703Y-24634D01*
X220431Y-26000D01*
X220703Y-27366D01*
X221477Y-28523D01*
X222634Y-29297D01*
X224000Y-29569D01*
X225366Y-29297D01*
X226523Y-28523D01*
X227229Y-27468D01*
X228474Y-27715D01*
X228703Y-28866D01*
X229477Y-30023D01*
X230634Y-30797D01*
X232000Y-31068D01*
X233366Y-30797D01*
X234523Y-30023D01*
X235297Y-28866D01*
X235569Y-27500D01*
X235297Y-26134D01*
X234523Y-24977D01*
X233366Y-24203D01*
X232000Y-23931D01*
X230634Y-24203D01*
X229477Y-24977D01*
X228771Y-26032D01*
X227526Y-25784D01*
X227297Y-24634D01*
X226523Y-23477D01*
X225366Y-22703D01*
X224000Y-22431D01*
D02*
G37*
G36*
X-26000Y-23821D02*
X-27366Y-24093D01*
X-28523Y-24866D01*
X-29297Y-26024D01*
X-29569Y-27390D01*
X-29297Y-28756D01*
X-28523Y-29913D01*
X-27366Y-30687D01*
X-26000Y-30958D01*
X-24634Y-30687D01*
X-23477Y-29913D01*
X-22703Y-28756D01*
X-22431Y-27390D01*
X-22703Y-26024D01*
X-23477Y-24866D01*
X-24634Y-24093D01*
X-26000Y-23821D01*
D02*
G37*
G36*
X94658Y-31342D02*
X93770D01*
Y-32230D01*
X94302Y-31874D01*
X94658Y-31342D01*
D02*
G37*
G36*
X-156196Y-26431D02*
X-157561Y-26703D01*
X-158719Y-27477D01*
X-159493Y-28634D01*
X-159764Y-30000D01*
X-159493Y-31366D01*
X-158719Y-32523D01*
X-157561Y-33297D01*
X-156196Y-33569D01*
X-154830Y-33297D01*
X-153672Y-32523D01*
X-152899Y-31366D01*
X-152627Y-30000D01*
X-152899Y-28634D01*
X-153672Y-27477D01*
X-154830Y-26703D01*
X-156196Y-26431D01*
D02*
G37*
G36*
X91230Y-31342D02*
X90342D01*
X90698Y-31874D01*
X91230Y-32230D01*
Y-31342D01*
D02*
G37*
G36*
X293730Y-20342D02*
X293198Y-20698D01*
X292842Y-21230D01*
X293730D01*
Y-20342D01*
D02*
G37*
G36*
X-292037Y-10342D02*
Y-11230D01*
X-291149D01*
X-291504Y-10698D01*
X-292037Y-10342D01*
D02*
G37*
G36*
X181000Y-3771D02*
X179634Y-4043D01*
X178477Y-4817D01*
X177703Y-5974D01*
X177431Y-7340D01*
X177703Y-8706D01*
X178477Y-9863D01*
X179634Y-10637D01*
X181000Y-10909D01*
X182366Y-10637D01*
X183523Y-9863D01*
X184297Y-8706D01*
X184569Y-7340D01*
X184297Y-5974D01*
X183523Y-4817D01*
X182366Y-4043D01*
X181000Y-3771D01*
D02*
G37*
G36*
X-294577Y-10342D02*
X-295109Y-10698D01*
X-295465Y-11230D01*
X-294577D01*
Y-10342D01*
D02*
G37*
G36*
X-228105Y-8770D02*
X-229230D01*
Y-9895D01*
X-228474Y-10651D01*
X-228797Y-11134D01*
X-229069Y-12500D01*
X-228936Y-13166D01*
X-229834Y-14064D01*
X-230500Y-13931D01*
X-231866Y-14203D01*
X-233023Y-14977D01*
X-233797Y-16134D01*
X-234069Y-17500D01*
X-233797Y-18866D01*
X-233023Y-20023D01*
X-231866Y-20797D01*
X-230500Y-21069D01*
X-229134Y-20797D01*
X-228651Y-20474D01*
X-227895Y-21230D01*
X-226770D01*
Y-20105D01*
X-227526Y-19349D01*
X-227203Y-18866D01*
X-226931Y-17500D01*
X-227064Y-16834D01*
X-226166Y-15936D01*
X-225500Y-16069D01*
X-224134Y-15797D01*
X-222977Y-15023D01*
X-222203Y-13866D01*
X-221931Y-12500D01*
X-222203Y-11134D01*
X-222977Y-9977D01*
X-224134Y-9203D01*
X-225500Y-8931D01*
X-226866Y-9203D01*
X-227349Y-9526D01*
X-228105Y-8770D01*
D02*
G37*
G36*
X58350Y-5081D02*
X56984Y-5353D01*
X55827Y-6127D01*
X55053Y-7284D01*
X54781Y-8650D01*
X55053Y-10016D01*
X55827Y-11173D01*
X56984Y-11947D01*
X58350Y-12219D01*
X59716Y-11947D01*
X60873Y-11173D01*
X61647Y-10016D01*
X61919Y-8650D01*
X61647Y-7284D01*
X60873Y-6127D01*
X59716Y-5353D01*
X58350Y-5081D01*
D02*
G37*
G36*
X148000Y0D02*
X146634Y-272D01*
X145477Y-1045D01*
X144703Y-2203D01*
X144431Y-3569D01*
X144703Y-4934D01*
X145477Y-6092D01*
X146634Y-6866D01*
X148000Y-7137D01*
X149366Y-6866D01*
X150523Y-6092D01*
X151297Y-4934D01*
X151569Y-3569D01*
X151297Y-2203D01*
X150523Y-1045D01*
X149366Y-272D01*
X148000Y0D01*
D02*
G37*
G36*
X6385Y-6187D02*
X5853Y-6543D01*
X5497Y-7075D01*
X6385D01*
Y-6187D01*
D02*
G37*
G36*
X-231770Y-8770D02*
X-232658D01*
X-232302Y-9302D01*
X-231770Y-9658D01*
Y-8770D01*
D02*
G37*
G36*
X6385Y-9615D02*
X5497D01*
X5853Y-10147D01*
X6385Y-10503D01*
Y-9615D01*
D02*
G37*
G36*
X9813D02*
X8925D01*
Y-10503D01*
X9457Y-10147D01*
X9813Y-9615D01*
D02*
G37*
G36*
X160632Y-9792D02*
X159266Y-10064D01*
X158109Y-10837D01*
X157335Y-11995D01*
X157063Y-13361D01*
X157335Y-14726D01*
X158109Y-15884D01*
X159266Y-16657D01*
X160632Y-16929D01*
X161998Y-16657D01*
X163155Y-15884D01*
X163929Y-14726D01*
X164200Y-13361D01*
X163929Y-11995D01*
X163155Y-10837D01*
X161998Y-10064D01*
X160632Y-9792D01*
D02*
G37*
G36*
X-270770Y-15342D02*
X-271302Y-15698D01*
X-271658Y-16230D01*
X-270770D01*
Y-15342D01*
D02*
G37*
G36*
X-267342Y-18770D02*
X-268230D01*
Y-19658D01*
X-267697Y-19302D01*
X-267342Y-18770D01*
D02*
G37*
G36*
X232000Y-13931D02*
X230634Y-14203D01*
X229477Y-14977D01*
X228703Y-16134D01*
X228431Y-17500D01*
X228703Y-18866D01*
X229477Y-20023D01*
X230634Y-20797D01*
X232000Y-21068D01*
X233366Y-20797D01*
X234523Y-20023D01*
X235297Y-18866D01*
X235569Y-17500D01*
X235297Y-16134D01*
X234523Y-14977D01*
X233366Y-14203D01*
X232000Y-13931D01*
D02*
G37*
G36*
X-270770Y-18770D02*
X-271658D01*
X-271302Y-19302D01*
X-270770Y-19658D01*
Y-18770D01*
D02*
G37*
G36*
X-291149Y-13770D02*
X-292037D01*
Y-14658D01*
X-291504Y-14302D01*
X-291149Y-13770D01*
D02*
G37*
G36*
X197000Y-7431D02*
X195634Y-7703D01*
X194477Y-8477D01*
X193703Y-9634D01*
X193431Y-11000D01*
X193703Y-12366D01*
X194477Y-13523D01*
X195634Y-14297D01*
X197000Y-14569D01*
X198366Y-14297D01*
X199523Y-13523D01*
X200297Y-12366D01*
X200569Y-11000D01*
X200297Y-9634D01*
X199523Y-8477D01*
X198366Y-7703D01*
X197000Y-7431D01*
D02*
G37*
G36*
X-294577Y-13770D02*
X-295465D01*
X-295109Y-14302D01*
X-294577Y-14658D01*
Y-13770D01*
D02*
G37*
G36*
X-268230Y-15342D02*
Y-16230D01*
X-267342D01*
X-267697Y-15698D01*
X-268230Y-15342D01*
D02*
G37*
G36*
X259500Y-8931D02*
X258134Y-9203D01*
X256977Y-9977D01*
X256203Y-11134D01*
X255931Y-12500D01*
X256203Y-13866D01*
X256977Y-15023D01*
X258134Y-15797D01*
X259500Y-16069D01*
X260866Y-15797D01*
X262023Y-15023D01*
X262797Y-13866D01*
X263069Y-12500D01*
X262797Y-11134D01*
X262023Y-9977D01*
X260866Y-9203D01*
X259500Y-8931D01*
D02*
G37*
G36*
X-228270Y-81842D02*
X-228802Y-82198D01*
X-229158Y-82730D01*
X-228270D01*
Y-81842D01*
D02*
G37*
G36*
X-252270Y-145842D02*
X-252802Y-146198D01*
X-253158Y-146730D01*
X-252270D01*
Y-145842D01*
D02*
G37*
G36*
X-249730D02*
Y-146730D01*
X-248842D01*
X-249198Y-146198D01*
X-249730Y-145842D01*
D02*
G37*
G36*
X-8500Y-140431D02*
X-9866Y-140703D01*
X-11023Y-141477D01*
X-11797Y-142634D01*
X-12069Y-144000D01*
X-11797Y-145366D01*
X-11023Y-146523D01*
X-9866Y-147297D01*
X-8500Y-147569D01*
X-7134Y-147297D01*
X-5977Y-146523D01*
X-5203Y-145366D01*
X-4931Y-144000D01*
X-5203Y-142634D01*
X-5977Y-141477D01*
X-7134Y-140703D01*
X-8500Y-140431D01*
D02*
G37*
G36*
X153000Y-140556D02*
X151635Y-140828D01*
X150477Y-141601D01*
X149703Y-142759D01*
X149432Y-144124D01*
X149703Y-145490D01*
X150477Y-146648D01*
X151635Y-147421D01*
X153000Y-147693D01*
X154366Y-147421D01*
X155524Y-146648D01*
X156297Y-145490D01*
X156569Y-144124D01*
X156297Y-142759D01*
X155524Y-141601D01*
X154366Y-140828D01*
X153000Y-140556D01*
D02*
G37*
G36*
X165000D02*
X163634Y-140828D01*
X162477Y-141601D01*
X161703Y-142759D01*
X161431Y-144124D01*
X161703Y-145490D01*
X162477Y-146648D01*
X163634Y-147421D01*
X165000Y-147693D01*
X166366Y-147421D01*
X167523Y-146648D01*
X168297Y-145490D01*
X168569Y-144124D01*
X168297Y-142759D01*
X167523Y-141601D01*
X166366Y-140828D01*
X165000Y-140556D01*
D02*
G37*
G36*
X-30842Y-145270D02*
X-31730D01*
Y-146158D01*
X-31198Y-145802D01*
X-30842Y-145270D01*
D02*
G37*
G36*
X-87270Y-143842D02*
X-87802Y-144198D01*
X-88158Y-144730D01*
X-87270D01*
Y-143842D01*
D02*
G37*
G36*
X-34270Y-145270D02*
X-35158D01*
X-34802Y-145802D01*
X-34270Y-146158D01*
Y-145270D01*
D02*
G37*
G36*
X-159000Y-139431D02*
X-160366Y-139703D01*
X-161523Y-140477D01*
X-162297Y-141634D01*
X-162569Y-143000D01*
X-162297Y-144366D01*
X-161523Y-145523D01*
X-160366Y-146297D01*
X-159000Y-146569D01*
X-157634Y-146297D01*
X-156477Y-145523D01*
X-155703Y-144366D01*
X-155431Y-143000D01*
X-155703Y-141634D01*
X-156477Y-140477D01*
X-157634Y-139703D01*
X-159000Y-139431D01*
D02*
G37*
G36*
X-98000D02*
X-99366Y-139703D01*
X-100523Y-140477D01*
X-101297Y-141634D01*
X-101569Y-143000D01*
X-101297Y-144366D01*
X-100523Y-145523D01*
X-99366Y-146297D01*
X-98000Y-146569D01*
X-96634Y-146297D01*
X-95477Y-145523D01*
X-94703Y-144366D01*
X-94431Y-143000D01*
X-94703Y-141634D01*
X-95477Y-140477D01*
X-96634Y-139703D01*
X-98000Y-139431D01*
D02*
G37*
G36*
X-119270Y-148842D02*
X-119802Y-149198D01*
X-120158Y-149730D01*
X-119270D01*
Y-148842D01*
D02*
G37*
G36*
X-116730D02*
Y-149730D01*
X-115842D01*
X-116198Y-149198D01*
X-116730Y-148842D01*
D02*
G37*
G36*
X-248842Y-149270D02*
X-249730D01*
Y-150158D01*
X-249198Y-149802D01*
X-248842Y-149270D01*
D02*
G37*
G36*
X37428Y-150540D02*
X36540D01*
Y-151428D01*
X37072Y-151072D01*
X37428Y-150540D01*
D02*
G37*
G36*
X-252270Y-149270D02*
X-253158D01*
X-252802Y-149802D01*
X-252270Y-150158D01*
Y-149270D01*
D02*
G37*
G36*
X36540Y-147112D02*
Y-148000D01*
X37428D01*
X37072Y-147468D01*
X36540Y-147112D01*
D02*
G37*
G36*
X141270Y-140661D02*
X139904Y-140933D01*
X138747Y-141707D01*
X137973Y-142864D01*
X137701Y-144230D01*
X137973Y-145596D01*
X138747Y-146753D01*
X139904Y-147527D01*
X141270Y-147799D01*
X142636Y-147527D01*
X143793Y-146753D01*
X144567Y-145596D01*
X144839Y-144230D01*
X144567Y-142864D01*
X143793Y-141707D01*
X142636Y-140933D01*
X141270Y-140661D01*
D02*
G37*
G36*
X34000Y-147112D02*
X33468Y-147468D01*
X33112Y-148000D01*
X34000D01*
Y-147112D01*
D02*
G37*
G36*
X-87270Y-147270D02*
X-88158D01*
X-87802Y-147802D01*
X-87270Y-148158D01*
Y-147270D01*
D02*
G37*
G36*
X-83842D02*
X-84730D01*
Y-148158D01*
X-84198Y-147802D01*
X-83842Y-147270D01*
D02*
G37*
G36*
X-84730Y-143842D02*
Y-144730D01*
X-83842D01*
X-84198Y-144198D01*
X-84730Y-143842D01*
D02*
G37*
G36*
X276200Y-126902D02*
X274249Y-127290D01*
X272595Y-128395D01*
X271490Y-130049D01*
X271102Y-132000D01*
X271490Y-133951D01*
X272595Y-135605D01*
X274249Y-136710D01*
X276200Y-137098D01*
X278151Y-136710D01*
X279805Y-135605D01*
X280910Y-133951D01*
X281298Y-132000D01*
X280910Y-130049D01*
X279805Y-128395D01*
X278151Y-127290D01*
X276200Y-126902D01*
D02*
G37*
G36*
X261000Y-129431D02*
X259634Y-129703D01*
X258477Y-130477D01*
X257703Y-131634D01*
X257431Y-133000D01*
X257703Y-134366D01*
X258477Y-135523D01*
X259634Y-136297D01*
X261000Y-136569D01*
X262366Y-136297D01*
X263523Y-135523D01*
X264297Y-134366D01*
X264569Y-133000D01*
X264297Y-131634D01*
X263523Y-130477D01*
X262366Y-129703D01*
X261000Y-129431D01*
D02*
G37*
G36*
X-35661Y-138770D02*
X-36549D01*
Y-139658D01*
X-36016Y-139302D01*
X-35661Y-138770D01*
D02*
G37*
G36*
X224270Y-138842D02*
Y-139730D01*
X225158D01*
X224802Y-139198D01*
X224270Y-138842D01*
D02*
G37*
G36*
X-39089Y-138770D02*
X-39977D01*
X-39621Y-139302D01*
X-39089Y-139658D01*
Y-138770D01*
D02*
G37*
G36*
X-243542Y-134319D02*
X-244430D01*
Y-135208D01*
X-243898Y-134852D01*
X-243542Y-134319D01*
D02*
G37*
G36*
X286500Y-127931D02*
X285134Y-128203D01*
X283977Y-128977D01*
X283203Y-130134D01*
X282931Y-131500D01*
X283203Y-132866D01*
X283977Y-134023D01*
X285134Y-134797D01*
X286500Y-135069D01*
X287866Y-134797D01*
X289023Y-134023D01*
X289797Y-132866D01*
X290069Y-131500D01*
X289797Y-130134D01*
X289023Y-128977D01*
X287866Y-128203D01*
X286500Y-127931D01*
D02*
G37*
G36*
X-246970Y-134319D02*
X-247858D01*
X-247502Y-134852D01*
X-246970Y-135208D01*
Y-134319D01*
D02*
G37*
G36*
X-39089Y-135342D02*
X-39621Y-135698D01*
X-39977Y-136230D01*
X-39089D01*
Y-135342D01*
D02*
G37*
G36*
X-36549D02*
Y-136230D01*
X-35661D01*
X-36016Y-135698D01*
X-36549Y-135342D01*
D02*
G37*
G36*
X225158Y-142270D02*
X224270D01*
Y-143158D01*
X224802Y-142802D01*
X225158Y-142270D01*
D02*
G37*
G36*
X-34270Y-141842D02*
X-34802Y-142198D01*
X-35158Y-142730D01*
X-34270D01*
Y-141842D01*
D02*
G37*
G36*
X221730Y-142270D02*
X220842D01*
X221198Y-142802D01*
X221730Y-143158D01*
Y-142270D01*
D02*
G37*
G36*
X-199770Y-143770D02*
X-200658D01*
X-200302Y-144302D01*
X-199770Y-144658D01*
Y-143770D01*
D02*
G37*
G36*
X-196342D02*
X-197230D01*
Y-144658D01*
X-196698Y-144302D01*
X-196342Y-143770D01*
D02*
G37*
G36*
X29982Y-133413D02*
X28616Y-133685D01*
X27458Y-134458D01*
X26685Y-135616D01*
X26413Y-136982D01*
X26685Y-138347D01*
X27458Y-139505D01*
X28616Y-140279D01*
X29982Y-140550D01*
X31347Y-140279D01*
X32505Y-139505D01*
X33279Y-138347D01*
X33550Y-136982D01*
X33279Y-135616D01*
X32505Y-134458D01*
X31347Y-133685D01*
X29982Y-133413D01*
D02*
G37*
G36*
X221730Y-138842D02*
X221198Y-139198D01*
X220842Y-139730D01*
X221730D01*
Y-138842D01*
D02*
G37*
G36*
X-197230Y-140342D02*
Y-141230D01*
X-196342D01*
X-196698Y-140698D01*
X-197230Y-140342D01*
D02*
G37*
G36*
X-31730Y-141842D02*
Y-142730D01*
X-30842D01*
X-31198Y-142198D01*
X-31730Y-141842D01*
D02*
G37*
G36*
X-199770Y-140342D02*
X-200302Y-140698D01*
X-200658Y-141230D01*
X-199770D01*
Y-140342D01*
D02*
G37*
G36*
X136270Y-177342D02*
Y-178230D01*
X137158D01*
X136802Y-177698D01*
X136270Y-177342D01*
D02*
G37*
G36*
X-247270Y-176270D02*
X-248158D01*
X-247802Y-176802D01*
X-247270Y-177158D01*
Y-176270D01*
D02*
G37*
G36*
X133730Y-177342D02*
X133198Y-177698D01*
X132842Y-178230D01*
X133730D01*
Y-177342D01*
D02*
G37*
G36*
Y-180770D02*
X132842D01*
X133198Y-181302D01*
X133730Y-181658D01*
Y-180770D01*
D02*
G37*
G36*
X137158D02*
X136270D01*
Y-181658D01*
X136802Y-181302D01*
X137158Y-180770D01*
D02*
G37*
G36*
X81422Y-164496D02*
X80056Y-164767D01*
X78899Y-165541D01*
X78125Y-166698D01*
X77853Y-168064D01*
X78125Y-169430D01*
X78899Y-170587D01*
X80056Y-171361D01*
X81422Y-171633D01*
X82788Y-171361D01*
X83946Y-170587D01*
X84719Y-169430D01*
X84991Y-168064D01*
X84719Y-166698D01*
X83946Y-165541D01*
X82788Y-164767D01*
X81422Y-164496D01*
D02*
G37*
G36*
X17939Y-163493D02*
X16573Y-163764D01*
X15415Y-164538D01*
X14642Y-165696D01*
X14370Y-167061D01*
X14642Y-168427D01*
X15415Y-169585D01*
X16573Y-170358D01*
X17939Y-170630D01*
X19304Y-170358D01*
X20462Y-169585D01*
X21236Y-168427D01*
X21507Y-167061D01*
X21236Y-165696D01*
X20462Y-164538D01*
X19304Y-163764D01*
X17939Y-163493D01*
D02*
G37*
G36*
X-244730Y-172842D02*
Y-173730D01*
X-243842D01*
X-244198Y-173198D01*
X-244730Y-172842D01*
D02*
G37*
G36*
X-243842Y-176270D02*
X-244730D01*
Y-177158D01*
X-244198Y-176802D01*
X-243842Y-176270D01*
D02*
G37*
G36*
X-247270Y-172842D02*
X-247802Y-173198D01*
X-248158Y-173730D01*
X-247270D01*
Y-172842D01*
D02*
G37*
G36*
X117270Y-182842D02*
Y-183730D01*
X118158D01*
X117802Y-183198D01*
X117270Y-182842D01*
D02*
G37*
G36*
X-274270Y-164270D02*
X-292972D01*
X-292711Y-166921D01*
X-291567Y-170691D01*
X-289710Y-174165D01*
X-287211Y-177211D01*
X-284165Y-179710D01*
X-280691Y-181567D01*
X-276921Y-182711D01*
X-274270Y-182972D01*
Y-164270D01*
D02*
G37*
G36*
X114730Y-182842D02*
X114198Y-183198D01*
X113842Y-183730D01*
X114730D01*
Y-182842D01*
D02*
G37*
G36*
X256730Y-184270D02*
X255842D01*
X256198Y-184802D01*
X256730Y-185158D01*
Y-184270D01*
D02*
G37*
G36*
X260158D02*
X259270D01*
Y-185158D01*
X259802Y-184802D01*
X260158Y-184270D01*
D02*
G37*
G36*
X256730Y-180842D02*
X256198Y-181198D01*
X255842Y-181730D01*
X256730D01*
Y-180842D01*
D02*
G37*
G36*
X259270D02*
Y-181730D01*
X260158D01*
X259802Y-181198D01*
X259270Y-180842D01*
D02*
G37*
G36*
X292972Y-164270D02*
X274270D01*
Y-182972D01*
X276921Y-182711D01*
X280691Y-181567D01*
X284165Y-179710D01*
X287211Y-177211D01*
X289710Y-174165D01*
X291567Y-170691D01*
X292711Y-166921D01*
X292972Y-164270D01*
D02*
G37*
G36*
X-253028D02*
X-271730D01*
Y-182972D01*
X-269079Y-182711D01*
X-265309Y-181567D01*
X-261835Y-179710D01*
X-258789Y-177211D01*
X-256290Y-174165D01*
X-254433Y-170691D01*
X-253289Y-166921D01*
X-253028Y-164270D01*
D02*
G37*
G36*
X271730D02*
X253028D01*
X253289Y-166921D01*
X254433Y-170691D01*
X256290Y-174165D01*
X258789Y-177211D01*
X261835Y-179710D01*
X265309Y-181567D01*
X269079Y-182711D01*
X271730Y-182972D01*
Y-164270D01*
D02*
G37*
G36*
X56039Y-163470D02*
X54673Y-163742D01*
X53515Y-164515D01*
X52742Y-165673D01*
X52470Y-167039D01*
X52742Y-168404D01*
X53515Y-169562D01*
X54673Y-170336D01*
X56039Y-170607D01*
X57404Y-170336D01*
X58562Y-169562D01*
X59336Y-168404D01*
X59607Y-167039D01*
X59336Y-165673D01*
X58562Y-164515D01*
X57404Y-163742D01*
X56039Y-163470D01*
D02*
G37*
G36*
X274270Y-143028D02*
Y-161730D01*
X292972D01*
X292711Y-159079D01*
X291567Y-155309D01*
X289710Y-151835D01*
X287211Y-148789D01*
X284165Y-146290D01*
X280691Y-144433D01*
X276921Y-143289D01*
X274270Y-143028D01*
D02*
G37*
G36*
X-50500Y-152431D02*
X-51866Y-152703D01*
X-53023Y-153477D01*
X-53797Y-154634D01*
X-54069Y-156000D01*
X-53797Y-157366D01*
X-53023Y-158523D01*
X-51866Y-159297D01*
X-50500Y-159569D01*
X-49134Y-159297D01*
X-47977Y-158523D01*
X-47203Y-157366D01*
X-46931Y-156000D01*
X-47203Y-154634D01*
X-47977Y-153477D01*
X-49134Y-152703D01*
X-50500Y-152431D01*
D02*
G37*
G36*
X271730Y-143028D02*
X269079Y-143289D01*
X265309Y-144433D01*
X261835Y-146290D01*
X258789Y-148789D01*
X256290Y-151835D01*
X254433Y-155309D01*
X253289Y-159079D01*
X253028Y-161730D01*
X271730D01*
Y-143028D01*
D02*
G37*
G36*
X-274270D02*
X-276921Y-143289D01*
X-280691Y-144433D01*
X-284165Y-146290D01*
X-287211Y-148789D01*
X-289710Y-151835D01*
X-291567Y-155309D01*
X-292711Y-159079D01*
X-292972Y-161730D01*
X-274270D01*
Y-143028D01*
D02*
G37*
G36*
X-271730D02*
Y-161730D01*
X-253028D01*
X-253289Y-159079D01*
X-254433Y-155309D01*
X-256290Y-151835D01*
X-258789Y-148789D01*
X-261835Y-146290D01*
X-265309Y-144433D01*
X-269079Y-143289D01*
X-271730Y-143028D01*
D02*
G37*
G36*
X-115842Y-152270D02*
X-116730D01*
Y-153158D01*
X-116198Y-152802D01*
X-115842Y-152270D01*
D02*
G37*
G36*
X34000Y-150540D02*
X33112D01*
X33468Y-151072D01*
X34000Y-151428D01*
Y-150540D01*
D02*
G37*
G36*
X-119270Y-152270D02*
X-120158D01*
X-119802Y-152802D01*
X-119270Y-153158D01*
Y-152270D01*
D02*
G37*
G36*
X188750Y-151011D02*
X187384Y-151283D01*
X186227Y-152057D01*
X185453Y-153215D01*
X185181Y-154580D01*
X185453Y-155946D01*
X186227Y-157104D01*
X187384Y-157877D01*
X188750Y-158149D01*
X190116Y-157877D01*
X191273Y-157104D01*
X192047Y-155946D01*
X192319Y-154580D01*
X192047Y-153215D01*
X191273Y-152057D01*
X190116Y-151283D01*
X188750Y-151011D01*
D02*
G37*
G36*
X201250D02*
X199884Y-151283D01*
X198727Y-152057D01*
X197953Y-153215D01*
X197681Y-154580D01*
X197953Y-155946D01*
X198727Y-157104D01*
X199884Y-157877D01*
X201250Y-158149D01*
X202616Y-157877D01*
X203773Y-157104D01*
X204547Y-155946D01*
X204819Y-154580D01*
X204547Y-153215D01*
X203773Y-152057D01*
X202616Y-151283D01*
X201250Y-151011D01*
D02*
G37*
G36*
X221250Y-162431D02*
X219884Y-162703D01*
X218727Y-163477D01*
X217953Y-164634D01*
X217682Y-166000D01*
X217953Y-167366D01*
X218727Y-168523D01*
X219884Y-169297D01*
X221250Y-169569D01*
X222616Y-169297D01*
X223773Y-168523D01*
X224547Y-167366D01*
X224819Y-166000D01*
X224547Y-164634D01*
X223773Y-163477D01*
X222616Y-162703D01*
X221250Y-162431D01*
D02*
G37*
G36*
X170835Y-168250D02*
X169947D01*
X170302Y-168782D01*
X170835Y-169138D01*
Y-168250D01*
D02*
G37*
G36*
X208750Y-162431D02*
X207384Y-162703D01*
X206227Y-163477D01*
X205453Y-164634D01*
X205182Y-166000D01*
X205453Y-167366D01*
X206227Y-168523D01*
X207384Y-169297D01*
X208750Y-169569D01*
X210116Y-169297D01*
X211273Y-168523D01*
X212047Y-167366D01*
X212319Y-166000D01*
X212047Y-164634D01*
X211273Y-163477D01*
X210116Y-162703D01*
X208750Y-162431D01*
D02*
G37*
G36*
X-7461Y-162893D02*
X-8827Y-163164D01*
X-9985Y-163938D01*
X-10758Y-165096D01*
X-11030Y-166461D01*
X-10758Y-167827D01*
X-9985Y-168985D01*
X-8827Y-169758D01*
X-7461Y-170030D01*
X-6096Y-169758D01*
X-4938Y-168985D01*
X-4164Y-167827D01*
X-3893Y-166461D01*
X-4164Y-165096D01*
X-4938Y-163938D01*
X-6096Y-163164D01*
X-7461Y-162893D01*
D02*
G37*
G36*
X196250Y-162431D02*
X194884Y-162703D01*
X193727Y-163477D01*
X192953Y-164634D01*
X192682Y-166000D01*
X192953Y-167366D01*
X193727Y-168523D01*
X194884Y-169297D01*
X196250Y-169569D01*
X197616Y-169297D01*
X198773Y-168523D01*
X199547Y-167366D01*
X199819Y-166000D01*
X199547Y-164634D01*
X198773Y-163477D01*
X197616Y-162703D01*
X196250Y-162431D01*
D02*
G37*
G36*
X-215250Y-158181D02*
X-216616Y-158453D01*
X-217773Y-159227D01*
X-218547Y-160384D01*
X-218819Y-161750D01*
X-218547Y-163116D01*
X-217773Y-164273D01*
X-216616Y-165047D01*
X-215250Y-165319D01*
X-213884Y-165047D01*
X-212727Y-164273D01*
X-211953Y-163116D01*
X-211681Y-161750D01*
X-211953Y-160384D01*
X-212727Y-159227D01*
X-213884Y-158453D01*
X-215250Y-158181D01*
D02*
G37*
G36*
X135000Y-155891D02*
X133635Y-156163D01*
X132477Y-156937D01*
X131703Y-158094D01*
X131432Y-159460D01*
X131703Y-160826D01*
X132477Y-161983D01*
X133635Y-162757D01*
X135000Y-163029D01*
X136366Y-162757D01*
X137524Y-161983D01*
X138297Y-160826D01*
X138569Y-159460D01*
X138297Y-158094D01*
X137524Y-156937D01*
X136366Y-156163D01*
X135000Y-155891D01*
D02*
G37*
G36*
X173375Y-164822D02*
Y-165710D01*
X174263D01*
X173907Y-165177D01*
X173375Y-164822D01*
D02*
G37*
G36*
X174263Y-168250D02*
X173375D01*
Y-169138D01*
X173907Y-168782D01*
X174263Y-168250D01*
D02*
G37*
G36*
X170835Y-164822D02*
X170302Y-165177D01*
X169947Y-165710D01*
X170835D01*
Y-164822D01*
D02*
G37*
G36*
X-277470Y-133270D02*
X-278960D01*
X-278363Y-134163D01*
X-277470Y-134760D01*
Y-133270D01*
D02*
G37*
G36*
X-85451Y-95660D02*
X-86340D01*
Y-96549D01*
X-85807Y-96193D01*
X-85451Y-95660D01*
D02*
G37*
G36*
X170678Y-89114D02*
X169312Y-89386D01*
X168154Y-90159D01*
X167381Y-91317D01*
X167109Y-92683D01*
X167381Y-94048D01*
X168154Y-95206D01*
X169312Y-95980D01*
X170678Y-96251D01*
X172043Y-95980D01*
X173201Y-95206D01*
X173975Y-94048D01*
X174246Y-92683D01*
X173975Y-91317D01*
X173201Y-90159D01*
X172043Y-89386D01*
X170678Y-89114D01*
D02*
G37*
G36*
X-88879Y-95660D02*
X-89768D01*
X-89412Y-96193D01*
X-88879Y-96549D01*
Y-95660D01*
D02*
G37*
G36*
X-143410Y-97842D02*
Y-98730D01*
X-142522D01*
X-142878Y-98198D01*
X-143410Y-97842D01*
D02*
G37*
G36*
X149000Y-90926D02*
X147634Y-91197D01*
X146477Y-91971D01*
X145703Y-93129D01*
X145431Y-94494D01*
X145703Y-95860D01*
X146477Y-97018D01*
X147634Y-97791D01*
X149000Y-98063D01*
X150366Y-97791D01*
X151523Y-97018D01*
X152297Y-95860D01*
X152569Y-94494D01*
X152297Y-93129D01*
X151523Y-91971D01*
X150366Y-91197D01*
X149000Y-90926D01*
D02*
G37*
G36*
X259158Y-93770D02*
X258270D01*
Y-94658D01*
X258802Y-94302D01*
X259158Y-93770D01*
D02*
G37*
G36*
X229934Y-86135D02*
X228569Y-86406D01*
X227411Y-87180D01*
X226637Y-88337D01*
X226366Y-89703D01*
X226637Y-91069D01*
X227411Y-92226D01*
X228569Y-93000D01*
X229934Y-93272D01*
X231300Y-93000D01*
X232458Y-92226D01*
X233231Y-91069D01*
X233503Y-89703D01*
X233231Y-88337D01*
X232458Y-87180D01*
X231300Y-86406D01*
X229934Y-86135D01*
D02*
G37*
G36*
X255730Y-93770D02*
X254842D01*
X255198Y-94302D01*
X255730Y-94658D01*
Y-93770D01*
D02*
G37*
G36*
X90741Y-94270D02*
X89853D01*
X90209Y-94802D01*
X90741Y-95158D01*
Y-94270D01*
D02*
G37*
G36*
X94169D02*
X93281D01*
Y-95158D01*
X93814Y-94802D01*
X94169Y-94270D01*
D02*
G37*
G36*
X-170080Y-94351D02*
X-171446Y-94623D01*
X-172603Y-95397D01*
X-173377Y-96554D01*
X-173649Y-97920D01*
X-173377Y-99286D01*
X-172603Y-100443D01*
X-171446Y-101217D01*
X-170080Y-101489D01*
X-168714Y-101217D01*
X-167557Y-100443D01*
X-166783Y-99286D01*
X-166511Y-97920D01*
X-166783Y-96554D01*
X-167557Y-95397D01*
X-168714Y-94623D01*
X-170080Y-94351D01*
D02*
G37*
G36*
X-294577Y-100342D02*
X-295109Y-100697D01*
X-295465Y-101230D01*
X-294577D01*
Y-100342D01*
D02*
G37*
G36*
X-142522Y-101270D02*
X-143410D01*
Y-102158D01*
X-142878Y-101802D01*
X-142522Y-101270D01*
D02*
G37*
G36*
X-291149Y-103770D02*
X-292037D01*
Y-104658D01*
X-291504Y-104302D01*
X-291149Y-103770D01*
D02*
G37*
G36*
X-145950Y-101270D02*
X-146838D01*
X-146482Y-101802D01*
X-145950Y-102158D01*
Y-101270D01*
D02*
G37*
G36*
X263366Y-93931D02*
X262000Y-94203D01*
X260842Y-94976D01*
X260069Y-96134D01*
X259797Y-97500D01*
X260069Y-98865D01*
X258965Y-99603D01*
X258366Y-99203D01*
X257000Y-98931D01*
X255634Y-99203D01*
X254477Y-99976D01*
X253703Y-101134D01*
X253431Y-102500D01*
X253703Y-103865D01*
X254477Y-105023D01*
X255634Y-105797D01*
X257000Y-106068D01*
X258366Y-105797D01*
X259523Y-105023D01*
X260297Y-103865D01*
X260569Y-102500D01*
X260297Y-101134D01*
X261401Y-100396D01*
X262000Y-100797D01*
X263366Y-101068D01*
X264731Y-100797D01*
X265889Y-100023D01*
X266663Y-98865D01*
X266934Y-97500D01*
X266663Y-96134D01*
X265889Y-94976D01*
X264731Y-94203D01*
X263366Y-93931D01*
D02*
G37*
G36*
X-145950Y-97842D02*
X-146482Y-98198D01*
X-146838Y-98730D01*
X-145950D01*
Y-97842D01*
D02*
G37*
G36*
X201000Y-93431D02*
X199634Y-93703D01*
X198477Y-94477D01*
X197703Y-95634D01*
X197431Y-97000D01*
X197703Y-98366D01*
X198477Y-99523D01*
X199634Y-100297D01*
X201000Y-100569D01*
X202366Y-100297D01*
X203523Y-99523D01*
X204297Y-98366D01*
X204569Y-97000D01*
X204297Y-95634D01*
X203523Y-94477D01*
X202366Y-93703D01*
X201000Y-93431D01*
D02*
G37*
G36*
X-292037Y-100342D02*
Y-101230D01*
X-291149D01*
X-291504Y-100697D01*
X-292037Y-100342D01*
D02*
G37*
G36*
X-220000Y-93931D02*
X-221366Y-94203D01*
X-222523Y-94977D01*
X-223297Y-96134D01*
X-223569Y-97500D01*
X-223297Y-98865D01*
X-222523Y-100023D01*
X-221366Y-100797D01*
X-220000Y-101068D01*
X-218634Y-100797D01*
X-217477Y-100023D01*
X-216703Y-98865D01*
X-216431Y-97500D01*
X-216703Y-96134D01*
X-217477Y-94977D01*
X-218634Y-94203D01*
X-220000Y-93931D01*
D02*
G37*
G36*
X-88879Y-92232D02*
X-89412Y-92588D01*
X-89768Y-93120D01*
X-88879D01*
Y-92232D01*
D02*
G37*
G36*
X271000Y-78931D02*
X269634Y-79203D01*
X268477Y-79977D01*
X267703Y-81134D01*
X267431Y-82500D01*
X267703Y-83865D01*
X268477Y-85023D01*
X269634Y-85797D01*
X271000Y-86068D01*
X272366Y-85797D01*
X273523Y-85023D01*
X274297Y-83865D01*
X274569Y-82500D01*
X274297Y-81134D01*
X273523Y-79977D01*
X272366Y-79203D01*
X271000Y-78931D01*
D02*
G37*
G36*
X90730Y-84270D02*
X89842D01*
X90198Y-84802D01*
X90730Y-85158D01*
Y-84270D01*
D02*
G37*
G36*
X-224842Y-85270D02*
X-225730D01*
Y-86158D01*
X-225198Y-85802D01*
X-224842Y-85270D01*
D02*
G37*
G36*
X293730Y-85342D02*
X293198Y-85697D01*
X292842Y-86230D01*
X293730D01*
Y-85342D01*
D02*
G37*
G36*
X-228270Y-85270D02*
X-229158D01*
X-228802Y-85802D01*
X-228270Y-86158D01*
Y-85270D01*
D02*
G37*
G36*
X259158Y-83770D02*
X258270D01*
Y-84658D01*
X258802Y-84302D01*
X259158Y-83770D01*
D02*
G37*
G36*
X206000Y-76926D02*
X204634Y-77197D01*
X203477Y-77971D01*
X202703Y-79129D01*
X202431Y-80494D01*
X202703Y-81860D01*
X203477Y-83018D01*
X204634Y-83791D01*
X206000Y-84063D01*
X207366Y-83791D01*
X208523Y-83018D01*
X209297Y-81860D01*
X209569Y-80494D01*
X209297Y-79129D01*
X208523Y-77971D01*
X207366Y-77197D01*
X206000Y-76926D01*
D02*
G37*
G36*
X255730Y-83770D02*
X254842D01*
X255198Y-84302D01*
X255730Y-84658D01*
Y-83770D01*
D02*
G37*
G36*
X94158Y-84270D02*
X93270D01*
Y-85158D01*
X93802Y-84802D01*
X94158Y-84270D01*
D02*
G37*
G36*
X188178Y-77926D02*
X186812Y-78197D01*
X185654Y-78971D01*
X184881Y-80129D01*
X184609Y-81495D01*
X184881Y-82860D01*
X185654Y-84018D01*
X186812Y-84791D01*
X188178Y-85063D01*
X189543Y-84791D01*
X190701Y-84018D01*
X191475Y-82860D01*
X191746Y-81495D01*
X191475Y-80129D01*
X190701Y-78971D01*
X189543Y-78197D01*
X188178Y-77926D01*
D02*
G37*
G36*
X255730Y-90342D02*
X255198Y-90697D01*
X254842Y-91230D01*
X255730D01*
Y-90342D01*
D02*
G37*
G36*
X258270D02*
Y-91230D01*
X259158D01*
X258802Y-90697D01*
X258270Y-90342D01*
D02*
G37*
G36*
X93281Y-90842D02*
Y-91730D01*
X94169D01*
X93814Y-91198D01*
X93281Y-90842D01*
D02*
G37*
G36*
X-86340Y-92232D02*
Y-93120D01*
X-85451D01*
X-85807Y-92588D01*
X-86340Y-92232D01*
D02*
G37*
G36*
X90741Y-90842D02*
X90209Y-91198D01*
X89853Y-91730D01*
X90741D01*
Y-90842D01*
D02*
G37*
G36*
X293730Y-88770D02*
X292842D01*
X293198Y-89302D01*
X293730Y-89658D01*
Y-88770D01*
D02*
G37*
G36*
X133178Y-80176D02*
X131812Y-80448D01*
X130654Y-81221D01*
X129881Y-82379D01*
X129609Y-83744D01*
X129881Y-85110D01*
X130654Y-86268D01*
X131812Y-87041D01*
X133178Y-87313D01*
X134543Y-87041D01*
X135701Y-86268D01*
X136475Y-85110D01*
X136746Y-83744D01*
X136475Y-82379D01*
X135701Y-81221D01*
X134543Y-80448D01*
X133178Y-80176D01*
D02*
G37*
G36*
X36434Y-82947D02*
X35068Y-83218D01*
X33910Y-83992D01*
X33137Y-85149D01*
X32865Y-86515D01*
X33137Y-87881D01*
X33910Y-89038D01*
X35068Y-89812D01*
X36434Y-90084D01*
X37799Y-89812D01*
X38957Y-89038D01*
X39731Y-87881D01*
X40002Y-86515D01*
X39731Y-85149D01*
X38957Y-83992D01*
X37799Y-83218D01*
X36434Y-82947D01*
D02*
G37*
G36*
X-265000Y-78931D02*
X-266366Y-79203D01*
X-267523Y-79977D01*
X-268297Y-81134D01*
X-268569Y-82500D01*
X-268297Y-83865D01*
X-267523Y-85023D01*
X-266366Y-85797D01*
X-265000Y-86068D01*
X-264855Y-86039D01*
X-263957Y-86938D01*
X-264069Y-87500D01*
X-263797Y-88866D01*
X-263023Y-90023D01*
X-261866Y-90797D01*
X-260500Y-91069D01*
X-259134Y-90797D01*
X-257977Y-90023D01*
X-257203Y-88866D01*
X-256931Y-87500D01*
X-257203Y-86134D01*
X-257977Y-84977D01*
X-259134Y-84203D01*
X-260500Y-83931D01*
X-260645Y-83960D01*
X-261543Y-83062D01*
X-261431Y-82500D01*
X-261703Y-81134D01*
X-262477Y-79977D01*
X-263634Y-79203D01*
X-265000Y-78931D01*
D02*
G37*
G36*
X-215000Y-83431D02*
X-216366Y-83703D01*
X-217523Y-84477D01*
X-218297Y-85634D01*
X-218569Y-87000D01*
X-218297Y-88366D01*
X-217523Y-89523D01*
X-216366Y-90297D01*
X-215000Y-90569D01*
X-213634Y-90297D01*
X-212477Y-89523D01*
X-211703Y-88366D01*
X-211431Y-87000D01*
X-211703Y-85634D01*
X-212477Y-84477D01*
X-213634Y-83703D01*
X-215000Y-83431D01*
D02*
G37*
G36*
X161295Y-122250D02*
X160407D01*
X160762Y-122782D01*
X161295Y-123138D01*
Y-122250D01*
D02*
G37*
G36*
X164723D02*
X163835D01*
Y-123138D01*
X164367Y-122782D01*
X164723Y-122250D01*
D02*
G37*
G36*
X117000Y-116431D02*
X115634Y-116703D01*
X114477Y-117477D01*
X113703Y-118634D01*
X113431Y-120000D01*
X113703Y-121366D01*
X114477Y-122523D01*
X115634Y-123297D01*
X117000Y-123569D01*
X118366Y-123297D01*
X119523Y-122523D01*
X120297Y-121366D01*
X120569Y-120000D01*
X120297Y-118634D01*
X119523Y-117477D01*
X118366Y-116703D01*
X117000Y-116431D01*
D02*
G37*
G36*
X179000Y-117431D02*
X177634Y-117703D01*
X176477Y-118477D01*
X175703Y-119634D01*
X175431Y-121000D01*
X175703Y-122366D01*
X176477Y-123523D01*
X177634Y-124297D01*
X179000Y-124569D01*
X180366Y-124297D01*
X181523Y-123523D01*
X182297Y-122366D01*
X182569Y-121000D01*
X182297Y-119634D01*
X181523Y-118477D01*
X180366Y-117703D01*
X179000Y-117431D01*
D02*
G37*
G36*
X201000D02*
X199634Y-117703D01*
X198477Y-118477D01*
X197703Y-119634D01*
X197431Y-121000D01*
X197703Y-122366D01*
X198477Y-123523D01*
X199634Y-124297D01*
X201000Y-124569D01*
X202366Y-124297D01*
X203523Y-123523D01*
X204297Y-122366D01*
X204569Y-121000D01*
X204297Y-119634D01*
X203523Y-118477D01*
X202366Y-117703D01*
X201000Y-117431D01*
D02*
G37*
G36*
X293730Y-120342D02*
X293198Y-120697D01*
X292842Y-121230D01*
X293730D01*
Y-120342D01*
D02*
G37*
G36*
X257000Y-108931D02*
X255634Y-109203D01*
X254477Y-109976D01*
X253703Y-111134D01*
X253431Y-112500D01*
X253703Y-113865D01*
X254477Y-115023D01*
X255634Y-115797D01*
X257000Y-116068D01*
X258366Y-115797D01*
X258965Y-115396D01*
X260069Y-116134D01*
X259797Y-117500D01*
X260069Y-118865D01*
X260842Y-120023D01*
X262000Y-120797D01*
X263366Y-121068D01*
X264731Y-120797D01*
X265889Y-120023D01*
X266663Y-118865D01*
X266934Y-117500D01*
X266663Y-116134D01*
X265889Y-114976D01*
X264731Y-114203D01*
X263366Y-113931D01*
X262000Y-114203D01*
X261401Y-114603D01*
X260297Y-113865D01*
X260569Y-112500D01*
X260297Y-111134D01*
X259523Y-109976D01*
X258366Y-109203D01*
X257000Y-108931D01*
D02*
G37*
G36*
X-174326Y-114843D02*
X-175691Y-115115D01*
X-176849Y-115888D01*
X-177623Y-117046D01*
X-177894Y-118412D01*
X-177623Y-119777D01*
X-176849Y-120935D01*
X-175691Y-121708D01*
X-174326Y-121980D01*
X-172960Y-121708D01*
X-171802Y-120935D01*
X-171029Y-119777D01*
X-170757Y-118412D01*
X-171029Y-117046D01*
X-171802Y-115888D01*
X-172960Y-115115D01*
X-174326Y-114843D01*
D02*
G37*
G36*
X131730Y-121270D02*
X130842D01*
X131198Y-121802D01*
X131730Y-122158D01*
Y-121270D01*
D02*
G37*
G36*
X135158D02*
X134270D01*
Y-122158D01*
X134802Y-121802D01*
X135158Y-121270D01*
D02*
G37*
G36*
X226730Y-130029D02*
X225842D01*
X226198Y-130562D01*
X226730Y-130917D01*
Y-130029D01*
D02*
G37*
G36*
X230158D02*
X229270D01*
Y-130917D01*
X229802Y-130562D01*
X230158Y-130029D01*
D02*
G37*
G36*
X-244430Y-130891D02*
Y-131779D01*
X-243542D01*
X-243898Y-131247D01*
X-244430Y-130891D01*
D02*
G37*
G36*
X-273440Y-133270D02*
X-274930D01*
Y-134760D01*
X-274037Y-134163D01*
X-273440Y-133270D01*
D02*
G37*
G36*
X-246970Y-130891D02*
X-247502Y-131247D01*
X-247858Y-131779D01*
X-246970D01*
Y-130891D01*
D02*
G37*
G36*
X229270Y-126601D02*
Y-127489D01*
X230158D01*
X229802Y-126957D01*
X229270Y-126601D01*
D02*
G37*
G36*
X293730Y-123770D02*
X292842D01*
X293198Y-124302D01*
X293730Y-124658D01*
Y-123770D01*
D02*
G37*
G36*
X226730Y-126601D02*
X226198Y-126957D01*
X225842Y-127489D01*
X226730D01*
Y-126601D01*
D02*
G37*
G36*
X-277470Y-129241D02*
X-278363Y-129837D01*
X-278960Y-130730D01*
X-277470D01*
Y-129241D01*
D02*
G37*
G36*
X-274930D02*
Y-130730D01*
X-273440D01*
X-274037Y-129837D01*
X-274930Y-129241D01*
D02*
G37*
G36*
X-260000Y-113431D02*
X-261366Y-113703D01*
X-262523Y-114477D01*
X-263297Y-115634D01*
X-263569Y-117000D01*
X-263297Y-118366D01*
X-262523Y-119523D01*
X-261366Y-120297D01*
X-260000Y-120569D01*
X-258634Y-120297D01*
X-257477Y-119523D01*
X-256703Y-118366D01*
X-256431Y-117000D01*
X-256703Y-115634D01*
X-257477Y-114477D01*
X-258634Y-113703D01*
X-260000Y-113431D01*
D02*
G37*
G36*
X-270770Y-108770D02*
X-271658D01*
X-271302Y-109302D01*
X-270770Y-109658D01*
Y-108770D01*
D02*
G37*
G36*
X-267342D02*
X-268230D01*
Y-109658D01*
X-267697Y-109302D01*
X-267342Y-108770D01*
D02*
G37*
G36*
X-5549Y-109342D02*
Y-110230D01*
X-4660D01*
X-5016Y-109698D01*
X-5549Y-109342D01*
D02*
G37*
G36*
X201000Y-105431D02*
X199634Y-105703D01*
X198477Y-106477D01*
X197703Y-107634D01*
X197431Y-109000D01*
X197703Y-110366D01*
X198477Y-111523D01*
X199634Y-112297D01*
X201000Y-112569D01*
X202366Y-112297D01*
X203523Y-111523D01*
X204297Y-110366D01*
X204569Y-109000D01*
X204297Y-107634D01*
X203523Y-106477D01*
X202366Y-105703D01*
X201000Y-105431D01*
D02*
G37*
G36*
X-8089Y-109342D02*
X-8621Y-109698D01*
X-8977Y-110230D01*
X-8089D01*
Y-109342D01*
D02*
G37*
G36*
X-50500Y-97771D02*
X-51866Y-98043D01*
X-53023Y-98817D01*
X-53797Y-99974D01*
X-54069Y-101340D01*
X-53797Y-102706D01*
X-53023Y-103863D01*
X-51866Y-104637D01*
X-50500Y-104909D01*
X-49134Y-104637D01*
X-47977Y-103863D01*
X-47203Y-102706D01*
X-46931Y-101340D01*
X-47203Y-99974D01*
X-47977Y-98817D01*
X-49134Y-98043D01*
X-50500Y-97771D01*
D02*
G37*
G36*
X-294577Y-103770D02*
X-295465D01*
X-295109Y-104302D01*
X-294577Y-104658D01*
Y-103770D01*
D02*
G37*
G36*
X-268230Y-105342D02*
Y-106230D01*
X-267342D01*
X-267697Y-105697D01*
X-268230Y-105342D01*
D02*
G37*
G36*
X-195416Y-99431D02*
X-196782Y-99703D01*
X-197939Y-100477D01*
X-198713Y-101634D01*
X-198985Y-103000D01*
X-198713Y-104366D01*
X-197939Y-105523D01*
X-196782Y-106297D01*
X-195416Y-106569D01*
X-194050Y-106297D01*
X-192893Y-105523D01*
X-192119Y-104366D01*
X-191847Y-103000D01*
X-192119Y-101634D01*
X-192893Y-100477D01*
X-194050Y-99703D01*
X-195416Y-99431D01*
D02*
G37*
G36*
X-270770Y-105342D02*
X-271302Y-105697D01*
X-271658Y-106230D01*
X-270770D01*
Y-105342D01*
D02*
G37*
G36*
X134270Y-117842D02*
Y-118730D01*
X135158D01*
X134802Y-118198D01*
X134270Y-117842D01*
D02*
G37*
G36*
X-214000Y-111431D02*
X-215366Y-111703D01*
X-216523Y-112477D01*
X-217297Y-113634D01*
X-217569Y-115000D01*
X-217297Y-116366D01*
X-216523Y-117523D01*
X-215366Y-118297D01*
X-214000Y-118569D01*
X-212634Y-118297D01*
X-211477Y-117523D01*
X-210703Y-116366D01*
X-210431Y-115000D01*
X-210703Y-113634D01*
X-211477Y-112477D01*
X-212634Y-111703D01*
X-214000Y-111431D01*
D02*
G37*
G36*
X131730Y-117842D02*
X131198Y-118198D01*
X130842Y-118730D01*
X131730D01*
Y-117842D01*
D02*
G37*
G36*
X161295Y-118822D02*
X160762Y-119178D01*
X160407Y-119710D01*
X161295D01*
Y-118822D01*
D02*
G37*
G36*
X163835D02*
Y-119710D01*
X164723D01*
X164367Y-119178D01*
X163835Y-118822D01*
D02*
G37*
G36*
X-8089Y-112770D02*
X-8977D01*
X-8621Y-113302D01*
X-8089Y-113658D01*
Y-112770D01*
D02*
G37*
G36*
X-4660D02*
X-5549D01*
Y-113658D01*
X-5016Y-113302D01*
X-4660Y-112770D01*
D02*
G37*
G36*
X58730Y-108201D02*
X57364Y-108473D01*
X56207Y-109247D01*
X55433Y-110404D01*
X55161Y-111770D01*
X55433Y-113136D01*
X56207Y-114293D01*
X57364Y-115067D01*
X58730Y-115339D01*
X60096Y-115067D01*
X61253Y-114293D01*
X62027Y-113136D01*
X62299Y-111770D01*
X62027Y-110404D01*
X61253Y-109247D01*
X60096Y-108473D01*
X58730Y-108201D01*
D02*
G37*
G36*
X-231500Y-103931D02*
X-232866Y-104203D01*
X-234024Y-104976D01*
X-234797Y-106134D01*
X-235069Y-107500D01*
X-234797Y-108865D01*
X-234024Y-110023D01*
X-232866Y-110797D01*
X-231500Y-111068D01*
X-230834Y-110936D01*
X-229936Y-111834D01*
X-230069Y-112500D01*
X-229797Y-113865D01*
X-229024Y-115023D01*
X-227866Y-115797D01*
X-226500Y-116068D01*
X-225135Y-115797D01*
X-223977Y-115023D01*
X-223203Y-113865D01*
X-222932Y-112500D01*
X-223203Y-111134D01*
X-223977Y-109976D01*
X-225135Y-109203D01*
X-226500Y-108931D01*
X-227166Y-109064D01*
X-228064Y-108166D01*
X-227932Y-107500D01*
X-228203Y-106134D01*
X-228977Y-104976D01*
X-230135Y-104203D01*
X-231500Y-103931D01*
D02*
G37*
G36*
X42730Y-108201D02*
X41364Y-108473D01*
X40207Y-109247D01*
X39433Y-110404D01*
X39161Y-111770D01*
X39433Y-113136D01*
X40207Y-114293D01*
X41364Y-115067D01*
X42730Y-115339D01*
X44096Y-115067D01*
X45253Y-114293D01*
X46027Y-113136D01*
X46299Y-111770D01*
X46027Y-110404D01*
X45253Y-109247D01*
X44096Y-108473D01*
X42730Y-108201D01*
D02*
G37*
G36*
X-36270Y112730D02*
X-37158D01*
X-36802Y112198D01*
X-36270Y111842D01*
Y112730D01*
D02*
G37*
G36*
X-32842D02*
X-33730D01*
Y111842D01*
X-33198Y112198D01*
X-32842Y112730D01*
D02*
G37*
G36*
X-269500Y121068D02*
X-270865Y120797D01*
X-272023Y120023D01*
X-272797Y118865D01*
X-273068Y117500D01*
X-272797Y116134D01*
X-272023Y114976D01*
X-270865Y114203D01*
X-269500Y113931D01*
X-268691Y114092D01*
X-267793Y113194D01*
X-267931Y112500D01*
X-267660Y111134D01*
X-266886Y109976D01*
X-265728Y109203D01*
X-264363Y108931D01*
X-262997Y109203D01*
X-261839Y109976D01*
X-261066Y111134D01*
X-260794Y112500D01*
X-261066Y113865D01*
X-261839Y115023D01*
X-262997Y115797D01*
X-264363Y116068D01*
X-265171Y115907D01*
X-266069Y116805D01*
X-265931Y117500D01*
X-266203Y118865D01*
X-266977Y120023D01*
X-268134Y120797D01*
X-269500Y121068D01*
D02*
G37*
G36*
X41230Y109658D02*
X40698Y109302D01*
X40342Y108770D01*
X41230D01*
Y109658D01*
D02*
G37*
G36*
X43770D02*
Y108770D01*
X44658D01*
X44302Y109302D01*
X43770Y109658D01*
D02*
G37*
G36*
X-36270Y116158D02*
X-36802Y115802D01*
X-37158Y115270D01*
X-36270D01*
Y116158D01*
D02*
G37*
G36*
X-33730D02*
Y115270D01*
X-32842D01*
X-33198Y115802D01*
X-33730Y116158D01*
D02*
G37*
G36*
X41000Y121569D02*
X39634Y121297D01*
X38477Y120523D01*
X37703Y119366D01*
X37431Y118000D01*
X37703Y116634D01*
X38477Y115477D01*
X39634Y114703D01*
X41000Y114431D01*
X42366Y114703D01*
X43523Y115477D01*
X44297Y116634D01*
X44569Y118000D01*
X44297Y119366D01*
X43523Y120523D01*
X42366Y121297D01*
X41000Y121569D01*
D02*
G37*
G36*
X-29270Y112730D02*
X-30158D01*
X-29802Y112198D01*
X-29270Y111842D01*
Y112730D01*
D02*
G37*
G36*
X-25842D02*
X-26730D01*
Y111842D01*
X-26198Y112198D01*
X-25842Y112730D01*
D02*
G37*
G36*
X177000Y110569D02*
X175634Y110297D01*
X174477Y109523D01*
X173703Y108366D01*
X173431Y107000D01*
X173564Y106334D01*
X172666Y105436D01*
X172000Y105569D01*
X170634Y105297D01*
X169477Y104523D01*
X168703Y103366D01*
X168431Y102000D01*
X168703Y100634D01*
X169477Y99477D01*
X170634Y98703D01*
X172000Y98431D01*
X173366Y98703D01*
X174523Y99477D01*
X175297Y100634D01*
X175569Y102000D01*
X175436Y102666D01*
X176334Y103564D01*
X177000Y103431D01*
X177666Y103564D01*
X178564Y102666D01*
X178431Y102000D01*
X178703Y100634D01*
X179477Y99477D01*
X180634Y98703D01*
X182000Y98431D01*
X183366Y98703D01*
X184523Y99477D01*
X185297Y100634D01*
X185569Y102000D01*
X185297Y103366D01*
X184523Y104523D01*
X183366Y105297D01*
X182000Y105569D01*
X181334Y105436D01*
X180436Y106334D01*
X180569Y107000D01*
X180297Y108366D01*
X179523Y109523D01*
X178366Y110297D01*
X177000Y110569D01*
D02*
G37*
G36*
X63730Y107158D02*
X63198Y106802D01*
X62842Y106270D01*
X63730D01*
Y107158D01*
D02*
G37*
G36*
X44658Y106230D02*
X43770D01*
Y105342D01*
X44302Y105698D01*
X44658Y106230D01*
D02*
G37*
G36*
X-255842Y106230D02*
X-256730D01*
Y105342D01*
X-256198Y105697D01*
X-255842Y106230D01*
D02*
G37*
G36*
X41230Y106230D02*
X40342D01*
X40698Y105698D01*
X41230Y105342D01*
Y106230D01*
D02*
G37*
G36*
X-259270Y109658D02*
X-259802Y109302D01*
X-260158Y108770D01*
X-259270D01*
Y109658D01*
D02*
G37*
G36*
X-256730D02*
Y108770D01*
X-255842D01*
X-256198Y109302D01*
X-256730Y109658D01*
D02*
G37*
G36*
X-292037D02*
Y108770D01*
X-291149D01*
X-291504Y109302D01*
X-292037Y109658D01*
D02*
G37*
G36*
X66270Y107158D02*
Y106270D01*
X67158D01*
X66802Y106802D01*
X66270Y107158D01*
D02*
G37*
G36*
X-294577Y109658D02*
X-295109Y109302D01*
X-295465Y108770D01*
X-294577D01*
Y109658D01*
D02*
G37*
G36*
X-29270Y116158D02*
X-29802Y115802D01*
X-30158Y115270D01*
X-29270D01*
Y116158D01*
D02*
G37*
G36*
X99975Y119863D02*
Y118975D01*
X100863D01*
X100507Y119507D01*
X99975Y119863D01*
D02*
G37*
G36*
X-294577Y121230D02*
X-295465D01*
X-295109Y120697D01*
X-294577Y120342D01*
Y121230D01*
D02*
G37*
G36*
X97435Y119863D02*
X96903Y119507D01*
X96547Y118975D01*
X97435D01*
Y119863D01*
D02*
G37*
G36*
X114730Y119730D02*
X113842D01*
X114198Y119198D01*
X114730Y118842D01*
Y119730D01*
D02*
G37*
G36*
X118158D02*
X117270D01*
Y118842D01*
X117802Y119198D01*
X118158Y119730D01*
D02*
G37*
G36*
X-43270Y123158D02*
X-43802Y122802D01*
X-44158Y122270D01*
X-43270D01*
Y123158D01*
D02*
G37*
G36*
X-40730D02*
Y122270D01*
X-39842D01*
X-40198Y122802D01*
X-40730Y123158D01*
D02*
G37*
G36*
X-255842Y121230D02*
X-256730D01*
Y120342D01*
X-256198Y120697D01*
X-255842Y121230D01*
D02*
G37*
G36*
X-291149D02*
X-292037D01*
Y120342D01*
X-291504Y120697D01*
X-291149Y121230D01*
D02*
G37*
G36*
X-259270D02*
X-260158D01*
X-259802Y120697D01*
X-259270Y120342D01*
Y121230D01*
D02*
G37*
G36*
X100863Y116435D02*
X99975D01*
Y115547D01*
X100507Y115903D01*
X100863Y116435D01*
D02*
G37*
G36*
X-43270Y119730D02*
X-44158D01*
X-43802Y119198D01*
X-43270Y118842D01*
Y119730D01*
D02*
G37*
G36*
X97435Y116435D02*
X96547D01*
X96903Y115903D01*
X97435Y115547D01*
Y116435D01*
D02*
G37*
G36*
X-26730Y116158D02*
Y115270D01*
X-25842D01*
X-26198Y115802D01*
X-26730Y116158D01*
D02*
G37*
G36*
X-59000Y122569D02*
X-60366Y122297D01*
X-61523Y121523D01*
X-62297Y120366D01*
X-62569Y119000D01*
X-62297Y117634D01*
X-61523Y116477D01*
X-60366Y115703D01*
X-59000Y115431D01*
X-57634Y115703D01*
X-56477Y116477D01*
X-55703Y117634D01*
X-55431Y119000D01*
X-55703Y120366D01*
X-56477Y121523D01*
X-57634Y122297D01*
X-59000Y122569D01*
D02*
G37*
G36*
X-29270Y119730D02*
X-30158D01*
X-29802Y119198D01*
X-29270Y118842D01*
Y119730D01*
D02*
G37*
G36*
X-25842D02*
X-26730D01*
Y118842D01*
X-26198Y119198D01*
X-25842Y119730D01*
D02*
G37*
G36*
X-32842D02*
X-33730D01*
Y118842D01*
X-33198Y119198D01*
X-32842Y119730D01*
D02*
G37*
G36*
X-39842D02*
X-40730D01*
Y118842D01*
X-40198Y119198D01*
X-39842Y119730D01*
D02*
G37*
G36*
X-36270D02*
X-37158D01*
X-36802Y119198D01*
X-36270Y118842D01*
Y119730D01*
D02*
G37*
G36*
X-291149Y91230D02*
X-292037D01*
Y90342D01*
X-291504Y90697D01*
X-291149Y91230D01*
D02*
G37*
G36*
X-259270D02*
X-260158D01*
X-259802Y90697D01*
X-259270Y90342D01*
Y91230D01*
D02*
G37*
G36*
X-294577D02*
X-295465D01*
X-295109Y90697D01*
X-294577Y90342D01*
Y91230D01*
D02*
G37*
G36*
X-103842Y88730D02*
X-104730D01*
Y87842D01*
X-104198Y88198D01*
X-103842Y88730D01*
D02*
G37*
G36*
X202000Y96569D02*
X200634Y96297D01*
X199477Y95523D01*
X198703Y94366D01*
X198431Y93000D01*
X198703Y91634D01*
X199477Y90477D01*
X200634Y89703D01*
X202000Y89431D01*
X203366Y89703D01*
X204523Y90477D01*
X205297Y91634D01*
X205569Y93000D01*
X205297Y94366D01*
X204523Y95523D01*
X203366Y96297D01*
X202000Y96569D01*
D02*
G37*
G36*
X-107270Y92158D02*
X-107802Y91802D01*
X-108158Y91270D01*
X-107270D01*
Y92158D01*
D02*
G37*
G36*
X-104730D02*
Y91270D01*
X-103842D01*
X-104198Y91802D01*
X-104730Y92158D01*
D02*
G37*
G36*
X63758Y92130D02*
X62870D01*
Y91242D01*
X63402Y91598D01*
X63758Y92130D01*
D02*
G37*
G36*
X-255842Y91230D02*
X-256730D01*
Y90342D01*
X-256198Y90697D01*
X-255842Y91230D01*
D02*
G37*
G36*
X60330Y92130D02*
X59442D01*
X59798Y91598D01*
X60330Y91242D01*
Y92130D01*
D02*
G37*
G36*
X-256730Y79658D02*
Y78770D01*
X-255842D01*
X-256198Y79302D01*
X-256730Y79658D01*
D02*
G37*
G36*
X-269500Y91068D02*
X-270865Y90797D01*
X-272023Y90023D01*
X-272797Y88865D01*
X-273068Y87500D01*
X-272797Y86134D01*
X-272023Y84976D01*
X-270865Y84203D01*
X-269500Y83931D01*
X-268691Y84092D01*
X-267793Y83194D01*
X-267931Y82500D01*
X-267660Y81134D01*
X-266886Y79976D01*
X-265728Y79203D01*
X-264363Y78931D01*
X-262997Y79203D01*
X-261839Y79976D01*
X-261066Y81134D01*
X-260794Y82500D01*
X-261066Y83865D01*
X-261839Y85023D01*
X-262997Y85797D01*
X-264363Y86068D01*
X-265171Y85907D01*
X-266069Y86806D01*
X-265931Y87500D01*
X-266203Y88865D01*
X-266977Y90023D01*
X-268134Y90797D01*
X-269500Y91068D01*
D02*
G37*
G36*
X-259270Y79658D02*
X-259802Y79302D01*
X-260158Y78770D01*
X-259270D01*
Y79658D01*
D02*
G37*
G36*
X-294577D02*
X-295109Y79302D01*
X-295465Y78770D01*
X-294577D01*
Y79658D01*
D02*
G37*
G36*
X-292037D02*
Y78770D01*
X-291149D01*
X-291504Y79302D01*
X-292037Y79658D01*
D02*
G37*
G36*
X-203770Y84658D02*
X-204302Y84302D01*
X-204658Y83770D01*
X-203770D01*
Y84658D01*
D02*
G37*
G36*
X-107270Y88730D02*
X-108158D01*
X-107802Y88198D01*
X-107270Y87842D01*
Y88730D01*
D02*
G37*
G36*
X-159050Y90619D02*
X-160416Y90347D01*
X-161573Y89573D01*
X-162347Y88416D01*
X-162619Y87050D01*
X-162347Y85684D01*
X-161573Y84527D01*
X-160416Y83753D01*
X-159050Y83481D01*
X-157684Y83753D01*
X-156527Y84527D01*
X-155753Y85684D01*
X-155481Y87050D01*
X-155753Y88416D01*
X-156527Y89573D01*
X-157684Y90347D01*
X-159050Y90619D01*
D02*
G37*
G36*
X-203770Y81230D02*
X-204658D01*
X-204302Y80698D01*
X-203770Y80342D01*
Y81230D01*
D02*
G37*
G36*
X213000Y87569D02*
X211634Y87297D01*
X210477Y86523D01*
X209703Y85366D01*
X209431Y84000D01*
X209703Y82634D01*
X210477Y81477D01*
X211634Y80703D01*
X213000Y80431D01*
X214366Y80703D01*
X215523Y81477D01*
X216297Y82634D01*
X216569Y84000D01*
X216297Y85366D01*
X215523Y86523D01*
X214366Y87297D01*
X213000Y87569D01*
D02*
G37*
G36*
X96500Y100069D02*
X95134Y99797D01*
X93977Y99023D01*
X93203Y97866D01*
X92931Y96500D01*
X93203Y95134D01*
X93977Y93977D01*
X95134Y93203D01*
X96500Y92931D01*
X97866Y93203D01*
X99023Y93977D01*
X99797Y95134D01*
X100069Y96500D01*
X99797Y97866D01*
X99023Y99023D01*
X97866Y99797D01*
X96500Y100069D01*
D02*
G37*
G36*
X63730Y103730D02*
X62842D01*
X63198Y103198D01*
X63730Y102842D01*
Y103730D01*
D02*
G37*
G36*
X67158D02*
X66270D01*
Y102842D01*
X66802Y103198D01*
X67158Y103730D01*
D02*
G37*
G36*
X-196730Y99658D02*
Y98770D01*
X-195842D01*
X-196198Y99302D01*
X-196730Y99658D01*
D02*
G37*
G36*
X200000Y105569D02*
X198634Y105297D01*
X197477Y104523D01*
X196703Y103366D01*
X196431Y102000D01*
X196703Y100634D01*
X197477Y99477D01*
X198634Y98703D01*
X200000Y98431D01*
X201366Y98703D01*
X202523Y99477D01*
X203297Y100634D01*
X203569Y102000D01*
X203297Y103366D01*
X202523Y104523D01*
X201366Y105297D01*
X200000Y105569D01*
D02*
G37*
G36*
X-199270Y99658D02*
X-199802Y99302D01*
X-200158Y98770D01*
X-199270D01*
Y99658D01*
D02*
G37*
G36*
X-291149Y106230D02*
X-292037D01*
Y105342D01*
X-291504Y105697D01*
X-291149Y106230D01*
D02*
G37*
G36*
X-259270D02*
X-260158D01*
X-259802Y105697D01*
X-259270Y105342D01*
Y106230D01*
D02*
G37*
G36*
X-294577D02*
X-295465D01*
X-295109Y105697D01*
X-294577Y105342D01*
Y106230D01*
D02*
G37*
G36*
X269500Y111068D02*
X268135Y110797D01*
X266977Y110023D01*
X266203Y108865D01*
X265932Y107500D01*
X266203Y106134D01*
X266977Y104976D01*
X268135Y104203D01*
X269500Y103931D01*
X270866Y104203D01*
X272024Y104976D01*
X272797Y106134D01*
X273069Y107500D01*
X272797Y108865D01*
X272024Y110023D01*
X270866Y110797D01*
X269500Y111068D01*
D02*
G37*
G36*
X-118500Y111412D02*
X-119866Y111140D01*
X-121023Y110367D01*
X-121797Y109209D01*
X-122069Y107843D01*
X-121797Y106478D01*
X-121023Y105320D01*
X-119866Y104546D01*
X-118500Y104275D01*
X-117134Y104546D01*
X-115977Y105320D01*
X-115203Y106478D01*
X-114931Y107843D01*
X-115203Y109209D01*
X-115977Y110367D01*
X-117134Y111140D01*
X-118500Y111412D01*
D02*
G37*
G36*
X-256730Y94658D02*
Y93770D01*
X-255842D01*
X-256198Y94302D01*
X-256730Y94658D01*
D02*
G37*
G36*
X-269500Y106068D02*
X-270865Y105797D01*
X-272023Y105023D01*
X-272797Y103865D01*
X-273068Y102500D01*
X-272797Y101134D01*
X-272023Y99976D01*
X-270865Y99203D01*
X-269500Y98931D01*
X-268691Y99092D01*
X-267793Y98194D01*
X-267931Y97500D01*
X-267660Y96134D01*
X-266886Y94976D01*
X-265728Y94203D01*
X-264363Y93931D01*
X-262997Y94203D01*
X-261839Y94976D01*
X-261066Y96134D01*
X-260794Y97500D01*
X-261066Y98865D01*
X-261839Y100023D01*
X-262997Y100797D01*
X-264363Y101068D01*
X-265171Y100907D01*
X-266069Y101805D01*
X-265931Y102500D01*
X-266203Y103865D01*
X-266977Y105023D01*
X-268134Y105797D01*
X-269500Y106068D01*
D02*
G37*
G36*
X-259270Y94658D02*
X-259802Y94302D01*
X-260158Y93770D01*
X-259270D01*
Y94658D01*
D02*
G37*
G36*
X-294577D02*
X-295109Y94302D01*
X-295465Y93770D01*
X-294577D01*
Y94658D01*
D02*
G37*
G36*
X-292037D02*
Y93770D01*
X-291149D01*
X-291504Y94302D01*
X-292037Y94658D01*
D02*
G37*
G36*
X-199270Y96230D02*
X-200892D01*
X-201293Y95829D01*
X-202500Y96069D01*
X-203865Y95797D01*
X-205023Y95023D01*
X-205797Y93866D01*
X-206068Y92500D01*
X-205797Y91134D01*
X-205023Y89977D01*
X-203865Y89203D01*
X-202500Y88931D01*
X-202355Y88960D01*
X-201457Y88062D01*
X-201569Y87500D01*
X-201297Y86134D01*
X-201198Y85986D01*
X-201230Y85939D01*
Y83770D01*
X-199608D01*
X-199207Y84171D01*
X-198000Y83931D01*
X-196634Y84203D01*
X-195477Y84977D01*
X-194703Y86134D01*
X-194431Y87500D01*
X-194703Y88866D01*
X-195477Y90023D01*
X-196634Y90797D01*
X-198000Y91069D01*
X-198145Y91040D01*
X-199043Y91938D01*
X-198931Y92500D01*
X-199203Y93866D01*
X-199302Y94014D01*
X-199270Y94061D01*
Y96230D01*
D02*
G37*
G36*
X-159050Y103319D02*
X-160416Y103047D01*
X-161573Y102273D01*
X-162347Y101116D01*
X-162619Y99750D01*
X-162347Y98384D01*
X-161573Y97227D01*
X-160416Y96453D01*
X-159050Y96181D01*
X-157684Y96453D01*
X-156527Y97227D01*
X-155753Y98384D01*
X-155481Y99750D01*
X-155753Y101116D01*
X-156527Y102273D01*
X-157684Y103047D01*
X-159050Y103319D01*
D02*
G37*
G36*
X-195842Y96230D02*
X-196730D01*
Y95342D01*
X-196198Y95698D01*
X-195842Y96230D01*
D02*
G37*
G36*
X60330Y95558D02*
X59798Y95202D01*
X59442Y94670D01*
X60330D01*
Y95558D01*
D02*
G37*
G36*
X62870D02*
Y94670D01*
X63758D01*
X63402Y95202D01*
X62870Y95558D01*
D02*
G37*
G36*
X-36270Y123158D02*
X-36802Y122802D01*
X-37158Y122270D01*
X-36270D01*
Y123158D01*
D02*
G37*
G36*
X-126770Y167230D02*
X-127658D01*
X-127302Y166698D01*
X-126770Y166342D01*
Y167230D01*
D02*
G37*
G36*
X-123342D02*
X-124230D01*
Y166342D01*
X-123698Y166698D01*
X-123342Y167230D01*
D02*
G37*
G36*
X116000Y172569D02*
X114634Y172297D01*
X113477Y171523D01*
X112703Y170366D01*
X112431Y169000D01*
X112703Y167634D01*
X113477Y166477D01*
X114634Y165703D01*
X116000Y165431D01*
X117366Y165703D01*
X118523Y166477D01*
X119297Y167634D01*
X119569Y169000D01*
X119297Y170366D01*
X118523Y171523D01*
X117366Y172297D01*
X116000Y172569D01*
D02*
G37*
G36*
X-194970Y165858D02*
X-195502Y165502D01*
X-195858Y164970D01*
X-194970D01*
Y165858D01*
D02*
G37*
G36*
X-192430D02*
Y164970D01*
X-191542D01*
X-191898Y165502D01*
X-192430Y165858D01*
D02*
G37*
G36*
X131210Y170596D02*
X130322D01*
X130677Y170063D01*
X131210Y169708D01*
Y170596D01*
D02*
G37*
G36*
X134638D02*
X133750D01*
Y169708D01*
X134282Y170063D01*
X134638Y170596D01*
D02*
G37*
G36*
X95634Y175934D02*
X94269Y175662D01*
X93111Y174889D01*
X92338Y173731D01*
X92066Y172366D01*
X92338Y171000D01*
X93111Y169842D01*
X94269Y169069D01*
X95634Y168797D01*
X97000Y169069D01*
X98158Y169842D01*
X98931Y171000D01*
X99203Y172366D01*
X98931Y173731D01*
X98158Y174889D01*
X97000Y175662D01*
X95634Y175934D01*
D02*
G37*
G36*
X163141Y168141D02*
X162253D01*
X162609Y167609D01*
X163141Y167253D01*
Y168141D01*
D02*
G37*
G36*
X166570D02*
X165681D01*
Y167253D01*
X166214Y167609D01*
X166570Y168141D01*
D02*
G37*
G36*
X-191542Y162430D02*
X-192430D01*
Y161542D01*
X-191898Y161898D01*
X-191542Y162430D01*
D02*
G37*
G36*
X230430Y168730D02*
X224080D01*
Y162380D01*
X230430D01*
Y168730D01*
D02*
G37*
G36*
X-194970Y162430D02*
X-195858D01*
X-195502Y161898D01*
X-194970Y161542D01*
Y162430D01*
D02*
G37*
G36*
X-181928Y147356D02*
Y146468D01*
X-181040D01*
X-181395Y147000D01*
X-181928Y147356D01*
D02*
G37*
G36*
X206300Y179703D02*
X203789Y179372D01*
X201448Y178403D01*
X199439Y176861D01*
X197897Y174851D01*
X196928Y172511D01*
X196597Y170000D01*
X196928Y167489D01*
X197897Y165149D01*
X199439Y163139D01*
X201448Y161597D01*
X203789Y160628D01*
X206300Y160297D01*
X208811Y160628D01*
X211152Y161597D01*
X213161Y163139D01*
X214703Y165149D01*
X215672Y167489D01*
X216003Y170000D01*
X215672Y172511D01*
X214703Y174851D01*
X213161Y176861D01*
X211152Y178403D01*
X208811Y179372D01*
X206300Y179703D01*
D02*
G37*
G36*
X271730Y182972D02*
X269079Y182711D01*
X265309Y181567D01*
X261835Y179710D01*
X258789Y177211D01*
X256290Y174165D01*
X254433Y170691D01*
X253289Y166921D01*
X253028Y164270D01*
X271730D01*
Y182972D01*
D02*
G37*
G36*
X274270D02*
Y164270D01*
X292972D01*
X292711Y166921D01*
X291567Y170691D01*
X289710Y174165D01*
X287211Y177211D01*
X284165Y179710D01*
X280691Y181567D01*
X276921Y182711D01*
X274270Y182972D01*
D02*
G37*
G36*
X-271730D02*
Y164270D01*
X-253028D01*
X-253289Y166921D01*
X-254433Y170691D01*
X-256290Y174165D01*
X-258789Y177211D01*
X-261835Y179710D01*
X-265309Y181567D01*
X-269079Y182711D01*
X-271730Y182972D01*
D02*
G37*
G36*
X239320Y168730D02*
X232970D01*
Y162380D01*
X239320D01*
Y168730D01*
D02*
G37*
G36*
X-274270Y182972D02*
X-276921Y182711D01*
X-280691Y181567D01*
X-284165Y179710D01*
X-287211Y177211D01*
X-289710Y174165D01*
X-291567Y170691D01*
X-292711Y166921D01*
X-292972Y164270D01*
X-274270D01*
Y182972D01*
D02*
G37*
G36*
X150596Y170596D02*
X149707D01*
X150063Y170063D01*
X150596Y169708D01*
Y170596D01*
D02*
G37*
G36*
X67730Y174524D02*
X67198Y174168D01*
X66842Y173636D01*
X67730D01*
Y174524D01*
D02*
G37*
G36*
X70270D02*
Y173636D01*
X71158D01*
X70802Y174168D01*
X70270Y174524D01*
D02*
G37*
G36*
X153136Y174024D02*
Y173136D01*
X154024D01*
X153668Y173668D01*
X153136Y174024D01*
D02*
G37*
G36*
X133750D02*
Y173136D01*
X134638D01*
X134282Y173668D01*
X133750Y174024D01*
D02*
G37*
G36*
X150596D02*
X150063Y173668D01*
X149707Y173136D01*
X150596D01*
Y174024D01*
D02*
G37*
G36*
X-106270Y182800D02*
X-106802Y182444D01*
X-107158Y181912D01*
X-106270D01*
Y182800D01*
D02*
G37*
G36*
X-103730D02*
Y181912D01*
X-102842D01*
X-103197Y182444D01*
X-103730Y182800D01*
D02*
G37*
G36*
X-102842Y179372D02*
X-103730D01*
Y178484D01*
X-103197Y178839D01*
X-102842Y179372D01*
D02*
G37*
G36*
X151980Y184934D02*
X150614Y184662D01*
X149456Y183889D01*
X148683Y182731D01*
X148411Y181366D01*
X148683Y180000D01*
X149456Y178842D01*
X150614Y178069D01*
X151980Y177797D01*
X153345Y178069D01*
X154503Y178842D01*
X155277Y180000D01*
X155548Y181366D01*
X155277Y182731D01*
X154503Y183889D01*
X153345Y184662D01*
X151980Y184934D01*
D02*
G37*
G36*
X-106270Y179372D02*
X-107158D01*
X-106802Y178839D01*
X-106270Y178484D01*
Y179372D01*
D02*
G37*
G36*
X67730Y171096D02*
X66842D01*
X67198Y170563D01*
X67730Y170208D01*
Y171096D01*
D02*
G37*
G36*
X71158D02*
X70270D01*
Y170208D01*
X70802Y170563D01*
X71158Y171096D01*
D02*
G37*
G36*
X-124230Y170658D02*
Y169770D01*
X-123342D01*
X-123698Y170302D01*
X-124230Y170658D01*
D02*
G37*
G36*
X154024Y170596D02*
X153136D01*
Y169708D01*
X153668Y170063D01*
X154024Y170596D01*
D02*
G37*
G36*
X-126770Y170658D02*
X-127302Y170302D01*
X-127658Y169770D01*
X-126770D01*
Y170658D01*
D02*
G37*
G36*
X239320Y177620D02*
X232970D01*
Y171270D01*
X239320D01*
Y177620D01*
D02*
G37*
G36*
X131210Y174024D02*
X130677Y173668D01*
X130322Y173136D01*
X131210D01*
Y174024D01*
D02*
G37*
G36*
X230430Y177620D02*
X224080D01*
Y171270D01*
X230430D01*
Y177620D01*
D02*
G37*
G36*
X163141Y171570D02*
X162609Y171214D01*
X162253Y170681D01*
X163141D01*
Y171570D01*
D02*
G37*
G36*
X165681D02*
Y170681D01*
X166570D01*
X166214Y171214D01*
X165681Y171570D01*
D02*
G37*
G36*
X276200Y137098D02*
X274249Y136710D01*
X272595Y135605D01*
X271490Y133951D01*
X271102Y132000D01*
X271490Y130049D01*
X272595Y128395D01*
X274249Y127290D01*
X276200Y126902D01*
X278151Y127290D01*
X279805Y128395D01*
X280910Y130049D01*
X281298Y132000D01*
X280910Y133951D01*
X279805Y135605D01*
X278151Y136710D01*
X276200Y137098D01*
D02*
G37*
G36*
X250730Y128730D02*
X249842D01*
X250198Y128198D01*
X250730Y127842D01*
Y128730D01*
D02*
G37*
G36*
X-157780Y127108D02*
Y126220D01*
X-156892D01*
X-157248Y126752D01*
X-157780Y127108D01*
D02*
G37*
G36*
X-256730Y124658D02*
Y123770D01*
X-255842D01*
X-256198Y124302D01*
X-256730Y124658D01*
D02*
G37*
G36*
X-160320Y127108D02*
X-160852Y126752D01*
X-161208Y126220D01*
X-160320D01*
Y127108D01*
D02*
G37*
G36*
X250730Y132158D02*
X250198Y131802D01*
X249842Y131270D01*
X250730D01*
Y132158D01*
D02*
G37*
G36*
X253270D02*
Y131270D01*
X254158D01*
X253802Y131802D01*
X253270Y132158D01*
D02*
G37*
G36*
X-273440Y130730D02*
X-274930D01*
Y129241D01*
X-274037Y129837D01*
X-273440Y130730D01*
D02*
G37*
G36*
X254158Y128730D02*
X253270D01*
Y127842D01*
X253802Y128198D01*
X254158Y128730D01*
D02*
G37*
G36*
X-277470Y130730D02*
X-278960D01*
X-278363Y129837D01*
X-277470Y129241D01*
Y130730D01*
D02*
G37*
G36*
X114730Y123158D02*
X114198Y122802D01*
X113842Y122270D01*
X114730D01*
Y123158D01*
D02*
G37*
G36*
X117270D02*
Y122270D01*
X118158D01*
X117802Y122802D01*
X117270Y123158D01*
D02*
G37*
G36*
X-26730D02*
Y122270D01*
X-25842D01*
X-26198Y122802D01*
X-26730Y123158D01*
D02*
G37*
G36*
X-33730D02*
Y122270D01*
X-32842D01*
X-33198Y122802D01*
X-33730Y123158D01*
D02*
G37*
G36*
X-29270D02*
X-29802Y122802D01*
X-30158Y122270D01*
X-29270D01*
Y123158D01*
D02*
G37*
G36*
X-292037Y124658D02*
Y123770D01*
X-291149D01*
X-291504Y124302D01*
X-292037Y124658D01*
D02*
G37*
G36*
X-259270D02*
X-259802Y124302D01*
X-260158Y123770D01*
X-259270D01*
Y124658D01*
D02*
G37*
G36*
X-294577D02*
X-295109Y124302D01*
X-295465Y123770D01*
X-294577D01*
Y124658D01*
D02*
G37*
G36*
X-160320Y123680D02*
X-161208D01*
X-160852Y123148D01*
X-160320Y122792D01*
Y123680D01*
D02*
G37*
G36*
X-156892D02*
X-157780D01*
Y122792D01*
X-157248Y123148D01*
X-156892Y123680D01*
D02*
G37*
G36*
X-277470Y134760D02*
X-278363Y134163D01*
X-278960Y133270D01*
X-277470D01*
Y134760D01*
D02*
G37*
G36*
X271730Y161730D02*
X253028D01*
X253289Y159079D01*
X254433Y155309D01*
X256290Y151835D01*
X258789Y148789D01*
X261835Y146290D01*
X265309Y144433D01*
X269079Y143289D01*
X271730Y143028D01*
Y161730D01*
D02*
G37*
G36*
X292972D02*
X274270D01*
Y143028D01*
X276921Y143289D01*
X280691Y144433D01*
X284165Y146290D01*
X287211Y148789D01*
X289710Y151835D01*
X291567Y155309D01*
X292711Y159079D01*
X292972Y161730D01*
D02*
G37*
G36*
X-253028D02*
X-271730D01*
Y143028D01*
X-269079Y143289D01*
X-265309Y144433D01*
X-261835Y146290D01*
X-258789Y148789D01*
X-256290Y151835D01*
X-254433Y155309D01*
X-253289Y159079D01*
X-253028Y161730D01*
D02*
G37*
G36*
X-146563Y156305D02*
X-148390Y156064D01*
X-150093Y155359D01*
X-151555Y154237D01*
X-152677Y152775D01*
X-153383Y151072D01*
X-153623Y149244D01*
X-153383Y147417D01*
X-152677Y145714D01*
X-151555Y144252D01*
X-150093Y143130D01*
X-148390Y142425D01*
X-146563Y142184D01*
X-144735Y142425D01*
X-143033Y143130D01*
X-141570Y144252D01*
X-140448Y145714D01*
X-139743Y147417D01*
X-139502Y149244D01*
X-139743Y151072D01*
X-140448Y152775D01*
X-141570Y154237D01*
X-143033Y155359D01*
X-144735Y156064D01*
X-146563Y156305D01*
D02*
G37*
G36*
X-274270Y161730D02*
X-292972D01*
X-292711Y159079D01*
X-291567Y155309D01*
X-289710Y151835D01*
X-287211Y148789D01*
X-284165Y146290D01*
X-280691Y144433D01*
X-276921Y143289D01*
X-274270Y143028D01*
Y161730D01*
D02*
G37*
G36*
X187270Y145158D02*
Y144270D01*
X188158D01*
X187802Y144802D01*
X187270Y145158D01*
D02*
G37*
G36*
X-184468Y147356D02*
X-185000Y147000D01*
X-185356Y146468D01*
X-184468D01*
Y147356D01*
D02*
G37*
G36*
X184730Y145158D02*
X184198Y144802D01*
X183842Y144270D01*
X184730D01*
Y145158D01*
D02*
G37*
G36*
X-184468Y143928D02*
X-185356D01*
X-185000Y143395D01*
X-184468Y143040D01*
Y143928D01*
D02*
G37*
G36*
X-181040D02*
X-181928D01*
Y143040D01*
X-181395Y143395D01*
X-181040Y143928D01*
D02*
G37*
G36*
X219791Y136525D02*
X218903D01*
Y135637D01*
X219436Y135993D01*
X219791Y136525D01*
D02*
G37*
G36*
X216363Y139953D02*
X215831Y139597D01*
X215475Y139065D01*
X216363D01*
Y139953D01*
D02*
G37*
G36*
Y136525D02*
X215475D01*
X215831Y135993D01*
X216363Y135637D01*
Y136525D01*
D02*
G37*
G36*
X-274930Y134760D02*
Y133270D01*
X-273440D01*
X-274037Y134163D01*
X-274930Y134760D01*
D02*
G37*
G36*
X-159050Y141019D02*
X-160416Y140747D01*
X-161573Y139973D01*
X-162347Y138816D01*
X-162619Y137450D01*
X-162347Y136084D01*
X-161573Y134927D01*
X-160416Y134153D01*
X-159050Y133881D01*
X-157684Y134153D01*
X-156527Y134927D01*
X-155753Y136084D01*
X-155481Y137450D01*
X-155753Y138816D01*
X-156527Y139973D01*
X-157684Y140747D01*
X-159050Y141019D01*
D02*
G37*
G36*
X92000Y163000D02*
X54812D01*
X52000Y160188D01*
Y147000D01*
X58000Y141000D01*
X90000D01*
X96000Y147000D01*
Y159000D01*
X92000Y163000D01*
D02*
G37*
G36*
X-66676Y156268D02*
X-68503Y156027D01*
X-70206Y155322D01*
X-71669Y154200D01*
X-72791Y152738D01*
X-73496Y151035D01*
X-73737Y149208D01*
X-73496Y147380D01*
X-72791Y145677D01*
X-71669Y144215D01*
X-70206Y143093D01*
X-68503Y142388D01*
X-66676Y142147D01*
X-64849Y142388D01*
X-63146Y143093D01*
X-61684Y144215D01*
X-60562Y145677D01*
X-59856Y147380D01*
X-59616Y149208D01*
X-59856Y151035D01*
X-60562Y152738D01*
X-61684Y154200D01*
X-63146Y155322D01*
X-64849Y156027D01*
X-66676Y156268D01*
D02*
G37*
G36*
X188158Y141730D02*
X187270D01*
Y140842D01*
X187802Y141198D01*
X188158Y141730D01*
D02*
G37*
G36*
X218903Y139953D02*
Y139065D01*
X219791D01*
X219436Y139597D01*
X218903Y139953D01*
D02*
G37*
G36*
X184730Y141730D02*
X183842D01*
X184198Y141198D01*
X184730Y140842D01*
Y141730D01*
D02*
G37*
G36*
X-64730Y78158D02*
Y77270D01*
X-63842D01*
X-64198Y77802D01*
X-64730Y78158D01*
D02*
G37*
G36*
X265270Y38158D02*
Y37270D01*
X266158D01*
X265802Y37802D01*
X265270Y38158D01*
D02*
G37*
G36*
X225158Y38618D02*
X224270D01*
X224626Y38086D01*
X225158Y37730D01*
Y38618D01*
D02*
G37*
G36*
X262730Y38158D02*
X262198Y37802D01*
X261842Y37270D01*
X262730D01*
Y38158D01*
D02*
G37*
G36*
X147730D02*
X147198Y37802D01*
X146842Y37270D01*
X147730D01*
Y38158D01*
D02*
G37*
G36*
X150270D02*
Y37270D01*
X151158D01*
X150802Y37802D01*
X150270Y38158D01*
D02*
G37*
G36*
X-228104Y46230D02*
X-229230D01*
Y45104D01*
X-228474Y44349D01*
X-228797Y43866D01*
X-229069Y42500D01*
X-228797Y41135D01*
X-228023Y39977D01*
X-226866Y39203D01*
X-225500Y38932D01*
X-224134Y39203D01*
X-222977Y39977D01*
X-222203Y41135D01*
X-221931Y42500D01*
X-222203Y43866D01*
X-222977Y45023D01*
X-224134Y45797D01*
X-225500Y46069D01*
X-226866Y45797D01*
X-227348Y45474D01*
X-228104Y46230D01*
D02*
G37*
G36*
X225158Y42046D02*
X224626Y41691D01*
X224270Y41158D01*
X225158D01*
Y42046D01*
D02*
G37*
G36*
X-199730Y39658D02*
Y38770D01*
X-198842D01*
X-199198Y39302D01*
X-199730Y39658D01*
D02*
G37*
G36*
X228586Y38618D02*
X227698D01*
Y37730D01*
X228230Y38086D01*
X228586Y38618D01*
D02*
G37*
G36*
X-202270Y39658D02*
X-202802Y39302D01*
X-203158Y38770D01*
X-202270D01*
Y39658D01*
D02*
G37*
G36*
X205080Y36428D02*
Y35540D01*
X205968D01*
X205612Y36072D01*
X205080Y36428D01*
D02*
G37*
G36*
X230428Y37204D02*
X229896Y36849D01*
X229540Y36316D01*
X230428D01*
Y37204D01*
D02*
G37*
G36*
X202540Y36428D02*
X202008Y36072D01*
X201652Y35540D01*
X202540D01*
Y36428D01*
D02*
G37*
G36*
X-202270Y36230D02*
X-203158D01*
X-202802Y35698D01*
X-202270Y35342D01*
Y36230D01*
D02*
G37*
G36*
X-198842D02*
X-199730D01*
Y35342D01*
X-199198Y35698D01*
X-198842Y36230D01*
D02*
G37*
G36*
X139730Y38158D02*
X139198Y37802D01*
X138842Y37270D01*
X139730D01*
Y38158D01*
D02*
G37*
G36*
X142270D02*
Y37270D01*
X143158D01*
X142802Y37802D01*
X142270Y38158D01*
D02*
G37*
G36*
X-33978Y37406D02*
Y36518D01*
X-33090D01*
X-33446Y37050D01*
X-33978Y37406D01*
D02*
G37*
G36*
X232968Y37204D02*
Y36316D01*
X233856D01*
X233500Y36849D01*
X232968Y37204D01*
D02*
G37*
G36*
X-36518Y37406D02*
X-37050Y37050D01*
X-37406Y36518D01*
X-36518D01*
Y37406D01*
D02*
G37*
G36*
X227698Y42046D02*
Y41158D01*
X228586D01*
X228230Y41691D01*
X227698Y42046D01*
D02*
G37*
G36*
X-198799Y46720D02*
X-199687D01*
X-199331Y46188D01*
X-198799Y45832D01*
Y46720D01*
D02*
G37*
G36*
X-195371D02*
X-196259D01*
Y45832D01*
X-195727Y46188D01*
X-195371Y46720D01*
D02*
G37*
G36*
X-231770Y46230D02*
X-232658D01*
X-232302Y45697D01*
X-231770Y45342D01*
Y46230D01*
D02*
G37*
G36*
X-294577D02*
X-295465D01*
X-295109Y45697D01*
X-294577Y45342D01*
Y46230D01*
D02*
G37*
G36*
X-291149D02*
X-292037D01*
Y45342D01*
X-291504Y45697D01*
X-291149Y46230D01*
D02*
G37*
G36*
X34691Y47756D02*
Y46868D01*
X35579D01*
X35223Y47400D01*
X34691Y47756D01*
D02*
G37*
G36*
X39151D02*
X38619Y47400D01*
X38263Y46868D01*
X39151D01*
Y47756D01*
D02*
G37*
G36*
X32151D02*
X31618Y47400D01*
X31263Y46868D01*
X32151D01*
Y47756D01*
D02*
G37*
G36*
X230000Y47316D02*
X229468Y46961D01*
X229112Y46428D01*
X230000D01*
Y47316D01*
D02*
G37*
G36*
X232540D02*
Y46428D01*
X233428D01*
X233072Y46961D01*
X232540Y47316D01*
D02*
G37*
G36*
X32151Y44328D02*
X31263D01*
X31618Y43795D01*
X32151Y43440D01*
Y44328D01*
D02*
G37*
G36*
X35579D02*
X34691D01*
Y43440D01*
X35223Y43795D01*
X35579Y44328D01*
D02*
G37*
G36*
X233428Y43888D02*
X232540D01*
Y43000D01*
X233072Y43356D01*
X233428Y43888D01*
D02*
G37*
G36*
X193000Y56569D02*
X191634Y56297D01*
X190477Y55523D01*
X189703Y54366D01*
X189431Y53000D01*
X189703Y51634D01*
X190477Y50477D01*
X191634Y49703D01*
X191977Y49635D01*
Y48365D01*
X191634Y48297D01*
X190477Y47523D01*
X189703Y46366D01*
X189431Y45000D01*
X189703Y43634D01*
X190477Y42477D01*
X191634Y41703D01*
X193000Y41431D01*
X194366Y41703D01*
X195523Y42477D01*
X196297Y43634D01*
X196569Y45000D01*
X196297Y46366D01*
X195523Y47523D01*
X194366Y48297D01*
X194023Y48365D01*
Y49635D01*
X194366Y49703D01*
X195523Y50477D01*
X196297Y51634D01*
X196569Y53000D01*
X196297Y54366D01*
X195523Y55523D01*
X194366Y56297D01*
X193000Y56569D01*
D02*
G37*
G36*
X230000Y43888D02*
X229112D01*
X229468Y43356D01*
X230000Y43000D01*
Y43888D01*
D02*
G37*
G36*
X49579Y44328D02*
X48691D01*
Y43440D01*
X49223Y43795D01*
X49579Y44328D01*
D02*
G37*
G36*
X-205984Y51069D02*
X-207349Y50797D01*
X-208507Y50023D01*
X-209281Y48866D01*
X-209552Y47500D01*
X-209281Y46134D01*
X-208507Y44977D01*
X-207349Y44203D01*
X-205984Y43931D01*
X-204618Y44203D01*
X-203461Y44977D01*
X-202687Y46134D01*
X-202415Y47500D01*
X-202687Y48866D01*
X-203461Y50023D01*
X-204618Y50797D01*
X-205984Y51069D01*
D02*
G37*
G36*
X46151Y44328D02*
X45263D01*
X45619Y43795D01*
X46151Y43440D01*
Y44328D01*
D02*
G37*
G36*
X39151D02*
X38263D01*
X38619Y43795D01*
X39151Y43440D01*
Y44328D01*
D02*
G37*
G36*
X42579D02*
X41691D01*
Y43440D01*
X42223Y43795D01*
X42579Y44328D01*
D02*
G37*
G36*
X-72656Y35175D02*
X-74022Y34903D01*
X-75180Y34130D01*
X-75953Y32972D01*
X-76225Y31606D01*
X-75953Y30240D01*
X-75180Y29083D01*
X-74022Y28309D01*
X-72656Y28038D01*
X-71290Y28309D01*
X-70133Y29083D01*
X-69359Y30240D01*
X-69088Y31606D01*
X-69359Y32972D01*
X-70133Y34130D01*
X-71290Y34903D01*
X-72656Y35175D01*
D02*
G37*
G36*
X-61606D02*
X-62972Y34903D01*
X-64130Y34130D01*
X-64903Y32972D01*
X-65175Y31606D01*
X-64903Y30240D01*
X-64130Y29083D01*
X-62972Y28309D01*
X-61606Y28038D01*
X-60241Y28309D01*
X-59083Y29083D01*
X-58309Y30240D01*
X-58038Y31606D01*
X-58309Y32972D01*
X-59083Y34130D01*
X-60241Y34903D01*
X-61606Y35175D01*
D02*
G37*
G36*
X-94590D02*
X-95955Y34903D01*
X-97113Y34130D01*
X-97886Y32972D01*
X-98158Y31606D01*
X-97886Y30240D01*
X-97113Y29083D01*
X-95955Y28309D01*
X-94590Y28038D01*
X-93224Y28309D01*
X-92066Y29083D01*
X-91293Y30240D01*
X-91021Y31606D01*
X-91293Y32972D01*
X-92066Y34130D01*
X-93224Y34903D01*
X-94590Y35175D01*
D02*
G37*
G36*
X-127606D02*
X-128972Y34903D01*
X-130129Y34130D01*
X-130903Y32972D01*
X-131175Y31606D01*
X-130903Y30240D01*
X-130129Y29083D01*
X-128972Y28309D01*
X-127606Y28038D01*
X-126241Y28309D01*
X-125083Y29083D01*
X-124309Y30240D01*
X-124038Y31606D01*
X-124309Y32972D01*
X-125083Y34130D01*
X-126241Y34903D01*
X-127606Y35175D01*
D02*
G37*
G36*
X-116646D02*
X-118012Y34903D01*
X-119170Y34130D01*
X-119943Y32972D01*
X-120215Y31606D01*
X-119943Y30240D01*
X-119170Y29083D01*
X-118012Y28309D01*
X-116646Y28038D01*
X-115281Y28309D01*
X-114123Y29083D01*
X-113349Y30240D01*
X-113078Y31606D01*
X-113349Y32972D01*
X-114123Y34130D01*
X-115281Y34903D01*
X-116646Y35175D01*
D02*
G37*
G36*
X214270Y30158D02*
Y29270D01*
X215158D01*
X214802Y29802D01*
X214270Y30158D01*
D02*
G37*
G36*
X-16323Y36569D02*
X-17689Y36297D01*
X-18847Y35523D01*
X-19620Y34366D01*
X-19892Y33000D01*
X-19620Y31634D01*
X-18847Y30477D01*
X-17689Y29703D01*
X-16323Y29431D01*
X-14958Y29703D01*
X-13800Y30477D01*
X-13026Y31634D01*
X-12755Y33000D01*
X-13026Y34366D01*
X-13800Y35523D01*
X-14958Y36297D01*
X-16323Y36569D01*
D02*
G37*
G36*
X211730Y30158D02*
X211198Y29802D01*
X210842Y29270D01*
X211730D01*
Y30158D01*
D02*
G37*
G36*
X186730D02*
X186198Y29802D01*
X185842Y29270D01*
X186730D01*
Y30158D01*
D02*
G37*
G36*
X189270D02*
Y29270D01*
X190158D01*
X189802Y29802D01*
X189270Y30158D01*
D02*
G37*
G36*
X-179000Y32569D02*
X-180366Y32297D01*
X-181523Y31523D01*
X-182297Y30366D01*
X-182569Y29000D01*
X-182297Y27634D01*
X-181523Y26477D01*
X-180366Y25703D01*
X-179000Y25431D01*
X-177634Y25703D01*
X-176477Y26477D01*
X-175703Y27634D01*
X-175431Y29000D01*
X-175703Y30366D01*
X-176477Y31523D01*
X-177634Y32297D01*
X-179000Y32569D01*
D02*
G37*
G36*
X186730Y26730D02*
X185842D01*
X186198Y26198D01*
X186730Y25842D01*
Y26730D01*
D02*
G37*
G36*
X-204730Y24658D02*
Y23770D01*
X-203842D01*
X-204198Y24302D01*
X-204730Y24658D01*
D02*
G37*
G36*
X-203842Y21230D02*
X-204730D01*
Y20342D01*
X-204198Y20698D01*
X-203842Y21230D01*
D02*
G37*
G36*
X-207270Y24658D02*
X-207802Y24302D01*
X-208158Y23770D01*
X-207270D01*
Y24658D01*
D02*
G37*
G36*
X221500Y27500D02*
D01*
D01*
X221500D01*
X220657Y26657D01*
Y26657D01*
D01*
D01*
X220657Y26602D01*
X220657D01*
D01*
Y26602D01*
X220657D01*
D01*
D01*
D01*
Y13343D01*
X220657D01*
X222000Y12000D01*
X222996D01*
X224354Y11730D01*
X225712Y12000D01*
X229842D01*
X231200Y11730D01*
X232558Y12000D01*
X235000D01*
X236000Y13000D01*
Y26000D01*
X234500Y27500D01*
X221555Y27500D01*
D01*
D01*
D01*
X221555Y27500D01*
Y27500D01*
X221500Y27500D01*
D02*
G37*
G36*
X-138659Y35175D02*
X-140025Y34903D01*
X-141183Y34130D01*
X-141956Y32972D01*
X-142228Y31606D01*
X-141956Y30240D01*
X-141183Y29083D01*
X-140025Y28309D01*
X-138659Y28038D01*
X-137294Y28309D01*
X-136136Y29083D01*
X-135363Y30240D01*
X-135091Y31606D01*
X-135363Y32972D01*
X-136136Y34130D01*
X-137294Y34903D01*
X-138659Y35175D01*
D02*
G37*
G36*
X215158Y26730D02*
X214270D01*
Y25842D01*
X214802Y26198D01*
X215158Y26730D01*
D02*
G37*
G36*
X190158D02*
X189270D01*
Y25842D01*
X189802Y26198D01*
X190158Y26730D01*
D02*
G37*
G36*
X211730D02*
X210842D01*
X211198Y26198D01*
X211730Y25842D01*
Y26730D01*
D02*
G37*
G36*
X-85270Y30336D02*
X-86158D01*
X-85802Y29804D01*
X-85270Y29448D01*
Y30336D01*
D02*
G37*
G36*
X139730Y34730D02*
X138842D01*
X139198Y34198D01*
X139730Y33842D01*
Y34730D01*
D02*
G37*
G36*
X143158D02*
X142270D01*
Y33842D01*
X142802Y34198D01*
X143158Y34730D01*
D02*
G37*
G36*
X-292037Y34658D02*
Y33770D01*
X-291149D01*
X-291504Y34302D01*
X-292037Y34658D01*
D02*
G37*
G36*
X-33090Y33978D02*
X-33978D01*
Y33090D01*
X-33446Y33446D01*
X-33090Y33978D01*
D02*
G37*
G36*
X-294577Y34658D02*
X-295109Y34302D01*
X-295465Y33770D01*
X-294577D01*
Y34658D01*
D02*
G37*
G36*
X266158Y34730D02*
X265270D01*
Y33842D01*
X265802Y34198D01*
X266158Y34730D01*
D02*
G37*
G36*
X-269500Y46069D02*
X-270865Y45797D01*
X-272023Y45023D01*
X-272797Y43865D01*
X-273068Y42500D01*
X-272797Y41134D01*
X-272023Y39976D01*
X-270865Y39203D01*
X-269500Y38931D01*
X-268691Y39092D01*
X-267793Y38194D01*
X-267931Y37500D01*
X-267660Y36134D01*
X-266886Y34976D01*
X-265728Y34203D01*
X-264363Y33931D01*
X-262997Y34203D01*
X-261839Y34976D01*
X-261066Y36134D01*
X-260794Y37500D01*
X-261066Y38865D01*
X-261839Y40023D01*
X-262997Y40797D01*
X-264363Y41069D01*
X-265171Y40908D01*
X-266069Y41806D01*
X-265931Y42500D01*
X-266203Y43865D01*
X-266977Y45023D01*
X-268134Y45797D01*
X-269500Y46069D01*
D02*
G37*
G36*
X262730Y34730D02*
X261842D01*
X262198Y34198D01*
X262730Y33842D01*
Y34730D01*
D02*
G37*
G36*
X147730D02*
X146842D01*
X147198Y34198D01*
X147730Y33842D01*
Y34730D01*
D02*
G37*
G36*
X151158D02*
X150270D01*
Y33842D01*
X150802Y34198D01*
X151158Y34730D01*
D02*
G37*
G36*
X202540Y33000D02*
X201652D01*
X202008Y32468D01*
X202540Y32112D01*
Y33000D01*
D02*
G37*
G36*
X205968D02*
X205080D01*
Y32112D01*
X205612Y32468D01*
X205968Y33000D01*
D02*
G37*
G36*
X-291149Y31230D02*
X-292037D01*
Y30342D01*
X-291504Y30698D01*
X-291149Y31230D01*
D02*
G37*
G36*
X-81842Y30336D02*
X-82730D01*
Y29448D01*
X-82198Y29804D01*
X-81842Y30336D01*
D02*
G37*
G36*
X-294577Y31230D02*
X-295465D01*
X-295109Y30698D01*
X-294577Y30342D01*
Y31230D01*
D02*
G37*
G36*
X233856Y33776D02*
X232968D01*
Y32888D01*
X233500Y33244D01*
X233856Y33776D01*
D02*
G37*
G36*
X-36518Y33978D02*
X-37406D01*
X-37050Y33446D01*
X-36518Y33090D01*
Y33978D01*
D02*
G37*
G36*
X230428Y33776D02*
X229540D01*
X229896Y33244D01*
X230428Y32888D01*
Y33776D01*
D02*
G37*
G36*
X-85270Y33764D02*
X-85802Y33409D01*
X-86158Y32876D01*
X-85270D01*
Y33764D01*
D02*
G37*
G36*
X-82730D02*
Y32876D01*
X-81842D01*
X-82198Y33409D01*
X-82730Y33764D01*
D02*
G37*
G36*
X41691Y47756D02*
Y46868D01*
X42579D01*
X42223Y47400D01*
X41691Y47756D01*
D02*
G37*
G36*
X-259270Y64658D02*
X-259802Y64302D01*
X-260158Y63770D01*
X-259270D01*
Y64658D01*
D02*
G37*
G36*
X-256730D02*
Y63770D01*
X-255842D01*
X-256198Y64302D01*
X-256730Y64658D01*
D02*
G37*
G36*
X-292037D02*
Y63770D01*
X-291149D01*
X-291504Y64302D01*
X-292037Y64658D01*
D02*
G37*
G36*
X48691Y61756D02*
Y60868D01*
X49579D01*
X49223Y61400D01*
X48691Y61756D01*
D02*
G37*
G36*
X-294577Y64658D02*
X-295109Y64302D01*
X-295465Y63770D01*
X-294577D01*
Y64658D01*
D02*
G37*
G36*
X-195842Y66230D02*
X-196730D01*
Y65342D01*
X-196198Y65698D01*
X-195842Y66230D01*
D02*
G37*
G36*
X202730Y66730D02*
X201842D01*
X202198Y66198D01*
X202730Y65842D01*
Y66730D01*
D02*
G37*
G36*
X-199270Y66230D02*
X-200158D01*
X-199802Y65698D01*
X-199270Y65342D01*
Y66230D01*
D02*
G37*
G36*
X-269500Y76068D02*
X-270865Y75797D01*
X-272023Y75023D01*
X-272797Y73865D01*
X-273068Y72500D01*
X-272797Y71134D01*
X-272023Y69977D01*
X-270865Y69203D01*
X-269500Y68931D01*
X-268691Y69092D01*
X-267793Y68194D01*
X-267931Y67500D01*
X-267660Y66134D01*
X-266886Y64977D01*
X-265728Y64203D01*
X-264363Y63931D01*
X-262997Y64203D01*
X-261839Y64977D01*
X-261066Y66134D01*
X-260794Y67500D01*
X-261066Y68865D01*
X-261839Y70023D01*
X-262997Y70797D01*
X-264363Y71068D01*
X-265171Y70908D01*
X-266069Y71806D01*
X-265931Y72500D01*
X-266203Y73865D01*
X-266977Y75023D01*
X-268134Y75797D01*
X-269500Y76068D01*
D02*
G37*
G36*
X225000Y71569D02*
X223634Y71297D01*
X222477Y70523D01*
X221703Y69366D01*
X221431Y68000D01*
X221703Y66634D01*
X222477Y65477D01*
X223634Y64703D01*
X225000Y64431D01*
X226366Y64703D01*
X227523Y65477D01*
X228297Y66634D01*
X228569Y68000D01*
X228297Y69366D01*
X227523Y70523D01*
X226366Y71297D01*
X225000Y71569D01*
D02*
G37*
G36*
X-259270Y61230D02*
X-260158D01*
X-259802Y60697D01*
X-259270Y60342D01*
Y61230D01*
D02*
G37*
G36*
X-255842D02*
X-256730D01*
Y60342D01*
X-256198Y60697D01*
X-255842Y61230D01*
D02*
G37*
G36*
X-291149D02*
X-292037D01*
Y60342D01*
X-291504Y60697D01*
X-291149Y61230D01*
D02*
G37*
G36*
X49579Y58328D02*
X48691D01*
Y57440D01*
X49223Y57796D01*
X49579Y58328D01*
D02*
G37*
G36*
X-294577Y61230D02*
X-295465D01*
X-295109Y60697D01*
X-294577Y60342D01*
Y61230D01*
D02*
G37*
G36*
X41691Y61756D02*
Y60868D01*
X42579D01*
X42223Y61400D01*
X41691Y61756D01*
D02*
G37*
G36*
X46151D02*
X45619Y61400D01*
X45263Y60868D01*
X46151D01*
Y61756D01*
D02*
G37*
G36*
X39151D02*
X38619Y61400D01*
X38263Y60868D01*
X39151D01*
Y61756D01*
D02*
G37*
G36*
X32151D02*
X31618Y61400D01*
X31263Y60868D01*
X32151D01*
Y61756D01*
D02*
G37*
G36*
X34691D02*
Y60868D01*
X35579D01*
X35223Y61400D01*
X34691Y61756D01*
D02*
G37*
G36*
X206158Y66730D02*
X205270D01*
Y65842D01*
X205802Y66198D01*
X206158Y66730D01*
D02*
G37*
G36*
X-63842Y74730D02*
X-64730D01*
Y73842D01*
X-64198Y74198D01*
X-63842Y74730D01*
D02*
G37*
G36*
X-294577Y76230D02*
X-295465D01*
X-295109Y75697D01*
X-294577Y75342D01*
Y76230D01*
D02*
G37*
G36*
X-67270Y74730D02*
X-68158D01*
X-67802Y74198D01*
X-67270Y73842D01*
Y74730D01*
D02*
G37*
G36*
X120217Y74645D02*
X119684Y74289D01*
X119329Y73757D01*
X120217D01*
Y74645D01*
D02*
G37*
G36*
X122757D02*
Y73757D01*
X123645D01*
X123289Y74289D01*
X122757Y74645D01*
D02*
G37*
G36*
X-199608Y81230D02*
X-201230D01*
Y79061D01*
X-201198Y79014D01*
X-201297Y78866D01*
X-201569Y77500D01*
X-201457Y76938D01*
X-202355Y76040D01*
X-202500Y76069D01*
X-203865Y75797D01*
X-205023Y75023D01*
X-205797Y73866D01*
X-206068Y72500D01*
X-205797Y71134D01*
X-205023Y69977D01*
X-203865Y69203D01*
X-202500Y68931D01*
X-201293Y69171D01*
X-200892Y68770D01*
X-199270D01*
Y70939D01*
X-199302Y70986D01*
X-199203Y71134D01*
X-198931Y72500D01*
X-199043Y73062D01*
X-198145Y73960D01*
X-198000Y73931D01*
X-196634Y74203D01*
X-195477Y74977D01*
X-194703Y76134D01*
X-194431Y77500D01*
X-194703Y78866D01*
X-195477Y80023D01*
X-196634Y80797D01*
X-198000Y81069D01*
X-199207Y80829D01*
X-199608Y81230D01*
D02*
G37*
G36*
X-67270Y78158D02*
X-67802Y77802D01*
X-68158Y77270D01*
X-67270D01*
Y78158D01*
D02*
G37*
G36*
X-255842Y76230D02*
X-256730D01*
Y75342D01*
X-256198Y75697D01*
X-255842Y76230D01*
D02*
G37*
G36*
X-291149D02*
X-292037D01*
Y75342D01*
X-291504Y75697D01*
X-291149Y76230D01*
D02*
G37*
G36*
X-259270D02*
X-260158D01*
X-259802Y75697D01*
X-259270Y75342D01*
Y76230D01*
D02*
G37*
G36*
X191254Y71206D02*
X190366D01*
X190722Y70673D01*
X191254Y70318D01*
Y71206D01*
D02*
G37*
G36*
X194683D02*
X193794D01*
Y70318D01*
X194327Y70673D01*
X194683Y71206D01*
D02*
G37*
G36*
X205270Y70158D02*
Y69270D01*
X206158D01*
X205802Y69802D01*
X205270Y70158D01*
D02*
G37*
G36*
X-196730Y69658D02*
Y68770D01*
X-195842D01*
X-196198Y69302D01*
X-196730Y69658D01*
D02*
G37*
G36*
X202730Y70158D02*
X202198Y69802D01*
X201842Y69270D01*
X202730D01*
Y70158D01*
D02*
G37*
G36*
X191254Y74634D02*
X190722Y74278D01*
X190366Y73746D01*
X191254D01*
Y74634D01*
D02*
G37*
G36*
X193794D02*
Y73746D01*
X194683D01*
X194327Y74278D01*
X193794Y74634D01*
D02*
G37*
G36*
X-159050Y78119D02*
X-160416Y77847D01*
X-161573Y77073D01*
X-162347Y75916D01*
X-162619Y74550D01*
X-162347Y73184D01*
X-161573Y72027D01*
X-160416Y71253D01*
X-159050Y70981D01*
X-157684Y71253D01*
X-156527Y72027D01*
X-155753Y73184D01*
X-155481Y74550D01*
X-155753Y75916D01*
X-156527Y77073D01*
X-157684Y77847D01*
X-159050Y78119D01*
D02*
G37*
G36*
X120217Y71217D02*
X119329D01*
X119684Y70684D01*
X120217Y70329D01*
Y71217D01*
D02*
G37*
G36*
X123645D02*
X122757D01*
Y70329D01*
X123289Y70684D01*
X123645Y71217D01*
D02*
G37*
G36*
X32151Y51328D02*
X31263D01*
X31618Y50795D01*
X32151Y50440D01*
Y51328D01*
D02*
G37*
G36*
X35579D02*
X34691D01*
Y50440D01*
X35223Y50795D01*
X35579Y51328D01*
D02*
G37*
G36*
X-196259Y50148D02*
Y49260D01*
X-195371D01*
X-195727Y49793D01*
X-196259Y50148D01*
D02*
G37*
G36*
X-269500Y61068D02*
X-270865Y60797D01*
X-272023Y60023D01*
X-272797Y58865D01*
X-273068Y57500D01*
X-272797Y56134D01*
X-272023Y54977D01*
X-270865Y54203D01*
X-269500Y53931D01*
X-268691Y54092D01*
X-267793Y53194D01*
X-267931Y52500D01*
X-267660Y51134D01*
X-266886Y49977D01*
X-265728Y49203D01*
X-264363Y48931D01*
X-262997Y49203D01*
X-261839Y49977D01*
X-261066Y51134D01*
X-260794Y52500D01*
X-261066Y53865D01*
X-261839Y55023D01*
X-262997Y55797D01*
X-264363Y56068D01*
X-265171Y55908D01*
X-266069Y56806D01*
X-265931Y57500D01*
X-266203Y58865D01*
X-266977Y60023D01*
X-268134Y60797D01*
X-269500Y61068D01*
D02*
G37*
G36*
X-198799Y50148D02*
X-199331Y49793D01*
X-199687Y49260D01*
X-198799D01*
Y50148D01*
D02*
G37*
G36*
X49579Y51328D02*
X48691D01*
Y50440D01*
X49223Y50795D01*
X49579Y51328D01*
D02*
G37*
G36*
X-25010Y51418D02*
X-25542Y51063D01*
X-25898Y50530D01*
X-25010D01*
Y51418D01*
D02*
G37*
G36*
X46151Y51328D02*
X45263D01*
X45619Y50795D01*
X46151Y50440D01*
Y51328D01*
D02*
G37*
G36*
X39151D02*
X38263D01*
X38619Y50795D01*
X39151Y50440D01*
Y51328D01*
D02*
G37*
G36*
X42579D02*
X41691D01*
Y50440D01*
X42223Y50795D01*
X42579Y51328D01*
D02*
G37*
G36*
X-21582Y47990D02*
X-22470D01*
Y47102D01*
X-21937Y47458D01*
X-21582Y47990D01*
D02*
G37*
G36*
X224730Y48730D02*
X223842D01*
X224198Y48198D01*
X224730Y47842D01*
Y48730D01*
D02*
G37*
G36*
X-25010Y47990D02*
X-25898D01*
X-25542Y47458D01*
X-25010Y47102D01*
Y47990D01*
D02*
G37*
G36*
X46151Y47756D02*
X45619Y47400D01*
X45263Y46868D01*
X46151D01*
Y47756D01*
D02*
G37*
G36*
X48691D02*
Y46868D01*
X49579D01*
X49223Y47400D01*
X48691Y47756D01*
D02*
G37*
G36*
X-231770Y49658D02*
X-232302Y49302D01*
X-232658Y48770D01*
X-231770D01*
Y49658D01*
D02*
G37*
G36*
X-229230D02*
Y48770D01*
X-228342D01*
X-228697Y49302D01*
X-229230Y49658D01*
D02*
G37*
G36*
X-292037D02*
Y48770D01*
X-291149D01*
X-291504Y49302D01*
X-292037Y49658D01*
D02*
G37*
G36*
X228158Y48730D02*
X227270D01*
Y47842D01*
X227802Y48198D01*
X228158Y48730D01*
D02*
G37*
G36*
X-294577Y49658D02*
X-295109Y49302D01*
X-295465Y48770D01*
X-294577D01*
Y49658D01*
D02*
G37*
G36*
X-22470Y51418D02*
Y50530D01*
X-21582D01*
X-21937Y51063D01*
X-22470Y51418D01*
D02*
G37*
G36*
X229572Y57428D02*
X229039Y57072D01*
X228684Y56540D01*
X229572D01*
Y57428D01*
D02*
G37*
G36*
X232112D02*
Y56540D01*
X233000D01*
X232644Y57072D01*
X232112Y57428D01*
D02*
G37*
G36*
X160632Y62569D02*
X159266Y62297D01*
X158109Y61523D01*
X157335Y60366D01*
X157063Y59000D01*
X157335Y57634D01*
X158109Y56477D01*
X159266Y55703D01*
X160632Y55431D01*
X161998Y55703D01*
X163155Y56477D01*
X163929Y57634D01*
X164200Y59000D01*
X163929Y60366D01*
X163155Y61523D01*
X161998Y62297D01*
X160632Y62569D01*
D02*
G37*
G36*
X-205984Y65727D02*
X-207349Y65455D01*
X-208507Y64682D01*
X-209281Y63524D01*
X-209552Y62158D01*
X-209281Y60793D01*
X-208507Y59635D01*
X-207349Y58861D01*
X-205984Y58590D01*
X-205422Y58701D01*
X-204524Y57803D01*
X-204585Y57500D01*
X-204313Y56134D01*
X-203540Y54977D01*
X-202382Y54203D01*
X-201016Y53931D01*
X-199650Y54203D01*
X-198493Y54977D01*
X-197719Y56134D01*
X-197448Y57500D01*
X-197719Y58866D01*
X-198493Y60023D01*
X-199650Y60797D01*
X-201016Y61069D01*
X-201578Y60957D01*
X-202476Y61855D01*
X-202415Y62158D01*
X-202687Y63524D01*
X-203461Y64682D01*
X-204618Y65455D01*
X-205984Y65727D01*
D02*
G37*
G36*
X-105630Y61569D02*
X-106995Y61297D01*
X-108153Y60523D01*
X-108926Y59366D01*
X-109198Y58000D01*
X-108926Y56634D01*
X-108153Y55477D01*
X-106995Y54703D01*
X-105630Y54431D01*
X-104264Y54703D01*
X-103106Y55477D01*
X-102333Y56634D01*
X-102061Y58000D01*
X-102333Y59366D01*
X-103106Y60523D01*
X-104264Y61297D01*
X-105630Y61569D01*
D02*
G37*
G36*
X42579Y58328D02*
X41691D01*
Y57440D01*
X42223Y57796D01*
X42579Y58328D01*
D02*
G37*
G36*
X46151D02*
X45263D01*
X45619Y57796D01*
X46151Y57440D01*
Y58328D01*
D02*
G37*
G36*
X39151D02*
X38263D01*
X38619Y57796D01*
X39151Y57440D01*
Y58328D01*
D02*
G37*
G36*
X32151D02*
X31263D01*
X31618Y57796D01*
X32151Y57440D01*
Y58328D01*
D02*
G37*
G36*
X35579D02*
X34691D01*
Y57440D01*
X35223Y57796D01*
X35579Y58328D01*
D02*
G37*
G36*
X233000Y54000D02*
X232112D01*
Y53112D01*
X232644Y53468D01*
X233000Y54000D01*
D02*
G37*
G36*
X32151Y54756D02*
X31618Y54400D01*
X31263Y53868D01*
X32151D01*
Y54756D01*
D02*
G37*
G36*
X229572Y54000D02*
X228684D01*
X229039Y53468D01*
X229572Y53112D01*
Y54000D01*
D02*
G37*
G36*
X224730Y52158D02*
X224198Y51802D01*
X223842Y51270D01*
X224730D01*
Y52158D01*
D02*
G37*
G36*
X227270D02*
Y51270D01*
X228158D01*
X227802Y51802D01*
X227270Y52158D01*
D02*
G37*
G36*
X46151Y54756D02*
X45619Y54400D01*
X45263Y53868D01*
X46151D01*
Y54756D01*
D02*
G37*
G36*
X48691D02*
Y53868D01*
X49579D01*
X49223Y54400D01*
X48691Y54756D01*
D02*
G37*
G36*
X41691D02*
Y53868D01*
X42579D01*
X42223Y54400D01*
X41691Y54756D01*
D02*
G37*
G36*
X34691D02*
Y53868D01*
X35579D01*
X35223Y54400D01*
X34691Y54756D01*
D02*
G37*
G36*
X39151D02*
X38619Y54400D01*
X38263Y53868D01*
X39151D01*
Y54756D01*
D02*
G37*
%LPD*%
D33*
X-290000Y190000D02*
G03*
X-300000Y180000I0J-10000D01*
G01*
Y-180000D02*
G03*
X-290000Y-190000I10000J0D01*
G01*
X299941Y180000D02*
G03*
X289941Y190000I-10000J0D01*
G01*
Y-190000D02*
G03*
X299941Y-180000I0J10000D01*
G01*
X-290000Y190000D02*
X289941Y190000D01*
X-290000Y-190000D02*
X289941Y-190000D01*
X-300000Y-180000D02*
Y180000D01*
X300000Y-180000D02*
Y180000D01*
D39*
X-276200Y-132000D02*
D03*
Y132000D02*
D03*
X151866Y171866D02*
D03*
X60600Y-47400D02*
D03*
X42500Y107500D02*
D03*
X-197529Y47990D02*
D03*
X149000Y36000D02*
D03*
X-23740Y49260D02*
D03*
X164412Y169412D02*
D03*
X192524Y72476D02*
D03*
X109000Y-38000D02*
D03*
X186000Y143000D02*
D03*
X217633Y137795D02*
D03*
X121487Y72487D02*
D03*
X-258000Y77500D02*
D03*
X-269500Y-17500D02*
D03*
X-230500Y47500D02*
D03*
X42500Y-31500D02*
D03*
X116000Y121000D02*
D03*
X-258000Y107500D02*
D03*
X-246000Y-175000D02*
D03*
X-86000Y-146000D02*
D03*
X-23000Y-63000D02*
D03*
X-87610Y-94390D02*
D03*
X141000Y36000D02*
D03*
X98705Y117705D02*
D03*
X65000Y105000D02*
D03*
X61600Y93400D02*
D03*
X7655Y-8345D02*
D03*
X-144680Y17680D02*
D03*
X-125500Y168500D02*
D03*
X-35248Y35248D02*
D03*
X-84500Y-49500D02*
D03*
X-144680Y-100000D02*
D03*
X-118000Y-151000D02*
D03*
X-193700Y163700D02*
D03*
X-183198Y145198D02*
D03*
X-159050Y124950D02*
D03*
X-106000Y90000D02*
D03*
X-66000Y76000D02*
D03*
X-28000Y114000D02*
D03*
X-35000D02*
D03*
X-28000Y121000D02*
D03*
X-35000D02*
D03*
X-42000D02*
D03*
X33421Y45598D02*
D03*
Y52598D02*
D03*
Y59598D02*
D03*
X35270Y-149270D02*
D03*
X-6819Y-111500D02*
D03*
X-33000Y-144000D02*
D03*
X-37819Y-137500D02*
D03*
X162565Y-120980D02*
D03*
X-198000Y97500D02*
D03*
X-227000Y-84000D02*
D03*
X67000Y-70000D02*
D03*
X116000Y-185000D02*
D03*
X47421Y45598D02*
D03*
X40421Y52598D02*
D03*
Y45598D02*
D03*
X47421Y52598D02*
D03*
Y59598D02*
D03*
X40421D02*
D03*
X-202500Y82500D02*
D03*
X-198000Y67500D02*
D03*
X-225500Y-22500D02*
D03*
X-230500Y-7500D02*
D03*
X-201000Y37500D02*
D03*
X-206000Y22500D02*
D03*
X-200500Y7500D02*
D03*
X69000Y172366D02*
D03*
X264000Y36000D02*
D03*
X232000Y-42500D02*
D03*
X258158Y-4270D02*
D03*
X257730Y5842D02*
D03*
X263000Y1000D02*
D03*
X231698Y35046D02*
D03*
X226428Y39888D02*
D03*
X231270Y45158D02*
D03*
X230842Y55270D02*
D03*
X226000Y50000D02*
D03*
X-258000Y62500D02*
D03*
Y92500D02*
D03*
X-293307Y107500D02*
D03*
Y122500D02*
D03*
X257000Y-67500D02*
D03*
X166632Y-35862D02*
D03*
X213000Y28000D02*
D03*
X188000D02*
D03*
X-84000Y31606D02*
D03*
X92500Y-30072D02*
D03*
X-258000Y122500D02*
D03*
X-245700Y-133049D02*
D03*
X-269500Y-107500D02*
D03*
X-293307Y-102500D02*
D03*
Y-77500D02*
D03*
Y-42500D02*
D03*
Y-12500D02*
D03*
Y12500D02*
D03*
Y32500D02*
D03*
Y47500D02*
D03*
Y62500D02*
D03*
Y77500D02*
D03*
Y92500D02*
D03*
X223000Y-141000D02*
D03*
X257000Y-82500D02*
D03*
X180500Y-65995D02*
D03*
X258000Y-183000D02*
D03*
X203810Y34270D02*
D03*
X252000Y130000D02*
D03*
X132480Y171866D02*
D03*
X-105000Y180642D02*
D03*
X-198500Y-142500D02*
D03*
X150678Y-68600D02*
D03*
X228000Y-128759D02*
D03*
X-251000Y-148000D02*
D03*
X295000Y-87500D02*
D03*
X204000Y68000D02*
D03*
X295000Y-22500D02*
D03*
Y-122500D02*
D03*
X257000Y-92500D02*
D03*
X170678Y-68600D02*
D03*
X176000Y-35494D02*
D03*
X155000Y-35828D02*
D03*
X135000Y-179500D02*
D03*
X172105Y-166980D02*
D03*
X-273000Y179000D02*
D03*
X-285000Y152000D02*
D03*
X-289000Y163000D02*
D03*
X-262000Y174000D02*
D03*
X-273000Y147000D02*
D03*
X-285000Y174000D02*
D03*
X-257000Y163000D02*
D03*
X-262000Y151000D02*
D03*
X-273000Y-147000D02*
D03*
X-285000Y-174000D02*
D03*
X-289000Y-163000D02*
D03*
X-262000Y-152000D02*
D03*
X-273000Y-179000D02*
D03*
X-285000Y-152000D02*
D03*
X-257000Y-163000D02*
D03*
X-262000Y-175000D02*
D03*
X273000Y-147000D02*
D03*
X261000Y-174000D02*
D03*
X257000Y-163000D02*
D03*
X284000Y-152000D02*
D03*
X273000Y-179000D02*
D03*
X261000Y-152000D02*
D03*
X289000Y-163000D02*
D03*
X284000Y-175000D02*
D03*
X273000Y179000D02*
D03*
X261000Y152000D02*
D03*
X257000Y163000D02*
D03*
X284000Y174000D02*
D03*
X273000Y147000D02*
D03*
X261000Y174000D02*
D03*
X289000Y163000D02*
D03*
X284000Y151000D02*
D03*
X133000Y-120000D02*
D03*
X92011Y-93000D02*
D03*
X92000Y-83000D02*
D03*
X12000Y14000D02*
D03*
D41*
X-273000Y163000D02*
D03*
Y-163000D02*
D03*
X273000D02*
D03*
Y163000D02*
D03*
D42*
X231700Y170000D02*
D03*
M02*
