%FSLAX44Y44*%
%MOMM*%
G71*
G01*
G75*
G04 Layer_Color=8388736*
%ADD10R,0.5000X0.6000*%
%ADD11R,1.0668X0.8128*%
%ADD12R,0.6000X0.5000*%
%ADD13R,0.8000X1.6000*%
%ADD14O,2.0320X0.6096*%
%ADD15R,2.0320X0.6096*%
%ADD16O,2.0000X0.3500*%
%ADD17R,1.5000X0.4000*%
G04:AMPARAMS|DCode=18|XSize=0.22mm|YSize=0.8mm|CornerRadius=0mm|HoleSize=0mm|Usage=FLASHONLY|Rotation=90.000|XOffset=0mm|YOffset=0mm|HoleType=Round|Shape=RoundedRectangle|*
%AMROUNDEDRECTD18*
21,1,0.2200,0.8000,0,0,90.0*
21,1,0.2200,0.8000,0,0,90.0*
1,1,0.0000,0.4000,0.1100*
1,1,0.0000,0.4000,-0.1100*
1,1,0.0000,-0.4000,-0.1100*
1,1,0.0000,-0.4000,0.1100*
%
%ADD18ROUNDEDRECTD18*%
G04:AMPARAMS|DCode=19|XSize=0.22mm|YSize=0.8mm|CornerRadius=0mm|HoleSize=0mm|Usage=FLASHONLY|Rotation=0.000|XOffset=0mm|YOffset=0mm|HoleType=Round|Shape=RoundedRectangle|*
%AMROUNDEDRECTD19*
21,1,0.2200,0.8000,0,0,0.0*
21,1,0.2200,0.8000,0,0,0.0*
1,1,0.0000,0.1100,-0.4000*
1,1,0.0000,-0.1100,-0.4000*
1,1,0.0000,-0.1100,0.4000*
1,1,0.0000,0.1100,0.4000*
%
%ADD19ROUNDEDRECTD19*%
%ADD20R,4.3000X4.3000*%
%ADD21R,1.4000X0.6000*%
%ADD22R,1.8000X0.2500*%
%ADD23R,1.2000X2.2000*%
%ADD24R,1.6000X1.4000*%
%ADD25R,1.1000X1.4000*%
%ADD26R,0.7000X1.6000*%
%ADD27R,0.6000X0.7000*%
%ADD28R,1.2000X1.4000*%
%ADD29P,1.8385X4X90.0*%
%ADD30R,0.8890X1.0160*%
%ADD31R,1.0160X0.8890*%
%ADD32C,0.4000*%
%ADD33C,0.2000*%
%ADD34C,0.3000*%
%ADD35C,0.2540*%
%ADD36C,0.1270*%
%ADD37C,0.5000*%
%ADD38C,0.6000*%
%ADD39C,0.5000*%
%ADD40C,0.3000*%
G04:AMPARAMS|DCode=41|XSize=4mm|YSize=4mm|CornerRadius=2mm|HoleSize=0mm|Usage=FLASHONLY|Rotation=0.000|XOffset=0mm|YOffset=0mm|HoleType=Round|Shape=RoundedRectangle|*
%AMROUNDEDRECTD41*
21,1,4.0000,0.0000,0,0,0.0*
21,1,0.0000,4.0000,0,0,0.0*
1,1,4.0000,0.0000,0.0000*
1,1,4.0000,0.0000,0.0000*
1,1,4.0000,0.0000,0.0000*
1,1,4.0000,0.0000,0.0000*
%
%ADD41ROUNDEDRECTD41*%
%ADD42R,1.5240X1.5240*%
%ADD43C,1.5240*%
%ADD44C,0.8000*%
%ADD45R,0.8128X1.0668*%
%ADD46P,1.8385X4X180.0*%
%ADD47R,1.3970X1.3970*%
%ADD48R,2.1000X0.8000*%
%ADD49R,3.0000X2.1000*%
%ADD50R,1.6000X1.2000*%
%ADD51R,1.2000X1.8000*%
%ADD52R,1.0000X1.6000*%
%ADD53R,0.7500X0.2000*%
%ADD54R,0.2000X0.7500*%
%ADD55C,0.8000*%
%ADD56R,0.4064X0.5500*%
%ADD57R,0.3048X0.5500*%
%ADD58R,0.8128X0.8128*%
%ADD59R,1.6000X2.2000*%
G04:AMPARAMS|DCode=60|XSize=2mm|YSize=2mm|CornerRadius=0mm|HoleSize=0mm|Usage=FLASHONLY|Rotation=180.000|XOffset=0mm|YOffset=0mm|HoleType=Round|Shape=RoundedRectangle|*
%AMROUNDEDRECTD60*
21,1,2.0000,2.0000,0,0,180.0*
21,1,2.0000,2.0000,0,0,180.0*
1,1,0.0000,-1.0000,1.0000*
1,1,0.0000,1.0000,1.0000*
1,1,0.0000,1.0000,-1.0000*
1,1,0.0000,-1.0000,-1.0000*
%
%ADD60ROUNDEDRECTD60*%
%ADD61R,0.8128X0.8128*%
%ADD62R,2.4130X2.1844*%
%ADD63R,1.1000X0.3000*%
%ADD64R,2.1500X6.3000*%
%ADD65R,1.2000X2.0000*%
%ADD66R,0.7000X0.6000*%
%ADD67R,0.8000X2.1000*%
%ADD68R,2.1000X3.0000*%
%ADD69R,1.1000X0.5000*%
%ADD70R,0.7600X1.5200*%
%ADD71C,0.1999*%
%ADD72C,0.1250*%
%ADD73C,0.2032*%
%ADD74C,0.1000*%
%ADD75C,0.1200*%
%ADD76R,0.7040X0.8040*%
%ADD77R,1.2708X1.0168*%
%ADD78R,0.8040X0.7040*%
%ADD79R,1.0040X1.8040*%
%ADD80O,2.2360X0.8136*%
%ADD81R,2.2360X0.8136*%
%ADD82O,2.2040X0.5540*%
%ADD83R,1.7040X0.6040*%
G04:AMPARAMS|DCode=84|XSize=0.424mm|YSize=1.004mm|CornerRadius=0mm|HoleSize=0mm|Usage=FLASHONLY|Rotation=90.000|XOffset=0mm|YOffset=0mm|HoleType=Round|Shape=RoundedRectangle|*
%AMROUNDEDRECTD84*
21,1,0.4240,1.0040,0,0,90.0*
21,1,0.4240,1.0040,0,0,90.0*
1,1,0.0000,0.5020,0.2120*
1,1,0.0000,0.5020,-0.2120*
1,1,0.0000,-0.5020,-0.2120*
1,1,0.0000,-0.5020,0.2120*
%
%ADD84ROUNDEDRECTD84*%
G04:AMPARAMS|DCode=85|XSize=0.424mm|YSize=1.004mm|CornerRadius=0mm|HoleSize=0mm|Usage=FLASHONLY|Rotation=0.000|XOffset=0mm|YOffset=0mm|HoleType=Round|Shape=RoundedRectangle|*
%AMROUNDEDRECTD85*
21,1,0.4240,1.0040,0,0,0.0*
21,1,0.4240,1.0040,0,0,0.0*
1,1,0.0000,0.2120,-0.5020*
1,1,0.0000,-0.2120,-0.5020*
1,1,0.0000,-0.2120,0.5020*
1,1,0.0000,0.2120,0.5020*
%
%ADD85ROUNDEDRECTD85*%
%ADD86R,4.5040X4.5040*%
%ADD87R,1.6040X0.8040*%
%ADD88R,2.0040X0.4540*%
%ADD89R,1.4040X2.4040*%
%ADD90R,1.8040X1.6040*%
%ADD91R,1.3040X1.6040*%
%ADD92R,0.9040X1.8040*%
%ADD93R,0.8040X0.9040*%
%ADD94R,1.4040X1.6040*%
%ADD95P,2.1270X4X90.0*%
%ADD96R,1.0930X1.2200*%
%ADD97R,1.2200X1.0930*%
%ADD98C,0.7040*%
%ADD99C,0.5040*%
%ADD100C,0.2040*%
G04:AMPARAMS|DCode=101|XSize=4.204mm|YSize=4.204mm|CornerRadius=2.102mm|HoleSize=0mm|Usage=FLASHONLY|Rotation=0.000|XOffset=0mm|YOffset=0mm|HoleType=Round|Shape=RoundedRectangle|*
%AMROUNDEDRECTD101*
21,1,4.2040,0.0000,0,0,0.0*
21,1,0.0000,4.2040,0,0,0.0*
1,1,4.2040,0.0000,0.0000*
1,1,4.2040,0.0000,0.0000*
1,1,4.2040,0.0000,0.0000*
1,1,4.2040,0.0000,0.0000*
%
%ADD101ROUNDEDRECTD101*%
%ADD102R,1.7280X1.7280*%
%ADD103C,1.7280*%
D76*
X-42500Y-27187D02*
D03*
X-33500D02*
D03*
X193500Y-121000D02*
D03*
X184500D02*
D03*
X-21941Y-164000D02*
D03*
X-30941D02*
D03*
X-189500Y-103000D02*
D03*
X-180500D02*
D03*
X-168412Y-118412D02*
D03*
X-159411D02*
D03*
X-78691Y-94390D02*
D03*
X-69690D02*
D03*
X-239500Y-175000D02*
D03*
X-230500D02*
D03*
X-59500Y-164000D02*
D03*
X-50500D02*
D03*
X-84500Y-43000D02*
D03*
X-93500D02*
D03*
X-92000Y18000D02*
D03*
X-101000D02*
D03*
X-33500Y-2000D02*
D03*
X-42500D02*
D03*
X134500Y84000D02*
D03*
X143500D02*
D03*
X-33500Y-14690D02*
D03*
X-42500D02*
D03*
X181000Y-109000D02*
D03*
X190000D02*
D03*
X-33500Y-40000D02*
D03*
X-42500D02*
D03*
X-16323Y10510D02*
D03*
X-7323D02*
D03*
Y23010D02*
D03*
X-16323D02*
D03*
D77*
X-84544Y-3411D02*
D03*
Y-22487D02*
D03*
X-61608Y-12949D02*
D03*
X-138544Y-118412D02*
D03*
Y-137487D02*
D03*
X-115608Y-127949D02*
D03*
X89528Y62949D02*
D03*
X112464Y72487D02*
D03*
Y53411D02*
D03*
D78*
X141000Y28500D02*
D03*
Y19500D02*
D03*
X99000Y500D02*
D03*
Y-8500D02*
D03*
X42730Y-140270D02*
D03*
Y-149270D02*
D03*
X29982Y-116515D02*
D03*
Y-107515D02*
D03*
X-170000Y-88500D02*
D03*
Y-79500D02*
D03*
X141270Y-179500D02*
D03*
Y-170500D02*
D03*
X-76000Y-147500D02*
D03*
Y-138500D02*
D03*
X89000Y87500D02*
D03*
Y96500D02*
D03*
X123000Y-8500D02*
D03*
Y500D02*
D03*
X165270Y-150730D02*
D03*
Y-159730D02*
D03*
X141270Y-150730D02*
D03*
Y-159730D02*
D03*
X-76000Y-116500D02*
D03*
Y-125500D02*
D03*
X92000Y-170500D02*
D03*
Y-179500D02*
D03*
X104000D02*
D03*
Y-170500D02*
D03*
X116000D02*
D03*
Y-179500D02*
D03*
X128000D02*
D03*
Y-170500D02*
D03*
X153000Y-150730D02*
D03*
Y-159730D02*
D03*
X111000Y-8500D02*
D03*
Y500D02*
D03*
X135000Y-8500D02*
D03*
Y500D02*
D03*
X117000Y-93500D02*
D03*
Y-84500D02*
D03*
X109000Y-44500D02*
D03*
Y-53500D02*
D03*
Y-74500D02*
D03*
Y-65500D02*
D03*
X42730Y-128270D02*
D03*
Y-119270D02*
D03*
X58730Y-128270D02*
D03*
Y-119270D02*
D03*
Y-140270D02*
D03*
Y-149270D02*
D03*
X30000Y-85500D02*
D03*
Y-94500D02*
D03*
X-98000Y-136500D02*
D03*
Y-127500D02*
D03*
X-156000Y-79500D02*
D03*
Y-88500D02*
D03*
D79*
X221250Y-178000D02*
D03*
X208750D02*
D03*
X196250D02*
D03*
X183750D02*
D03*
X171250D02*
D03*
X158750D02*
D03*
D80*
X-50080Y-94390D02*
D03*
Y-81691D02*
D03*
Y-68991D02*
D03*
Y-56290D02*
D03*
X5800D02*
D03*
Y-68991D02*
D03*
Y-81691D02*
D03*
D81*
Y-94390D02*
D03*
D82*
X-51319Y-111500D02*
D03*
Y-118000D02*
D03*
Y-124500D02*
D03*
Y-131000D02*
D03*
Y-137500D02*
D03*
Y-144000D02*
D03*
Y-150500D02*
D03*
X6681Y-111500D02*
D03*
Y-118000D02*
D03*
Y-124500D02*
D03*
Y-131000D02*
D03*
Y-137500D02*
D03*
Y-144000D02*
D03*
Y-150500D02*
D03*
D83*
X-187500Y-161750D02*
D03*
Y-155250D02*
D03*
Y-148750D02*
D03*
Y-142250D02*
D03*
X-230500D02*
D03*
Y-148750D02*
D03*
Y-155250D02*
D03*
Y-161750D02*
D03*
D84*
X130678Y-49494D02*
D03*
Y-53494D02*
D03*
Y-57494D02*
D03*
Y-45494D02*
D03*
Y-41494D02*
D03*
Y-37494D02*
D03*
Y-33494D02*
D03*
Y-29494D02*
D03*
Y-61494D02*
D03*
Y-65494D02*
D03*
Y-73494D02*
D03*
Y-69494D02*
D03*
X190678Y-33495D02*
D03*
Y-29495D02*
D03*
Y-37494D02*
D03*
Y-41494D02*
D03*
Y-73494D02*
D03*
Y-69494D02*
D03*
Y-65494D02*
D03*
Y-61494D02*
D03*
Y-57494D02*
D03*
Y-45494D02*
D03*
Y-49495D02*
D03*
Y-53495D02*
D03*
D85*
X162678Y-21494D02*
D03*
X158678D02*
D03*
X154678D02*
D03*
X166678D02*
D03*
X170678D02*
D03*
X174678D02*
D03*
X178678D02*
D03*
X182678D02*
D03*
X150678D02*
D03*
X146678D02*
D03*
X138678D02*
D03*
X142678D02*
D03*
X182678Y-81495D02*
D03*
X178678D02*
D03*
X174678D02*
D03*
X170678D02*
D03*
X166678D02*
D03*
X138678D02*
D03*
X142678D02*
D03*
X146678D02*
D03*
X150678D02*
D03*
X154678D02*
D03*
X158678D02*
D03*
X162678D02*
D03*
D86*
X160678Y-51494D02*
D03*
D87*
X-158500Y-155800D02*
D03*
X-95500D02*
D03*
Y-164200D02*
D03*
X-158500D02*
D03*
D88*
X244700Y2500D02*
D03*
X282700D02*
D03*
Y7500D02*
D03*
X244700D02*
D03*
X282700Y12500D02*
D03*
X244700D02*
D03*
X282700Y17500D02*
D03*
X244700D02*
D03*
X282700Y22500D02*
D03*
X244700D02*
D03*
X282700Y27500D02*
D03*
X244700D02*
D03*
X282700Y32500D02*
D03*
X244700D02*
D03*
X282700Y37500D02*
D03*
X244700D02*
D03*
Y-2500D02*
D03*
X282700D02*
D03*
X244700Y-7500D02*
D03*
X282700D02*
D03*
X244700Y-12500D02*
D03*
X282700D02*
D03*
X244700Y-17500D02*
D03*
X282700D02*
D03*
X244700Y-22500D02*
D03*
X282700D02*
D03*
X244700Y-27500D02*
D03*
X282700D02*
D03*
X244700Y-32500D02*
D03*
X282700D02*
D03*
Y-37500D02*
D03*
X244700D02*
D03*
Y-122500D02*
D03*
X282700D02*
D03*
X244700Y-117500D02*
D03*
X282700D02*
D03*
Y-112500D02*
D03*
X244700D02*
D03*
X282700Y-107500D02*
D03*
X244700D02*
D03*
X282700Y-102500D02*
D03*
X244700D02*
D03*
X282700Y-97500D02*
D03*
X244700D02*
D03*
X282700Y-92500D02*
D03*
X244700D02*
D03*
X282700Y-87500D02*
D03*
X244700D02*
D03*
X282700Y-82500D02*
D03*
X244700D02*
D03*
Y-42500D02*
D03*
X282700D02*
D03*
X244700Y-47500D02*
D03*
X282700D02*
D03*
X244700Y-52500D02*
D03*
X282700D02*
D03*
X244700Y-57500D02*
D03*
X282700D02*
D03*
X244700Y-62500D02*
D03*
X282700D02*
D03*
X244700Y-67500D02*
D03*
X282700D02*
D03*
X244700Y-72500D02*
D03*
X282700D02*
D03*
Y-77500D02*
D03*
X244700D02*
D03*
Y72500D02*
D03*
X282700D02*
D03*
Y77500D02*
D03*
X244700D02*
D03*
X282700Y82500D02*
D03*
X244700D02*
D03*
X282700Y87500D02*
D03*
X244700D02*
D03*
X282700Y92500D02*
D03*
X244700D02*
D03*
X282700Y97500D02*
D03*
X244700D02*
D03*
X282700Y102500D02*
D03*
X244700D02*
D03*
X282700Y107500D02*
D03*
X244700D02*
D03*
Y67500D02*
D03*
X282700D02*
D03*
X244700Y62500D02*
D03*
X282700D02*
D03*
X244700Y57500D02*
D03*
X282700D02*
D03*
X244700Y52500D02*
D03*
X282700D02*
D03*
X244700Y47500D02*
D03*
X282700D02*
D03*
X244700Y42500D02*
D03*
X282700D02*
D03*
X244700Y112500D02*
D03*
X282700D02*
D03*
Y117500D02*
D03*
X244700D02*
D03*
X282700Y122500D02*
D03*
X244700D02*
D03*
X-245700Y2500D02*
D03*
Y7500D02*
D03*
Y12500D02*
D03*
Y17500D02*
D03*
Y22500D02*
D03*
Y27500D02*
D03*
Y32500D02*
D03*
Y37500D02*
D03*
Y-2500D02*
D03*
Y-7500D02*
D03*
Y-12500D02*
D03*
Y-17500D02*
D03*
Y-22500D02*
D03*
Y-27500D02*
D03*
Y-32500D02*
D03*
Y-37500D02*
D03*
Y-122500D02*
D03*
Y-117500D02*
D03*
Y-112500D02*
D03*
Y-107500D02*
D03*
Y-102500D02*
D03*
Y-97500D02*
D03*
Y-92500D02*
D03*
Y-87500D02*
D03*
Y-82500D02*
D03*
Y-42500D02*
D03*
Y-47500D02*
D03*
Y-52500D02*
D03*
Y-57500D02*
D03*
Y-62500D02*
D03*
Y-67500D02*
D03*
Y-72500D02*
D03*
Y-77500D02*
D03*
Y72500D02*
D03*
Y77500D02*
D03*
Y82500D02*
D03*
Y87500D02*
D03*
Y92500D02*
D03*
Y97500D02*
D03*
Y102500D02*
D03*
Y107500D02*
D03*
Y67500D02*
D03*
Y62500D02*
D03*
Y57500D02*
D03*
Y52500D02*
D03*
Y47500D02*
D03*
Y42500D02*
D03*
Y112500D02*
D03*
Y117500D02*
D03*
Y122500D02*
D03*
X-281700D02*
D03*
Y117500D02*
D03*
Y112500D02*
D03*
Y42500D02*
D03*
Y47500D02*
D03*
Y52500D02*
D03*
Y57500D02*
D03*
Y62500D02*
D03*
Y67500D02*
D03*
Y107500D02*
D03*
Y102500D02*
D03*
Y97500D02*
D03*
Y92500D02*
D03*
Y87500D02*
D03*
Y82500D02*
D03*
Y77500D02*
D03*
Y72500D02*
D03*
Y-77500D02*
D03*
Y-72500D02*
D03*
Y-67500D02*
D03*
Y-62500D02*
D03*
Y-57500D02*
D03*
Y-52500D02*
D03*
Y-47500D02*
D03*
Y-42500D02*
D03*
Y-82500D02*
D03*
Y-87500D02*
D03*
Y-92500D02*
D03*
Y-97500D02*
D03*
Y-102500D02*
D03*
Y-107500D02*
D03*
Y-112500D02*
D03*
Y-117500D02*
D03*
Y-122500D02*
D03*
Y-37500D02*
D03*
Y-32500D02*
D03*
Y-27500D02*
D03*
Y-22500D02*
D03*
Y-17500D02*
D03*
Y-12500D02*
D03*
Y-7500D02*
D03*
Y-2500D02*
D03*
Y37500D02*
D03*
Y32500D02*
D03*
Y27500D02*
D03*
Y22500D02*
D03*
Y17500D02*
D03*
Y12500D02*
D03*
Y7500D02*
D03*
Y2500D02*
D03*
D89*
X-193626Y145198D02*
D03*
X-38539Y145201D02*
D03*
D90*
X-184616Y49201D02*
D03*
D91*
X-38596Y49111D02*
D03*
D92*
X-138659Y44118D02*
D03*
X-127606D02*
D03*
X-116646D02*
D03*
X-105630D02*
D03*
X-94590D02*
D03*
X-83623D02*
D03*
X-72656D02*
D03*
X-61606D02*
D03*
X-50653D02*
D03*
D93*
X-46100Y26000D02*
D03*
X-31900D02*
D03*
Y11000D02*
D03*
X-46100D02*
D03*
D94*
X92500Y-44000D02*
D03*
Y-66000D02*
D03*
X77500D02*
D03*
Y-44000D02*
D03*
D95*
X183000Y50000D02*
D03*
X161000Y28000D02*
D03*
D96*
X217001Y50000D02*
D03*
X200999D02*
D03*
D97*
X203810Y26271D02*
D03*
Y10269D02*
D03*
D98*
X276200Y132000D02*
D03*
Y-132000D02*
D03*
X-276200D02*
D03*
Y132000D02*
D03*
X151866Y171866D02*
D03*
X60600Y-47400D02*
D03*
X42500Y107500D02*
D03*
X77000Y145000D02*
D03*
X-185000Y-66000D02*
D03*
X182000Y102000D02*
D03*
X177000Y107000D02*
D03*
X172000Y102000D02*
D03*
X-197529Y47990D02*
D03*
X149000Y36000D02*
D03*
X-23740Y49260D02*
D03*
X164412Y169412D02*
D03*
X192524Y72476D02*
D03*
X109000Y-38000D02*
D03*
X186000Y143000D02*
D03*
X217633Y137795D02*
D03*
X121487Y72487D02*
D03*
X-258000Y77500D02*
D03*
X-269500Y-17500D02*
D03*
X-230500Y47500D02*
D03*
X42500Y-31500D02*
D03*
X116000Y121000D02*
D03*
X-258000Y107500D02*
D03*
X-246000Y-175000D02*
D03*
X-86000Y-146000D02*
D03*
X-23000Y-63000D02*
D03*
X-87610Y-94390D02*
D03*
X141000Y36000D02*
D03*
X98705Y117705D02*
D03*
X65000Y105000D02*
D03*
X61600Y93400D02*
D03*
X213000Y84000D02*
D03*
X202000Y93000D02*
D03*
X7655Y-8345D02*
D03*
X-144680Y17680D02*
D03*
X-125500Y168500D02*
D03*
X-35248Y35248D02*
D03*
X-147500Y-52500D02*
D03*
X-101000Y3631D02*
D03*
X-156000Y-52500D02*
D03*
X-84500Y-49500D02*
D03*
X-144680Y-100000D02*
D03*
X-118000Y-151000D02*
D03*
X29982Y-136982D02*
D03*
X-215250Y-161750D02*
D03*
X-193700Y163700D02*
D03*
X-183198Y145198D02*
D03*
X-159050Y124950D02*
D03*
X-106000Y90000D02*
D03*
X-66000Y76000D02*
D03*
X61000Y154000D02*
D03*
X70000D02*
D03*
X79000D02*
D03*
X89000D02*
D03*
X96500Y96500D02*
D03*
X286500Y-131500D02*
D03*
X265000Y-73000D02*
D03*
X35270Y-149270D02*
D03*
X-6819Y-111500D02*
D03*
X-33000Y-144000D02*
D03*
X-37819Y-137500D02*
D03*
X-138659Y31606D02*
D03*
X-162000Y-43000D02*
D03*
X-156196Y-30000D02*
D03*
X-127606Y31606D02*
D03*
X-116646D02*
D03*
X-94590D02*
D03*
X-72656D02*
D03*
X-61606D02*
D03*
X-72000Y14250D02*
D03*
X-50500Y-156000D02*
D03*
X-156000Y-69600D02*
D03*
X36434Y-86515D02*
D03*
X41000Y118000D02*
D03*
X-118500Y107843D02*
D03*
X-16323Y33000D02*
D03*
X-170080Y-97920D02*
D03*
X-195416Y-103000D02*
D03*
X-260000Y-117000D02*
D03*
X-50500Y-101340D02*
D03*
X-84500Y-76500D02*
D03*
X-26000Y-40000D02*
D03*
Y-27390D02*
D03*
X-98000Y-143000D02*
D03*
X-174326Y-118412D02*
D03*
X-226500Y-112500D02*
D03*
X-231500Y-107500D02*
D03*
X-214000Y-115000D02*
D03*
X-8500Y-144000D02*
D03*
X-7710Y-56290D02*
D03*
X162565Y-120980D02*
D03*
X58730Y-111770D02*
D03*
X42730D02*
D03*
X-59000Y119000D02*
D03*
X-159050Y137450D02*
D03*
X-179000Y29000D02*
D03*
X-174000Y22000D02*
D03*
X-198000Y97500D02*
D03*
X-227000Y-84000D02*
D03*
X-159050Y74550D02*
D03*
Y87050D02*
D03*
Y99750D02*
D03*
X-207636Y-76000D02*
D03*
X-205000Y-65000D02*
D03*
X-215000Y-87000D02*
D03*
X-67000Y-69000D02*
D03*
X200000Y102000D02*
D03*
X269500Y107500D02*
D03*
X58350Y-8650D02*
D03*
X95634Y172366D02*
D03*
X111000Y7000D02*
D03*
X116000Y-185000D02*
D03*
X151980Y181366D02*
D03*
X-7461Y-166461D02*
D03*
X17939Y-167061D02*
D03*
X56039Y-167039D02*
D03*
X81422Y-168064D02*
D03*
X201000Y-121000D02*
D03*
X-230500Y-17500D02*
D03*
X-225500Y-22500D02*
D03*
Y-12500D02*
D03*
X-230500Y-7500D02*
D03*
X-225500Y-2500D02*
D03*
X-230500Y2500D02*
D03*
X-218000Y-72500D02*
D03*
X-223000Y-77500D02*
D03*
X148000Y-3569D02*
D03*
X181000Y-7340D02*
D03*
X224000Y-26000D02*
D03*
X197000Y-11000D02*
D03*
X200000Y-2680D02*
D03*
X165000Y-144124D02*
D03*
X153000D02*
D03*
X141270Y-144230D02*
D03*
X201000Y-109000D02*
D03*
X179000Y-121000D02*
D03*
X201000Y-97000D02*
D03*
X133000Y-120000D02*
D03*
X117000D02*
D03*
X-105630Y58000D02*
D03*
X92011Y-93000D02*
D03*
X92000Y-83000D02*
D03*
X12000Y14000D02*
D03*
X2892Y23010D02*
D03*
D99*
X-146563Y149244D02*
D03*
D100*
X-66676Y149208D02*
D03*
D101*
X-273000Y163000D02*
D03*
Y-163000D02*
D03*
X273000D02*
D03*
Y163000D02*
D03*
D102*
X231700Y170000D02*
D03*
D103*
X206300D02*
D03*
M02*
