M48
;Layer_Color=9474304
;FILE_FORMAT=4:4
METRIC,LZ
;TYPE=PLATED
T1F00S00C0.2500
T2F00S00C0.6000
T3F00S00C1.0000
T4F00S00C2.2000
%
T01
X-00285Y-00174
X-00289Y-00163
X-00285Y-00152
X-00273Y-00147
X-00262Y-00152
X-00251Y-00148
X-002457Y-00133049
X-0026Y-00117
X-002695Y-001075
X-00293307Y-001025
Y-001175
Y-000875
Y-000775
X-00265Y-000825
X-002605Y-000875
X-00227Y-00084
X-00223Y-000775
X-00218Y-000725
X-00215Y-00087
X-0022Y-000975
X-002265Y-001125
X-002315Y-001075
X-00214Y-00115
X-0021525Y-0016175
X-00257Y-00163
X-00262Y-00175
X-00273Y-00179
X-00246Y-00175
X-002305Y-000175
X-002255Y-000225
Y-000125
X-002305Y-000075
X-002255Y-000025
X-002305Y000025
X-002255Y000175
X-00293307Y000125
Y-000125
X-002695Y-000175
X-00293307Y-000425
X-00205Y-00065
X-00207636Y-00076
X-00185Y-00066
X-00156Y-000696
Y-000525
X-001475
X-00162Y-00043
X-00156196Y-0003
X-0014468Y0001768
X-00174Y00022
X-00206Y000225
Y000125
X-002005Y000075
X-00101Y00003631
X-00072Y0001425
X-000845Y-000495
X-000845Y-000765
X-0008761Y-0009439
X-000505Y-0010134
X-00067Y-00069
X-00023Y-00063
X-0000771Y-0005629
X-00026Y-0004
Y-0002739
X00007655Y-00008345
X00012Y00014
X00002892Y0002301
X0005835Y-0000865
X000425Y-000315
X000606Y-000474
X00067Y-0007
X00092Y-00083
X00092011Y-00093
X0012Y-00072494
X00133178Y-00083744
X00149Y-00094494
X00170678Y-00092683
Y-000686
X001805Y-00065995
X00150678Y-000686
X00155Y-00035828
X00166632Y-00035862
X00176Y-00035494
X00181Y-0000734
X00160632Y-00013361
X00148Y-00003569
X00111Y00007
X00109Y-00038
X000925Y-00030072
X00036434Y-00086515
X0004273Y-0011177
X0005873
X00029982Y-00136982
X0003527Y-0014927
X00017939Y-00167061
X-00007461Y-00166461
X-000085Y-00144
X-00033
X-00037819Y-001375
X-000505Y-00156
X-00086Y-00146
X-00098Y-00143
X-00118Y-00151
X-00159Y-00143
X-00174326Y-00118412
X-0017008Y-0009792
X-0014468Y-001
X-00195416Y-00103
X-001985Y-001425
X-00006819Y-001115
X00056039Y-00167039
X00081422Y-00168064
X00116Y-00185
X00135Y-001795
X00135Y-0015946
X0014127Y-0014423
X00153Y-00144124
X00165
X00162565Y-0012098
X00179Y-00121
X00133Y-0012
X00117
X00172105Y-0016698
X0019625Y-00166
X0020875
X0022125
X00223Y-00141
X00228Y-00128759
X00201Y-00121
Y-00109
Y-00097
X00206Y-00080494
X00214Y-00078
X002115Y-00071994
X00209Y-00062494
X00217Y-00063494
X00222Y-00047494
X00213Y-00045494
X00207Y-00040494
X0020164Y-00035554
X00224491Y-00037546
X00224Y-00026
X00232Y-000275
Y-000175
Y-000425
X002605Y-000455
X00265Y-00041069
Y-000325
X00271Y-000275
X002595Y-00022
Y-000125
X00258158Y-0000427
X00263Y00001
X0025773Y00005842
X002312Y00015298
X00224354
Y000228
X002312
X00213Y00028
X00188
X002Y-0000268
X00197Y-00011
X00213Y00001431
X00295Y000075
Y-000225
Y-000325
Y-000425
Y-000775
Y-000875
X00271Y-000825
X00257Y-000825
Y-000925
Y-001025
Y-001125
X00263366Y-001175
X00261Y-00133
X00261Y-00152
X00257Y-00163
X00261Y-00174
X00258Y-00183
X00273Y-00179
X00284Y-00175
X00289Y-00163
X00284Y-00152
X00273Y-00147
X002865Y-001315
X00295Y-001225
X00263366Y-000975
X00265Y-00073
X00257Y-000675
X00271Y-000625
X00229934Y-00089703
X00188178Y-00081495
X0018875Y-0015458
X0020125
X0020381Y0003427
X00193Y00045
Y00053
X00192524Y00072476
X00204Y00068
X00225
X00230842Y0005527
X00226Y0005
X0023127Y00045158
X00226428Y00039888
X00231698Y00035046
X00264Y00036
X00295Y000675
X002695Y001075
X00252Y0013
X00261Y00152
X00257Y00163
X00261Y00174
X00273Y00179
X00284Y00174
X00289Y00163
X00284Y00151
X00273Y00147
X00217633Y00137795
X00186Y00143
X002Y00102
X00202Y00093
X00213Y00084
X00182Y00102
X00177Y00107
X00172Y00102
X00160632Y00059
X00149Y00036
X00141
X00121487Y00072487
X000965Y000965
X00098705Y00117705
X00116Y00121
Y00169
X0013248Y00171866
X00151866
X0015198Y00181366
X00164412Y00169412
X00095634Y00172366
X00089Y00154
X00079
X0007
X00061
X00077Y00145
X00069Y00172366
X00065Y00105
X000616Y000934
X000425Y001075
X00041Y00118
X00040421Y00059598
X00033421
Y00052598
Y00045598
X00040421
Y00052598
X00047421
Y00045598
Y00059598
X-0002374Y0004926
X-00016323Y00033
X-00035248Y00035248
X-00061606Y00031606
X-00072656
X-00084
X-0009459
X-00116646
X-00127606
X-00138659
X-00179Y00029
X-00201Y000375
X-00197529Y0004799
X-00205984Y000475
Y00062158
X-00201016Y000575
X-00198Y000675
X-002025Y000725
X-00198Y000775
X-002025Y000825
X-00198Y000875
X-002025Y000925
X-00198Y000975
X-0015905Y0009975
Y0008705
Y0007455
Y0012495
Y0013745
X-00183198Y00145198
X-001937Y001637
X-001255Y001685
X-00105Y00180642
X-001185Y00107843
X-00106Y0009
X-0010563Y00058
X-00066Y00076
X-00059Y00119
X-00042Y00121
X-00035
Y00114
X-00028
Y00121
X-00258Y001225
Y001075
X-00264363Y001125
X-002695Y001175
Y001025
X-00264363Y000975
X-00258Y000925
Y000775
X-00264363Y000825
X-002695Y000875
Y000725
X-00264363Y000675
X-00258Y000625
X-00264363Y000525
X-002695Y000575
Y000425
X-00264363Y000375
X-00293307Y000325
Y000475
Y000625
Y000775
Y000925
Y001075
Y001225
X-00285Y00152
X-00289Y00163
X-00285Y00174
X-00273Y00179
X-00262Y00174
X-00257Y00163
X-00262Y00151
X-00273Y00147
X-002305Y000475
X-002255Y000425
T02
X-002762Y-00132
X002762
Y00132
X-002762
T03
X002063Y0017
X002317
X-00066676Y00149208
X-00146563Y00149244
T04
X-00273Y-00163
X00273
Y00163
X-00273
M30
